<?xml version="1.0" encoding="UTF-8"?>
<!DOCTYPE svg PUBLIC "-//W3C//DTD SVG 1.1//EN" "http://www.w3.org/Graphics/SVG/1.1/DTD/svg11.dtd">
<!-- Creator: CorelDRAW X7 -->
<svg xmlns="http://www.w3.org/2000/svg" xml:space="preserve" width="282.31mm" height="144.727mm" version="1.1" style="shape-rendering:geometricPrecision; text-rendering:geometricPrecision; image-rendering:optimizeQuality; fill-rule:evenodd; clip-rule:evenodd"
viewBox="0 0 28231 14473"
 xmlns:xlink="http://www.w3.org/1999/xlink">
 <defs>
  <style type="text/css">
   <![CDATA[
    .fil0 {fill:none}
    .fil3 {fill:#2B2A29}
    .fil1 {fill:#9A3767}
    .fil2 {fill:#FBD995}
    .fil4 {fill:#FEFEFE;fill-rule:nonzero}
   ]]>
  </style>
    <clipPath id="id0">
     <path d="M21984 8430l21 7c-6,-4 -12,-10 -18,-15l-3 8zm685 -16c69,-101 93,-244 105,-353 13,-124 24,-249 35,-374 25,-293 47,-603 109,-890 36,-166 101,-407 252,-514 35,-47 76,-86 126,-111 190,-95 487,-104 691,-62 472,97 662,442 580,913 -41,238 -97,473 -158,707 -53,204 -110,408 -157,613 -48,208 -141,607 28,781 156,160 421,278 661,335 -85,-567 161,-1985 188,-2450 24,-427 -99,-838 -439,-1115 -392,-319 -940,-355 -1412,-217 -140,41 -301,104 -435,164 -15,7 -32,2 -40,-12 -96,-156 -253,-223 -421,-248 3,16 6,32 9,47 32,178 45,364 47,544 9,723 -154,1485 -368,2173 62,20 124,43 187,63 107,33 243,69 353,33 22,-7 42,-16 59,-27zm1451 -2147c143,68 246,170 308,298 -14,-36 -32,-70 -54,-103 -64,-92 -154,-154 -254,-195zm10 2839c15,39 36,75 65,104 94,96 228,178 372,240 -141,-65 -271,-148 -368,-247 -28,-29 -51,-62 -69,-97zm-18433 1254c4,6 20,12 32,15 -10,-6 -20,-13 -28,-22 -2,2 -4,5 -4,7zm4122 -1638c34,-40 55,-78 55,-110 -157,-778 -213,-1577 -160,-2369 30,-456 97,-896 197,-1341 5,-24 5,-48 -6,-70 -48,-108 -276,-126 -375,-126 -89,1 -188,11 -273,38 -7,2 -16,6 -27,10 -38,504 -119,1122 -324,1586 -54,124 -147,298 -273,401 -88,104 -198,182 -328,171 -211,-17 -341,-260 -406,-435 -123,-334 -146,-747 -132,-1099 14,-367 -119,-716 -472,-871 -194,-86 -418,-94 -621,-36 372,348 362,912 383,1391 12,281 22,610 150,866 151,304 441,450 755,536 231,63 467,43 685,-56 81,-37 175,-95 253,-162 7,-8 14,-17 20,-26 6,-8 14,-12 23,-13 24,-24 45,-48 63,-73 8,-11 23,-16 36,-11 14,5 22,17 21,32 -12,263 13,512 33,773 15,192 27,410 -47,591 -42,102 -106,183 -184,249 -89,106 -210,182 -341,241 -198,89 -440,126 -655,153 -202,25 -412,41 -611,83 -89,19 -205,49 -290,106 -129,211 -306,428 -504,620 -200,207 -428,391 -657,516 7,3 14,5 18,5 212,51 650,-63 858,-122 440,-123 880,-287 1301,-463 466,-193 945,-414 1380,-671 74,-43 304,-181 455,-314zm-3267 -4208l-8 3c114,95 196,207 256,331 -55,-125 -132,-238 -242,-329 -2,-2 -4,-3 -6,-5zm543 2242c8,20 17,39 26,58 112,224 299,362 516,454 -223,-102 -414,-254 -531,-489 -4,-8 -7,-15 -11,-23zm-3739 -1315l10 -2 -2 -1 -8 3zm845 128c340,157 605,428 757,757 -143,-335 -410,-609 -757,-757zm488 2453c-282,305 -686,496 -1134,496 -171,0 -340,-27 -502,-83l-118 -46c-1,0 -2,-1 -3,-1 -220,-108 -378,-313 -426,-554 -10,-51 -15,-102 -15,-154 0,-68 8,-136 26,-202 42,-159 130,-295 249,-397 146,-170 363,-275 599,-275 130,0 256,31 369,91 -48,-325 -204,-626 -446,-855 -154,-146 -338,-258 -539,-327 -153,-53 -318,-79 -480,-79 -597,0 -1138,233 -1540,613 -380,401 -613,943 -613,1540 0,397 104,784 304,1127 87,135 182,264 286,387 715,850 1760,1337 2871,1337 989,0 1919,-387 2609,-1056 194,-200 367,-423 515,-667 31,-51 61,-102 89,-154 168,-320 254,-675 254,-1036 0,-279 -52,-555 -153,-815l-97 -214c-256,-521 -631,-976 -1091,-1328l-12 -9c-222,-170 -463,-313 -718,-428 -11,-5 -18,-16 -18,-28 -1,-12 6,-23 17,-29 24,-13 49,-27 73,-41 -3,-5 -4,-10 -5,-16 0,-12 6,-23 17,-29 96,-51 187,-108 274,-172 -222,69 -454,104 -688,104 -152,0 -304,-15 -453,-45 0,0 -1,0 -1,0 -6,-1 -12,-2 -18,-3 -734,-151 -1355,-667 -1648,-1355 -56,-133 -100,-272 -130,-413 -17,-66 -24,-119 -32,-186 -1,-6 0,-12 2,-17 0,-4 0,-8 0,-12 0,-240 107,-454 275,-599 145,-168 360,-275 599,-275 184,0 361,63 502,180 52,44 99,93 138,148 97,135 149,295 149,460 0,155 -45,305 -129,432 261,-57 495,-183 683,-356 244,-265 392,-618 393,-1001 0,-1 0,-3 0,-4 0,-11 0,-21 0,-32 -7,-310 -109,-607 -295,-855 -177,-237 -421,-416 -700,-513 -165,-58 -339,-85 -514,-82l0 0c-587,7 -1118,240 -1513,615 -380,401 -613,943 -613,1538 0,324 70,643 205,937 59,121 135,247 209,360 233,354 524,667 861,925 53,40 107,80 162,117 318,217 667,385 1035,495 14,4 23,17 23,31 -1,15 -10,27 -24,30 -30,8 -59,15 -88,24l3 1c14,4 23,16 23,31 0,14 -10,26 -24,30 -19,5 -38,10 -57,15 184,3 368,38 541,107 590,232 979,802 979,1438 0,448 -192,852 -497,1134zm-1070 -1054c45,21 89,48 130,78l-1 -8c-40,-29 -84,-52 -129,-70zm-3407 1790c35,83 76,164 122,243 87,135 183,265 287,388 377,449 847,796 1370,1024 -522,-235 -992,-586 -1371,-1037 -107,-127 -205,-260 -295,-399 -1,-2 -2,-3 -3,-4 -40,-70 -77,-142 -110,-215zm3279 -6779c58,27 112,62 163,104 52,43 98,93 138,148 27,38 51,78 71,120 -20,-49 -46,-96 -77,-140 -34,-47 -74,-90 -119,-127 -53,-44 -113,-79 -176,-105zm325 1137l-5 7 9 -2c-1,-2 -3,-3 -4,-5zm-2382 201c8,17 16,35 24,52 59,122 134,247 208,360 233,354 525,668 861,925 53,41 108,80 163,118 196,134 404,249 621,343 -209,-93 -410,-206 -599,-335 -57,-39 -113,-80 -168,-122 -346,-265 -647,-588 -886,-952 -79,-120 -154,-244 -216,-373 -1,-1 -1,-1 -1,-2l-7 -14zm8520 2614c0,17 6,22 19,19 -7,-6 -14,-12 -19,-19zm235 9c37,25 66,65 89,113 -20,-56 -46,-100 -78,-111 -4,-1 -7,-2 -11,-2zm41 2763l-1 10 11 0c-3,-3 -6,-6 -10,-10zm680 -266c14,-17 26,-35 39,-53 233,-356 107,-966 18,-1352 -69,-301 -158,-604 -209,-907 -30,-179 -68,-471 71,-616 16,-17 33,-31 51,-43 10,-15 22,-30 34,-43 87,-90 217,-102 334,-91 401,24 510,1019 540,1308 27,258 42,521 46,781 3,159 6,345 -14,503 0,1 0,2 0,3 -14,60 -11,123 29,173 67,86 213,102 314,96 77,-4 163,-22 232,-57 3,-2 6,-3 9,-5 2,-4 2,-9 3,-14 3,-81 -1,-163 -11,-244 -18,-152 -56,-301 -92,-450 -39,-162 -76,-324 -95,-490 -53,-459 44,-866 244,-1280 23,-44 65,-90 115,-131 78,-100 234,-200 347,-195 34,1 66,9 96,25 161,86 190,371 201,531 21,292 4,598 -4,890 -8,277 -16,574 19,848 20,161 68,407 219,499 56,35 120,44 186,37 86,-8 180,-32 257,-70 5,-2 11,-5 17,-9l0 0c0,-5 -1,-10 -4,-14 -207,-356 -181,-838 -177,-1236 5,-496 -9,-968 -234,-1422 -145,-273 -370,-508 -702,-481 -113,9 -223,47 -322,100 -95,50 -186,116 -268,190 -11,13 -22,26 -33,39 -40,46 -147,188 -136,254 3,16 -7,32 -24,36 -16,4 -32,-5 -37,-21l-4 -12c-15,32 -24,61 -20,82 2,17 -8,32 -24,36 -16,4 -33,-5 -38,-20l-12 -37c0,0 -1,-1 -1,-2 -16,-69 -137,-203 -186,-253 -121,-124 -265,-238 -418,-320 -137,-74 -292,-128 -450,-127 -165,1 -300,62 -412,158 -192,219 -300,545 -363,800 -7,43 11,40 48,21 46,-22 96,-33 146,-17 164,53 202,376 217,518 31,311 19,645 1,956 -17,275 -42,549 -73,822 -19,165 -39,332 -66,497 213,-11 433,-58 596,-191zm360 -2987c82,46 149,138 204,254 -51,-120 -119,-229 -204,-254zm465 2683c6,19 15,36 28,53 26,32 62,55 104,70 -41,-21 -78,-49 -107,-86 -9,-12 -18,-24 -25,-37zm1199 -2687c47,28 82,73 109,127 -20,-54 -48,-98 -85,-118 -8,-4 -16,-7 -24,-9zm279 2568c33,82 80,154 147,195 16,9 32,17 48,23 -7,-4 -14,-8 -21,-12 -78,-48 -133,-121 -174,-206zm12078 1668c73,78 142,151 222,223 133,117 277,219 433,304 63,34 127,66 193,94 -55,-25 -109,-52 -162,-81 -163,-88 -315,-195 -453,-318 -81,-73 -155,-151 -230,-230 -5,-6 -9,-12 -14,-18 -6,-11 -12,-22 -18,-33 8,21 18,41 29,59zm2409 719c15,-79 -16,-215 -21,-282 -78,-1009 -32,-2050 118,-3050l1 0c13,-86 30,-172 47,-257 51,-249 114,-501 184,-746 -166,2 -469,34 -589,102 -107,170 -99,492 -102,658 -11,305 -48,854 -207,1120 -31,52 -70,95 -115,129 -78,103 -190,161 -322,173 -107,10 -235,-11 -331,-62 -174,-93 -232,-327 -257,-507 -40,-283 -23,-601 -3,-885 9,-290 -60,-596 -312,-772 -107,-75 -244,-121 -380,-128 163,344 179,715 172,1096 -6,352 -42,779 92,1111 35,86 81,165 139,238 327,317 952,362 1366,221 110,-37 113,94 110,164 -5,135 -11,269 -26,403 -38,329 -127,513 -245,596 -375,511 -1231,-506 -1578,-931 -8,-10 -32,-41 -58,-70 -50,275 -130,676 -7,874 73,78 143,152 223,223 132,118 277,220 432,304 493,269 1055,342 1608,289 20,-2 41,-5 61,-11zm-2413 -4504l-4 1c18,31 34,63 49,95 -14,-32 -29,-64 -45,-96zm307 2300c34,82 78,158 134,227 82,79 182,142 293,188 -106,-49 -203,-112 -286,-192 -3,-4 -6,-7 -9,-11 -53,-65 -97,-136 -132,-212zm-5102 -3153c-268,0 -528,72 -759,208 -100,59 -193,128 -276,205 -295,318 -458,747 -458,1189 0,598 299,1174 819,1480 232,136 491,208 760,208 268,0 527,-72 759,-208 100,-59 192,-128 275,-205 295,-318 458,-748 458,-1189 0,-598 -298,-1174 -819,-1480 -231,-136 -491,-208 -759,-208zm-1435 2390c137,320 367,596 676,778 57,33 116,63 177,89 -51,-24 -100,-49 -149,-78 -316,-186 -556,-465 -704,-789zm1810 -1605c199,94 357,260 452,461 -87,-207 -246,-378 -452,-461zm297 1581c-165,187 -400,308 -672,308 -534,0 -926,-467 -926,-986 0,-298 129,-579 340,-764 165,-187 400,-308 672,-308 534,0 925,467 925,986 0,298 -129,578 -339,764zm-7735 3095l-3 8 11 -1c-3,-2 -5,-5 -8,-7zm1153 -479c1159,-1277 -1002,-4566 404,-5843 28,-31 58,-62 90,-91 338,-303 767,-473 1223,-415 385,48 740,254 979,559 230,9 452,58 656,155 -163,-379 -446,-692 -810,-900 -562,-320 -1257,-355 -1843,-78 -177,84 -339,196 -481,329 -70,75 -134,154 -192,239 -6,8 -14,13 -24,14 -3,0 -6,0 -10,-1 -18,24 -35,48 -52,72 -5,9 -14,13 -23,14 -10,1 -19,-2 -26,-9 -119,-123 -281,-191 -452,-191 -83,0 -165,16 -241,47 -12,6 -24,12 -37,18 358,1203 575,2421 477,3680 -76,977 -335,1901 -709,2802 81,-3 168,-16 244,-29 212,-38 423,-107 609,-215 82,-47 154,-100 218,-157zm1205 -6252c138,-25 281,-30 427,-12 22,3 44,6 66,10l1 -32c-166,-19 -333,-7 -494,34zm851 110c152,70 292,166 413,282l11 -1c-123,-119 -267,-214 -424,-281zm513 388c14,16 28,33 41,50 287,11 561,84 804,235 -10,-29 -20,-58 -31,-87 -214,-118 -467,-189 -758,-198 -19,-1 -37,-1 -56,0zm177 1348c-128,152 -319,248 -532,248 -122,0 -241,-31 -346,-92 -216,-124 -349,-353 -349,-602 0,-169 61,-330 172,-457 1,-2 1,-4 3,-6 26,-45 56,-87 90,-125 -73,-29 -151,-43 -231,-43 -152,0 -292,54 -401,144 -90,109 -144,249 -144,401 0,4 -1,8 -2,12 5,585 404,1096 971,1241 105,27 214,41 322,41 327,0 635,-122 871,-337 27,-30 54,-62 79,-95 -25,-267 -98,-510 -249,-733 -1,-2 -2,-3 -3,-4 -3,-6 -7,-12 -11,-18 -26,170 -114,319 -240,425zm-1730 42c141,345 426,620 791,740l0 -49c-369,-144 -656,-443 -787,-812l-4 121zm598 -1836c-192,-23 -385,-3 -569,54 -1,274 -2,548 -2,822 20,-21 41,-41 64,-60 125,-149 310,-242 512,-248 -15,-188 -13,-382 -5,-568zm-170 662c36,-6 72,-9 109,-9 25,0 50,1 74,4 -1,-9 -2,-17 -3,-26 -62,2 -123,12 -180,31zm1348 3463c50,41 106,74 165,98 -54,-26 -105,-58 -151,-97 -3,-2 -6,-4 -8,-7l-6 6zm986 -140c132,-149 228,-336 292,-515 141,-391 176,-843 122,-1254 -119,-918 -666,-1654 -1653,-1684 -247,-8 -495,80 -677,238 -115,133 -188,300 -194,493 -3,134 41,263 120,369 44,-109 110,-209 193,-294 18,-19 37,-36 56,-54 10,-11 20,-21 30,-32 181,-184 431,-348 700,-265 396,123 604,699 633,1076 22,279 10,556 -31,832 -59,401 -194,853 -492,1144 113,93 254,144 402,144 86,0 171,-15 252,-46 92,-35 174,-88 247,-152zm-2164 -2835c-18,63 -29,129 -31,198 -4,157 57,307 161,421 6,-22 12,-44 18,-66 -100,-123 -157,-277 -157,-441 0,-38 3,-75 9,-112zm1146 -46c42,21 82,47 119,77 0,-3 1,-6 1,-9 -37,-29 -77,-52 -120,-68zm233 191c177,213 281,527 314,779 9,-12 18,-24 27,-36 -24,-267 -98,-509 -249,-733 -1,-1 -1,-2 -2,-4 -25,-40 -57,-78 -91,-112 1,24 2,49 2,73 0,11 0,22 -1,33zm-2191 3008l-1 11c5,0 9,1 14,1 -5,-4 -9,-8 -13,-12zm714 -275c128,-147 206,-340 206,-553l0 -862c-309,-120 -560,-349 -711,-636 -6,182 -12,365 -19,547 -23,568 -52,1138 -105,1704 239,24 462,-55 629,-200zm153 -4686l3 -27c-191,-4 -382,19 -568,69 185,-40 375,-54 565,-42zm11 -89c9,-70 19,-141 30,-211 52,-336 264,-1540 661,-1860 79,-96 167,-156 264,-164 59,-5 114,11 163,39 -91,-235 -287,-422 -534,-505 -295,-98 -581,-25 -798,168 -18,20 -36,41 -52,63 -165,219 -234,668 -267,933 -66,530 -83,1082 -93,1617 204,-59 415,-86 626,-80zm1027 -2114c53,28 100,70 141,115l-2 -14c-37,-40 -85,-83 -139,-101z"/>
    </clipPath>
 </defs>
 <g id="Layer_x0020_1">
  <metadata id="CorelCorpID_0Corel-Layer"/>
  <g id="_2290366559968">
   <path class="fil0" d="M21984 8430l21 7c-6,-4 -12,-10 -18,-15l-3 8zm685 -16c69,-101 93,-244 105,-353 13,-124 24,-249 35,-374 25,-293 47,-603 109,-890 36,-166 101,-407 252,-514 35,-47 76,-86 126,-111 190,-95 487,-104 691,-62 472,97 662,442 580,913 -41,238 -97,473 -158,707 -53,204 -110,408 -157,613 -48,208 -141,607 28,781 156,160 421,278 661,335 -85,-567 161,-1985 188,-2450 24,-427 -99,-838 -439,-1115 -392,-319 -940,-355 -1412,-217 -140,41 -301,104 -435,164 -15,7 -32,2 -40,-12 -96,-156 -253,-223 -421,-248 3,16 6,32 9,47 32,178 45,364 47,544 9,723 -154,1485 -368,2173 62,20 124,43 187,63 107,33 243,69 353,33 22,-7 42,-16 59,-27zm1451 -2147c143,68 246,170 308,298 -14,-36 -32,-70 -54,-103 -64,-92 -154,-154 -254,-195zm10 2839c15,39 36,75 65,104 94,96 228,178 372,240 -141,-65 -271,-148 -368,-247 -28,-29 -51,-62 -69,-97zm-18433 1254c4,6 20,12 32,15 -10,-6 -20,-13 -28,-22 -2,2 -4,5 -4,7zm4122 -1638c34,-40 55,-78 55,-110 -157,-778 -213,-1577 -160,-2369 30,-456 97,-896 197,-1341 5,-24 5,-48 -6,-70 -48,-108 -276,-126 -375,-126 -89,1 -188,11 -273,38 -7,2 -16,6 -27,10 -38,504 -119,1122 -324,1586 -54,124 -147,298 -273,401 -88,104 -198,182 -328,171 -211,-17 -341,-260 -406,-435 -123,-334 -146,-747 -132,-1099 14,-367 -119,-716 -472,-871 -194,-86 -418,-94 -621,-36 372,348 362,912 383,1391 12,281 22,610 150,866 151,304 441,450 755,536 231,63 467,43 685,-56 81,-37 175,-95 253,-162 7,-8 14,-17 20,-26 6,-8 14,-12 23,-13 24,-24 45,-48 63,-73 8,-11 23,-16 36,-11 14,5 22,17 21,32 -12,263 13,512 33,773 15,192 27,410 -47,591 -42,102 -106,183 -184,249 -89,106 -210,182 -341,241 -198,89 -440,126 -655,153 -202,25 -412,41 -611,83 -89,19 -205,49 -290,106 -129,211 -306,428 -504,620 -200,207 -428,391 -657,516 7,3 14,5 18,5 212,51 650,-63 858,-122 440,-123 880,-287 1301,-463 466,-193 945,-414 1380,-671 74,-43 304,-181 455,-314zm-3267 -4208l-8 3c114,95 196,207 256,331 -55,-125 -132,-238 -242,-329 -2,-2 -4,-3 -6,-5zm543 2242c8,20 17,39 26,58 112,224 299,362 516,454 -223,-102 -414,-254 -531,-489 -4,-8 -7,-15 -11,-23zm-3739 -1315l10 -2 -2 -1 -8 3zm845 128c340,157 605,428 757,757 -143,-335 -410,-609 -757,-757zm488 2453c-282,305 -686,496 -1134,496 -171,0 -340,-27 -502,-83l-118 -46c-1,0 -2,-1 -3,-1 -220,-108 -378,-313 -426,-554 -10,-51 -15,-102 -15,-154 0,-68 8,-136 26,-202 42,-159 130,-295 249,-397 146,-170 363,-275 599,-275 130,0 256,31 369,91 -48,-325 -204,-626 -446,-855 -154,-146 -338,-258 -539,-327 -153,-53 -318,-79 -480,-79 -597,0 -1138,233 -1540,613 -380,401 -613,943 -613,1540 0,397 104,784 304,1127 87,135 182,264 286,387 715,850 1760,1337 2871,1337 989,0 1919,-387 2609,-1056 194,-200 367,-423 515,-667 31,-51 61,-102 89,-154 168,-320 254,-675 254,-1036 0,-279 -52,-555 -153,-815l-97 -214c-256,-521 -631,-976 -1091,-1328l-12 -9c-222,-170 -463,-313 -718,-428 -11,-5 -18,-16 -18,-28 -1,-12 6,-23 17,-29 24,-13 49,-27 73,-41 -3,-5 -4,-10 -5,-16 0,-12 6,-23 17,-29 96,-51 187,-108 274,-172 -222,69 -454,104 -688,104 -152,0 -304,-15 -453,-45 0,0 -1,0 -1,0 -6,-1 -12,-2 -18,-3 -734,-151 -1355,-667 -1648,-1355 -56,-133 -100,-272 -130,-413 -17,-66 -24,-119 -32,-186 -1,-6 0,-12 2,-17 0,-4 0,-8 0,-12 0,-240 107,-454 275,-599 145,-168 360,-275 599,-275 184,0 361,63 502,180 52,44 99,93 138,148 97,135 149,295 149,460 0,155 -45,305 -129,432 261,-57 495,-183 683,-356 244,-265 392,-618 393,-1001 0,-1 0,-3 0,-4 0,-11 0,-21 0,-32 -7,-310 -109,-607 -295,-855 -177,-237 -421,-416 -700,-513 -165,-58 -339,-85 -514,-82l0 0c-587,7 -1118,240 -1513,615 -380,401 -613,943 -613,1538 0,324 70,643 205,937 59,121 135,247 209,360 233,354 524,667 861,925 53,40 107,80 162,117 318,217 667,385 1035,495 14,4 23,17 23,31 -1,15 -10,27 -24,30 -30,8 -59,15 -88,24l3 1c14,4 23,16 23,31 0,14 -10,26 -24,30 -19,5 -38,10 -57,15 184,3 368,38 541,107 590,232 979,802 979,1438 0,448 -192,852 -497,1134zm-1070 -1054c45,21 89,48 130,78l-1 -8c-40,-29 -84,-52 -129,-70zm-3407 1790c35,83 76,164 122,243 87,135 183,265 287,388 377,449 847,796 1370,1024 -522,-235 -992,-586 -1371,-1037 -107,-127 -205,-260 -295,-399 -1,-2 -2,-3 -3,-4 -40,-70 -77,-142 -110,-215zm3279 -6779c58,27 112,62 163,104 52,43 98,93 138,148 27,38 51,78 71,120 -20,-49 -46,-96 -77,-140 -34,-47 -74,-90 -119,-127 -53,-44 -113,-79 -176,-105zm325 1137l-5 7 9 -2c-1,-2 -3,-3 -4,-5zm-2382 201c8,17 16,35 24,52 59,122 134,247 208,360 233,354 525,668 861,925 53,41 108,80 163,118 196,134 404,249 621,343 -209,-93 -410,-206 -599,-335 -57,-39 -113,-80 -168,-122 -346,-265 -647,-588 -886,-952 -79,-120 -154,-244 -216,-373 -1,-1 -1,-1 -1,-2l-7 -14zm8520 2614c0,17 6,22 19,19 -7,-6 -14,-12 -19,-19zm235 9c37,25 66,65 89,113 -20,-56 -46,-100 -78,-111 -4,-1 -7,-2 -11,-2zm41 2763l-1 10 11 0c-3,-3 -6,-6 -10,-10zm680 -266c14,-17 26,-35 39,-53 233,-356 107,-966 18,-1352 -69,-301 -158,-604 -209,-907 -30,-179 -68,-471 71,-616 16,-17 33,-31 51,-43 10,-15 22,-30 34,-43 87,-90 217,-102 334,-91 401,24 510,1019 540,1308 27,258 42,521 46,781 3,159 6,345 -14,503 0,1 0,2 0,3 -14,60 -11,123 29,173 67,86 213,102 314,96 77,-4 163,-22 232,-57 3,-2 6,-3 9,-5 2,-4 2,-9 3,-14 3,-81 -1,-163 -11,-244 -18,-152 -56,-301 -92,-450 -39,-162 -76,-324 -95,-490 -53,-459 44,-866 244,-1280 23,-44 65,-90 115,-131 78,-100 234,-200 347,-195 34,1 66,9 96,25 161,86 190,371 201,531 21,292 4,598 -4,890 -8,277 -16,574 19,848 20,161 68,407 219,499 56,35 120,44 186,37 86,-8 180,-32 257,-70 5,-2 11,-5 17,-9l0 0c0,-5 -1,-10 -4,-14 -207,-356 -181,-838 -177,-1236 5,-496 -9,-968 -234,-1422 -145,-273 -370,-508 -702,-481 -113,9 -223,47 -322,100 -95,50 -186,116 -268,190 -11,13 -22,26 -33,39 -40,46 -147,188 -136,254 3,16 -7,32 -24,36 -16,4 -32,-5 -37,-21l-4 -12c-15,32 -24,61 -20,82 2,17 -8,32 -24,36 -16,4 -33,-5 -38,-20l-12 -37c0,0 -1,-1 -1,-2 -16,-69 -137,-203 -186,-253 -121,-124 -265,-238 -418,-320 -137,-74 -292,-128 -450,-127 -165,1 -300,62 -412,158 -192,219 -300,545 -363,800 -7,43 11,40 48,21 46,-22 96,-33 146,-17 164,53 202,376 217,518 31,311 19,645 1,956 -17,275 -42,549 -73,822 -19,165 -39,332 -66,497 213,-11 433,-58 596,-191zm360 -2987c82,46 149,138 204,254 -51,-120 -119,-229 -204,-254zm465 2683c6,19 15,36 28,53 26,32 62,55 104,70 -41,-21 -78,-49 -107,-86 -9,-12 -18,-24 -25,-37zm1199 -2687c47,28 82,73 109,127 -20,-54 -48,-98 -85,-118 -8,-4 -16,-7 -24,-9zm279 2568c33,82 80,154 147,195 16,9 32,17 48,23 -7,-4 -14,-8 -21,-12 -78,-48 -133,-121 -174,-206zm12078 1668c73,78 142,151 222,223 133,117 277,219 433,304 63,34 127,66 193,94 -55,-25 -109,-52 -162,-81 -163,-88 -315,-195 -453,-318 -81,-73 -155,-151 -230,-230 -5,-6 -9,-12 -14,-18 -6,-11 -12,-22 -18,-33 8,21 18,41 29,59zm2409 719c15,-79 -16,-215 -21,-282 -78,-1009 -32,-2050 118,-3050l1 0c13,-86 30,-172 47,-257 51,-249 114,-501 184,-746 -166,2 -469,34 -589,102 -107,170 -99,492 -102,658 -11,305 -48,854 -207,1120 -31,52 -70,95 -115,129 -78,103 -190,161 -322,173 -107,10 -235,-11 -331,-62 -174,-93 -232,-327 -257,-507 -40,-283 -23,-601 -3,-885 9,-290 -60,-596 -312,-772 -107,-75 -244,-121 -380,-128 163,344 179,715 172,1096 -6,352 -42,779 92,1111 35,86 81,165 139,238 327,317 952,362 1366,221 110,-37 113,94 110,164 -5,135 -11,269 -26,403 -38,329 -127,513 -245,596 -375,511 -1231,-506 -1578,-931 -8,-10 -32,-41 -58,-70 -50,275 -130,676 -7,874 73,78 143,152 223,223 132,118 277,220 432,304 493,269 1055,342 1608,289 20,-2 41,-5 61,-11zm-2413 -4504l-4 1c18,31 34,63 49,95 -14,-32 -29,-64 -45,-96zm307 2300c34,82 78,158 134,227 82,79 182,142 293,188 -106,-49 -203,-112 -286,-192 -3,-4 -6,-7 -9,-11 -53,-65 -97,-136 -132,-212zm-5102 -3153c-268,0 -528,72 -759,208 -100,59 -193,128 -276,205 -295,318 -458,747 -458,1189 0,598 299,1174 819,1480 232,136 491,208 760,208 268,0 527,-72 759,-208 100,-59 192,-128 275,-205 295,-318 458,-748 458,-1189 0,-598 -298,-1174 -819,-1480 -231,-136 -491,-208 -759,-208zm-1435 2390c137,320 367,596 676,778 57,33 116,63 177,89 -51,-24 -100,-49 -149,-78 -316,-186 -556,-465 -704,-789zm1810 -1605c199,94 357,260 452,461 -87,-207 -246,-378 -452,-461zm297 1581c-165,187 -400,308 -672,308 -534,0 -926,-467 -926,-986 0,-298 129,-579 340,-764 165,-187 400,-308 672,-308 534,0 925,467 925,986 0,298 -129,578 -339,764zm-7735 3095l-3 8 11 -1c-3,-2 -5,-5 -8,-7zm1153 -479c1159,-1277 -1002,-4566 404,-5843 28,-31 58,-62 90,-91 338,-303 767,-473 1223,-415 385,48 740,254 979,559 230,9 452,58 656,155 -163,-379 -446,-692 -810,-900 -562,-320 -1257,-355 -1843,-78 -177,84 -339,196 -481,329 -70,75 -134,154 -192,239 -6,8 -14,13 -24,14 -3,0 -6,0 -10,-1 -18,24 -35,48 -52,72 -5,9 -14,13 -23,14 -10,1 -19,-2 -26,-9 -119,-123 -281,-191 -452,-191 -83,0 -165,16 -241,47 -12,6 -24,12 -37,18 358,1203 575,2421 477,3680 -76,977 -335,1901 -709,2802 81,-3 168,-16 244,-29 212,-38 423,-107 609,-215 82,-47 154,-100 218,-157zm1205 -6252c138,-25 281,-30 427,-12 22,3 44,6 66,10l1 -32c-166,-19 -333,-7 -494,34zm851 110c152,70 292,166 413,282l11 -1c-123,-119 -267,-214 -424,-281zm513 388c14,16 28,33 41,50 287,11 561,84 804,235 -10,-29 -20,-58 -31,-87 -214,-118 -467,-189 -758,-198 -19,-1 -37,-1 -56,0zm177 1348c-128,152 -319,248 -532,248 -122,0 -241,-31 -346,-92 -216,-124 -349,-353 -349,-602 0,-169 61,-330 172,-457 1,-2 1,-4 3,-6 26,-45 56,-87 90,-125 -73,-29 -151,-43 -231,-43 -152,0 -292,54 -401,144 -90,109 -144,249 -144,401 0,4 -1,8 -2,12 5,585 404,1096 971,1241 105,27 214,41 322,41 327,0 635,-122 871,-337 27,-30 54,-62 79,-95 -25,-267 -98,-510 -249,-733 -1,-2 -2,-3 -3,-4 -3,-6 -7,-12 -11,-18 -26,170 -114,319 -240,425zm-1730 42c141,345 426,620 791,740l0 -49c-369,-144 -656,-443 -787,-812l-4 121zm598 -1836c-192,-23 -385,-3 -569,54 -1,274 -2,548 -2,822 20,-21 41,-41 64,-60 125,-149 310,-242 512,-248 -15,-188 -13,-382 -5,-568zm-170 662c36,-6 72,-9 109,-9 25,0 50,1 74,4 -1,-9 -2,-17 -3,-26 -62,2 -123,12 -180,31zm1348 3463c50,41 106,74 165,98 -54,-26 -105,-58 -151,-97 -3,-2 -6,-4 -8,-7l-6 6zm986 -140c132,-149 228,-336 292,-515 141,-391 176,-843 122,-1254 -119,-918 -666,-1654 -1653,-1684 -247,-8 -495,80 -677,238 -115,133 -188,300 -194,493 -3,134 41,263 120,369 44,-109 110,-209 193,-294 18,-19 37,-36 56,-54 10,-11 20,-21 30,-32 181,-184 431,-348 700,-265 396,123 604,699 633,1076 22,279 10,556 -31,832 -59,401 -194,853 -492,1144 113,93 254,144 402,144 86,0 171,-15 252,-46 92,-35 174,-88 247,-152zm-2164 -2835c-18,63 -29,129 -31,198 -4,157 57,307 161,421 6,-22 12,-44 18,-66 -100,-123 -157,-277 -157,-441 0,-38 3,-75 9,-112zm1146 -46c42,21 82,47 119,77 0,-3 1,-6 1,-9 -37,-29 -77,-52 -120,-68zm233 191c177,213 281,527 314,779 9,-12 18,-24 27,-36 -24,-267 -98,-509 -249,-733 -1,-1 -1,-2 -2,-4 -25,-40 -57,-78 -91,-112 1,24 2,49 2,73 0,11 0,22 -1,33zm-2191 3008l-1 11c5,0 9,1 14,1 -5,-4 -9,-8 -13,-12zm714 -275c128,-147 206,-340 206,-553l0 -862c-309,-120 -560,-349 -711,-636 -6,182 -12,365 -19,547 -23,568 -52,1138 -105,1704 239,24 462,-55 629,-200zm153 -4686l3 -27c-191,-4 -382,19 -568,69 185,-40 375,-54 565,-42zm11 -89c9,-70 19,-141 30,-211 52,-336 264,-1540 661,-1860 79,-96 167,-156 264,-164 59,-5 114,11 163,39 -91,-235 -287,-422 -534,-505 -295,-98 -581,-25 -798,168 -18,20 -36,41 -52,63 -165,219 -234,668 -267,933 -66,530 -83,1082 -93,1617 204,-59 415,-86 626,-80zm1027 -2114c53,28 100,70 141,115l-2 -14c-37,-40 -85,-83 -139,-101z"/>
   <path id="1" class="fil1" d="M21984 8430l21 7c-6,-4 -12,-10 -18,-15l-3 8zm685 -16c69,-101 93,-244 105,-353 13,-124 24,-249 35,-374 25,-293 47,-603 109,-890 36,-166 101,-407 252,-514 35,-47 76,-86 126,-111 190,-95 487,-104 691,-62 472,97 662,442 580,913 -41,238 -97,473 -158,707 -53,204 -110,408 -157,613 -48,208 -141,607 28,781 156,160 421,278 661,335 -85,-567 161,-1985 188,-2450 24,-427 -99,-838 -439,-1115 -392,-319 -940,-355 -1412,-217 -140,41 -301,104 -435,164 -15,7 -32,2 -40,-12 -96,-156 -253,-223 -421,-248 3,16 6,32 9,47 32,178 45,364 47,544 9,723 -154,1485 -368,2173 62,20 124,43 187,63 107,33 243,69 353,33 22,-7 42,-16 59,-27zm1451 -2147c143,68 246,170 308,298 -14,-36 -32,-70 -54,-103 -64,-92 -154,-154 -254,-195zm10 2839c15,39 36,75 65,104 94,96 228,178 372,240 -141,-65 -271,-148 -368,-247 -28,-29 -51,-62 -69,-97zm-18433 1254c4,6 20,12 32,15 -10,-6 -20,-13 -28,-22 -2,2 -4,5 -4,7zm4122 -1638c34,-40 55,-78 55,-110 -157,-778 -213,-1577 -160,-2369 30,-456 97,-896 197,-1341 5,-24 5,-48 -6,-70 -48,-108 -276,-126 -375,-126 -89,1 -188,11 -273,38 -7,2 -16,6 -27,10 -38,504 -119,1122 -324,1586 -54,124 -147,298 -273,401 -88,104 -198,182 -328,171 -211,-17 -341,-260 -406,-435 -123,-334 -146,-747 -132,-1099 14,-367 -119,-716 -472,-871 -194,-86 -418,-94 -621,-36 372,348 362,912 383,1391 12,281 22,610 150,866 151,304 441,450 755,536 231,63 467,43 685,-56 81,-37 175,-95 253,-162 7,-8 14,-17 20,-26 6,-8 14,-12 23,-13 24,-24 45,-48 63,-73 8,-11 23,-16 36,-11 14,5 22,17 21,32 -12,263 13,512 33,773 15,192 27,410 -47,591 -42,102 -106,183 -184,249 -89,106 -210,182 -341,241 -198,89 -440,126 -655,153 -202,25 -412,41 -611,83 -89,19 -205,49 -290,106 -129,211 -306,428 -504,620 -200,207 -428,391 -657,516 7,3 14,5 18,5 212,51 650,-63 858,-122 440,-123 880,-287 1301,-463 466,-193 945,-414 1380,-671 74,-43 304,-181 455,-314zm-3267 -4208l-8 3c114,95 196,207 256,331 -55,-125 -132,-238 -242,-329 -2,-2 -4,-3 -6,-5zm543 2242c8,20 17,39 26,58 112,224 299,362 516,454 -223,-102 -414,-254 -531,-489 -4,-8 -7,-15 -11,-23zm-3739 -1315l10 -2 -2 -1 -8 3zm845 128c340,157 605,428 757,757 -143,-335 -410,-609 -757,-757zm488 2453c-282,305 -686,496 -1134,496 -171,0 -340,-27 -502,-83l-118 -46c-1,0 -2,-1 -3,-1 -220,-108 -378,-313 -426,-554 -10,-51 -15,-102 -15,-154 0,-68 8,-136 26,-202 42,-159 130,-295 249,-397 146,-170 363,-275 599,-275 130,0 256,31 369,91 -48,-325 -204,-626 -446,-855 -154,-146 -338,-258 -539,-327 -153,-53 -318,-79 -480,-79 -597,0 -1138,233 -1540,613 -380,401 -613,943 -613,1540 0,397 104,784 304,1127 87,135 182,264 286,387 715,850 1760,1337 2871,1337 989,0 1919,-387 2609,-1056 194,-200 367,-423 515,-667 31,-51 61,-102 89,-154 168,-320 254,-675 254,-1036 0,-279 -52,-555 -153,-815l-97 -214c-256,-521 -631,-976 -1091,-1328l-12 -9c-222,-170 -463,-313 -718,-428 -11,-5 -18,-16 -18,-28 -1,-12 6,-23 17,-29 24,-13 49,-27 73,-41 -3,-5 -4,-10 -5,-16 0,-12 6,-23 17,-29 96,-51 187,-108 274,-172 -222,69 -454,104 -688,104 -152,0 -304,-15 -453,-45 0,0 -1,0 -1,0 -6,-1 -12,-2 -18,-3 -734,-151 -1355,-667 -1648,-1355 -56,-133 -100,-272 -130,-413 -17,-66 -24,-119 -32,-186 -1,-6 0,-12 2,-17 0,-4 0,-8 0,-12 0,-240 107,-454 275,-599 145,-168 360,-275 599,-275 184,0 361,63 502,180 52,44 99,93 138,148 97,135 149,295 149,460 0,155 -45,305 -129,432 261,-57 495,-183 683,-356 244,-265 392,-618 393,-1001 0,-1 0,-3 0,-4 0,-11 0,-21 0,-32 -7,-310 -109,-607 -295,-855 -177,-237 -421,-416 -700,-513 -165,-58 -339,-85 -514,-82l0 0c-587,7 -1118,240 -1513,615 -380,401 -613,943 -613,1538 0,324 70,643 205,937 59,121 135,247 209,360 233,354 524,667 861,925 53,40 107,80 162,117 318,217 667,385 1035,495 14,4 23,17 23,31 -1,15 -10,27 -24,30 -30,8 -59,15 -88,24l3 1c14,4 23,16 23,31 0,14 -10,26 -24,30 -19,5 -38,10 -57,15 184,3 368,38 541,107 590,232 979,802 979,1438 0,448 -192,852 -497,1134zm-1070 -1054c45,21 89,48 130,78l-1 -8c-40,-29 -84,-52 -129,-70zm-3407 1790c35,83 76,164 122,243 87,135 183,265 287,388 377,449 847,796 1370,1024 -522,-235 -992,-586 -1371,-1037 -107,-127 -205,-260 -295,-399 -1,-2 -2,-3 -3,-4 -40,-70 -77,-142 -110,-215zm3279 -6779c58,27 112,62 163,104 52,43 98,93 138,148 27,38 51,78 71,120 -20,-49 -46,-96 -77,-140 -34,-47 -74,-90 -119,-127 -53,-44 -113,-79 -176,-105zm325 1137l-5 7 9 -2c-1,-2 -3,-3 -4,-5zm-2382 201c8,17 16,35 24,52 59,122 134,247 208,360 233,354 525,668 861,925 53,41 108,80 163,118 196,134 404,249 621,343 -209,-93 -410,-206 -599,-335 -57,-39 -113,-80 -168,-122 -346,-265 -647,-588 -886,-952 -79,-120 -154,-244 -216,-373 -1,-1 -1,-1 -1,-2l-7 -14zm8520 2614c0,17 6,22 19,19 -7,-6 -14,-12 -19,-19zm235 9c37,25 66,65 89,113 -20,-56 -46,-100 -78,-111 -4,-1 -7,-2 -11,-2zm41 2763l-1 10 11 0c-3,-3 -6,-6 -10,-10zm680 -266c14,-17 26,-35 39,-53 233,-356 107,-966 18,-1352 -69,-301 -158,-604 -209,-907 -30,-179 -68,-471 71,-616 16,-17 33,-31 51,-43 10,-15 22,-30 34,-43 87,-90 217,-102 334,-91 401,24 510,1019 540,1308 27,258 42,521 46,781 3,159 6,345 -14,503 0,1 0,2 0,3 -14,60 -11,123 29,173 67,86 213,102 314,96 77,-4 163,-22 232,-57 3,-2 6,-3 9,-5 2,-4 2,-9 3,-14 3,-81 -1,-163 -11,-244 -18,-152 -56,-301 -92,-450 -39,-162 -76,-324 -95,-490 -53,-459 44,-866 244,-1280 23,-44 65,-90 115,-131 78,-100 234,-200 347,-195 34,1 66,9 96,25 161,86 190,371 201,531 21,292 4,598 -4,890 -8,277 -16,574 19,848 20,161 68,407 219,499 56,35 120,44 186,37 86,-8 180,-32 257,-70 5,-2 11,-5 17,-9l0 0c0,-5 -1,-10 -4,-14 -207,-356 -181,-838 -177,-1236 5,-496 -9,-968 -234,-1422 -145,-273 -370,-508 -702,-481 -113,9 -223,47 -322,100 -95,50 -186,116 -268,190 -11,13 -22,26 -33,39 -40,46 -147,188 -136,254 3,16 -7,32 -24,36 -16,4 -32,-5 -37,-21l-4 -12c-15,32 -24,61 -20,82 2,17 -8,32 -24,36 -16,4 -33,-5 -38,-20l-12 -37c0,0 -1,-1 -1,-2 -16,-69 -137,-203 -186,-253 -121,-124 -265,-238 -418,-320 -137,-74 -292,-128 -450,-127 -165,1 -300,62 -412,158 -192,219 -300,545 -363,800 -7,43 11,40 48,21 46,-22 96,-33 146,-17 164,53 202,376 217,518 31,311 19,645 1,956 -17,275 -42,549 -73,822 -19,165 -39,332 -66,497 213,-11 433,-58 596,-191zm360 -2987c82,46 149,138 204,254 -51,-120 -119,-229 -204,-254zm465 2683c6,19 15,36 28,53 26,32 62,55 104,70 -41,-21 -78,-49 -107,-86 -9,-12 -18,-24 -25,-37zm1199 -2687c47,28 82,73 109,127 -20,-54 -48,-98 -85,-118 -8,-4 -16,-7 -24,-9zm279 2568c33,82 80,154 147,195 16,9 32,17 48,23 -7,-4 -14,-8 -21,-12 -78,-48 -133,-121 -174,-206zm12078 1668c73,78 142,151 222,223 133,117 277,219 433,304 63,34 127,66 193,94 -55,-25 -109,-52 -162,-81 -163,-88 -315,-195 -453,-318 -81,-73 -155,-151 -230,-230 -5,-6 -9,-12 -14,-18 -6,-11 -12,-22 -18,-33 8,21 18,41 29,59zm2409 719c15,-79 -16,-215 -21,-282 -78,-1009 -32,-2050 118,-3050l1 0c13,-86 30,-172 47,-257 51,-249 114,-501 184,-746 -166,2 -469,34 -589,102 -107,170 -99,492 -102,658 -11,305 -48,854 -207,1120 -31,52 -70,95 -115,129 -78,103 -190,161 -322,173 -107,10 -235,-11 -331,-62 -174,-93 -232,-327 -257,-507 -40,-283 -23,-601 -3,-885 9,-290 -60,-596 -312,-772 -107,-75 -244,-121 -380,-128 163,344 179,715 172,1096 -6,352 -42,779 92,1111 35,86 81,165 139,238 327,317 952,362 1366,221 110,-37 113,94 110,164 -5,135 -11,269 -26,403 -38,329 -127,513 -245,596 -375,511 -1231,-506 -1578,-931 -8,-10 -32,-41 -58,-70 -50,275 -130,676 -7,874 73,78 143,152 223,223 132,118 277,220 432,304 493,269 1055,342 1608,289 20,-2 41,-5 61,-11zm-2413 -4504l-4 1c18,31 34,63 49,95 -14,-32 -29,-64 -45,-96zm307 2300c34,82 78,158 134,227 82,79 182,142 293,188 -106,-49 -203,-112 -286,-192 -3,-4 -6,-7 -9,-11 -53,-65 -97,-136 -132,-212zm-5102 -3153c-268,0 -528,72 -759,208 -100,59 -193,128 -276,205 -295,318 -458,747 -458,1189 0,598 299,1174 819,1480 232,136 491,208 760,208 268,0 527,-72 759,-208 100,-59 192,-128 275,-205 295,-318 458,-748 458,-1189 0,-598 -298,-1174 -819,-1480 -231,-136 -491,-208 -759,-208zm-1435 2390c137,320 367,596 676,778 57,33 116,63 177,89 -51,-24 -100,-49 -149,-78 -316,-186 -556,-465 -704,-789zm1810 -1605c199,94 357,260 452,461 -87,-207 -246,-378 -452,-461zm297 1581c-165,187 -400,308 -672,308 -534,0 -926,-467 -926,-986 0,-298 129,-579 340,-764 165,-187 400,-308 672,-308 534,0 925,467 925,986 0,298 -129,578 -339,764zm-7735 3095l-3 8 11 -1c-3,-2 -5,-5 -8,-7zm1153 -479c1159,-1277 -1002,-4566 404,-5843 28,-31 58,-62 90,-91 338,-303 767,-473 1223,-415 385,48 740,254 979,559 230,9 452,58 656,155 -163,-379 -446,-692 -810,-900 -562,-320 -1257,-355 -1843,-78 -177,84 -339,196 -481,329 -70,75 -134,154 -192,239 -6,8 -14,13 -24,14 -3,0 -6,0 -10,-1 -18,24 -35,48 -52,72 -5,9 -14,13 -23,14 -10,1 -19,-2 -26,-9 -119,-123 -281,-191 -452,-191 -83,0 -165,16 -241,47 -12,6 -24,12 -37,18 358,1203 575,2421 477,3680 -76,977 -335,1901 -709,2802 81,-3 168,-16 244,-29 212,-38 423,-107 609,-215 82,-47 154,-100 218,-157zm1205 -6252c138,-25 281,-30 427,-12 22,3 44,6 66,10l1 -32c-166,-19 -333,-7 -494,34zm851 110c152,70 292,166 413,282l11 -1c-123,-119 -267,-214 -424,-281zm513 388c14,16 28,33 41,50 287,11 561,84 804,235 -10,-29 -20,-58 -31,-87 -214,-118 -467,-189 -758,-198 -19,-1 -37,-1 -56,0zm177 1348c-128,152 -319,248 -532,248 -122,0 -241,-31 -346,-92 -216,-124 -349,-353 -349,-602 0,-169 61,-330 172,-457 1,-2 1,-4 3,-6 26,-45 56,-87 90,-125 -73,-29 -151,-43 -231,-43 -152,0 -292,54 -401,144 -90,109 -144,249 -144,401 0,4 -1,8 -2,12 5,585 404,1096 971,1241 105,27 214,41 322,41 327,0 635,-122 871,-337 27,-30 54,-62 79,-95 -25,-267 -98,-510 -249,-733 -1,-2 -2,-3 -3,-4 -3,-6 -7,-12 -11,-18 -26,170 -114,319 -240,425zm-1730 42c141,345 426,620 791,740l0 -49c-369,-144 -656,-443 -787,-812l-4 121zm598 -1836c-192,-23 -385,-3 -569,54 -1,274 -2,548 -2,822 20,-21 41,-41 64,-60 125,-149 310,-242 512,-248 -15,-188 -13,-382 -5,-568zm-170 662c36,-6 72,-9 109,-9 25,0 50,1 74,4 -1,-9 -2,-17 -3,-26 -62,2 -123,12 -180,31zm1348 3463c50,41 106,74 165,98 -54,-26 -105,-58 -151,-97 -3,-2 -6,-4 -8,-7l-6 6zm986 -140c132,-149 228,-336 292,-515 141,-391 176,-843 122,-1254 -119,-918 -666,-1654 -1653,-1684 -247,-8 -495,80 -677,238 -115,133 -188,300 -194,493 -3,134 41,263 120,369 44,-109 110,-209 193,-294 18,-19 37,-36 56,-54 10,-11 20,-21 30,-32 181,-184 431,-348 700,-265 396,123 604,699 633,1076 22,279 10,556 -31,832 -59,401 -194,853 -492,1144 113,93 254,144 402,144 86,0 171,-15 252,-46 92,-35 174,-88 247,-152zm-2164 -2835c-18,63 -29,129 -31,198 -4,157 57,307 161,421 6,-22 12,-44 18,-66 -100,-123 -157,-277 -157,-441 0,-38 3,-75 9,-112zm1146 -46c42,21 82,47 119,77 0,-3 1,-6 1,-9 -37,-29 -77,-52 -120,-68zm233 191c177,213 281,527 314,779 9,-12 18,-24 27,-36 -24,-267 -98,-509 -249,-733 -1,-1 -1,-2 -2,-4 -25,-40 -57,-78 -91,-112 1,24 2,49 2,73 0,11 0,22 -1,33zm-2191 3008l-1 11c5,0 9,1 14,1 -5,-4 -9,-8 -13,-12zm714 -275c128,-147 206,-340 206,-553l0 -862c-309,-120 -560,-349 -711,-636 -6,182 -12,365 -19,547 -23,568 -52,1138 -105,1704 239,24 462,-55 629,-200zm153 -4686l3 -27c-191,-4 -382,19 -568,69 185,-40 375,-54 565,-42zm11 -89c9,-70 19,-141 30,-211 52,-336 264,-1540 661,-1860 79,-96 167,-156 264,-164 59,-5 114,11 163,39 -91,-235 -287,-422 -534,-505 -295,-98 -581,-25 -798,168 -18,20 -36,41 -52,63 -165,219 -234,668 -267,933 -66,530 -83,1082 -93,1617 204,-59 415,-86 626,-80zm1027 -2114c53,28 100,70 141,115l-2 -14c-37,-40 -85,-83 -139,-101z"/>
   <g style="clip-path:url(#id0)">
    <g>
     <path id="2" class="fil2" d="M21905 8261c62,20 123,43 185,62 107,33 243,67 353,33 183,-58 231,-294 248,-456 13,-123 24,-245 35,-367 25,-287 47,-590 109,-872 38,-177 112,-439 291,-528 189,-93 486,-102 689,-61 470,95 659,433 578,895 -41,233 -97,463 -158,692 -52,200 -109,400 -157,601 -47,203 -140,594 29,765 179,181 503,307 767,349 -144,-460 135,-2017 163,-2505 25,-418 -98,-821 -437,-1092 -391,-313 -937,-348 -1406,-213 -140,40 -301,102 -434,162 -15,6 -32,1 -40,-13 -116,-185 -321,-242 -527,-253 13,46 23,96 31,140 33,175 45,356 48,533 8,708 -154,1455 -367,2128zm-16229 1890c6,8 34,16 42,18 212,49 648,-63 856,-120 438,-121 876,-281 1296,-453 464,-190 942,-406 1375,-657 112,-66 592,-348 593,-500 -156,-762 -212,-1544 -159,-2320 30,-447 96,-878 196,-1314 5,-23 5,-47 -5,-69 -49,-105 -276,-123 -375,-122 -88,0 -187,10 -271,37 -28,8 -109,38 -111,73 -37,498 -117,1113 -324,1573 -85,189 -263,498 -514,477 -210,-17 -340,-255 -404,-426 -123,-327 -146,-731 -132,-1077 14,-359 -119,-700 -471,-853 -235,-102 -514,-91 -747,11 415,337 404,913 425,1401 12,275 22,597 149,848 151,297 440,440 753,524 230,62 465,43 682,-55 123,-55 277,-157 358,-267 8,-12 23,-16 36,-11 14,4 22,16 21,30 -12,259 13,502 33,758 14,188 26,401 -47,579 -81,195 -249,312 -438,396 -197,87 -438,123 -652,149 -202,25 -411,41 -609,82 -123,26 -298,73 -370,182 -254,408 -691,844 -1124,1060 -12,6 -58,31 -62,46zm-2332 -4818c256,-32 521,-1 763,92 587,228 975,786 975,1409 0,836 -690,1513 -1540,1513 -170,0 -338,-27 -500,-81l-118 -45c-1,-1 -1,-1 -2,-1 -219,-106 -377,-307 -425,-543 -10,-50 -15,-100 -15,-151 0,-67 8,-133 26,-198 91,-338 403,-574 759,-574 170,0 333,53 468,151 -18,-374 -181,-725 -459,-983 -154,-143 -337,-253 -537,-320 -153,-52 -317,-78 -478,-78 -1232,0 -2231,982 -2231,2192 0,390 104,769 303,1104 87,133 182,260 285,380 713,832 1754,1309 2861,1309 1311,0 2519,-672 3198,-1771 31,-50 61,-100 88,-151 168,-314 253,-661 253,-1015 0,-273 -51,-544 -152,-798l-97 -210c-255,-510 -628,-956 -1087,-1301l-11 -8c-221,-166 -462,-306 -716,-419 -11,-5 -18,-16 -18,-28 0,-12 6,-22 17,-28 141,-74 273,-163 395,-265 -233,76 -476,114 -722,114 -152,0 -303,-14 -452,-44 -1,0 -1,0 -2,0 -6,-1 -11,-2 -17,-3 -732,-147 -1350,-653 -1642,-1327 -56,-131 -100,-267 -130,-405 -16,-65 -23,-116 -32,-182 -1,-5 0,-11 3,-16 0,-4 0,-8 0,-12 0,-427 351,-773 785,-773 183,0 359,62 501,177 52,42 98,91 137,145 97,131 148,288 148,451 0,151 -45,297 -129,423 670,-145 1156,-731 1158,-1413 0,-2 0,-3 0,-5 0,-10 0,-20 0,-31 -7,-303 -109,-595 -294,-838 -176,-231 -419,-407 -698,-502 -164,-56 -337,-83 -512,-80l1 0c-1221,15 -2204,992 -2204,2193 0,317 69,629 205,917 58,119 134,242 207,353 232,347 523,653 858,906 53,39 107,78 162,115 316,212 664,376 1031,485 14,4 23,16 23,30 -1,14 -10,26 -24,29 -124,31 -246,68 -366,111zm6575 466c-7,42 11,39 49,21 45,-22 95,-33 144,-17 164,52 202,369 217,508 31,304 19,631 0,936 -16,269 -41,537 -72,805 -19,162 -39,325 -65,486 272,-13 558,-85 717,-322 233,-349 106,-946 18,-1325 -69,-294 -157,-591 -208,-888 -30,-175 -68,-461 70,-603 86,-89 216,-101 333,-90 399,24 508,998 538,1281 27,254 42,510 46,765 2,156 6,338 -14,493 0,1 0,2 0,3 -14,59 -11,120 28,170 68,84 213,99 314,94 77,-5 162,-23 231,-57 38,-18 94,-55 97,-101 3,-80 -1,-160 -11,-240 -18,-148 -56,-295 -92,-440 -39,-160 -76,-318 -95,-481 -52,-449 44,-847 244,-1253 59,-111 245,-242 375,-236 34,2 66,10 95,25 161,84 190,363 201,520 21,286 4,585 -4,872 -8,271 -16,561 19,830 20,157 68,399 218,489 56,34 120,43 185,36 86,-8 180,-31 257,-68 28,-14 103,-56 102,-93 0,-5 -2,-10 -4,-14 -206,-348 -181,-821 -177,-1211 5,-485 -9,-948 -233,-1392 -145,-268 -368,-498 -700,-471 -112,9 -221,46 -321,98 -143,74 -280,185 -385,307 -39,46 -146,185 -135,249 3,16 -7,32 -23,36 -16,4 -33,-5 -38,-21l-12 -35c0,-1 -1,-2 -1,-3 -16,-67 -137,-198 -185,-247 -121,-122 -265,-233 -417,-314 -136,-72 -291,-125 -448,-125 -525,3 -754,609 -858,1023zm15280 3688c73,76 142,148 222,218 131,115 276,215 430,298 491,263 1051,334 1603,283 48,-4 109,-16 134,-62 37,-65 -4,-232 -10,-309 -78,-988 -31,-2007 118,-2987l1 -1c13,-84 29,-168 47,-251 51,-244 114,-491 184,-731 -167,3 -471,34 -590,101 -193,109 -181,530 -184,728 -12,298 -48,836 -206,1096 -78,128 -201,199 -351,213 -107,9 -235,-12 -330,-61 -173,-92 -231,-321 -256,-497 -39,-277 -23,-588 -3,-866 9,-285 -60,-585 -310,-757 -141,-97 -334,-143 -506,-122 201,359 220,751 213,1154 -6,345 -42,763 92,1088 34,84 80,162 138,233 325,311 948,355 1361,217 109,-36 113,92 110,161 -5,132 -11,263 -26,394 -168,1425 -1316,89 -1731,-412 -15,-18 -88,-108 -118,-127 -2,8 -4,19 -5,23 -39,258 -169,751 -27,976zm-4781 -4543c-268,0 -526,71 -757,204 -519,300 -816,864 -816,1449 0,586 297,1150 816,1450 231,133 489,203 757,203 267,0 526,-70 756,-203 519,-300 816,-864 816,-1450 0,-585 -297,-1149 -816,-1449 -230,-133 -489,-204 -756,-204zm0 687c532,0 922,458 922,966 0,509 -390,967 -922,967 -533,0 -923,-458 -923,-967 0,-508 390,-966 923,-966zm-6818 -1708c361,1188 582,2390 483,3634 -75,956 -334,1861 -706,2744 81,-4 167,-16 243,-29 211,-37 421,-105 607,-210 1788,-1015 -804,-4629 709,-5966 337,-297 764,-463 1219,-407 383,48 737,249 975,548 286,11 559,83 800,230 -145,-445 -453,-811 -868,-1044 -560,-313 -1253,-347 -1836,-76 -306,142 -565,367 -757,640 -5,8 -13,12 -23,13 -10,1 -18,-2 -25,-9 -119,-120 -280,-187 -451,-187 -82,0 -164,16 -240,47 -45,20 -90,43 -130,72zm3825 1076c1,24 2,48 2,72 0,376 -310,681 -692,681 -121,0 -240,-31 -345,-91 -215,-121 -347,-345 -347,-590 0,-165 60,-323 171,-447 0,-2 1,-4 3,-6 26,-44 56,-85 89,-122 -73,-28 -150,-43 -229,-43 -347,0 -629,277 -629,618 0,4 -1,8 -2,12 5,573 403,1073 968,1216 105,26 213,39 321,39 407,0 787,-187 1031,-506 -24,-262 -98,-500 -248,-719 -1,-1 -2,-2 -2,-3 -25,-40 -57,-77 -91,-111zm-1288 -1248c-221,-25 -443,4 -651,82 -2,296 -3,592 -3,888 123,-201 347,-330 594,-330 24,0 49,1 73,4 -23,-211 -22,-433 -13,-644zm1174 4040c112,92 253,141 399,141 87,0 172,-15 252,-45 315,-118 514,-440 622,-737 140,-383 175,-826 122,-1228 -119,-899 -664,-1620 -1647,-1650 -469,-14 -939,311 -953,800 -4,154 57,300 161,412 37,-159 119,-305 236,-422 181,-181 430,-342 698,-260 394,121 602,684 631,1054 21,273 9,544 -31,815 -59,392 -193,836 -490,1120zm-1851 -2276c-8,264 -17,528 -28,792 -23,556 -52,1115 -105,1670 492,47 918,-333 918,-822l0 -844c-369,-141 -655,-434 -785,-796zm732 -2408c12,-98 25,-196 41,-293 59,-376 326,-1859 836,-1900 119,-9 220,63 298,148 -39,-318 -270,-585 -582,-687 -362,-119 -707,17 -933,310 -164,213 -232,653 -265,913 -66,519 -83,1060 -93,1583 227,-64 463,-89 698,-74z"/>
    </g>
   </g>
   <path class="fil3" d="M9934 5895c-8,90 -16,180 -22,270 -52,782 3,1571 158,2339 2,9 2,16 2,24 -1,154 -206,308 -319,390 -106,78 -219,149 -332,216 -444,261 -918,480 -1393,678 -429,178 -867,341 -1315,467 -239,67 -675,180 -914,123 -39,-9 -80,-25 -106,-58 -22,-29 -29,-63 -20,-99 15,-55 71,-94 120,-119 418,-212 839,-642 1083,-1040 1,-1 1,-2 2,-3 93,-142 284,-200 442,-234 205,-43 414,-59 621,-85 204,-25 434,-59 622,-144 162,-73 312,-173 381,-343 66,-162 53,-369 40,-540 -15,-195 -33,-389 -36,-584 -80,64 -171,119 -254,157 -242,111 -505,133 -761,63 -347,-95 -661,-260 -827,-594 -137,-276 -149,-610 -162,-912 -19,-451 -3,-1031 -386,-1348 -31,-26 -45,-63 -40,-102 6,-40 29,-72 66,-88 263,-117 576,-128 842,-11 395,174 555,566 539,979 -13,339 7,735 126,1055 46,126 154,350 309,362 186,16 341,-279 403,-420 204,-462 279,-1067 316,-1569 7,-97 108,-148 189,-174 97,-31 206,-43 307,-43 156,0 406,31 479,191 20,46 23,94 12,142 -65,290 -116,582 -152,876 129,-469 392,-1040 947,-1043 177,-1 350,58 504,141 163,88 316,208 445,341 38,39 91,97 136,157 0,-1 1,-2 1,-3 28,-43 59,-87 92,-126 115,-136 263,-258 420,-341 114,-60 238,-102 366,-113 139,-11 275,16 398,84 183,101 316,275 413,457 0,1 1,1 1,2 234,472 251,958 246,1473 -4,367 -30,837 156,1167 11,-98 21,-197 29,-296 97,-1249 -125,-2476 -481,-3669 -14,-47 2,-95 42,-124 47,-34 98,-62 151,-85 1,-1 2,-1 3,-1 90,-38 186,-56 284,-56 169,0 331,57 462,160 196,-261 452,-476 749,-616 68,-32 136,-60 206,-84 10,-538 26,-1079 93,-1614 37,-295 108,-747 289,-987 253,-334 655,-491 1061,-355 352,118 616,425 660,795 6,50 -19,96 -65,116 -45,21 -97,10 -130,-27 -51,-56 -125,-120 -206,-114 -257,21 -464,666 -523,866 -94,316 -164,651 -214,978 -13,81 -24,162 -34,243 282,32 559,121 810,265 440,250 769,646 924,1129 4,15 6,30 5,45 438,321 699,851 778,1460 4,35 8,69 11,104 134,-403 402,-756 778,-977 249,-146 528,-223 817,-223 288,0 567,77 816,223 555,326 874,939 874,1577 0,638 -319,1251 -874,1577 -249,146 -528,224 -816,224 -289,0 -568,-78 -817,-224 -452,-266 -748,-722 -842,-1227 -21,86 -46,171 -75,253 -121,336 -342,686 -690,819 -94,36 -193,54 -294,54 -172,-1 -339,-60 -472,-170 -26,-21 -40,-49 -41,-82 -2,-33 10,-62 34,-85 278,-272 403,-705 459,-1080 30,-208 44,-416 39,-625 -262,264 -620,415 -998,415 -118,0 -236,-15 -350,-44 -10,-3 -19,-6 -29,-8l0 772c0,280 -119,543 -331,726 -198,170 -454,251 -713,226 -62,-6 -107,-61 -101,-123 53,-565 81,-1132 104,-1699 11,-269 20,-538 28,-807 1,-31 14,-59 36,-79 -32,-115 -49,-235 -50,-358 0,-9 1,-17 2,-24 2,-99 22,-192 58,-278 -14,-19 -22,-43 -22,-68 0,-268 0,-536 1,-804 -130,65 -251,150 -362,249 -1456,1308 1157,5015 -732,6105 -198,114 -420,188 -645,228 -85,15 -172,27 -258,31 -40,2 -75,-16 -98,-48 -23,-33 -27,-71 -12,-108 305,-735 533,-1489 646,-2272 -32,34 -75,60 -114,79 -90,45 -196,72 -296,81 -90,9 -178,-5 -256,-52 -187,-114 -246,-379 -272,-581 -37,-286 -28,-579 -20,-866 8,-292 25,-587 5,-879 -8,-109 -32,-381 -142,-439 -15,-8 -31,-12 -48,-13 -86,-3 -233,107 -270,177 -190,394 -284,780 -234,1218 19,161 55,320 93,477 37,153 75,306 95,463 10,87 15,175 11,263 -5,94 -80,160 -159,199 -83,42 -183,64 -276,70 -143,8 -317,-21 -410,-139 -60,-76 -71,-171 -51,-263 19,-158 15,-326 12,-484 -4,-258 -18,-516 -45,-772 -22,-216 -52,-433 -104,-644 -34,-139 -147,-551 -331,-562 -1,0 -3,0 -4,-1 -80,-7 -182,-5 -241,57 -104,109 -64,386 -41,520 51,303 138,600 207,900 98,427 223,1049 -34,1439 -180,275 -496,365 -808,380 -35,2 -66,-11 -90,-37 -23,-26 -33,-58 -27,-93 26,-163 46,-327 65,-491 31,-272 56,-544 72,-817 18,-309 31,-628 0,-937 -9,-82 -46,-392 -140,-423 -19,-6 -44,3 -61,12 -51,25 -106,38 -158,3 -23,-17 -38,-38 -47,-62zm-4152 4380c6,8 35,16 43,17 212,51 650,-63 858,-122 440,-123 880,-287 1301,-463 466,-193 945,-414 1380,-671 113,-66 594,-355 596,-509 -158,-778 -213,-1577 -160,-2369 30,-457 96,-896 196,-1342 6,-24 5,-47 -5,-70 -49,-107 -276,-125 -376,-125 -88,0 -188,11 -272,38 -28,8 -109,38 -112,74 -37,508 -117,1137 -325,1607 -85,193 -263,508 -515,487 -211,-17 -342,-261 -406,-436 -123,-334 -146,-746 -133,-1099 15,-367 -119,-715 -472,-871 -236,-104 -516,-93 -750,11 417,344 406,932 427,1430 12,281 22,610 150,866 151,304 441,450 755,536 231,63 467,43 685,-56 123,-57 278,-161 359,-274 8,-11 23,-16 36,-11 14,5 22,17 21,32 -12,263 13,512 33,773 15,192 27,410 -47,591 -81,199 -250,318 -439,404 -199,90 -440,126 -655,153 -202,25 -412,42 -612,84 -123,26 -298,74 -371,185 -255,416 -693,861 -1128,1082 -12,6 -58,32 -62,48zm-2341 -4920c258,-33 523,-1 766,95 590,232 979,802 979,1438 0,853 -692,1545 -1546,1545 -170,0 -339,-28 -502,-84l-118 -46c-1,0 -1,0 -2,-1 -220,-108 -379,-313 -427,-553 -10,-51 -15,-103 -15,-155 0,-68 9,-136 26,-201 91,-346 405,-587 763,-587 170,0 334,54 469,155 -18,-382 -182,-741 -461,-1005 -154,-146 -338,-257 -539,-326 -153,-53 -317,-80 -480,-80 -1236,0 -2238,1002 -2238,2239 0,397 104,784 304,1127 87,135 182,264 286,387 715,850 1760,1337 2871,1337 1316,0 2529,-686 3210,-1808 30,-51 61,-102 88,-155 169,-320 254,-674 254,-1036 0,-279 -51,-555 -153,-815l-97 -214c-256,-520 -630,-976 -1091,-1328l-11 -8c-222,-170 -464,-313 -718,-429 -11,-5 -18,-15 -19,-28 0,-12 6,-23 17,-29 142,-75 275,-166 397,-270 -234,77 -478,117 -725,117 -152,0 -304,-15 -453,-45 -1,0 -1,0 -2,0 -6,-2 -12,-3 -18,-4 -734,-150 -1355,-666 -1647,-1354 -57,-134 -101,-273 -131,-414 -16,-66 -23,-118 -32,-185 -1,-6 0,-12 3,-17 0,-4 0,-9 0,-13 0,-435 353,-788 788,-788 184,0 361,63 502,180 52,44 99,93 138,148 97,135 149,295 149,460 0,155 -45,305 -129,432 672,-147 1159,-746 1162,-1442 0,-2 0,-3 0,-5 0,-10 0,-21 -1,-32 -6,-309 -108,-607 -294,-855 -177,-236 -421,-416 -701,-513 -165,-57 -338,-84 -514,-81l1 0c-1226,14 -2212,1012 -2212,2238 0,324 70,643 205,937 59,121 135,247 209,360 233,354 524,667 861,925 53,40 107,80 162,117 318,217 667,385 1035,495 14,4 23,17 23,31 -1,15 -10,27 -24,30 -125,32 -247,69 -368,113zm6600 476c-7,43 11,40 48,21 46,-22 96,-33 146,-17 164,53 202,376 217,518 31,311 19,645 1,956 -17,275 -42,549 -73,822 -19,165 -39,332 -66,497 274,-14 561,-88 720,-330 234,-355 107,-965 18,-1352 -69,-300 -157,-603 -208,-906 -30,-180 -69,-472 70,-617 87,-90 217,-102 334,-91 401,24 510,1019 540,1308 27,258 42,521 46,781 3,159 6,345 -14,503 0,1 0,2 0,3 -14,60 -11,123 29,173 67,86 213,102 314,96 77,-4 163,-22 232,-57 38,-19 95,-56 97,-104 4,-82 0,-163 -10,-244 -19,-152 -57,-302 -92,-450 -40,-163 -77,-324 -96,-491 -52,-459 44,-865 244,-1280 59,-112 246,-246 377,-240 34,1 66,9 96,25 161,86 190,371 201,531 21,292 4,598 -4,890 -8,277 -16,574 19,848 20,161 68,407 219,499 56,35 120,44 186,37 86,-8 180,-32 257,-70 29,-14 104,-56 103,-95 0,-5 -2,-9 -4,-14 -207,-356 -182,-838 -178,-1236 5,-496 -9,-968 -234,-1422 -145,-273 -369,-508 -702,-481 -113,10 -222,48 -322,101 -144,76 -281,189 -386,314 -40,46 -147,188 -136,254 3,16 -7,32 -24,36 -16,4 -32,-5 -37,-21l-13 -36c0,-1 0,-2 0,-3 -17,-69 -137,-203 -186,-253 -121,-124 -266,-237 -418,-320 -137,-74 -293,-128 -450,-127 -527,3 -757,622 -861,1044zm15335 3765c73,78 143,152 223,223 132,118 277,220 432,304 493,269 1055,342 1608,289 48,-4 110,-17 136,-63 37,-66 -5,-237 -11,-316 -78,-1008 -31,-2049 119,-3049l0 -1c14,-86 30,-171 48,-257 51,-248 114,-501 184,-746 -167,3 -473,34 -592,103 -193,112 -182,542 -185,743 -11,305 -48,854 -207,1120 -78,130 -201,203 -352,217 -106,10 -235,-12 -330,-63 -175,-93 -233,-327 -258,-507 -39,-283 -23,-600 -3,-884 10,-291 -60,-597 -311,-773 -141,-99 -335,-146 -508,-124 202,367 221,766 214,1178 -6,352 -42,779 92,1111 35,86 81,165 139,238 327,317 952,362 1366,221 110,-37 113,94 110,164 -5,135 -11,269 -26,403 -169,1455 -1320,90 -1737,-421 -15,-18 -88,-110 -118,-129 -3,7 -5,19 -5,23 -40,263 -170,767 -28,996zm-4798 -4638c-269,0 -528,72 -759,208 -521,306 -820,882 -820,1480 0,598 299,1174 819,1480 232,136 491,208 760,208 268,0 527,-72 759,-208 520,-306 819,-882 819,-1480 0,-598 -299,-1174 -819,-1480 -232,-136 -491,-208 -759,-208zm0 702c534,0 925,467 925,986 0,519 -391,987 -925,987 -535,0 -926,-468 -926,-987 0,-519 391,-986 926,-986zm-6843 -1744c362,1212 584,2440 485,3709 -76,977 -335,1901 -709,2802 81,-3 168,-16 244,-29 212,-38 423,-107 609,-215 1795,-1036 -807,-4726 712,-6091 338,-303 767,-473 1223,-415 385,48 740,254 979,559 287,12 561,85 803,236 -145,-455 -455,-829 -872,-1066 -561,-321 -1256,-355 -1842,-78 -307,145 -567,374 -759,653 -6,8 -14,13 -24,14 -10,0 -18,-3 -25,-10 -119,-122 -281,-191 -452,-191 -83,0 -165,16 -241,48 -46,20 -91,44 -131,74zm3839 1099c1,24 2,49 2,73 0,384 -311,695 -695,695 -121,0 -240,-32 -346,-93 -215,-124 -348,-353 -348,-602 0,-169 61,-330 171,-457 1,-2 2,-4 3,-6 26,-44 56,-86 90,-124 -73,-29 -151,-44 -230,-44 -349,0 -631,283 -631,631 0,4 -1,8 -2,12 5,585 404,1096 971,1241 105,27 214,41 322,41 409,0 791,-192 1035,-518 -24,-267 -98,-509 -249,-733 -1,-1 -1,-2 -2,-4 -25,-40 -57,-78 -91,-112zm-1293 -1275c-222,-26 -444,4 -653,84 -2,302 -3,604 -3,907 124,-206 348,-337 596,-337 25,0 49,1 74,3 -24,-214 -23,-441 -14,-657zm1178 4125c113,93 254,144 402,144 86,0 171,-15 252,-46 316,-120 516,-449 625,-753 140,-390 175,-843 122,-1253 -119,-919 -667,-1654 -1653,-1685 -471,-15 -943,318 -957,817 -4,157 58,306 162,421 37,-163 119,-312 237,-432 181,-184 431,-348 700,-265 396,123 604,699 633,1076 22,279 10,556 -31,832 -59,401 -194,853 -492,1144zm-1857 -2324c-8,270 -18,539 -28,809 -23,568 -52,1138 -105,1704 493,48 920,-339 920,-839l0 -862c-369,-144 -656,-443 -787,-812zm734 -2459c12,-100 26,-200 41,-299 60,-384 328,-1897 840,-1939 119,-10 220,64 298,151 -39,-325 -271,-597 -584,-702 -362,-121 -709,18 -935,316 -165,219 -234,668 -267,933 -66,530 -83,1082 -93,1617 227,-66 464,-92 700,-77zm5734 5263c62,20 124,43 187,63 107,33 243,69 353,33 184,-59 232,-300 249,-465 14,-125 25,-250 35,-375 26,-293 48,-602 110,-890 38,-180 113,-449 292,-539 190,-95 487,-104 691,-62 472,97 662,442 580,913 -41,238 -97,473 -158,707 -53,204 -110,408 -157,613 -48,208 -141,607 28,781 180,185 505,314 770,357 -144,-470 136,-2059 164,-2558 25,-426 -99,-838 -438,-1114 -393,-320 -941,-355 -1412,-218 -141,41 -302,104 -436,165 -14,7 -31,1 -40,-12 -116,-189 -322,-248 -529,-259 13,47 23,98 32,143 32,178 45,364 47,544 9,723 -154,1485 -368,2173zm-5678 -4538c-7,186 -6,375 13,560 30,8 59,17 87,28 161,-127 361,-208 570,-230 -185,-179 -418,-305 -670,-358zm1070 1191c-45,-34 -94,-61 -146,-77 -224,-70 -438,85 -587,236 -103,105 -175,235 -207,378 -1,3 -2,6 -2,9 22,18 46,34 72,49 88,50 188,77 289,77 322,0 582,-261 582,-582 0,-22 -1,-45 -2,-67 0,-8 0,-16 1,-23zm3116 774c-473,0 -813,419 -813,874 0,456 340,874 813,874 472,0 812,-418 812,-874 0,-455 -340,-874 -812,-874zm2365 -146c126,-55 259,-105 389,-143 506,-148 1094,-104 1515,238 368,300 507,746 480,1209 -10,177 -35,360 -57,537 -30,241 -61,483 -87,725 -27,249 -51,501 -59,751 -5,144 -9,366 34,505 11,38 3,77 -23,107 -27,30 -64,43 -103,37 -282,-46 -632,-182 -833,-389 -207,-214 -117,-626 -57,-885 48,-207 105,-411 158,-616 60,-231 115,-463 156,-698 31,-182 26,-385 -82,-542 -96,-138 -249,-209 -409,-241 -180,-37 -452,-31 -618,52 -139,70 -204,323 -233,462 -62,286 -82,584 -107,876 -11,126 -22,251 -35,377 -23,217 -92,485 -327,561 -137,43 -289,8 -422,-34 -63,-19 -125,-42 -188,-63 -59,-19 -91,-82 -73,-141 212,-679 372,-1423 364,-2137 -3,-176 -15,-353 -46,-526 -8,-44 -17,-89 -30,-133 -10,-36 -3,-72 21,-101 23,-29 57,-44 94,-42 224,12 439,77 578,254zm4235 3054c-208,63 -441,81 -656,61 -281,-25 -580,-121 -787,-321 -3,-4 -6,-7 -9,-11 -65,-80 -117,-170 -155,-266 -144,-354 -107,-780 -101,-1155 7,-387 -8,-774 -200,-1121 -18,-34 -19,-72 -2,-106 18,-34 49,-56 87,-61 200,-25 421,28 587,144 283,198 370,539 359,868 0,2 0,3 0,5 -20,280 -37,581 2,861 19,137 64,351 199,423 76,40 182,57 267,49 115,-10 206,-63 266,-162 145,-244 180,-781 190,-1063 4,-253 -7,-696 242,-840 147,-84 473,-115 646,-117 37,-1 69,15 92,44 22,29 29,64 18,100 -69,243 -131,489 -182,737 -17,84 -33,168 -47,252l0 0c-149,995 -195,2020 -118,3024 10,118 58,270 -3,379 -46,83 -135,112 -223,121 -576,54 -1160,-23 -1673,-303 -163,-88 -315,-195 -453,-318 -81,-73 -155,-151 -230,-230 -5,-6 -9,-12 -14,-18 -168,-271 -33,-772 12,-1073 2,-14 5,-28 10,-42 11,-34 35,-59 69,-71 35,-12 69,-8 99,12 49,31 106,107 144,153 161,197 328,392 509,572 148,147 542,516 775,451 183,-51 236,-392 254,-544 15,-131 20,-263 26,-394 0,-9 0,-25 0,-40zm-23648 -3475c-289,-108 -564,-251 -818,-425 -57,-39 -113,-80 -168,-122 -346,-265 -647,-588 -886,-952 -79,-120 -154,-244 -216,-373 -1,-1 -1,-1 -1,-2 -143,-309 -215,-644 -215,-984 0,-1287 1035,-2335 2321,-2351 0,0 1,0 1,0 187,-3 375,26 552,88 301,104 564,297 754,552 200,266 310,587 317,920 0,12 0,23 0,34 0,3 0,5 0,5 -2,745 -522,1393 -1250,1553 -46,10 -91,-8 -117,-47 -27,-38 -27,-86 -2,-125 73,-111 111,-239 111,-371 0,-142 -44,-279 -127,-394 -34,-47 -74,-90 -119,-127 -121,-100 -272,-154 -430,-154 -373,0 -676,302 -676,675 0,4 0,7 0,11 0,7 0,13 -1,20 7,53 15,104 28,157 0,1 0,2 0,4 29,134 71,266 125,392 278,655 868,1146 1566,1289 6,1 12,2 17,3 1,0 2,0 2,0 142,29 286,43 431,43 234,0 467,-37 690,-111 51,-17 107,4 133,52 27,47 17,106 -25,141 -88,75 -183,144 -281,206 211,106 412,231 599,374l12 9c474,362 860,832 1123,1367 1,1 1,2 2,4l97 214c1,2 1,3 2,5 107,273 161,563 161,856 0,380 -90,753 -267,1089 -28,54 -60,108 -92,160 -702,1157 -1952,1862 -3306,1862 -1144,0 -2220,-501 -2957,-1376 -107,-127 -205,-260 -295,-399 -1,-2 -2,-3 -3,-4 -210,-360 -319,-767 -319,-1184 0,-1299 1053,-2352 2351,-2352 175,0 352,29 517,86 216,74 414,194 580,351 299,284 476,669 496,1081 2,45 -20,84 -60,105 -39,21 -84,18 -120,-9 -117,-87 -257,-133 -402,-133 -307,0 -576,207 -654,503 -15,57 -22,115 -22,173 0,45 4,89 13,133 41,205 176,380 363,473l112 43c149,51 306,77 463,77 791,0 1433,-641 1433,-1432 0,-589 -360,-1117 -907,-1333 -224,-89 -471,-118 -710,-88 -58,7 -111,-29 -124,-85 -14,-56 17,-113 71,-133 42,-15 84,-30 127,-44z"/>
   <polygon class="fil4" points="5693,11845 5392,12176 5392,11845 5116,11845 5116,12841 5392,12841 5392,12588 5513,12455 5742,12841 6063,12841 5707,12241 6067,11845 "/>
   <path id="1" class="fil4" d="M6540 11845l-390 996 297 0 54 -138 386 0 53 138 296 0 -379 -996 -317 0zm157 357l85 224 -173 0 88 -224z"/>
   <polygon id="2" class="fil4" points="7319,11845 7319,12841 8176,12841 8176,12565 7596,12565 7596,11845 "/>
   <polygon id="3" class="fil4" points="8260,11845 8260,12841 9117,12841 9117,12565 8536,12565 8536,12454 8933,12454 8933,12233 8536,12233 8536,12122 9117,12122 9117,11845 "/>
   <polygon id="4" class="fil4" points="9200,12841 9477,12841 9477,11845 9200,11845 "/>
   <path id="5" class="fil4" d="M9837 12122l138 0c61,0 113,21 156,65 44,43 66,95 66,156 0,61 -22,113 -66,157 -43,43 -95,65 -156,65l-138 0 0 -443zm636 221c0,-137 -49,-254 -146,-351 -97,-98 -215,-147 -352,-147l-415 0 0 996 415 0c137,0 255,-49 352,-146 97,-97 146,-214 146,-352z"/>
   <path id="6" class="fil4" d="M11054 12122c61,0 113,21 157,65 43,43 64,95 64,156 0,61 -21,113 -64,157 -44,43 -96,65 -157,65 -61,0 -113,-22 -157,-65 -43,-44 -64,-96 -64,-157 0,-61 21,-113 64,-156 44,-44 96,-65 157,-65zm0 719c138,0 255,-49 352,-146 97,-97 146,-214 146,-352 0,-137 -49,-254 -146,-351 -97,-98 -214,-147 -352,-147 -137,0 -255,49 -352,147 -97,97 -146,214 -146,351 0,138 49,255 146,352 97,97 215,146 352,146z"/>
   <path id="7" class="fil4" d="M12244 12482c11,0 21,4 29,12 8,8 13,18 13,29 0,12 -5,21 -13,29 -8,8 -18,13 -29,13l-554 0 0 276 554 0c88,0 162,-31 225,-93 62,-62 93,-137 93,-225 0,-88 -31,-163 -93,-225 -63,-62 -137,-93 -225,-93l-290 0c-12,0 -22,-4 -30,-12 -8,-8 -12,-18 -12,-29 0,-12 4,-22 12,-30 8,-8 18,-12 30,-12l552 0 0 -277 -552 0c-88,0 -163,32 -225,94 -62,62 -94,137 -94,225 0,88 32,162 94,225 62,62 137,93 225,93l290 0z"/>
   <path id="8" class="fil4" d="M13143 12841c138,0 255,-48 352,-145l-196 -196c-43,43 -95,65 -156,65 -61,0 -113,-22 -157,-65 -43,-43 -64,-95 -64,-157 0,-61 21,-112 64,-156 44,-43 96,-64 157,-64 61,0 113,21 156,64l196 -195c-97,-97 -214,-146 -352,-146 -138,0 -255,49 -352,146 -97,97 -146,214 -146,351 0,138 49,255 146,353 97,97 214,145 352,145z"/>
   <path id="9" class="fil4" d="M13951 12122c60,0 113,21 156,65 43,43 65,95 65,156 0,61 -22,113 -65,157 -43,43 -96,65 -156,65 -61,0 -113,-22 -157,-65 -43,-44 -65,-96 -65,-157 0,-61 22,-113 65,-156 44,-44 96,-65 157,-65zm0 719c137,0 254,-49 351,-146 98,-97 146,-214 146,-352 0,-137 -48,-254 -146,-351 -97,-98 -214,-147 -351,-147 -138,0 -255,49 -352,147 -97,97 -146,214 -146,351 0,138 49,255 146,352 97,97 214,146 352,146z"/>
   <path id="10" class="fil4" d="M14808 12122l208 0c27,0 49,10 68,29 19,19 28,41 28,68 0,27 -9,49 -28,68 -19,19 -41,28 -68,28l-208 0 0 -193zm0 470l208 0c103,0 191,-37 264,-109 72,-73 109,-161 109,-264 0,-103 -37,-191 -109,-264 -73,-73 -161,-110 -264,-110l-484 0 0 996 276 0 0 -249z"/>
   <polygon id="11" class="fil4" points="15472,11845 15472,12841 16329,12841 16329,12565 15749,12565 15749,12454 16146,12454 16146,12233 15749,12233 15749,12122 16329,12122 16329,11845 "/>
   <path id="12" class="fil4" d="M17264 12122c61,0 113,21 157,65 43,43 65,95 65,156 0,61 -22,113 -65,157 -44,43 -96,65 -157,65 -60,0 -113,-22 -156,-65 -43,-44 -65,-96 -65,-157 0,-61 22,-113 65,-156 43,-44 96,-65 156,-65zm0 719c138,0 255,-49 352,-146 97,-97 146,-214 146,-352 0,-137 -49,-254 -146,-351 -97,-98 -214,-147 -352,-147 -137,0 -254,49 -351,147 -98,97 -146,214 -146,351 0,138 48,255 146,352 97,97 214,146 351,146z"/>
   <polygon id="13" class="fil4" points="17846,11845 17846,12841 18122,12841 18122,12454 18519,12454 18519,12233 18122,12233 18122,12122 18702,12122 18702,11845 "/>
   <path id="14" class="fil4" d="M19529 11845l-389 996 296 0 54 -138 386 0 53 138 296 0 -379 -996 -317 0zm157 357l85 224 -173 0 88 -224z"/>
   <path id="15" class="fil4" d="M20169 12357c1,4 1,8 1,12 6,127 55,236 145,327l0 -1c97,97 214,146 352,146 136,0 253,-48 350,-145 98,-96 147,-212 148,-348l0 -115 -443 0 0 221 136 0c-42,74 -106,111 -191,111 -57,0 -107,-20 -148,-58 -43,-38 -67,-85 -72,-141 0,-3 -1,-6 -1,-10l0 -2c0,-3 0,-7 0,-11 0,-3 0,-7 0,-11l0 -1c0,-4 1,-7 1,-10l0 -1c8,-81 49,-139 123,-176 2,0 2,-1 2,-1 1,0 3,-1 6,-2 3,-1 4,-2 4,-2 0,0 2,-1 5,-2 3,-1 5,-2 6,-3 -1,1 0,1 2,0 40,-14 80,-16 120,-6 42,9 78,29 109,59l195 -196c-97,-97 -215,-146 -352,-146 -4,0 -8,0 -13,0 2,0 1,0 -2,0 -4,0 -8,1 -11,1l0 0c0,0 0,0 0,0 -127,7 -236,55 -326,145 -90,91 -139,199 -145,327l0 0c0,3 0,7 -1,11l0 2c0,4 0,8 0,12 0,5 0,9 0,13l0 1z"/>
   <polygon id="16" class="fil4" points="21248,11845 21248,12841 22105,12841 22105,12565 21525,12565 21525,12454 21921,12454 21921,12233 21525,12233 21525,12122 22105,12122 22105,11845 "/>
   <path id="17" class="fil4" d="M22797 12482c12,0 21,4 29,12 9,8 13,18 13,29 0,12 -4,21 -13,29 -8,8 -17,13 -29,13l-553 0 0 276 553 0c88,0 163,-31 225,-93 62,-62 93,-137 93,-225 0,-88 -31,-163 -93,-225 -62,-62 -137,-93 -225,-93l-290 0c-12,0 -21,-4 -29,-12 -9,-8 -13,-18 -13,-29 0,-12 4,-22 13,-30 8,-8 17,-12 29,-12l553 0 0 -277 -553 0c-88,0 -163,32 -225,94 -62,62 -93,137 -93,225 0,88 31,162 93,225 62,62 137,93 225,93l290 0z"/>
   <path class="fil4" d="M9646 13355l0 83c0,24 -2,43 -7,57 -5,15 -10,27 -15,38l-326 690c-8,18 -21,33 -37,46 -17,12 -39,19 -66,19l-145 0 333 -668c9,-18 19,-35 29,-49 10,-15 22,-29 34,-42l-410 0c-6,0 -11,-1 -17,-3 -5,-3 -10,-6 -14,-10 -4,-4 -7,-9 -10,-14 -2,-5 -4,-11 -4,-16l0 -131 655 0z"/>
   <path id="1" class="fil4" d="M9990 14298c-31,0 -59,-5 -83,-14 -24,-9 -44,-22 -61,-39 -16,-17 -29,-37 -37,-61 -9,-24 -13,-51 -13,-80l0 -343 -56 0c-11,0 -19,-3 -27,-10 -7,-6 -10,-16 -10,-29l0 -76 105 -21 39 -163c5,-20 20,-31 44,-31l103 0 0 194 161 0 0 136 -161 0 0 329c0,15 4,28 12,38 7,10 18,15 32,15 7,0 13,-1 18,-2 5,-2 9,-3 13,-5 3,-2 7,-4 10,-5 3,-2 7,-3 11,-3 6,0 11,2 15,5 3,3 7,7 11,13l60 94c-26,20 -54,34 -86,43 -32,10 -65,15 -100,15z"/>
   <path id="2" class="fil4" d="M10269 14288l0 -958 199 0 0 353c23,-21 49,-38 77,-50 28,-13 62,-19 100,-19 37,0 69,6 97,19 28,12 51,30 70,52 19,22 34,49 44,80 10,31 14,65 14,101l0 422 -198 0 0 -422c0,-32 -7,-58 -22,-76 -15,-18 -37,-27 -66,-27 -22,0 -42,6 -61,16 -20,11 -38,25 -55,43l0 466 -199 0z"/>
   <polygon id="3" class="fil4" points="10998,13818 11344,13818 11344,13978 10998,13978 "/>
   <path id="4" class="fil4" d="M11735 13924c-30,0 -60,-5 -91,-16 -30,-11 -57,-27 -82,-49 -24,-23 -44,-51 -60,-84 -15,-34 -23,-74 -23,-120 0,-42 8,-82 24,-120 15,-37 37,-70 66,-99 29,-28 63,-50 103,-66 41,-17 85,-25 135,-25 50,0 95,8 135,23 39,15 73,37 101,65 27,28 48,60 63,99 15,38 22,80 22,126 0,31 -3,60 -7,87 -5,27 -12,52 -21,77 -9,24 -19,48 -32,70 -12,23 -26,45 -41,67l-201 285c-9,13 -22,23 -40,32 -19,8 -39,12 -62,12l-183 0 295 -353c6,-7 12,-14 17,-21 6,-6 11,-13 16,-20 -19,10 -40,18 -63,23 -22,5 -46,7 -71,7zm203 -283c0,-23 -3,-43 -9,-60 -7,-18 -16,-32 -28,-43 -12,-12 -26,-21 -42,-27 -17,-6 -35,-9 -55,-9 -20,0 -38,4 -53,11 -16,7 -29,17 -40,29 -11,12 -19,27 -25,44 -5,17 -8,35 -8,55 0,92 43,139 129,139 42,0 75,-13 97,-38 23,-26 34,-59 34,-101z"/>
   <path id="5" class="fil4" d="M12459 14298c-31,0 -59,-5 -83,-14 -24,-9 -45,-22 -61,-39 -16,-17 -29,-37 -38,-61 -8,-24 -12,-51 -12,-80l0 -343 -57 0c-10,0 -19,-3 -26,-10 -7,-6 -11,-16 -11,-29l0 -76 106 -21 39 -163c5,-20 19,-31 43,-31l104 0 0 194 161 0 0 136 -161 0 0 329c0,15 4,28 11,38 8,10 18,15 32,15 8,0 14,-1 19,-2 5,-2 9,-3 13,-5 3,-2 7,-4 10,-5 3,-2 7,-3 11,-3 6,0 11,2 14,5 4,3 8,7 11,13l61 94c-26,20 -55,34 -87,43 -32,10 -65,15 -99,15z"/>
   <path id="6" class="fil4" d="M12738 14288l0 -958 198 0 0 353c24,-21 50,-38 78,-50 28,-13 61,-19 100,-19 36,0 68,6 96,19 28,12 52,30 71,52 19,22 34,49 43,80 10,31 15,65 15,101l0 422 -198 0 0 -422c0,-32 -8,-58 -23,-76 -14,-18 -36,-27 -65,-27 -22,0 -43,6 -62,16 -19,11 -37,25 -55,43l0 466 -198 0z"/>
   <polygon id="7" class="fil4" points="14327,13355 14327,13522 13944,13522 13944,13757 14263,13757 14263,13924 13944,13924 13944,14288 13727,14288 13727,13355 "/>
   <path id="8" class="fil4" d="M14685 13614c44,0 84,6 120,20 37,14 68,34 94,60 27,26 47,57 62,95 15,38 22,81 22,128 0,15 -1,28 -2,37 -1,9 -4,17 -7,22 -4,6 -8,10 -14,12 -6,2 -13,3 -22,3l-382 0c6,56 23,96 50,121 27,25 63,38 106,38 23,0 42,-3 59,-9 17,-5 32,-11 45,-18 13,-7 25,-13 35,-19 11,-6 23,-8 35,-8 15,0 27,6 35,17l58 73c-21,23 -43,42 -66,56 -24,15 -48,26 -73,34 -25,8 -50,14 -75,17 -25,3 -49,5 -71,5 -47,0 -90,-8 -131,-23 -41,-15 -76,-37 -107,-67 -30,-30 -54,-67 -72,-112 -18,-44 -27,-96 -27,-155 0,-44 8,-86 23,-126 15,-39 37,-74 65,-104 29,-30 63,-54 103,-71 41,-18 86,-26 137,-26zm4 137c-38,0 -68,10 -89,32 -22,21 -36,52 -43,93l248 0c0,-16 -2,-31 -6,-46 -4,-15 -11,-29 -20,-40 -9,-12 -21,-21 -36,-29 -15,-7 -33,-10 -54,-10z"/>
   <path id="9" class="fil4" d="M15097 14288l0 -958 198 0 0 365c25,-25 53,-44 84,-59 31,-15 68,-22 110,-22 35,0 67,7 96,22 30,15 55,37 76,66 22,28 38,64 51,106 12,41 18,89 18,142 0,50 -7,96 -21,139 -14,42 -33,78 -58,110 -25,31 -55,55 -90,73 -34,17 -73,26 -115,26 -20,0 -37,-2 -53,-6 -15,-3 -30,-9 -43,-16 -13,-7 -25,-15 -36,-25 -10,-10 -21,-20 -31,-31l-7 32c-3,14 -9,23 -17,28 -7,5 -18,8 -31,8l-131 0zm323 -525c-14,0 -27,2 -39,5 -12,3 -23,7 -33,13 -10,5 -19,12 -28,20 -8,9 -17,19 -25,30l0 277c15,16 31,28 48,34 18,7 36,10 55,10 19,0 36,-3 51,-11 15,-7 29,-19 40,-35 11,-16 20,-36 27,-62 6,-26 9,-57 9,-93 0,-35 -2,-65 -8,-89 -5,-23 -12,-43 -21,-58 -9,-14 -20,-25 -33,-31 -13,-7 -27,-10 -43,-10z"/>
   <path id="10" class="fil4" d="M15805 14175c0,-13 3,-26 8,-38 5,-11 12,-22 22,-30 10,-9 21,-16 34,-21 13,-5 27,-8 44,-8 19,0 35,3 50,10 14,7 25,16 35,27 9,11 16,24 21,39 4,15 6,30 6,46 0,22 -3,44 -10,68 -7,24 -17,49 -30,73 -14,24 -31,48 -51,72 -20,23 -43,45 -69,64l-34 -31c-5,-5 -8,-9 -11,-13 -2,-4 -3,-9 -3,-15 0,-4 1,-9 4,-14 3,-5 7,-9 11,-13 5,-5 11,-11 18,-19 7,-7 14,-15 20,-24 7,-9 14,-19 19,-29 6,-11 10,-22 13,-34 -14,-2 -28,-5 -40,-11 -12,-6 -22,-14 -30,-24 -8,-10 -15,-21 -20,-33 -4,-13 -7,-27 -7,-42z"/>
   <path id="11" class="fil4" d="M16695 13345c47,0 88,7 125,20 37,14 68,32 94,56 26,24 46,53 60,86 14,33 21,70 21,110 0,34 -5,66 -14,94 -10,30 -23,57 -40,84 -17,26 -36,51 -58,76 -22,25 -45,50 -70,75l-182 187c23,-7 47,-13 69,-18 23,-4 45,-6 65,-6l174 0c21,0 38,5 50,17 12,12 19,27 19,47l0 115 -655 0 0 -64c0,-13 2,-26 7,-40 5,-14 14,-27 27,-38l269 -271c23,-23 43,-45 60,-66 17,-21 31,-41 42,-61 11,-21 20,-41 25,-61 6,-20 8,-42 8,-64 0,-37 -8,-66 -26,-86 -18,-20 -45,-30 -81,-30 -15,0 -29,3 -41,7 -12,4 -23,10 -33,17 -10,7 -18,16 -25,26 -7,10 -13,20 -17,32 -7,19 -16,33 -26,41 -11,9 -25,13 -43,13 -4,0 -9,0 -14,-1 -4,0 -10,-1 -15,-1l-105 -19c7,-46 21,-87 40,-122 19,-34 43,-63 72,-86 29,-23 62,-41 99,-52 37,-11 77,-17 119,-17z"/>
   <path id="12" class="fil4" d="M17769 13821c0,82 -9,152 -27,212 -17,60 -41,109 -72,149 -31,39 -68,68 -110,87 -42,19 -89,29 -138,29 -49,0 -95,-10 -137,-29 -42,-19 -79,-48 -109,-87 -31,-40 -55,-89 -72,-149 -17,-60 -26,-130 -26,-212 0,-81 9,-152 26,-212 17,-59 41,-109 72,-148 30,-39 67,-68 109,-87 42,-19 88,-29 137,-29 49,0 96,10 138,29 42,19 79,48 110,87 31,39 55,89 72,148 18,60 27,131 27,212zm-205 0c0,-64 -4,-117 -12,-158 -8,-41 -19,-73 -32,-97 -14,-23 -29,-39 -46,-48 -17,-9 -35,-13 -52,-13 -17,0 -35,4 -51,13 -17,9 -32,25 -45,48 -13,24 -24,56 -31,97 -8,41 -12,94 -12,158 0,65 4,118 12,159 7,41 18,73 31,96 13,24 28,40 45,49 16,9 34,13 51,13 17,0 35,-4 52,-13 17,-9 32,-25 46,-49 13,-23 24,-55 32,-96 8,-41 12,-94 12,-159z"/>
   <path id="13" class="fil4" d="M17955 14144l179 0 0 -469c0,-23 1,-47 2,-72l-105 86c-7,6 -14,10 -21,12 -6,2 -13,3 -19,3 -12,0 -21,-2 -30,-7 -9,-5 -15,-10 -20,-15l-62 -82 290 -245 164 0 0 789 153 0 0 144 -531 0 0 -144z"/>
   <path id="14" class="fil4" d="M18907 14298c-49,0 -95,-7 -136,-20 -40,-13 -75,-32 -105,-56 -29,-24 -51,-53 -67,-87 -16,-34 -25,-72 -25,-113 0,-25 3,-49 9,-72 6,-22 15,-42 28,-61 12,-18 29,-35 48,-49 20,-15 44,-27 72,-36 -42,-20 -74,-46 -95,-81 -20,-34 -31,-75 -31,-123 0,-36 8,-70 23,-101 14,-31 35,-58 62,-81 27,-22 59,-40 96,-53 37,-13 77,-20 121,-20 44,0 84,7 121,20 37,13 69,31 96,53 27,23 48,50 63,81 14,31 22,65 22,101 0,48 -11,89 -31,123 -21,35 -53,61 -95,81 28,9 52,21 71,36 20,14 36,31 49,49 13,19 22,39 28,61 6,23 9,47 9,72 0,41 -8,79 -24,113 -16,34 -39,63 -68,87 -29,24 -64,43 -105,56 -41,13 -86,20 -136,20zm0 -150c22,0 41,-3 58,-10 16,-7 29,-16 40,-28 10,-12 18,-25 23,-41 5,-16 7,-33 7,-52 0,-20 -2,-38 -6,-55 -5,-16 -12,-31 -22,-42 -9,-12 -22,-21 -39,-28 -16,-7 -37,-10 -61,-10 -24,0 -44,3 -61,10 -16,7 -30,16 -39,28 -10,11 -17,26 -21,42 -5,17 -7,35 -7,55 0,19 3,36 8,52 5,16 12,29 23,41 10,12 23,21 39,28 16,7 35,10 58,10zm0 -417c22,0 40,-3 54,-11 14,-7 26,-16 34,-29 8,-11 13,-25 16,-40 3,-16 5,-32 5,-48 0,-15 -2,-29 -6,-42 -4,-14 -10,-26 -19,-36 -8,-11 -20,-19 -34,-26 -13,-6 -30,-9 -50,-9 -20,0 -37,3 -50,9 -14,7 -25,15 -34,26 -9,10 -15,22 -19,36 -4,13 -6,27 -6,42 0,16 2,32 5,48 3,15 8,29 16,40 9,13 20,22 34,29 14,8 32,11 54,11z"/>
  </g>
 </g>
</svg>
