<?xml version="1.0" encoding="UTF-8"?>
<!DOCTYPE svg PUBLIC "-//W3C//DTD SVG 1.1//EN" "http://www.w3.org/Graphics/SVG/1.1/DTD/svg11.dtd">
<!-- Creator: CorelDRAW X7 -->
<svg xmlns="http://www.w3.org/2000/svg" xml:space="preserve" width="42.3332mm" height="42.3332mm" version="1.1" style="shape-rendering:geometricPrecision; text-rendering:geometricPrecision; image-rendering:optimizeQuality; fill-rule:evenodd; clip-rule:evenodd"
viewBox="0 0 4233 4233"
 xmlns:xlink="http://www.w3.org/1999/xlink">
 <defs>
  <style type="text/css">
   <![CDATA[
    .fil1 {fill:none}
    .fil0 {fill:#F80C3A}
   ]]>
  </style>
   <clipPath id="id0">
    <path d="M0 0l4233 0 0 4233 -4233 0 0 -4233z"/>
   </clipPath>
 </defs>
 <g id="Layer_x0020_1">
  <metadata id="CorelCorpID_0Corel-Layer"/>
  <g>
  </g>
  <g style="clip-path:url(#id0)">
   <g>
    <path class="fil0" d="M1758 1605c78,-413 -126,-858 175,-1150 260,-251 696,-172 1123,-174l-1 563c-735,-13 -622,57 -631,764l589 6 -3 650 -585 3 -4 1693 -653 3 0 -1695 -588 -3 -2 -656 580 -4z"/>
   </g>
  </g>
  <polygon class="fil1" points="0,0 4233,0 4233,4233 0,4233 "/>
 </g>
</svg>
