<?xml version="1.0" encoding="UTF-8"?>
<!DOCTYPE svg PUBLIC "-//W3C//DTD SVG 1.1//EN" "http://www.w3.org/Graphics/SVG/1.1/DTD/svg11.dtd">
<!-- Creator: CorelDRAW X7 -->
<svg xmlns="http://www.w3.org/2000/svg" xml:space="preserve" width="42.3332mm" height="42.3332mm" version="1.1" style="shape-rendering:geometricPrecision; text-rendering:geometricPrecision; image-rendering:optimizeQuality; fill-rule:evenodd; clip-rule:evenodd"
viewBox="0 0 4233 4233"
 xmlns:xlink="http://www.w3.org/1999/xlink">
 <defs>
  <style type="text/css">
   <![CDATA[
    .fil1 {fill:none}
    .fil0 {fill:#F80C3A}
   ]]>
  </style>
   <clipPath id="id0">
    <path d="M0 0l4233 0 0 4233 -4233 0 0 -4233z"/>
   </clipPath>
 </defs>
 <g id="Layer_x0020_1">
  <metadata id="CorelCorpID_0Corel-Layer"/>
  <g>
  </g>
  <g style="clip-path:url(#id0)">
   <g>
    <g id="_2853961811616">
     <path class="fil0" d="M2822 2833c27,-56 54,-136 74,-189 24,-63 51,-121 73,-185 76,-216 109,-439 53,-667 -14,-57 -49,-120 -69,-187 -44,-149 -18,-311 157,-328 -28,-38 -77,-76 -109,-110 -86,-94 -275,-204 -389,-251 -222,-92 -488,-122 -744,-73 -333,65 -587,239 -790,497 -44,56 -134,196 -154,272l304 -8c100,0 202,-1 304,-2l1 66c-78,-1 -138,-4 -158,68 -17,58 24,126 43,177l256 641c17,43 113,297 127,313 26,-31 117,-270 143,-331 47,-113 94,-221 139,-331 14,-36 -1,-49 -15,-85l-98 -251c-49,-129 -83,-198 -263,-209l0 -58 910 2 -1 60c-64,11 -147,-4 -179,46 -31,49 9,124 27,172 41,107 81,214 118,317l240 634z"/>
     <path class="fil0" d="M2138 653c30,0 57,2 87,5 201,18 322,48 508,131 12,5 20,9 31,15 169,91 150,81 306,202 59,45 91,86 136,135 110,121 180,230 252,387 80,179 122,381 123,601 0,231 -54,411 -134,598 -50,118 -200,343 -300,431l-203 166c-66,48 -154,93 -233,130 -177,81 -383,125 -600,125 -332,0 -736,-146 -962,-369 -9,-9 -15,-12 -24,-21 -17,-14 -33,-28 -46,-41 -264,-277 -425,-633 -424,-1032 1,-290 81,-549 227,-781 63,-100 159,-220 246,-294 128,-108 113,-102 267,-196 215,-131 485,-192 743,-192zm-1548 1542c11,207 74,448 159,604 120,222 307,462 528,594l16 10c454,287 1020,328 1508,82l65 -35c305,-172 537,-436 670,-760 86,-210 113,-399 109,-653 -5,-388 -244,-861 -538,-1087 -20,-16 -34,-27 -52,-41 -290,-224 -635,-340 -1016,-320 -351,18 -643,143 -894,350 -23,18 -29,25 -50,42 -13,10 -15,14 -27,25 -150,135 -296,351 -368,536 -78,200 -123,418 -110,653z"/>
     <path class="fil0" d="M1708 3357c33,7 70,21 99,27 111,26 202,38 324,38 195,0 259,-36 416,-71 -21,-78 -68,-183 -98,-260 -47,-117 -278,-738 -300,-763l-441 1029z"/>
     <path class="fil0" d="M871 1764c-52,98 -57,374 -45,498 23,239 132,502 283,679 46,53 115,132 170,173 14,11 22,19 36,30 38,28 117,89 164,107 -20,-62 -51,-125 -76,-188 -26,-64 -51,-127 -76,-189l-452 -1106c-1,-2 -3,-3 -4,-4z"/>
     <path class="fil0" d="M2784 3237c64,-28 106,-72 163,-113 88,-63 196,-194 259,-289 216,-327 266,-712 159,-1093 -1,2 -3,3 -4,4 0,0 -2,2 -3,3l-504 1301c-25,67 -48,117 -70,187z"/>
    </g>
   </g>
  </g>
  <polygon class="fil1" points="0,0 4233,0 4233,4233 0,4233 "/>
 </g>
</svg>
