<?xml version="1.0" encoding="UTF-8"?>
<!DOCTYPE svg PUBLIC "-//W3C//DTD SVG 1.1//EN" "http://www.w3.org/Graphics/SVG/1.1/DTD/svg11.dtd">
<!-- Creator: CorelDRAW X7 -->
<svg xmlns="http://www.w3.org/2000/svg" xml:space="preserve" width="7.19791in" height="4.41666in" version="1.1" style="shape-rendering:geometricPrecision; text-rendering:geometricPrecision; image-rendering:optimizeQuality; fill-rule:evenodd; clip-rule:evenodd"
viewBox="0 0 7198 4417"
 xmlns:xlink="http://www.w3.org/1999/xlink">
 <defs>
  <style type="text/css">
   <![CDATA[
    .fil3 {fill:none}
    .fil5 {fill:#32889A}
    .fil6 {fill:black}
    .fil4 {fill:#195561}
    .fil1 {fill:#FBD995}
    .fil7 {fill:#7B295C;fill-rule:nonzero}
    .fil0 {fill:black;fill-opacity:0.309804}
    .fil2 {fill:#FB9C70;fill-opacity:0.501961}
   ]]>
  </style>
   <clipPath id="id0">
    <path d="M3662 -1c1952,0 3535,971 3535,2168 0,1197 -1583,2167 -3535,2167 -1952,0 -3534,-970 -3534,-2167 0,-1197 1582,-2168 3534,-2168z"/>
   </clipPath>
    <clipPath id="id1">
     <path d="M5580 2488l5 2c-2,-1 -3,-2 -5,-4l0 2zm167 -4c16,-24 22,-59 25,-86 3,-30 6,-60 8,-91 7,-71 12,-147 27,-217 9,-40 25,-99 61,-125 9,-11 19,-21 31,-27 46,-23 119,-25 169,-15 114,24 161,108 141,223 -10,58 -24,115 -39,172 -12,50 -26,99 -38,149 -12,51 -34,148 7,191 38,39 103,67 161,81 -21,-138 39,-483 46,-597 6,-104 -24,-204 -107,-272 -96,-77 -229,-86 -344,-53 -34,10 -74,26 -106,41 -4,1 -8,0 -10,-3 -23,-38 -62,-55 -103,-61 1,4 2,8 3,12 8,43 11,88 11,132 2,176 -37,362 -90,530 16,5 31,10 46,15 26,8 59,17 86,8 5,-2 10,-4 15,-7zm353 -523c35,17 60,42 75,73 -3,-9 -8,-17 -13,-25 -16,-23 -38,-38 -62,-48zm2 692c4,10 9,18 16,25 23,24 56,44 91,59 -34,-16 -66,-36 -90,-60 -7,-7 -12,-15 -17,-24zm-4491 306c1,1 5,2 8,3 -3,-1 -5,-3 -7,-5 -1,0 -1,1 -1,2zm1004 -400c9,-9 14,-18 14,-26 -39,-190 -52,-384 -39,-578 7,-111 23,-218 48,-326 1,-6 1,-12 -2,-17 -11,-27 -67,-31 -91,-31 -22,0 -46,3 -67,9 -1,1 -4,2 -6,3 -9,123 -29,273 -79,386 -13,30 -36,73 -67,98 -21,25 -48,44 -80,42 -51,-5 -83,-64 -98,-107 -30,-81 -36,-181 -33,-267 4,-90 -29,-175 -115,-213 -47,-21 -101,-22 -151,-8 91,85 88,222 93,339 3,68 6,148 37,211 37,74 107,109 184,130 56,16 114,11 167,-13 19,-10 42,-24 61,-40 2,-2 4,-4 5,-6 2,-2 4,-3 6,-3 6,-6 11,-12 15,-18 2,-3 6,-4 9,-3 3,1 5,4 5,8 -3,64 3,125 8,188 4,47 7,100 -11,144 -10,25 -26,45 -45,61 -22,26 -51,44 -83,59 -49,21 -107,30 -160,37 -49,6 -100,10 -149,20 -21,5 -50,12 -70,26 -32,51 -75,104 -123,151 -49,51 -105,95 -160,126 1,0 3,1 4,1 52,12 159,-15 209,-30 107,-30 215,-70 317,-112 114,-48 231,-101 336,-164 18,-10 74,-44 111,-77zm-796 -1025l-2 1c28,23 48,50 63,80 -14,-30 -32,-57 -59,-80 -1,0 -1,0 -2,-1zm133 547c2,4 4,9 6,14 27,54 73,88 126,110 -55,-25 -101,-62 -130,-119 -1,-2 -2,-4 -2,-5zm-911 -321l2 0 0 -1 -2 1zm206 31c82,38 147,104 184,185 -35,-82 -100,-149 -184,-185zm118 598c-68,74 -167,121 -276,121 -42,0 -83,-7 -122,-20l-29 -12c0,0 -1,0 -1,0 -53,-26 -92,-76 -104,-135 -2,-12 -3,-25 -3,-38 0,-16 2,-33 6,-49 10,-38 32,-72 61,-96 35,-42 88,-67 146,-67 31,0 62,7 90,22 -12,-79 -50,-153 -109,-209 -38,-35 -82,-62 -131,-79 -38,-13 -78,-20 -117,-20 -146,0 -278,57 -375,150 -93,98 -150,230 -150,375 0,97 25,191 74,275 21,33 45,64 70,94 174,207 429,326 699,326 241,0 468,-95 636,-257 47,-49 90,-104 126,-163 7,-12 15,-25 21,-38 41,-78 62,-164 62,-252 0,-68 -12,-135 -37,-199l-24 -52c-62,-127 -153,-238 -266,-323l-2 -2c-55,-42 -113,-77 -175,-105 -3,-1 -5,-4 -5,-7 0,-3 2,-5 4,-7 6,-3 12,-6 18,-10 -1,-1 -1,-2 -1,-3 0,-3 1,-6 4,-7 23,-13 46,-27 67,-43 -54,17 -111,26 -168,26 -37,0 -74,-4 -110,-11 0,0 0,0 -1,0 -1,0 -2,-1 -4,-1 -179,-37 -330,-162 -401,-330 -14,-33 -25,-66 -32,-101 -4,-16 -6,-29 -8,-45 0,-1 0,-3 1,-4 0,-1 0,-2 0,-3 0,-58 26,-111 67,-146 35,-41 87,-67 146,-67 44,0 87,15 122,44 13,10 24,23 34,36 23,33 36,72 36,112 0,38 -11,74 -32,105 64,-14 121,-44 167,-86 59,-65 95,-151 96,-244 0,-1 0,-1 0,-1 0,-3 0,-6 0,-8 -2,-76 -27,-148 -72,-209 -43,-57 -103,-101 -171,-125 -40,-14 -82,-20 -125,-19l0 0c-143,1 -273,58 -369,149 -92,98 -149,230 -149,375 0,79 17,157 50,228 14,30 33,61 51,88 56,86 127,163 209,225 13,10 27,20 40,29 77,53 162,94 252,121 4,1 6,4 6,7 0,4 -3,7 -6,8 -7,1 -14,3 -22,5l1 1c4,1 6,4 6,7 0,4 -3,7 -6,7 -5,2 -9,3 -14,4 45,1 90,10 132,26 144,57 238,196 238,351 0,109 -46,207 -121,276zm-260 -257c11,5 21,12 31,19l0 -2c-10,-7 -20,-13 -31,-17zm-831 436c9,21 19,40 30,60 21,32 45,64 70,94 92,109 207,194 334,250 -127,-58 -242,-143 -334,-253 -26,-31 -50,-64 -72,-97 0,-1 0,-1 -1,-1 -10,-17 -19,-35 -27,-53zm799 -1652c14,7 28,16 40,26 13,10 24,22 34,36 6,9 12,19 17,29 -5,-12 -11,-23 -19,-34 -8,-11 -18,-22 -29,-31 -13,-11 -27,-19 -43,-26zm80 278l-2 1 3 0c-1,-1 -1,-1 -1,-1zm-581 48c2,5 4,9 6,13 14,30 33,60 51,88 57,86 128,163 210,225 13,10 26,20 39,29 48,33 99,61 152,84 -51,-23 -100,-51 -146,-82 -14,-10 -28,-19 -41,-30 -85,-64 -158,-143 -216,-232 -19,-29 -38,-59 -53,-91 0,0 0,0 0,0l-2 -4zm2076 637c0,5 2,6 5,5 -2,-1 -3,-3 -5,-5zm58 3c8,6 16,16 21,27 -5,-14 -11,-24 -19,-27 -1,0 -2,0 -2,0zm10 673l-1 2 3 0c-1,0 -2,-1 -2,-2zm165 -65c3,-4 7,-8 10,-13 57,-87 26,-235 4,-329 -17,-74 -38,-147 -51,-221 -7,-44 -16,-115 17,-150 4,-5 8,-8 13,-11 2,-4 5,-7 8,-10 21,-22 53,-25 81,-22 98,5 125,248 132,318 7,63 10,127 11,190 1,39 2,85 -3,123 0,0 0,1 0,1 -3,14 -3,30 7,42 16,21 52,25 76,23 19,-1 40,-5 57,-14 1,0 2,0 2,-1 1,-1 1,-2 1,-3 1,-20 0,-40 -3,-60 -4,-37 -13,-73 -22,-109 -10,-40 -19,-79 -23,-120 -13,-112 10,-211 59,-312 6,-10 16,-22 28,-32 19,-24 57,-48 85,-47 8,0 16,2 23,6 39,21 46,91 49,130 5,71 1,145 -1,216 -2,68 -4,140 5,207 5,39 16,99 53,122 14,8 29,10 45,9 21,-2 44,-8 63,-17 1,-1 3,-2 4,-3l0 0c0,-1 0,-2 -1,-3 -50,-87 -44,-204 -43,-301 1,-121 -2,-236 -57,-347 -35,-66 -90,-124 -171,-117 -28,2 -54,12 -79,24 -23,13 -45,29 -65,47 -2,3 -5,6 -8,9 -9,11 -36,46 -33,62 1,4 -2,8 -6,9 -4,1 -8,-1 -9,-5l-1 -3c-3,8 -6,15 -5,20 1,4 -2,8 -6,9 -3,1 -7,-2 -9,-5l-3 -9c0,0 0,-1 0,-1 -4,-17 -33,-49 -45,-61 -30,-31 -65,-58 -102,-78 -33,-18 -71,-32 -110,-31 -40,0 -73,15 -100,38 -47,54 -73,133 -89,195 -1,11 3,10 12,5 11,-5 24,-8 36,-4 40,13 49,92 53,126 7,76 4,157 0,233 -4,67 -10,134 -18,201 -5,40 -10,80 -16,121 52,-3 106,-14 145,-47zm88 -728c20,11 36,34 50,62 -13,-29 -29,-56 -50,-62zm113 654c2,4 4,9 7,13 6,8 15,13 25,17 -10,-5 -19,-12 -26,-21 -2,-3 -4,-6 -6,-9zm292 -655c12,7 20,18 27,31 -5,-13 -12,-24 -21,-29 -2,-1 -4,-1 -6,-2zm68 626c8,20 20,37 36,47 4,3 8,5 12,6 -2,-1 -4,-2 -5,-3 -19,-11 -33,-29 -43,-50zm2943 406c18,19 35,37 54,55 33,28 68,53 106,74 15,8 31,16 47,23 -13,-6 -27,-13 -40,-20 -39,-22 -76,-48 -110,-78 -20,-17 -38,-36 -56,-56 -1,-1 -2,-2 -3,-4 -2,-3 -3,-5 -5,-8 2,5 4,10 7,14zm587 176c4,-20 -4,-53 -5,-69 -19,-246 -8,-500 29,-743l0 0c3,-21 7,-42 12,-63 12,-61 27,-122 45,-182 -41,1 -115,9 -144,25 -26,42 -24,120 -25,161 -3,74 -12,208 -50,272 -8,13 -17,24 -28,32 -19,25 -47,39 -79,42 -26,2 -57,-3 -80,-15 -43,-23 -57,-80 -63,-124 -10,-69 -6,-146 -1,-215 2,-71 -15,-146 -76,-188 -26,-19 -59,-30 -93,-32 40,84 44,175 42,267 -1,86 -10,190 23,271 8,21 20,40 34,58 79,77 232,88 333,54 26,-9 27,23 26,40 -1,33 -2,66 -6,98 -9,80 -31,125 -60,145 -91,125 -300,-123 -384,-227 -2,-2 -8,-9 -14,-17 -12,68 -32,165 -2,214 18,18 35,36 54,54 33,28 68,53 106,74 120,65 257,83 392,70 4,0 9,-1 14,-2zm-588 -1098l-1 0c5,8 9,16 12,24 -3,-8 -7,-16 -11,-24zm75 560c8,20 19,39 33,56 20,19 44,34 71,46 -26,-12 -49,-28 -69,-47 -1,-1 -2,-2 -3,-3 -13,-16 -23,-33 -32,-52zm-1243 -768c-65,0 -129,18 -185,51 -24,14 -47,31 -67,50 -72,77 -112,182 -112,290 0,145 73,286 200,360 56,33 119,51 185,51 65,0 128,-18 185,-51 24,-14 47,-31 67,-50 72,-77 111,-182 111,-289 0,-146 -72,-287 -199,-361 -56,-33 -120,-51 -185,-51zm-350 583c34,78 90,145 165,189 14,8 28,16 43,22 -12,-6 -24,-12 -36,-19 -77,-45 -136,-113 -172,-192zm441 -392c49,23 87,64 110,113 -21,-51 -60,-92 -110,-113zm73 386c-41,45 -98,75 -164,75 -130,0 -226,-114 -226,-240 0,-73 32,-141 83,-187 40,-45 98,-75 164,-75 130,0 225,114 225,241 0,72 -31,141 -82,186zm-1885 754l-1 2 3 0c-1,-1 -1,-2 -2,-2zm281 -117c282,-311 -244,-1112 98,-1423 7,-8 14,-15 22,-23 83,-73 187,-115 298,-101 94,12 181,62 239,137 56,2 110,14 160,37 -40,-92 -109,-168 -198,-219 -137,-78 -306,-87 -449,-19 -43,20 -82,48 -117,80 -17,18 -33,38 -47,58 -1,2 -3,3 -6,4 0,0 -1,0 -2,-1 -4,6 -9,12 -13,18 -1,2 -3,3 -5,3 -3,1 -5,0 -7,-2 -29,-30 -68,-46 -110,-46 -20,0 -40,4 -58,11 -3,2 -6,3 -9,4 87,294 140,590 116,897 -19,238 -82,463 -173,683 20,-1 41,-4 59,-7 52,-9 103,-26 149,-52 20,-12 37,-25 53,-39zm294 -1523c33,-6 68,-7 103,-3 6,1 11,1 17,2l0 -7c-41,-5 -81,-2 -120,8zm207 27c37,17 71,40 101,68l2 0c-30,-29 -65,-52 -103,-68zm125 94c3,4 7,8 10,12 70,3 137,21 196,58 -3,-8 -5,-15 -8,-22 -52,-28 -114,-46 -185,-48 -4,0 -9,0 -13,0zm43 329c-31,37 -78,60 -130,60 -29,0 -58,-8 -84,-22 -52,-31 -85,-86 -85,-147 0,-41 15,-81 42,-111 0,-1 0,-1 1,-2 6,-11 13,-21 22,-30 -18,-7 -37,-11 -57,-11 -37,0 -71,13 -97,35 -22,27 -35,61 -35,98 0,1 -1,2 -1,3 1,143 98,267 237,302 25,7 52,10 78,10 80,0 155,-29 212,-82 7,-7 13,-15 20,-23 -6,-65 -24,-124 -61,-179 0,0 -1,0 -1,-1 -1,-1 -2,-2 -3,-4 -6,41 -27,78 -58,104zm-422 10c35,84 104,151 193,180l0 -12c-90,-35 -160,-108 -192,-197l-1 29zm146 -448c-47,-5 -94,0 -138,14 -1,66 -1,133 -1,200 5,-5 10,-10 16,-15 30,-36 75,-59 124,-60 -3,-46 -3,-93 -1,-139zm-41 162c9,-2 17,-2 26,-2 6,0 12,0 18,1 0,-2 0,-5 0,-7 -16,1 -30,3 -44,8zm328 844c12,10 26,18 40,23 -13,-6 -25,-14 -36,-23 -1,-1 -2,-1 -2,-2l-2 2zm240 -34c33,-37 56,-82 72,-126 34,-95 42,-205 29,-305 -29,-224 -162,-404 -402,-411 -61,-2 -121,20 -165,58 -28,33 -46,73 -48,120 0,33 10,64 29,90 11,-26 27,-51 48,-72 4,-4 9,-8 13,-13 3,-2 5,-5 8,-7 44,-45 105,-85 170,-65 97,30 147,170 154,262 6,68 3,136 -7,203 -15,98 -47,208 -120,279 28,22 62,35 98,35 21,0 42,-4 61,-11 23,-9 43,-22 60,-37zm-527 -691c-4,15 -7,31 -7,48 -1,38 14,75 39,103 1,-6 3,-11 4,-17 -24,-29 -38,-67 -38,-107 0,-9 1,-18 2,-27zm279 -11c11,5 20,11 29,18 1,0 1,-1 1,-2 -9,-7 -19,-12 -30,-16zm57 46c43,52 69,128 77,190 2,-3 4,-6 6,-9 -6,-65 -24,-124 -60,-178 -1,-1 -1,-1 -1,-1 -6,-10 -14,-20 -22,-28 0,6 0,12 0,18 0,3 0,5 0,8zm-534 733l0 3c1,0 2,0 3,0 -1,-1 -2,-2 -3,-3zm174 -67c31,-36 50,-83 50,-135l0 -210c-75,-29 -136,-85 -173,-155 -1,45 -3,89 -4,133 -6,139 -13,278 -26,416 58,5 113,-14 153,-49zm37 -1142l1 -6c-46,-1 -93,4 -138,16 45,-9 91,-13 137,-10zm3 -22c2,-17 5,-34 8,-51 12,-82 64,-375 161,-453 19,-23 40,-38 64,-40 14,-1 28,3 40,9 -22,-57 -70,-102 -130,-123 -72,-24 -142,-6 -195,41 -4,5 -9,10 -13,16 -40,53 -57,162 -65,227 -16,129 -20,264 -22,394 49,-14 101,-21 152,-20zm250 -515c13,7 25,17 35,28l-1 -3c-9,-10 -20,-20 -34,-25z"/>
    </clipPath>
 </defs>
 <g id="Layer_x0020_1">
  <metadata id="CorelCorpID_0Corel-Layer"/>
  <path class="fil0" d="M3579 -2c1976,0 3578,990 3578,2210 0,1221 -1602,2211 -3578,2211 -1976,0 -3578,-990 -3578,-2211 0,-1220 1602,-2210 3578,-2210z"/>
  <path class="fil1" d="M3662 -1c1952,0 3535,971 3535,2168 0,1197 -1583,2167 -3535,2167 -1952,0 -3534,-970 -3534,-2167 0,-1197 1582,-2168 3534,-2168z"/>
  <g style="clip-path:url(#id0)">
   <g id="_2272291527968">
    <path id="1" class="fil2" d="M3662 4447c1859,0 3366,-1015 3366,-2268 0,-1253 -1507,-2269 -3366,-2269 -1859,0 -3366,1016 -3366,2269 0,1253 1507,2268 3366,2268z"/>
    <ellipse class="fil1" cx="3662" cy="2179" rx="2732" ry="2269"/>
    <path class="fil2" d="M4056 3791c989,0 1791,-802 1791,-1792 0,-989 -802,-1791 -1791,-1791 -989,0 -1791,802 -1791,1791 0,990 802,1792 1791,1792z"/>
    <circle class="fil1" cx="4213" cy="1665" r="1187"/>
    <path class="fil2" d="M4157 2692c499,0 904,-405 904,-904 0,-499 -405,-904 -904,-904 -499,0 -904,405 -904,904 0,499 405,904 904,904z"/>
    <circle class="fil1" cx="4157" cy="1635" r="610"/>
   </g>
  </g>
  <path class="fil3" d="M3662 -1c1952,0 3535,971 3535,2168 0,1197 -1583,2167 -3535,2167 -1952,0 -3534,-970 -3534,-2167 0,-1197 1582,-2168 3534,-2168z"/>
  <g id="_2272291525376">
   <path class="fil3" d="M5580 2488l5 2c-2,-1 -3,-2 -5,-4l0 2zm167 -4c16,-24 22,-59 25,-86 3,-30 6,-60 8,-91 7,-71 12,-147 27,-217 9,-40 25,-99 61,-125 9,-11 19,-21 31,-27 46,-23 119,-25 169,-15 114,24 161,108 141,223 -10,58 -24,115 -39,172 -12,50 -26,99 -38,149 -12,51 -34,148 7,191 38,39 103,67 161,81 -21,-138 39,-483 46,-597 6,-104 -24,-204 -107,-272 -96,-77 -229,-86 -344,-53 -34,10 -74,26 -106,41 -4,1 -8,0 -10,-3 -23,-38 -62,-55 -103,-61 1,4 2,8 3,12 8,43 11,88 11,132 2,176 -37,362 -90,530 16,5 31,10 46,15 26,8 59,17 86,8 5,-2 10,-4 15,-7zm353 -523c35,17 60,42 75,73 -3,-9 -8,-17 -13,-25 -16,-23 -38,-38 -62,-48zm2 692c4,10 9,18 16,25 23,24 56,44 91,59 -34,-16 -66,-36 -90,-60 -7,-7 -12,-15 -17,-24zm-4491 306c1,1 5,2 8,3 -3,-1 -5,-3 -7,-5 -1,0 -1,1 -1,2zm1004 -400c9,-9 14,-18 14,-26 -39,-190 -52,-384 -39,-578 7,-111 23,-218 48,-326 1,-6 1,-12 -2,-17 -11,-27 -67,-31 -91,-31 -22,0 -46,3 -67,9 -1,1 -4,2 -6,3 -9,123 -29,273 -79,386 -13,30 -36,73 -67,98 -21,25 -48,44 -80,42 -51,-5 -83,-64 -98,-107 -30,-81 -36,-181 -33,-267 4,-90 -29,-175 -115,-213 -47,-21 -101,-22 -151,-8 91,85 88,222 93,339 3,68 6,148 37,211 37,74 107,109 184,130 56,16 114,11 167,-13 19,-10 42,-24 61,-40 2,-2 4,-4 5,-6 2,-2 4,-3 6,-3 6,-6 11,-12 15,-18 2,-3 6,-4 9,-3 3,1 5,4 5,8 -3,64 3,125 8,188 4,47 7,100 -11,144 -10,25 -26,45 -45,61 -22,26 -51,44 -83,59 -49,21 -107,30 -160,37 -49,6 -100,10 -149,20 -21,5 -50,12 -70,26 -32,51 -75,104 -123,151 -49,51 -105,95 -160,126 1,0 3,1 4,1 52,12 159,-15 209,-30 107,-30 215,-70 317,-112 114,-48 231,-101 336,-164 18,-10 74,-44 111,-77zm-796 -1025l-2 1c28,23 48,50 63,80 -14,-30 -32,-57 -59,-80 -1,0 -1,0 -2,-1zm133 547c2,4 4,9 6,14 27,54 73,88 126,110 -55,-25 -101,-62 -130,-119 -1,-2 -2,-4 -2,-5zm-911 -321l2 0 0 -1 -2 1zm206 31c82,38 147,104 184,185 -35,-82 -100,-149 -184,-185zm118 598c-68,74 -167,121 -276,121 -42,0 -83,-7 -122,-20l-29 -12c0,0 -1,0 -1,0 -53,-26 -92,-76 -104,-135 -2,-12 -3,-25 -3,-38 0,-16 2,-33 6,-49 10,-38 32,-72 61,-96 35,-42 88,-67 146,-67 31,0 62,7 90,22 -12,-79 -50,-153 -109,-209 -38,-35 -82,-62 -131,-79 -38,-13 -78,-20 -117,-20 -146,0 -278,57 -375,150 -93,98 -150,230 -150,375 0,97 25,191 74,275 21,33 45,64 70,94 174,207 429,326 699,326 241,0 468,-95 636,-257 47,-49 90,-104 126,-163 7,-12 15,-25 21,-38 41,-78 62,-164 62,-252 0,-68 -12,-135 -37,-199l-24 -52c-62,-127 -153,-238 -266,-323l-2 -2c-55,-42 -113,-77 -175,-105 -3,-1 -5,-4 -5,-7 0,-3 2,-5 4,-7 6,-3 12,-6 18,-10 -1,-1 -1,-2 -1,-3 0,-3 1,-6 4,-7 23,-13 46,-27 67,-43 -54,17 -111,26 -168,26 -37,0 -74,-4 -110,-11 0,0 0,0 -1,0 -1,0 -2,-1 -4,-1 -179,-37 -330,-162 -401,-330 -14,-33 -25,-66 -32,-101 -4,-16 -6,-29 -8,-45 0,-1 0,-3 1,-4 0,-1 0,-2 0,-3 0,-58 26,-111 67,-146 35,-41 87,-67 146,-67 44,0 87,15 122,44 13,10 24,23 34,36 23,33 36,72 36,112 0,38 -11,74 -32,105 64,-14 121,-44 167,-86 59,-65 95,-151 96,-244 0,-1 0,-1 0,-1 0,-3 0,-6 0,-8 -2,-76 -27,-148 -72,-209 -43,-57 -103,-101 -171,-125 -40,-14 -82,-20 -125,-19l0 0c-143,1 -273,58 -369,149 -92,98 -149,230 -149,375 0,79 17,157 50,228 14,30 33,61 51,88 56,86 127,163 209,225 13,10 27,20 40,29 77,53 162,94 252,121 4,1 6,4 6,7 0,4 -3,7 -6,8 -7,1 -14,3 -22,5l1 1c4,1 6,4 6,7 0,4 -3,7 -6,7 -5,2 -9,3 -14,4 45,1 90,10 132,26 144,57 238,196 238,351 0,109 -46,207 -121,276zm-260 -257c11,5 21,12 31,19l0 -2c-10,-7 -20,-13 -31,-17zm-831 436c9,21 19,40 30,60 21,32 45,64 70,94 92,109 207,194 334,250 -127,-58 -242,-143 -334,-253 -26,-31 -50,-64 -72,-97 0,-1 0,-1 -1,-1 -10,-17 -19,-35 -27,-53zm799 -1652c14,7 28,16 40,26 13,10 24,22 34,36 6,9 12,19 17,29 -5,-12 -11,-23 -19,-34 -8,-11 -18,-22 -29,-31 -13,-11 -27,-19 -43,-26zm80 278l-2 1 3 0c-1,-1 -1,-1 -1,-1zm-581 48c2,5 4,9 6,13 14,30 33,60 51,88 57,86 128,163 210,225 13,10 26,20 39,29 48,33 99,61 152,84 -51,-23 -100,-51 -146,-82 -14,-10 -28,-19 -41,-30 -85,-64 -158,-143 -216,-232 -19,-29 -38,-59 -53,-91 0,0 0,0 0,0l-2 -4zm2076 637c0,5 2,6 5,5 -2,-1 -3,-3 -5,-5zm58 3c8,6 16,16 21,27 -5,-14 -11,-24 -19,-27 -1,0 -2,0 -2,0zm10 673l-1 2 3 0c-1,0 -2,-1 -2,-2zm165 -65c3,-4 7,-8 10,-13 57,-87 26,-235 4,-329 -17,-74 -38,-147 -51,-221 -7,-44 -16,-115 17,-150 4,-5 8,-8 13,-11 2,-4 5,-7 8,-10 21,-22 53,-25 81,-22 98,5 125,248 132,318 7,63 10,127 11,190 1,39 2,85 -3,123 0,0 0,1 0,1 -3,14 -3,30 7,42 16,21 52,25 76,23 19,-1 40,-5 57,-14 1,0 2,0 2,-1 1,-1 1,-2 1,-3 1,-20 0,-40 -3,-60 -4,-37 -13,-73 -22,-109 -10,-40 -19,-79 -23,-120 -13,-112 10,-211 59,-312 6,-10 16,-22 28,-32 19,-24 57,-48 85,-47 8,0 16,2 23,6 39,21 46,91 49,130 5,71 1,145 -1,216 -2,68 -4,140 5,207 5,39 16,99 53,122 14,8 29,10 45,9 21,-2 44,-8 63,-17 1,-1 3,-2 4,-3l0 0c0,-1 0,-2 -1,-3 -50,-87 -44,-204 -43,-301 1,-121 -2,-236 -57,-347 -35,-66 -90,-124 -171,-117 -28,2 -54,12 -79,24 -23,13 -45,29 -65,47 -2,3 -5,6 -8,9 -9,11 -36,46 -33,62 1,4 -2,8 -6,9 -4,1 -8,-1 -9,-5l-1 -3c-3,8 -6,15 -5,20 1,4 -2,8 -6,9 -3,1 -7,-2 -9,-5l-3 -9c0,0 0,-1 0,-1 -4,-17 -33,-49 -45,-61 -30,-31 -65,-58 -102,-78 -33,-18 -71,-32 -110,-31 -40,0 -73,15 -100,38 -47,54 -73,133 -89,195 -1,11 3,10 12,5 11,-5 24,-8 36,-4 40,13 49,92 53,126 7,76 4,157 0,233 -4,67 -10,134 -18,201 -5,40 -10,80 -16,121 52,-3 106,-14 145,-47zm88 -728c20,11 36,34 50,62 -13,-29 -29,-56 -50,-62zm113 654c2,4 4,9 7,13 6,8 15,13 25,17 -10,-5 -19,-12 -26,-21 -2,-3 -4,-6 -6,-9zm292 -655c12,7 20,18 27,31 -5,-13 -12,-24 -21,-29 -2,-1 -4,-1 -6,-2zm68 626c8,20 20,37 36,47 4,3 8,5 12,6 -2,-1 -4,-2 -5,-3 -19,-11 -33,-29 -43,-50zm2943 406c18,19 35,37 54,55 33,28 68,53 106,74 15,8 31,16 47,23 -13,-6 -27,-13 -40,-20 -39,-22 -76,-48 -110,-78 -20,-17 -38,-36 -56,-56 -1,-1 -2,-2 -3,-4 -2,-3 -3,-5 -5,-8 2,5 4,10 7,14zm587 176c4,-20 -4,-53 -5,-69 -19,-246 -8,-500 29,-743l0 0c3,-21 7,-42 12,-63 12,-61 27,-122 45,-182 -41,1 -115,9 -144,25 -26,42 -24,120 -25,161 -3,74 -12,208 -50,272 -8,13 -17,24 -28,32 -19,25 -47,39 -79,42 -26,2 -57,-3 -80,-15 -43,-23 -57,-80 -63,-124 -10,-69 -6,-146 -1,-215 2,-71 -15,-146 -76,-188 -26,-19 -59,-30 -93,-32 40,84 44,175 42,267 -1,86 -10,190 23,271 8,21 20,40 34,58 79,77 232,88 333,54 26,-9 27,23 26,40 -1,33 -2,66 -6,98 -9,80 -31,125 -60,145 -91,125 -300,-123 -384,-227 -2,-2 -8,-9 -14,-17 -12,68 -32,165 -2,214 18,18 35,36 54,54 33,28 68,53 106,74 120,65 257,83 392,70 4,0 9,-1 14,-2zm-588 -1098l-1 0c5,8 9,16 12,24 -3,-8 -7,-16 -11,-24zm75 560c8,20 19,39 33,56 20,19 44,34 71,46 -26,-12 -49,-28 -69,-47 -1,-1 -2,-2 -3,-3 -13,-16 -23,-33 -32,-52zm-1243 -768c-65,0 -129,18 -185,51 -24,14 -47,31 -67,50 -72,77 -112,182 -112,290 0,145 73,286 200,360 56,33 119,51 185,51 65,0 128,-18 185,-51 24,-14 47,-31 67,-50 72,-77 111,-182 111,-289 0,-146 -72,-287 -199,-361 -56,-33 -120,-51 -185,-51zm-350 583c34,78 90,145 165,189 14,8 28,16 43,22 -12,-6 -24,-12 -36,-19 -77,-45 -136,-113 -172,-192zm441 -392c49,23 87,64 110,113 -21,-51 -60,-92 -110,-113zm73 386c-41,45 -98,75 -164,75 -130,0 -226,-114 -226,-240 0,-73 32,-141 83,-187 40,-45 98,-75 164,-75 130,0 225,114 225,241 0,72 -31,141 -82,186zm-1885 754l-1 2 3 0c-1,-1 -1,-2 -2,-2zm281 -117c282,-311 -244,-1112 98,-1423 7,-8 14,-15 22,-23 83,-73 187,-115 298,-101 94,12 181,62 239,137 56,2 110,14 160,37 -40,-92 -109,-168 -198,-219 -137,-78 -306,-87 -449,-19 -43,20 -82,48 -117,80 -17,18 -33,38 -47,58 -1,2 -3,3 -6,4 0,0 -1,0 -2,-1 -4,6 -9,12 -13,18 -1,2 -3,3 -5,3 -3,1 -5,0 -7,-2 -29,-30 -68,-46 -110,-46 -20,0 -40,4 -58,11 -3,2 -6,3 -9,4 87,294 140,590 116,897 -19,238 -82,463 -173,683 20,-1 41,-4 59,-7 52,-9 103,-26 149,-52 20,-12 37,-25 53,-39zm294 -1523c33,-6 68,-7 103,-3 6,1 11,1 17,2l0 -7c-41,-5 -81,-2 -120,8zm207 27c37,17 71,40 101,68l2 0c-30,-29 -65,-52 -103,-68zm125 94c3,4 7,8 10,12 70,3 137,21 196,58 -3,-8 -5,-15 -8,-22 -52,-28 -114,-46 -185,-48 -4,0 -9,0 -13,0zm43 329c-31,37 -78,60 -130,60 -29,0 -58,-8 -84,-22 -52,-31 -85,-86 -85,-147 0,-41 15,-81 42,-111 0,-1 0,-1 1,-2 6,-11 13,-21 22,-30 -18,-7 -37,-11 -57,-11 -37,0 -71,13 -97,35 -22,27 -35,61 -35,98 0,1 -1,2 -1,3 1,143 98,267 237,302 25,7 52,10 78,10 80,0 155,-29 212,-82 7,-7 13,-15 20,-23 -6,-65 -24,-124 -61,-179 0,0 -1,0 -1,-1 -1,-1 -2,-2 -3,-4 -6,41 -27,78 -58,104zm-422 10c35,84 104,151 193,180l0 -12c-90,-35 -160,-108 -192,-197l-1 29zm146 -448c-47,-5 -94,0 -138,14 -1,66 -1,133 -1,200 5,-5 10,-10 16,-15 30,-36 75,-59 124,-60 -3,-46 -3,-93 -1,-139zm-41 162c9,-2 17,-2 26,-2 6,0 12,0 18,1 0,-2 0,-5 0,-7 -16,1 -30,3 -44,8zm328 844c12,10 26,18 40,23 -13,-6 -25,-14 -36,-23 -1,-1 -2,-1 -2,-2l-2 2zm240 -34c33,-37 56,-82 72,-126 34,-95 42,-205 29,-305 -29,-224 -162,-404 -402,-411 -61,-2 -121,20 -165,58 -28,33 -46,73 -48,120 0,33 10,64 29,90 11,-26 27,-51 48,-72 4,-4 9,-8 13,-13 3,-2 5,-5 8,-7 44,-45 105,-85 170,-65 97,30 147,170 154,262 6,68 3,136 -7,203 -15,98 -47,208 -120,279 28,22 62,35 98,35 21,0 42,-4 61,-11 23,-9 43,-22 60,-37zm-527 -691c-4,15 -7,31 -7,48 -1,38 14,75 39,103 1,-6 3,-11 4,-17 -24,-29 -38,-67 -38,-107 0,-9 1,-18 2,-27zm279 -11c11,5 20,11 29,18 1,0 1,-1 1,-2 -9,-7 -19,-12 -30,-16zm57 46c43,52 69,128 77,190 2,-3 4,-6 6,-9 -6,-65 -24,-124 -60,-178 -1,-1 -1,-1 -1,-1 -6,-10 -14,-20 -22,-28 0,6 0,12 0,18 0,3 0,5 0,8zm-534 733l0 3c1,0 2,0 3,0 -1,-1 -2,-2 -3,-3zm174 -67c31,-36 50,-83 50,-135l0 -210c-75,-29 -136,-85 -173,-155 -1,45 -3,89 -4,133 -6,139 -13,278 -26,416 58,5 113,-14 153,-49zm37 -1142l1 -6c-46,-1 -93,4 -138,16 45,-9 91,-13 137,-10zm3 -22c2,-17 5,-34 8,-51 12,-82 64,-375 161,-453 19,-23 40,-38 64,-40 14,-1 28,3 40,9 -22,-57 -70,-102 -130,-123 -72,-24 -142,-6 -195,41 -4,5 -9,10 -13,16 -40,53 -57,162 -65,227 -16,129 -20,264 -22,394 49,-14 101,-21 152,-20zm250 -515c13,7 25,17 35,28l-1 -3c-9,-10 -20,-20 -34,-25z"/>
   <path id="1" class="fil4" d="M5580 2488l5 2c-2,-1 -3,-2 -5,-4l0 2zm167 -4c16,-24 22,-59 25,-86 3,-30 6,-60 8,-91 7,-71 12,-147 27,-217 9,-40 25,-99 61,-125 9,-11 19,-21 31,-27 46,-23 119,-25 169,-15 114,24 161,108 141,223 -10,58 -24,115 -39,172 -12,50 -26,99 -38,149 -12,51 -34,148 7,191 38,39 103,67 161,81 -21,-138 39,-483 46,-597 6,-104 -24,-204 -107,-272 -96,-77 -229,-86 -344,-53 -34,10 -74,26 -106,41 -4,1 -8,0 -10,-3 -23,-38 -62,-55 -103,-61 1,4 2,8 3,12 8,43 11,88 11,132 2,176 -37,362 -90,530 16,5 31,10 46,15 26,8 59,17 86,8 5,-2 10,-4 15,-7zm353 -523c35,17 60,42 75,73 -3,-9 -8,-17 -13,-25 -16,-23 -38,-38 -62,-48zm2 692c4,10 9,18 16,25 23,24 56,44 91,59 -34,-16 -66,-36 -90,-60 -7,-7 -12,-15 -17,-24zm-4491 306c1,1 5,2 8,3 -3,-1 -5,-3 -7,-5 -1,0 -1,1 -1,2zm1004 -400c9,-9 14,-18 14,-26 -39,-190 -52,-384 -39,-578 7,-111 23,-218 48,-326 1,-6 1,-12 -2,-17 -11,-27 -67,-31 -91,-31 -22,0 -46,3 -67,9 -1,1 -4,2 -6,3 -9,123 -29,273 -79,386 -13,30 -36,73 -67,98 -21,25 -48,44 -80,42 -51,-5 -83,-64 -98,-107 -30,-81 -36,-181 -33,-267 4,-90 -29,-175 -115,-213 -47,-21 -101,-22 -151,-8 91,85 88,222 93,339 3,68 6,148 37,211 37,74 107,109 184,130 56,16 114,11 167,-13 19,-10 42,-24 61,-40 2,-2 4,-4 5,-6 2,-2 4,-3 6,-3 6,-6 11,-12 15,-18 2,-3 6,-4 9,-3 3,1 5,4 5,8 -3,64 3,125 8,188 4,47 7,100 -11,144 -10,25 -26,45 -45,61 -22,26 -51,44 -83,59 -49,21 -107,30 -160,37 -49,6 -100,10 -149,20 -21,5 -50,12 -70,26 -32,51 -75,104 -123,151 -49,51 -105,95 -160,126 1,0 3,1 4,1 52,12 159,-15 209,-30 107,-30 215,-70 317,-112 114,-48 231,-101 336,-164 18,-10 74,-44 111,-77zm-796 -1025l-2 1c28,23 48,50 63,80 -14,-30 -32,-57 -59,-80 -1,0 -1,0 -2,-1zm133 547c2,4 4,9 6,14 27,54 73,88 126,110 -55,-25 -101,-62 -130,-119 -1,-2 -2,-4 -2,-5zm-911 -321l2 0 0 -1 -2 1zm206 31c82,38 147,104 184,185 -35,-82 -100,-149 -184,-185zm118 598c-68,74 -167,121 -276,121 -42,0 -83,-7 -122,-20l-29 -12c0,0 -1,0 -1,0 -53,-26 -92,-76 -104,-135 -2,-12 -3,-25 -3,-38 0,-16 2,-33 6,-49 10,-38 32,-72 61,-96 35,-42 88,-67 146,-67 31,0 62,7 90,22 -12,-79 -50,-153 -109,-209 -38,-35 -82,-62 -131,-79 -38,-13 -78,-20 -117,-20 -146,0 -278,57 -375,150 -93,98 -150,230 -150,375 0,97 25,191 74,275 21,33 45,64 70,94 174,207 429,326 699,326 241,0 468,-95 636,-257 47,-49 90,-104 126,-163 7,-12 15,-25 21,-38 41,-78 62,-164 62,-252 0,-68 -12,-135 -37,-199l-24 -52c-62,-127 -153,-238 -266,-323l-2 -2c-55,-42 -113,-77 -175,-105 -3,-1 -5,-4 -5,-7 0,-3 2,-5 4,-7 6,-3 12,-6 18,-10 -1,-1 -1,-2 -1,-3 0,-3 1,-6 4,-7 23,-13 46,-27 67,-43 -54,17 -111,26 -168,26 -37,0 -74,-4 -110,-11 0,0 0,0 -1,0 -1,0 -2,-1 -4,-1 -179,-37 -330,-162 -401,-330 -14,-33 -25,-66 -32,-101 -4,-16 -6,-29 -8,-45 0,-1 0,-3 1,-4 0,-1 0,-2 0,-3 0,-58 26,-111 67,-146 35,-41 87,-67 146,-67 44,0 87,15 122,44 13,10 24,23 34,36 23,33 36,72 36,112 0,38 -11,74 -32,105 64,-14 121,-44 167,-86 59,-65 95,-151 96,-244 0,-1 0,-1 0,-1 0,-3 0,-6 0,-8 -2,-76 -27,-148 -72,-209 -43,-57 -103,-101 -171,-125 -40,-14 -82,-20 -125,-19l0 0c-143,1 -273,58 -369,149 -92,98 -149,230 -149,375 0,79 17,157 50,228 14,30 33,61 51,88 56,86 127,163 209,225 13,10 27,20 40,29 77,53 162,94 252,121 4,1 6,4 6,7 0,4 -3,7 -6,8 -7,1 -14,3 -22,5l1 1c4,1 6,4 6,7 0,4 -3,7 -6,7 -5,2 -9,3 -14,4 45,1 90,10 132,26 144,57 238,196 238,351 0,109 -46,207 -121,276zm-260 -257c11,5 21,12 31,19l0 -2c-10,-7 -20,-13 -31,-17zm-831 436c9,21 19,40 30,60 21,32 45,64 70,94 92,109 207,194 334,250 -127,-58 -242,-143 -334,-253 -26,-31 -50,-64 -72,-97 0,-1 0,-1 -1,-1 -10,-17 -19,-35 -27,-53zm799 -1652c14,7 28,16 40,26 13,10 24,22 34,36 6,9 12,19 17,29 -5,-12 -11,-23 -19,-34 -8,-11 -18,-22 -29,-31 -13,-11 -27,-19 -43,-26zm80 278l-2 1 3 0c-1,-1 -1,-1 -1,-1zm-581 48c2,5 4,9 6,13 14,30 33,60 51,88 57,86 128,163 210,225 13,10 26,20 39,29 48,33 99,61 152,84 -51,-23 -100,-51 -146,-82 -14,-10 -28,-19 -41,-30 -85,-64 -158,-143 -216,-232 -19,-29 -38,-59 -53,-91 0,0 0,0 0,0l-2 -4zm2076 637c0,5 2,6 5,5 -2,-1 -3,-3 -5,-5zm58 3c8,6 16,16 21,27 -5,-14 -11,-24 -19,-27 -1,0 -2,0 -2,0zm10 673l-1 2 3 0c-1,0 -2,-1 -2,-2zm165 -65c3,-4 7,-8 10,-13 57,-87 26,-235 4,-329 -17,-74 -38,-147 -51,-221 -7,-44 -16,-115 17,-150 4,-5 8,-8 13,-11 2,-4 5,-7 8,-10 21,-22 53,-25 81,-22 98,5 125,248 132,318 7,63 10,127 11,190 1,39 2,85 -3,123 0,0 0,1 0,1 -3,14 -3,30 7,42 16,21 52,25 76,23 19,-1 40,-5 57,-14 1,0 2,0 2,-1 1,-1 1,-2 1,-3 1,-20 0,-40 -3,-60 -4,-37 -13,-73 -22,-109 -10,-40 -19,-79 -23,-120 -13,-112 10,-211 59,-312 6,-10 16,-22 28,-32 19,-24 57,-48 85,-47 8,0 16,2 23,6 39,21 46,91 49,130 5,71 1,145 -1,216 -2,68 -4,140 5,207 5,39 16,99 53,122 14,8 29,10 45,9 21,-2 44,-8 63,-17 1,-1 3,-2 4,-3l0 0c0,-1 0,-2 -1,-3 -50,-87 -44,-204 -43,-301 1,-121 -2,-236 -57,-347 -35,-66 -90,-124 -171,-117 -28,2 -54,12 -79,24 -23,13 -45,29 -65,47 -2,3 -5,6 -8,9 -9,11 -36,46 -33,62 1,4 -2,8 -6,9 -4,1 -8,-1 -9,-5l-1 -3c-3,8 -6,15 -5,20 1,4 -2,8 -6,9 -3,1 -7,-2 -9,-5l-3 -9c0,0 0,-1 0,-1 -4,-17 -33,-49 -45,-61 -30,-31 -65,-58 -102,-78 -33,-18 -71,-32 -110,-31 -40,0 -73,15 -100,38 -47,54 -73,133 -89,195 -1,11 3,10 12,5 11,-5 24,-8 36,-4 40,13 49,92 53,126 7,76 4,157 0,233 -4,67 -10,134 -18,201 -5,40 -10,80 -16,121 52,-3 106,-14 145,-47zm88 -728c20,11 36,34 50,62 -13,-29 -29,-56 -50,-62zm113 654c2,4 4,9 7,13 6,8 15,13 25,17 -10,-5 -19,-12 -26,-21 -2,-3 -4,-6 -6,-9zm292 -655c12,7 20,18 27,31 -5,-13 -12,-24 -21,-29 -2,-1 -4,-1 -6,-2zm68 626c8,20 20,37 36,47 4,3 8,5 12,6 -2,-1 -4,-2 -5,-3 -19,-11 -33,-29 -43,-50zm2943 406c18,19 35,37 54,55 33,28 68,53 106,74 15,8 31,16 47,23 -13,-6 -27,-13 -40,-20 -39,-22 -76,-48 -110,-78 -20,-17 -38,-36 -56,-56 -1,-1 -2,-2 -3,-4 -2,-3 -3,-5 -5,-8 2,5 4,10 7,14zm587 176c4,-20 -4,-53 -5,-69 -19,-246 -8,-500 29,-743l0 0c3,-21 7,-42 12,-63 12,-61 27,-122 45,-182 -41,1 -115,9 -144,25 -26,42 -24,120 -25,161 -3,74 -12,208 -50,272 -8,13 -17,24 -28,32 -19,25 -47,39 -79,42 -26,2 -57,-3 -80,-15 -43,-23 -57,-80 -63,-124 -10,-69 -6,-146 -1,-215 2,-71 -15,-146 -76,-188 -26,-19 -59,-30 -93,-32 40,84 44,175 42,267 -1,86 -10,190 23,271 8,21 20,40 34,58 79,77 232,88 333,54 26,-9 27,23 26,40 -1,33 -2,66 -6,98 -9,80 -31,125 -60,145 -91,125 -300,-123 -384,-227 -2,-2 -8,-9 -14,-17 -12,68 -32,165 -2,214 18,18 35,36 54,54 33,28 68,53 106,74 120,65 257,83 392,70 4,0 9,-1 14,-2zm-588 -1098l-1 0c5,8 9,16 12,24 -3,-8 -7,-16 -11,-24zm75 560c8,20 19,39 33,56 20,19 44,34 71,46 -26,-12 -49,-28 -69,-47 -1,-1 -2,-2 -3,-3 -13,-16 -23,-33 -32,-52zm-1243 -768c-65,0 -129,18 -185,51 -24,14 -47,31 -67,50 -72,77 -112,182 -112,290 0,145 73,286 200,360 56,33 119,51 185,51 65,0 128,-18 185,-51 24,-14 47,-31 67,-50 72,-77 111,-182 111,-289 0,-146 -72,-287 -199,-361 -56,-33 -120,-51 -185,-51zm-350 583c34,78 90,145 165,189 14,8 28,16 43,22 -12,-6 -24,-12 -36,-19 -77,-45 -136,-113 -172,-192zm441 -392c49,23 87,64 110,113 -21,-51 -60,-92 -110,-113zm73 386c-41,45 -98,75 -164,75 -130,0 -226,-114 -226,-240 0,-73 32,-141 83,-187 40,-45 98,-75 164,-75 130,0 225,114 225,241 0,72 -31,141 -82,186zm-1885 754l-1 2 3 0c-1,-1 -1,-2 -2,-2zm281 -117c282,-311 -244,-1112 98,-1423 7,-8 14,-15 22,-23 83,-73 187,-115 298,-101 94,12 181,62 239,137 56,2 110,14 160,37 -40,-92 -109,-168 -198,-219 -137,-78 -306,-87 -449,-19 -43,20 -82,48 -117,80 -17,18 -33,38 -47,58 -1,2 -3,3 -6,4 0,0 -1,0 -2,-1 -4,6 -9,12 -13,18 -1,2 -3,3 -5,3 -3,1 -5,0 -7,-2 -29,-30 -68,-46 -110,-46 -20,0 -40,4 -58,11 -3,2 -6,3 -9,4 87,294 140,590 116,897 -19,238 -82,463 -173,683 20,-1 41,-4 59,-7 52,-9 103,-26 149,-52 20,-12 37,-25 53,-39zm294 -1523c33,-6 68,-7 103,-3 6,1 11,1 17,2l0 -7c-41,-5 -81,-2 -120,8zm207 27c37,17 71,40 101,68l2 0c-30,-29 -65,-52 -103,-68zm125 94c3,4 7,8 10,12 70,3 137,21 196,58 -3,-8 -5,-15 -8,-22 -52,-28 -114,-46 -185,-48 -4,0 -9,0 -13,0zm43 329c-31,37 -78,60 -130,60 -29,0 -58,-8 -84,-22 -52,-31 -85,-86 -85,-147 0,-41 15,-81 42,-111 0,-1 0,-1 1,-2 6,-11 13,-21 22,-30 -18,-7 -37,-11 -57,-11 -37,0 -71,13 -97,35 -22,27 -35,61 -35,98 0,1 -1,2 -1,3 1,143 98,267 237,302 25,7 52,10 78,10 80,0 155,-29 212,-82 7,-7 13,-15 20,-23 -6,-65 -24,-124 -61,-179 0,0 -1,0 -1,-1 -1,-1 -2,-2 -3,-4 -6,41 -27,78 -58,104zm-422 10c35,84 104,151 193,180l0 -12c-90,-35 -160,-108 -192,-197l-1 29zm146 -448c-47,-5 -94,0 -138,14 -1,66 -1,133 -1,200 5,-5 10,-10 16,-15 30,-36 75,-59 124,-60 -3,-46 -3,-93 -1,-139zm-41 162c9,-2 17,-2 26,-2 6,0 12,0 18,1 0,-2 0,-5 0,-7 -16,1 -30,3 -44,8zm328 844c12,10 26,18 40,23 -13,-6 -25,-14 -36,-23 -1,-1 -2,-1 -2,-2l-2 2zm240 -34c33,-37 56,-82 72,-126 34,-95 42,-205 29,-305 -29,-224 -162,-404 -402,-411 -61,-2 -121,20 -165,58 -28,33 -46,73 -48,120 0,33 10,64 29,90 11,-26 27,-51 48,-72 4,-4 9,-8 13,-13 3,-2 5,-5 8,-7 44,-45 105,-85 170,-65 97,30 147,170 154,262 6,68 3,136 -7,203 -15,98 -47,208 -120,279 28,22 62,35 98,35 21,0 42,-4 61,-11 23,-9 43,-22 60,-37zm-527 -691c-4,15 -7,31 -7,48 -1,38 14,75 39,103 1,-6 3,-11 4,-17 -24,-29 -38,-67 -38,-107 0,-9 1,-18 2,-27zm279 -11c11,5 20,11 29,18 1,0 1,-1 1,-2 -9,-7 -19,-12 -30,-16zm57 46c43,52 69,128 77,190 2,-3 4,-6 6,-9 -6,-65 -24,-124 -60,-178 -1,-1 -1,-1 -1,-1 -6,-10 -14,-20 -22,-28 0,6 0,12 0,18 0,3 0,5 0,8zm-534 733l0 3c1,0 2,0 3,0 -1,-1 -2,-2 -3,-3zm174 -67c31,-36 50,-83 50,-135l0 -210c-75,-29 -136,-85 -173,-155 -1,45 -3,89 -4,133 -6,139 -13,278 -26,416 58,5 113,-14 153,-49zm37 -1142l1 -6c-46,-1 -93,4 -138,16 45,-9 91,-13 137,-10zm3 -22c2,-17 5,-34 8,-51 12,-82 64,-375 161,-453 19,-23 40,-38 64,-40 14,-1 28,3 40,9 -22,-57 -70,-102 -130,-123 -72,-24 -142,-6 -195,41 -4,5 -9,10 -13,16 -40,53 -57,162 -65,227 -16,129 -20,264 -22,394 49,-14 101,-21 152,-20zm250 -515c13,7 25,17 35,28l-1 -3c-9,-10 -20,-20 -34,-25z"/>
   <g style="clip-path:url(#id1)">
    <g>
     <path id="2" class="fil5" d="M5560 2447c15,5 30,11 45,15 26,8 60,17 86,8 45,-14 57,-71 61,-111 3,-30 6,-59 8,-89 6,-70 12,-144 27,-213 9,-43 27,-107 71,-128 46,-23 118,-25 168,-15 114,23 160,105 140,218 -10,57 -23,113 -38,169 -13,48 -27,97 -38,146 -12,49 -34,145 7,186 43,44 122,75 187,85 -35,-112 33,-491 40,-610 5,-102 -25,-200 -107,-266 -95,-76 -228,-85 -343,-52 -34,10 -73,25 -105,39 -4,2 -8,1 -10,-3 -28,-45 -78,-59 -129,-61 4,11 6,23 8,34 8,42 11,87 12,130 2,172 -38,354 -90,518zm-3954 461c1,2 8,4 10,4 52,12 158,-15 209,-29 106,-30 213,-69 316,-111 113,-46 229,-99 334,-160 28,-16 145,-85 145,-121 -38,-186 -52,-377 -39,-566 8,-109 24,-214 48,-320 1,-6 1,-11 -1,-17 -12,-25 -67,-30 -92,-30 -21,1 -45,3 -66,9 -6,3 -26,10 -27,18 -9,122 -28,271 -79,384 -20,46 -64,121 -125,116 -51,-4 -83,-62 -98,-104 -30,-80 -36,-178 -33,-262 4,-88 -29,-171 -114,-208 -58,-25 -125,-22 -182,2 101,83 98,223 103,342 3,67 6,145 37,206 36,73 107,108 183,128 56,15 113,11 166,-13 30,-14 68,-39 88,-65 2,-3 5,-4 8,-3 4,1 6,4 5,7 -3,63 4,123 8,185 4,46 7,98 -11,141 -20,47 -61,76 -107,96 -48,22 -106,31 -159,37 -49,6 -100,10 -148,20 -30,6 -73,18 -90,44 -62,100 -169,206 -274,258 -3,2 -14,8 -15,12zm-568 -1174c62,-8 126,-1 186,22 143,56 237,192 237,343 0,204 -168,369 -375,369 -42,0 -83,-6 -122,-20l-29 -11c0,0 0,0 0,0 -54,-26 -92,-75 -104,-132 -2,-12 -3,-25 -3,-37 0,-16 2,-32 6,-48 22,-83 98,-140 185,-140 41,0 81,13 114,37 -4,-91 -44,-177 -112,-240 -37,-35 -82,-61 -131,-78 -37,-12 -77,-19 -116,-19 -300,0 -544,239 -544,534 0,95 25,188 74,269 21,33 44,64 69,93 174,203 428,319 697,319 320,0 614,-164 780,-432 7,-12 15,-24 21,-36 41,-77 62,-161 62,-248 0,-66 -13,-132 -37,-194l-24 -51c-62,-125 -153,-233 -265,-317l-2 -2c-54,-41 -113,-75 -175,-103 -2,-1 -4,-3 -4,-6 0,-3 1,-6 4,-7 34,-18 67,-40 96,-65 -57,19 -116,28 -176,28 -37,0 -74,-3 -110,-10 0,0 0,-1 0,-1 -2,0 -3,0 -5,0 -178,-36 -329,-159 -400,-324 -13,-32 -24,-65 -31,-98 -4,-16 -6,-29 -8,-45 0,-1 0,-2 1,-4 0,-1 0,-2 0,-3 0,-104 85,-188 191,-188 45,0 87,15 122,43 13,11 24,22 33,36 24,32 36,70 36,109 0,37 -10,73 -31,104 163,-36 282,-178 282,-345 0,0 0,0 0,-1 0,-2 0,-5 0,-7 -1,-74 -26,-145 -71,-205 -43,-56 -103,-99 -170,-122 -40,-14 -83,-20 -125,-19l0 0c-298,3 -537,241 -537,534 0,77 17,153 50,223 14,29 32,59 50,86 57,85 128,160 209,221 13,10 26,19 40,28 77,52 162,92 251,118 3,1 6,4 6,8 -1,3 -3,6 -6,7 -30,7 -60,16 -89,27zm1602 113c-2,11 2,10 12,5 11,-5 23,-8 35,-4 40,13 49,90 53,124 7,74 4,154 0,228 -4,66 -10,131 -18,196 -5,40 -9,80 -16,119 67,-4 136,-21 175,-79 57,-85 26,-230 4,-323 -16,-71 -38,-144 -50,-216 -8,-43 -17,-112 17,-147 21,-22 52,-25 81,-22 97,6 124,243 131,312 7,62 10,125 11,187 1,38 2,82 -3,120 0,0 0,0 0,0 -4,15 -3,30 7,42 16,20 51,24 76,23 19,-1 40,-6 56,-14 10,-5 23,-13 24,-25 1,-19 0,-39 -3,-58 -4,-36 -13,-72 -22,-107 -10,-39 -19,-78 -23,-118 -13,-109 11,-206 59,-305 14,-27 60,-59 92,-57 8,0 16,2 23,6 39,20 46,88 49,126 5,70 1,143 -1,213 -2,66 -4,137 4,202 5,39 17,97 53,119 14,9 30,11 46,9 20,-2 43,-7 62,-17 7,-3 25,-13 25,-22 0,-1 0,-3 -1,-4 -50,-84 -44,-200 -43,-295 1,-118 -2,-231 -57,-339 -35,-65 -90,-121 -170,-115 -28,3 -54,12 -79,24 -35,18 -68,45 -93,75 -10,11 -36,45 -33,61 0,4 -2,7 -6,8 -4,1 -8,-1 -9,-5l-3 -8c0,0 0,-1 0,-1 -4,-16 -34,-48 -46,-60 -29,-30 -64,-57 -101,-77 -33,-17 -71,-30 -109,-30 -128,1 -184,148 -209,249zm3723 899c18,18 34,36 54,53 32,28 67,52 105,73 119,64 256,81 390,69 12,-1 27,-4 33,-15 9,-16 -1,-57 -2,-76 -19,-240 -8,-489 28,-728l0 0c4,-20 8,-41 12,-61 12,-59 28,-120 45,-178 -41,1 -115,8 -144,24 -47,27 -44,130 -45,178 -3,73 -12,204 -50,267 -19,31 -49,48 -85,52 -26,2 -58,-3 -81,-15 -42,-22 -56,-78 -62,-121 -10,-68 -6,-143 -1,-211 2,-70 -15,-143 -76,-185 -34,-23 -81,-34 -123,-29 49,87 54,183 52,281 -1,84 -10,186 22,265 9,20 20,40 34,57 79,75 231,86 332,53 26,-9 27,22 27,39 -2,32 -3,64 -7,96 -41,347 -320,21 -422,-101 -3,-4 -21,-26 -28,-30 -1,1 -1,4 -2,5 -9,63 -41,183 -6,238zm-1165 -1107c-65,0 -128,17 -184,50 -127,73 -199,210 -199,353 0,143 72,280 199,353 56,32 119,50 184,50 65,0 128,-18 184,-50 127,-73 199,-210 199,-353 0,-143 -72,-280 -199,-353 -56,-33 -119,-50 -184,-50zm0 167c130,0 225,112 225,236 0,124 -95,235 -225,235 -130,0 -225,-111 -225,-235 0,-124 95,-236 225,-236zm-1661 -416c88,290 141,583 117,886 -18,233 -81,453 -172,668 20,-1 41,-4 60,-7 51,-9 102,-25 147,-51 436,-247 -195,-1128 173,-1454 82,-72 186,-113 297,-99 94,12 180,61 238,134 69,2 136,20 195,56 -36,-109 -111,-198 -212,-255 -136,-76 -305,-84 -447,-18 -75,34 -138,89 -185,156 -1,2 -3,3 -5,3 -3,0 -5,-1 -6,-2 -29,-29 -69,-46 -110,-46 -20,0 -40,4 -59,12 -11,4 -22,10 -31,17zm932 262c0,6 0,12 0,18 0,91 -75,166 -169,166 -29,0 -58,-8 -84,-22 -52,-30 -84,-85 -84,-144 0,-40 15,-79 41,-109 1,-1 1,-1 1,-2 7,-10 14,-20 22,-29 -18,-7 -37,-11 -56,-11 -84,0 -153,68 -153,151 0,1 0,2 -1,3 2,139 99,261 236,296 26,6 52,10 78,10 100,0 192,-46 252,-124 -6,-64 -24,-121 -61,-175 0,0 0,0 0,-1 -6,-9 -14,-18 -22,-27zm-314 -304c-54,-6 -108,1 -159,20 0,72 0,144 0,217 30,-49 84,-81 144,-81 6,0 12,1 18,1 -6,-51 -5,-105 -3,-157zm286 985c27,22 61,34 97,34 21,0 42,-4 62,-11 76,-29 125,-107 151,-180 34,-93 43,-201 30,-299 -29,-219 -162,-394 -401,-402 -115,-3 -229,76 -233,195 -1,38 14,73 39,101 10,-39 29,-75 58,-103 44,-44 105,-84 170,-64 96,30 147,167 154,257 5,67 2,133 -8,199 -14,95 -47,203 -119,273zm-451 -555c-2,64 -4,129 -7,193 -6,136 -13,272 -25,407 119,11 223,-81 223,-200l0 -206c-90,-34 -159,-106 -191,-194zm178 -587c3,-24 6,-47 10,-71 14,-92 80,-453 204,-463 29,-2 53,15 72,36 -9,-77 -65,-142 -141,-167 -88,-29 -173,4 -228,75 -40,52 -56,159 -64,223 -16,126 -20,258 -23,385 55,-15 113,-21 170,-18z"/>
    </g>
   </g>
   <path class="fil6" d="M2643 1871c-2,22 -4,43 -5,65 -13,191 1,383 39,570 0,2 0,4 0,6 0,38 -50,75 -78,95 -26,19 -53,37 -81,53 -108,64 -223,117 -339,165 -105,43 -211,83 -320,114 -59,16 -165,44 -223,30 -10,-2 -20,-6 -26,-14 -5,-7 -7,-16 -5,-24 4,-14 17,-23 29,-29 102,-52 205,-157 264,-254 0,0 1,0 1,-1 22,-34 69,-48 107,-56 50,-11 101,-15 152,-21 49,-6 105,-15 151,-35 40,-18 76,-43 93,-84 16,-39 13,-90 10,-132 -4,-47 -8,-94 -9,-142 -19,16 -42,29 -62,39 -59,26 -123,32 -185,15 -85,-23 -161,-64 -202,-145 -33,-67 -36,-149 -39,-222 -5,-110 -1,-251 -94,-329 -8,-6 -11,-15 -10,-25 1,-9 7,-17 16,-21 64,-28 141,-31 205,-3 97,43 136,138 132,239 -4,82 1,179 30,257 12,31 38,85 76,88 45,4 83,-68 98,-102 49,-113 68,-260 77,-382 1,-24 26,-36 46,-43 23,-7 50,-10 75,-10 38,0 99,7 116,46 5,11 6,23 3,35 -16,71 -28,142 -37,213 32,-114 96,-253 231,-254 43,0 85,14 123,35 40,21 77,50 108,82 10,10 22,24 33,39 0,0 1,-1 1,-1 6,-10 14,-21 22,-31 28,-33 64,-62 102,-83 28,-14 58,-25 89,-27 35,-3 68,4 97,20 45,25 78,67 101,111 0,1 0,1 0,1 57,115 62,234 60,359 -1,90 -7,204 38,284 3,-24 5,-48 7,-72 24,-304 -30,-603 -117,-894 -3,-11 1,-23 10,-30 12,-8 24,-15 37,-21 1,0 1,0 1,0 22,-9 45,-14 69,-14 41,0 81,14 113,39 48,-63 110,-116 182,-150 17,-8 33,-14 50,-20 3,-131 7,-263 23,-393 9,-72 26,-183 70,-241 62,-81 160,-120 259,-86 86,28 150,103 161,193 1,12 -5,24 -16,29 -11,5 -24,2 -32,-7 -12,-14 -30,-29 -50,-28 -62,5 -113,163 -127,211 -23,77 -40,159 -52,239 -3,19 -6,39 -9,59 69,8 136,29 198,64 107,61 187,158 225,275 1,4 1,8 1,11 107,78 170,208 190,356 1,9 2,17 2,25 33,-98 98,-184 190,-238 60,-35 129,-54 199,-54 70,0 138,19 199,54 135,80 213,229 213,385 0,155 -78,304 -213,384 -61,36 -129,54 -199,54 -70,0 -139,-18 -199,-54 -110,-65 -182,-176 -205,-299 -5,21 -11,42 -19,61 -29,83 -83,168 -168,200 -23,9 -47,13 -71,13 -42,0 -83,-14 -115,-41 -7,-5 -10,-12 -10,-20 -1,-8 2,-15 8,-21 68,-66 98,-172 112,-263 7,-51 10,-101 9,-152 -64,64 -151,101 -243,101 -29,0 -57,-4 -85,-11 -3,-1 -5,-1 -7,-2l0 188c0,68 -29,133 -81,177 -48,42 -110,61 -174,55 -15,-1 -26,-15 -24,-30 13,-137 19,-276 25,-414 3,-65 5,-131 7,-196 0,-8 3,-15 9,-20 -8,-28 -12,-57 -13,-87 0,-2 1,-4 1,-6 0,-24 5,-47 14,-67 -3,-5 -5,-11 -5,-17 0,-65 0,-131 0,-196 -32,16 -61,37 -88,61 -355,318 282,1222 -178,1487 -49,28 -103,46 -158,56 -20,4 -42,6 -63,7 -9,1 -18,-3 -23,-11 -6,-8 -7,-18 -3,-27 74,-179 130,-362 157,-553 -8,8 -18,14 -28,19 -22,11 -48,18 -72,20 -22,2 -43,-1 -62,-13 -46,-28 -60,-92 -67,-142 -8,-69 -6,-140 -4,-210 2,-71 6,-143 1,-215 -2,-26 -8,-92 -35,-107 -3,-2 -7,-2 -12,-3 -20,-1 -56,26 -65,44 -47,95 -70,190 -57,296 4,40 13,78 22,116 9,38 19,75 23,113 3,21 4,43 3,64 -1,23 -19,39 -39,49 -20,10 -44,15 -67,17 -35,2 -77,-5 -100,-34 -14,-19 -17,-42 -12,-64 4,-39 3,-79 3,-118 -1,-63 -5,-126 -11,-188 -6,-53 -13,-106 -25,-157 -9,-34 -36,-134 -81,-137 -1,0 -1,0 -1,0 -20,-2 -45,-1 -59,14 -25,26 -15,94 -10,126 13,74 34,147 51,220 23,104 54,255 -9,350 -44,67 -121,89 -197,93 -8,0 -16,-3 -21,-9 -6,-6 -8,-14 -7,-23 6,-40 11,-80 16,-120 7,-66 13,-132 17,-198 5,-76 8,-154 0,-229 -2,-20 -11,-95 -34,-103 -5,-1 -10,1 -15,3 -12,6 -25,9 -38,1 -6,-4 -10,-10 -12,-15zm-1011 1067c1,2 8,4 10,4 52,12 159,-15 209,-30 107,-30 215,-70 317,-112 114,-48 231,-101 336,-164 28,-16 145,-86 146,-124 -39,-190 -52,-384 -39,-577 7,-112 23,-219 48,-327 1,-6 1,-12 -2,-17 -12,-26 -67,-31 -91,-31 -22,0 -46,3 -67,9 -6,3 -26,10 -27,19 -9,123 -28,276 -79,391 -21,47 -64,124 -126,119 -51,-5 -83,-64 -99,-106 -30,-82 -35,-182 -32,-268 4,-90 -29,-175 -115,-212 -57,-26 -126,-23 -183,2 102,84 99,227 104,349 3,68 6,148 37,211 37,74 107,109 184,130 56,16 114,11 167,-13 30,-14 68,-40 87,-67 2,-3 6,-4 9,-3 3,1 5,4 5,8 -3,64 3,125 8,188 4,47 7,100 -11,144 -20,49 -61,78 -107,99 -49,22 -107,30 -160,37 -49,6 -100,10 -149,20 -30,7 -73,18 -90,46 -62,101 -169,209 -275,263 -3,2 -14,8 -15,12zm-571 -1199c63,-8 128,0 187,23 144,57 238,196 238,351 0,207 -168,376 -376,376 -42,0 -83,-7 -123,-20l-28 -12c0,0 -1,0 -1,0 -53,-26 -92,-76 -104,-135 -2,-12 -3,-25 -3,-37 0,-17 2,-33 6,-49 22,-85 99,-143 186,-143 41,0 81,13 114,37 -4,-93 -44,-180 -112,-244 -38,-36 -83,-63 -132,-80 -37,-13 -77,-19 -117,-19 -301,0 -545,244 -545,545 0,97 25,191 74,275 21,33 45,64 70,94 174,207 429,326 699,326 321,0 617,-167 782,-441 8,-12 15,-25 22,-37 41,-78 62,-165 62,-253 0,-68 -13,-135 -37,-198l-24 -53c-62,-126 -154,-237 -266,-323l-3 -2c-54,-42 -113,-76 -175,-105 -2,-1 -4,-3 -4,-6 0,-3 1,-6 4,-7 35,-19 67,-41 97,-66 -57,18 -117,28 -177,28 -37,0 -74,-4 -110,-11 -1,0 -1,0 -1,0 -1,0 -3,-1 -4,-1 -179,-36 -330,-162 -401,-330 -14,-32 -25,-66 -32,-101 -4,-16 -6,-28 -8,-45 0,-1 0,-3 0,-4 0,-1 0,-2 0,-3 0,-106 86,-192 193,-192 44,0 87,15 122,44 13,10 24,23 34,36 23,33 36,72 36,112 0,38 -11,74 -32,105 164,-36 283,-181 283,-351 0,-1 0,-1 0,-1 0,-3 0,-5 0,-8 -1,-75 -26,-148 -71,-208 -44,-58 -103,-102 -171,-125 -40,-14 -83,-21 -125,-20l0 0c-299,3 -539,247 -539,545 0,79 17,157 50,228 14,30 33,61 51,88 56,86 127,163 209,225 13,10 27,20 40,29 77,53 162,94 252,121 4,1 6,4 6,7 0,4 -3,7 -6,8 -30,7 -60,16 -90,27zm1608 116c-1,11 3,10 12,5 11,-5 24,-8 36,-4 40,13 49,92 53,126 7,76 4,157 0,233 -4,67 -10,134 -18,201 -5,40 -10,80 -16,121 67,-4 137,-22 175,-81 57,-86 26,-235 5,-329 -17,-73 -39,-147 -51,-221 -7,-44 -17,-115 17,-150 21,-22 53,-25 81,-22 98,5 125,248 132,318 7,63 10,127 11,190 1,39 2,85 -3,123 0,0 0,1 0,1 -3,14 -3,30 7,42 16,21 52,25 76,23 19,-1 40,-5 57,-14 9,-4 23,-13 24,-25 1,-20 0,-40 -3,-59 -4,-37 -14,-74 -22,-110 -10,-40 -19,-79 -24,-120 -12,-111 11,-210 60,-311 14,-28 60,-61 92,-59 8,0 16,2 23,6 39,21 46,91 49,130 5,71 1,145 -1,216 -2,68 -4,140 5,207 5,39 16,99 53,122 14,8 29,10 45,9 21,-2 44,-8 63,-17 7,-4 25,-14 25,-24 0,-1 0,-2 -1,-3 -50,-87 -44,-204 -43,-301 1,-121 -2,-236 -57,-347 -36,-66 -90,-124 -171,-117 -28,2 -54,12 -79,25 -35,18 -68,46 -94,76 -9,11 -36,46 -33,62 1,4 -2,8 -6,9 -4,1 -8,-1 -9,-5l-3 -9c0,0 0,0 0,-1 -4,-16 -33,-49 -45,-61 -30,-31 -65,-58 -102,-78 -34,-18 -72,-32 -110,-31 -128,0 -184,151 -210,254zm3737 918c18,18 35,36 54,54 33,28 68,53 106,74 120,65 257,83 392,70 11,-1 26,-4 32,-15 9,-16 -1,-58 -2,-77 -19,-246 -8,-499 29,-743l0 0c3,-21 7,-42 11,-63 13,-60 28,-122 45,-182 -40,1 -115,9 -144,25 -47,28 -44,132 -45,182 -3,74 -12,208 -50,272 -19,32 -49,50 -86,53 -26,3 -57,-3 -81,-15 -42,-23 -56,-80 -62,-124 -10,-69 -6,-146 -1,-215 2,-71 -15,-145 -76,-188 -34,-24 -81,-36 -124,-31 49,90 54,187 52,287 -1,86 -10,190 23,271 8,21 20,40 34,58 79,77 232,88 333,54 26,-9 27,23 26,40 -1,33 -2,66 -6,98 -41,355 -322,22 -423,-102 -4,-5 -22,-27 -29,-32 -1,2 -1,5 -1,6 -10,64 -42,187 -7,243zm-1169 -1131c-66,0 -129,18 -185,51 -127,75 -200,215 -200,361 0,145 73,286 200,360 56,33 119,51 185,51 65,0 128,-18 185,-51 127,-74 199,-215 199,-360 0,-146 -72,-286 -199,-361 -57,-33 -120,-51 -185,-51zm0 171c130,0 225,114 225,241 0,126 -95,240 -225,240 -130,0 -226,-114 -226,-240 0,-127 96,-241 226,-241zm-1668 -425c89,296 143,595 119,904 -19,238 -82,463 -173,683 20,-1 41,-4 59,-7 52,-9 103,-26 149,-52 437,-253 -197,-1152 173,-1485 83,-73 187,-115 298,-101 94,12 181,62 239,137 70,2 136,20 196,57 -36,-111 -111,-202 -213,-260 -137,-78 -306,-86 -449,-19 -75,35 -138,91 -185,159 -1,2 -3,3 -6,4 -2,0 -4,-1 -6,-3 -29,-30 -68,-46 -110,-46 -20,0 -40,4 -59,11 -11,5 -22,11 -32,18zm936 268c0,6 0,12 0,18 0,93 -75,169 -169,169 -29,0 -58,-7 -84,-22 -53,-30 -85,-86 -85,-147 0,-41 15,-80 42,-111 0,-1 0,-1 0,-2 7,-11 14,-21 22,-30 -17,-7 -36,-11 -56,-11 -85,0 -153,69 -153,154 0,1 -1,2 -1,3 1,143 98,267 237,302 25,7 52,10 78,10 100,0 193,-46 252,-126 -6,-65 -24,-124 -60,-178 -1,-1 -1,-1 -1,-1 -6,-10 -14,-20 -22,-28zm-315 -310c-54,-7 -108,1 -159,20 -1,74 -1,147 -1,221 30,-50 85,-82 145,-82 6,0 12,0 18,1 -6,-53 -5,-108 -3,-160zm287 1005c28,22 62,35 98,35 21,0 42,-4 61,-11 77,-30 126,-110 152,-184 35,-95 43,-205 30,-305 -29,-224 -162,-403 -403,-411 -114,-3 -229,78 -233,199 -1,38 14,75 40,103 9,-40 29,-76 58,-105 44,-45 105,-85 170,-65 97,30 147,170 154,262 6,68 3,136 -7,203 -15,98 -47,208 -120,279zm-453 -566c-2,65 -4,131 -6,196 -6,139 -13,278 -26,416 120,12 224,-83 224,-205l0 -210c-90,-35 -160,-108 -192,-197zm179 -600c3,-24 7,-48 10,-73 15,-93 80,-462 205,-472 29,-2 54,16 73,37 -10,-79 -66,-146 -143,-171 -88,-30 -173,4 -228,77 -40,53 -57,162 -65,227 -16,129 -20,264 -22,394 55,-16 113,-22 170,-19zm1397 1283c16,5 31,10 46,15 26,8 59,17 86,8 45,-14 57,-73 61,-113 3,-31 6,-61 8,-92 7,-71 12,-146 27,-217 9,-43 27,-109 71,-131 46,-23 119,-25 169,-15 114,24 161,108 141,223 -10,58 -24,115 -39,172 -12,50 -26,99 -38,149 -12,51 -34,148 7,191 44,45 123,76 188,86 -36,-114 33,-501 40,-623 6,-104 -25,-204 -107,-271 -96,-78 -229,-87 -344,-53 -35,10 -74,25 -106,40 -4,1 -8,0 -10,-3 -28,-46 -79,-61 -129,-63 3,11 6,24 8,35 8,43 11,88 11,132 2,176 -37,362 -90,530zm-1383 -1106c-2,45 -2,91 3,136 7,2 14,5 21,7 39,-31 88,-51 139,-56 -45,-43 -102,-74 -163,-87zm261 290c-11,-8 -23,-15 -36,-19 -54,-17 -107,21 -143,58 -25,25 -42,57 -50,92 -1,1 -1,1 -1,2 6,4 11,8 18,12 21,12 45,19 70,19 78,0 142,-64 142,-142 0,-5 0,-11 -1,-16 0,-2 0,-4 1,-6zm759 189c-115,0 -198,102 -198,213 0,111 83,213 198,213 115,0 198,-102 198,-213 0,-111 -83,-213 -198,-213zm576 -36c31,-13 63,-25 95,-35 123,-36 267,-25 369,58 90,73 124,182 117,295 -2,43 -9,88 -14,131 -7,59 -15,117 -21,176 -7,61 -13,122 -14,183 -2,35 -3,90 8,123 3,10 1,19 -6,26 -6,8 -15,11 -25,9 -69,-11 -154,-44 -203,-94 -50,-52 -28,-153 -14,-216 12,-50 26,-100 39,-150 14,-56 28,-113 38,-170 7,-44 6,-94 -20,-132 -23,-34 -61,-51 -100,-59 -44,-9 -110,-7 -151,13 -33,17 -49,78 -56,112 -15,70 -20,143 -26,214 -3,30 -6,61 -9,92 -5,53 -22,118 -80,136 -33,11 -70,2 -102,-8 -16,-5 -31,-10 -46,-15 -14,-5 -22,-20 -18,-35 52,-165 91,-346 89,-520 -1,-43 -4,-86 -11,-128 -2,-11 -5,-22 -8,-33 -2,-9 0,-17 5,-25 6,-7 14,-10 23,-10 55,3 107,19 141,62zm1032 744c-51,16 -107,20 -160,15 -68,-6 -141,-29 -191,-78 -1,-1 -2,-2 -3,-3 -16,-19 -28,-41 -38,-65 -34,-86 -26,-190 -24,-281 2,-94 -2,-189 -49,-273 -4,-9 -4,-18 0,-26 4,-8 12,-14 21,-15 49,-6 103,7 143,35 69,49 90,132 87,212 0,0 0,1 0,1 -5,68 -9,142 1,210 4,33 16,85 48,103 19,10 45,14 65,12 28,-3 51,-16 65,-40 36,-59 44,-190 47,-259 1,-61 -2,-169 58,-204 36,-21 116,-28 158,-29 9,0 17,4 22,11 6,7 7,15 5,24 -17,59 -32,119 -45,180 -4,20 -8,41 -11,61l0 0c-36,243 -48,492 -29,737 2,29 14,66 -1,92 -11,20 -32,28 -54,30 -140,13 -283,-6 -408,-74 -39,-22 -76,-48 -110,-78 -20,-17 -38,-36 -56,-56 -1,-1 -2,-2 -3,-4 -41,-66 -8,-188 3,-261 0,-4 1,-7 2,-11 3,-8 9,-14 17,-17 8,-3 17,-2 24,3 12,8 26,26 35,37 39,48 80,96 124,140 36,35 132,125 189,110 44,-13 57,-96 62,-133 3,-32 5,-64 6,-96 0,-2 0,-6 0,-10zm-5762 -846c-70,-27 -137,-62 -199,-104 -14,-10 -28,-19 -41,-30 -85,-64 -158,-143 -216,-232 -19,-29 -38,-59 -53,-91 0,0 0,0 0,0 -35,-75 -53,-157 -53,-240 0,-313 253,-569 566,-573 0,0 0,0 0,0 46,0 92,7 135,22 73,25 137,72 184,134 48,65 75,143 77,224 0,3 0,6 0,9 0,0 0,1 0,1 -1,182 -127,339 -305,378 -11,3 -22,-2 -28,-11 -7,-9 -7,-21 -1,-31 18,-27 27,-58 27,-90 0,-35 -11,-68 -31,-96 -8,-11 -18,-22 -29,-31 -29,-24 -66,-38 -104,-38 -91,0 -165,74 -165,165 0,1 0,2 0,3 0,1 0,3 0,4 1,13 3,26 6,39 0,0 0,0 1,1 7,32 17,65 30,95 68,160 211,280 381,314 2,1 3,1 5,1 0,0 0,0 0,0 35,7 70,11 105,11 57,0 114,-9 168,-27 13,-5 26,1 33,12 6,12 4,26 -6,35 -22,18 -45,35 -69,50 51,25 100,56 146,91l3 2c115,88 209,203 274,333 0,1 0,1 0,1l24 52c0,1 0,1 0,2 26,66 39,137 39,208 0,93 -21,183 -65,265 -7,14 -14,27 -22,39 -171,282 -476,454 -806,454 -278,0 -541,-122 -720,-335 -26,-31 -50,-64 -72,-97 0,-1 0,-1 -1,-1 -51,-88 -77,-187 -77,-289 0,-316 256,-573 572,-573 43,0 86,7 126,21 53,18 101,47 142,86 73,69 116,163 121,263 0,11 -5,20 -15,26 -10,5 -21,4 -29,-3 -29,-21 -63,-32 -98,-32 -75,0 -141,50 -160,123 -3,13 -5,27 -5,42 0,11 1,21 3,32 10,50 43,93 89,115l27 11c36,12 74,19 113,19 193,0 349,-157 349,-349 0,-144 -88,-273 -221,-325 -55,-22 -115,-29 -173,-22 -14,2 -27,-7 -30,-20 -4,-14 4,-28 17,-33 10,-3 21,-7 31,-10z"/>
  </g>
  <polygon class="fil7" points="1610,3321 1537,3401 1537,3321 1469,3321 1469,3563 1537,3563 1537,3501 1566,3469 1622,3563 1700,3563 1613,3417 1701,3321 "/>
  <path id="1" class="fil7" d="M1816 3321l-95 242 73 0 13 -34 94 0 13 34 72 0 -92 -242 -78 0zm39 86l20 55 -42 0 22 -55z"/>
  <polygon id="2" class="fil7" points="2006,3321 2006,3563 2215,3563 2215,3496 2074,3496 2074,3321 "/>
  <polygon id="3" class="fil7" points="2235,3321 2235,3563 2444,3563 2444,3496 2303,3496 2303,3469 2399,3469 2399,3415 2303,3415 2303,3388 2444,3388 2444,3321 "/>
  <polygon id="4" class="fil7" points="2465,3563 2532,3563 2532,3321 2465,3321 "/>
  <path id="5" class="fil7" d="M2620 3388l33 0c15,0 28,5 38,16 11,10 16,23 16,38 0,15 -5,27 -16,38 -10,11 -23,16 -38,16l-33 0 0 -108zm155 54c0,-34 -12,-62 -36,-86 -24,-24 -52,-35 -86,-35l-101 0 0 242 101 0c34,0 62,-12 86,-35 24,-24 36,-53 36,-86z"/>
  <path id="6" class="fil7" d="M2916 3388c15,0 28,5 38,16 11,10 16,23 16,38 0,15 -5,27 -16,38 -10,11 -23,16 -38,16 -15,0 -27,-5 -38,-16 -10,-11 -16,-23 -16,-38 0,-15 6,-28 16,-38 11,-11 23,-16 38,-16zm0 175c34,0 62,-12 86,-35 24,-24 36,-53 36,-86 0,-34 -12,-62 -36,-86 -24,-24 -52,-35 -86,-35 -33,0 -62,11 -85,35 -24,24 -36,52 -36,86 0,33 12,62 36,86 23,23 52,35 85,35z"/>
  <path id="7" class="fil7" d="M3206 3476c3,0 5,1 7,3 2,2 3,4 3,7 0,2 -1,5 -3,7 -2,2 -4,3 -7,3l-135 0 0 67 135 0c22,0 40,-7 55,-23 15,-15 23,-33 23,-54 0,-22 -8,-40 -23,-55 -15,-15 -33,-23 -55,-23l-71 0c-2,0 -5,-1 -7,-3 -2,-2 -3,-4 -3,-7 0,-3 1,-5 3,-7 2,-2 5,-3 7,-3l135 0 0 -67 -135 0c-21,0 -39,7 -54,22 -16,15 -23,34 -23,55 0,22 7,40 23,55 15,15 33,23 54,23l71 0z"/>
  <path id="8" class="fil7" d="M3425 3563c34,0 62,-12 86,-35l-48 -48c-10,11 -23,16 -38,16 -15,0 -27,-5 -38,-16 -10,-10 -16,-23 -16,-38 0,-15 6,-28 16,-38 11,-11 23,-16 38,-16 15,0 28,5 38,16l48 -48c-24,-23 -52,-35 -86,-35 -33,0 -62,12 -86,35 -23,24 -35,52 -35,86 0,33 12,62 35,86 24,23 53,35 86,35z"/>
  <path id="9" class="fil7" d="M3622 3388c15,0 28,5 38,16 11,10 16,23 16,38 0,15 -5,27 -16,38 -10,11 -23,16 -38,16 -15,0 -27,-5 -38,-16 -11,-11 -16,-23 -16,-38 0,-15 5,-28 16,-38 11,-11 23,-16 38,-16zm0 175c34,0 62,-12 86,-35 23,-24 35,-53 35,-86 0,-34 -12,-62 -35,-86 -24,-24 -52,-35 -86,-35 -33,0 -62,11 -86,35 -23,24 -35,52 -35,86 0,33 12,62 35,86 24,23 53,35 86,35z"/>
  <path id="10" class="fil7" d="M3831 3388l51 0c6,0 12,2 16,7 5,5 7,10 7,17 0,6 -2,12 -7,16 -4,5 -10,7 -16,7l-51 0 0 -47zm0 114l51 0c25,0 46,-8 64,-26 18,-18 27,-39 27,-64 0,-26 -9,-47 -27,-65 -18,-18 -39,-26 -64,-26l-118 0 0 242 67 0 0 -61z"/>
  <polygon id="11" class="fil7" points="3993,3321 3993,3563 4202,3563 4202,3496 4060,3496 4060,3469 4157,3469 4157,3415 4060,3415 4060,3388 4202,3388 4202,3321 "/>
  <path id="12" class="fil7" d="M4430 3388c14,0 27,5 38,16 10,10 15,23 15,38 0,15 -5,27 -15,38 -11,11 -24,16 -38,16 -15,0 -28,-5 -39,-16 -10,-11 -15,-23 -15,-38 0,-15 5,-28 15,-38 11,-11 24,-16 39,-16zm0 175c33,0 62,-12 85,-35 24,-24 36,-53 36,-86 0,-34 -12,-62 -36,-86 -23,-24 -52,-35 -85,-35 -34,0 -63,11 -86,35 -24,24 -36,52 -36,86 0,33 12,62 36,86 23,23 52,35 86,35z"/>
  <polygon id="13" class="fil7" points="4571,3321 4571,3563 4638,3563 4638,3469 4735,3469 4735,3415 4638,3415 4638,3388 4780,3388 4780,3321 "/>
  <path id="14" class="fil7" d="M4981 3321l-95 242 73 0 13 -34 94 0 13 34 72 0 -92 -242 -78 0zm39 86l20 55 -42 0 22 -55z"/>
  <path id="15" class="fil7" d="M5137 3445c0,1 1,2 1,3 1,31 13,58 35,80l0 0c24,23 52,35 86,35 33,0 61,-12 85,-35 24,-24 36,-52 36,-85l0 -28 -108 0 0 54 33 0c-10,18 -26,27 -46,27 -14,0 -26,-5 -36,-14 -11,-10 -17,-21 -18,-35 0,0 0,-1 0,-2l0 0c0,-1 0,-2 0,-3 0,-1 0,-2 0,-3l0 0c0,-1 0,-2 0,-3l0 0c2,-20 12,-34 30,-43 0,0 1,0 0,0 1,0 1,0 2,0 1,-1 1,-1 1,-1 0,0 0,0 1,0 1,-1 1,-1 2,-1 -1,0 0,0 0,0 10,-3 20,-4 29,-2 10,3 19,7 27,15l47 -48c-23,-24 -52,-35 -85,-35 -1,0 -2,0 -3,0 0,0 0,0 -1,0 -1,0 -2,0 -3,0l0 0c0,0 0,0 0,0 -31,1 -57,13 -79,35 -22,22 -34,49 -35,80l0 0c0,0 -1,1 -1,2l0 1c0,1 0,2 0,3 0,1 0,2 0,3l0 0z"/>
  <polygon id="16" class="fil7" points="5400,3321 5400,3563 5609,3563 5609,3496 5468,3496 5468,3469 5564,3469 5564,3415 5468,3415 5468,3388 5609,3388 5609,3321 "/>
  <path id="17" class="fil7" d="M5778 3476c3,0 5,1 7,3 2,2 3,4 3,7 0,2 -1,5 -3,7 -2,2 -4,3 -7,3l-135 0 0 67 135 0c21,0 39,-7 55,-23 15,-15 22,-33 22,-54 0,-22 -7,-40 -22,-55 -16,-15 -34,-23 -55,-23l-71 0c-3,0 -5,-1 -7,-3 -2,-2 -3,-4 -3,-7 0,-3 1,-5 3,-7 2,-2 4,-3 7,-3l135 0 0 -67 -135 0c-21,0 -40,7 -55,22 -15,15 -23,34 -23,55 0,22 8,40 23,55 15,15 34,23 55,23l71 0z"/>
  <path class="fil7" d="M2573 3688l0 21c0,5 0,10 -2,14 -1,3 -2,6 -3,9l-80 168c-2,4 -5,8 -9,11 -4,3 -9,5 -16,5l-35 0 81 -163c2,-5 5,-9 7,-12 3,-4 5,-7 8,-10l-100 0c-1,0 -2,-1 -4,-1 -1,-1 -2,-1 -3,-2 -1,-1 -2,-3 -2,-4 -1,-1 -1,-2 -1,-4l0 -32 159 0z"/>
  <path id="1" class="fil7" d="M2657 3918c-8,0 -14,-1 -20,-3 -6,-2 -11,-6 -15,-10 -4,-4 -7,-9 -9,-15 -2,-5 -3,-12 -3,-19l0 -84 -14 0c-3,0 -5,-1 -6,-2 -2,-2 -3,-4 -3,-7l0 -19 26 -5 9 -40c1,-5 5,-7 11,-7l25 0 0 47 39 0 0 33 -39 0 0 80c0,4 1,7 3,10 2,2 4,3 8,3 1,0 3,0 4,0 1,-1 2,-1 3,-1 1,-1 2,-1 3,-2 0,0 1,0 2,0 2,0 3,0 4,1 1,1 2,2 3,3l14 23c-6,5 -13,8 -21,11 -8,2 -16,3 -24,3z"/>
  <path id="2" class="fil7" d="M2725 3916l0 -234 48 0 0 86c6,-5 12,-9 19,-12 7,-3 15,-5 25,-5 8,0 16,2 23,5 7,3 13,7 17,13 5,5 8,12 11,19 2,8 3,16 3,25l0 103 -48 0 0 -103c0,-8 -2,-14 -5,-19 -4,-4 -9,-6 -16,-6 -6,0 -11,1 -15,4 -5,2 -9,6 -14,10l0 114 -48 0z"/>
  <polygon id="3" class="fil7" points="2903,3801 2987,3801 2987,3840 2903,3840 "/>
  <path id="4" class="fil7" d="M3082 3827c-7,0 -15,-1 -22,-4 -7,-3 -14,-7 -20,-12 -6,-5 -11,-12 -15,-20 -3,-9 -5,-18 -5,-30 0,-10 2,-20 6,-29 3,-9 9,-17 16,-24 7,-7 15,-12 25,-16 10,-4 21,-6 33,-6 12,0 23,2 33,6 9,3 17,9 24,15 7,7 12,15 16,24 3,10 5,20 5,31 0,8 -1,15 -2,21 -1,7 -3,13 -5,19 -2,6 -5,12 -8,17 -3,6 -6,11 -10,16l-49 70c-2,3 -5,6 -10,8 -4,2 -9,3 -15,3l-44 0 72 -86c1,-2 3,-4 4,-5 1,-2 2,-4 4,-5 -5,2 -10,4 -16,5 -5,2 -11,2 -17,2zm50 -69c0,-6 -1,-10 -3,-15 -1,-4 -3,-7 -6,-10 -3,-3 -7,-5 -11,-7 -4,-1 -8,-2 -13,-2 -5,0 -9,1 -13,3 -4,2 -7,4 -10,7 -2,3 -4,6 -6,11 -1,4 -2,8 -2,13 0,23 11,34 32,34 10,0 18,-3 23,-9 6,-7 9,-15 9,-25z"/>
  <path id="5" class="fil7" d="M3259 3918c-8,0 -15,-1 -21,-3 -6,-2 -11,-6 -15,-10 -4,-4 -7,-9 -9,-15 -2,-5 -3,-12 -3,-19l0 -84 -13 0c-3,0 -5,-1 -7,-2 -2,-2 -3,-4 -3,-7l0 -19 26 -5 10 -40c1,-5 4,-7 10,-7l26 0 0 47 39 0 0 33 -39 0 0 80c0,4 0,7 2,10 2,2 5,3 8,3 2,0 3,0 5,0 1,-1 2,-1 3,-1 1,-1 1,-1 2,-2 1,0 2,0 3,0 1,0 3,0 3,1 1,1 2,2 3,3l15 23c-6,5 -13,8 -21,11 -8,2 -16,3 -24,3z"/>
  <path id="6" class="fil7" d="M3327 3916l0 -234 48 0 0 86c6,-5 12,-9 19,-12 7,-3 15,-5 24,-5 9,0 17,2 24,5 6,3 12,7 17,13 5,5 8,12 10,19 3,8 4,16 4,25l0 103 -48 0 0 -103c0,-8 -2,-14 -6,-19 -3,-4 -9,-6 -16,-6 -5,0 -10,1 -15,4 -4,2 -9,6 -13,10l0 114 -48 0z"/>
  <polygon id="7" class="fil7" points="3714,3688 3714,3729 3620,3729 3620,3786 3698,3786 3698,3827 3620,3827 3620,3916 3567,3916 3567,3688 "/>
  <path id="8" class="fil7" d="M3801 3751c11,0 20,2 29,5 9,4 17,9 23,15 7,6 12,14 15,23 4,9 6,20 6,31 0,4 -1,7 -1,9 0,3 -1,4 -2,6 0,1 -2,2 -3,3 -1,0 -3,0 -5,0l-94 0c2,14 6,24 13,30 6,6 15,9 25,9 6,0 11,-1 15,-2 4,-1 8,-3 11,-5 3,-1 6,-3 9,-4 2,-1 5,-2 8,-2 4,0 7,1 9,4l14 18c-5,5 -11,10 -16,14 -6,3 -12,6 -18,8 -6,2 -12,3 -18,4 -7,1 -12,1 -18,1 -11,0 -22,-2 -32,-5 -10,-4 -18,-10 -26,-17 -7,-7 -13,-16 -17,-27 -5,-11 -7,-23 -7,-38 0,-11 2,-21 6,-30 3,-10 9,-19 16,-26 7,-7 15,-13 25,-17 10,-4 21,-7 33,-7zm1 34c-9,0 -17,2 -22,8 -5,5 -8,12 -10,22l60 0c0,-4 0,-7 -1,-11 -1,-4 -3,-7 -5,-10 -2,-3 -5,-5 -9,-7 -4,-1 -8,-2 -13,-2z"/>
  <path id="9" class="fil7" d="M3901 3916l0 -234 49 0 0 89c6,-6 13,-11 20,-14 8,-4 17,-6 27,-6 8,0 16,2 23,6 8,3 14,9 19,16 5,7 9,15 12,26 3,10 5,21 5,34 0,13 -2,24 -5,34 -4,10 -9,19 -15,27 -6,8 -13,13 -21,18 -9,4 -18,6 -29,6 -4,0 -9,0 -12,-1 -4,-1 -8,-2 -11,-4 -3,-2 -6,-4 -9,-6 -2,-3 -5,-5 -7,-8l-2 8c-1,3 -2,6 -4,7 -2,1 -4,2 -8,2l-32 0zm79 -128c-3,0 -7,0 -9,1 -3,1 -6,2 -8,3 -3,1 -5,3 -7,5 -2,2 -4,5 -6,7l0 68c3,4 7,7 11,8 5,2 9,3 14,3 4,0 8,-1 12,-3 4,-2 7,-5 10,-9 3,-3 5,-8 6,-15 2,-6 3,-14 3,-22 0,-9 -1,-16 -2,-22 -1,-6 -3,-11 -5,-14 -3,-4 -5,-6 -8,-8 -4,-1 -7,-2 -11,-2z"/>
  <path id="10" class="fil7" d="M4074 3888c0,-3 1,-6 2,-9 1,-3 3,-5 5,-8 3,-2 5,-3 9,-5 3,-1 6,-1 10,-1 5,0 9,0 12,2 4,2 7,4 9,7 2,2 4,5 5,9 1,4 2,7 2,11 0,6 -1,11 -3,17 -2,6 -4,12 -7,18 -4,6 -8,11 -13,17 -4,6 -10,11 -16,16l-9 -8c-1,-1 -2,-2 -2,-3 -1,-1 -1,-2 -1,-4 0,-1 0,-2 1,-3 1,-1 1,-2 3,-3 1,-1 2,-3 4,-5 2,-1 3,-3 5,-6 2,-2 3,-4 5,-7 1,-2 2,-5 3,-8 -4,0 -7,-1 -10,-3 -3,-1 -5,-3 -8,-5 -2,-3 -3,-6 -4,-9 -1,-3 -2,-6 -2,-10z"/>
  <path id="11" class="fil7" d="M4291 3686c11,0 21,2 30,5 9,3 17,8 23,14 7,5 11,12 15,20 3,9 5,17 5,27 0,8 -1,16 -4,23 -2,7 -5,14 -9,20 -4,7 -9,13 -14,19 -6,6 -11,12 -17,18l-45 46c6,-2 12,-3 17,-4 6,-1 11,-2 16,-2l42 0c5,0 9,1 12,4 3,3 5,7 5,12l0 28 -160 0 0 -16c0,-3 1,-6 2,-10 2,-3 4,-6 7,-9l65 -66c6,-5 11,-11 15,-16 4,-5 8,-10 10,-15 3,-5 5,-10 6,-15 2,-5 2,-10 2,-15 0,-9 -2,-16 -6,-21 -4,-5 -11,-7 -20,-7 -4,0 -7,0 -10,1 -3,1 -6,3 -8,4 -2,2 -4,4 -6,7 -2,2 -3,5 -4,7 -2,5 -4,8 -7,10 -2,3 -6,4 -10,4 -1,0 -2,0 -3,-1 -1,0 -3,0 -4,0l-25 -5c1,-11 4,-21 9,-29 5,-9 11,-16 18,-21 7,-6 15,-10 24,-13 9,-3 19,-4 29,-4z"/>
  <path id="12" class="fil7" d="M4552 3802c0,20 -2,37 -6,52 -4,14 -10,26 -18,36 -7,9 -16,16 -26,21 -11,5 -22,7 -34,7 -12,0 -23,-2 -33,-7 -11,-5 -20,-12 -27,-21 -8,-10 -13,-22 -18,-36 -4,-15 -6,-32 -6,-52 0,-20 2,-37 6,-52 5,-14 10,-26 18,-36 7,-9 16,-16 27,-21 10,-5 21,-7 33,-7 12,0 23,2 34,7 10,5 19,12 26,21 8,10 14,22 18,36 4,15 6,32 6,52zm-49 0c0,-16 -1,-29 -3,-39 -2,-10 -5,-17 -8,-23 -4,-6 -7,-10 -11,-12 -5,-2 -9,-3 -13,-3 -4,0 -8,1 -13,3 -4,2 -7,6 -10,12 -4,6 -6,13 -8,23 -2,10 -3,23 -3,39 0,16 1,29 3,39 2,10 4,17 8,23 3,6 6,10 10,12 5,2 9,3 13,3 4,0 8,-1 13,-3 4,-2 7,-6 11,-12 3,-6 6,-13 8,-23 2,-10 3,-23 3,-39z"/>
  <path id="13" class="fil7" d="M4598 3881l44 0 0 -115c0,-5 0,-11 0,-17l-26 21c-1,1 -3,2 -5,3 -1,0 -3,1 -4,1 -3,0 -6,-1 -8,-2 -2,-1 -3,-3 -4,-4l-16 -20 71 -60 40 0 0 193 37 0 0 35 -129 0 0 -35z"/>
  <path id="14" class="fil7" d="M4830 3918c-12,0 -23,-1 -33,-5 -10,-3 -19,-7 -26,-13 -7,-6 -12,-13 -16,-21 -4,-9 -6,-18 -6,-28 0,-6 1,-12 2,-18 1,-5 4,-10 7,-14 3,-5 7,-9 11,-12 5,-4 11,-7 18,-9 -10,-5 -18,-12 -23,-20 -5,-8 -8,-18 -8,-30 0,-9 2,-17 6,-25 3,-7 8,-14 15,-19 7,-6 14,-10 23,-13 9,-3 19,-5 30,-5 11,0 20,2 29,5 9,3 17,7 24,13 6,5 11,12 15,19 4,8 5,16 5,25 0,12 -2,22 -7,30 -5,8 -13,15 -23,20 6,2 12,5 17,9 5,3 9,7 12,12 3,4 5,9 7,14 1,6 2,12 2,18 0,10 -2,19 -6,28 -4,8 -9,15 -16,21 -8,6 -16,10 -26,13 -10,4 -21,5 -33,5zm0 -36c5,0 10,-1 14,-3 4,-1 7,-4 10,-7 2,-2 4,-6 5,-10 1,-4 2,-8 2,-12 0,-5 0,-10 -2,-14 -1,-4 -2,-7 -5,-10 -2,-3 -5,-5 -9,-7 -4,-1 -9,-2 -15,-2 -6,0 -11,1 -15,2 -4,2 -7,4 -10,7 -2,3 -4,6 -5,10 -1,4 -1,9 -1,14 0,4 0,8 1,12 2,4 4,8 6,10 3,3 6,6 10,7 4,2 8,3 14,3zm0 -102c5,0 10,-1 13,-3 4,-1 6,-4 8,-7 2,-3 4,-6 4,-10 1,-3 1,-7 1,-11 0,-4 0,-7 -1,-11 -1,-3 -2,-6 -5,-8 -2,-3 -5,-5 -8,-7 -3,-1 -7,-2 -12,-2 -5,0 -9,1 -12,2 -4,2 -6,4 -9,7 -2,2 -3,5 -4,8 -1,4 -2,7 -2,11 0,4 1,8 1,11 1,4 3,7 4,10 2,3 5,6 9,7 3,2 7,3 13,3z"/>
 </g>
</svg>
