<?xml version="1.0" encoding="UTF-8"?>
<!DOCTYPE svg PUBLIC "-//W3C//DTD SVG 1.1//EN" "http://www.w3.org/Graphics/SVG/1.1/DTD/svg11.dtd">
<!-- Creator: CorelDRAW X7 -->
<svg xmlns="http://www.w3.org/2000/svg" xml:space="preserve" width="84.6666mm" height="80.8566mm" version="1.1" style="shape-rendering:geometricPrecision; text-rendering:geometricPrecision; image-rendering:optimizeQuality; fill-rule:evenodd; clip-rule:evenodd"
viewBox="0 0 8467 8086"
 xmlns:xlink="http://www.w3.org/1999/xlink">
 <defs>
  <style type="text/css">
   <![CDATA[
    .fil2 {fill:#FEFEFE}
    .fil6 {fill:#EBECEC}
    .fil4 {fill:#092230}
    .fil12 {fill:#235C75}
    .fil9 {fill:#3D2215}
    .fil3 {fill:#4B6270}
    .fil5 {fill:#6E3619}
    .fil17 {fill:#C2A308}
    .fil8 {fill:#F7CD86}
    .fil7 {fill:#FFE51E}
    .fil11 {fill:#C4F7FF}
    .fil10 {fill:#83CBD6}
    .fil1 {fill:black}
    .fil16 {fill:url(#id0)}
    .fil15 {fill:url(#id1)}
    .fil13 {fill:url(#id2)}
    .fil14 {fill:url(#id3)}
    .fil0 {fill:url(#id4)}
   ]]>
  </style>
  <linearGradient id="id0" gradientUnits="userSpaceOnUse" x1="1921.31" y1="1324.98" x2="1921.31" y2="386.34">
   <stop offset="0" style="stop-opacity:1; stop-color:#FF995E"/>
   <stop offset="1" style="stop-opacity:1; stop-color:#FFED8A"/>
  </linearGradient>
  <linearGradient id="id1" gradientUnits="userSpaceOnUse" xlink:href="#id0" x1="2521.94" y1="1179.19" x2="2521.94" y2="368.8">
  </linearGradient>
  <linearGradient id="id2" gradientUnits="userSpaceOnUse" xlink:href="#id0" x1="1996.32" y1="2274.96" x2="1996.32" y2="1349.96">
  </linearGradient>
  <linearGradient id="id3" gradientUnits="userSpaceOnUse" xlink:href="#id0" x1="2607.05" y1="1964.36" x2="2607.05" y2="1279.99">
  </linearGradient>
  <linearGradient id="id4" gradientUnits="userSpaceOnUse" x1="5297.58" y1="103.21" x2="3249.48" y2="7101.77">
   <stop offset="0" style="stop-opacity:1; stop-color:#0077FF"/>
   <stop offset="1" style="stop-opacity:1; stop-color:#A1FFE0"/>
  </linearGradient>
 </defs>
 <g id="Layer_x0020_1">
  <metadata id="CorelCorpID_0Corel-Layer"/>
  <g id="_2183388080624">
   <path class="fil0" d="M882 2788c-504,1763 538,2795 1847,3982 1310,1187 4478,-246 4983,-2009 504,-1763 -1390,-6064 -3156,-4376 -1767,1689 -3170,640 -3674,2403z"/>
   <path class="fil1" d="M1032 4856c0,22 -4,40 -5,60 -3,93 25,90 -40,146 -18,15 -37,59 -42,81 -8,31 24,120 116,124 79,3 107,-62 118,-128 4,-23 3,-31 9,-54 6,-24 -4,-32 6,-58 22,14 -3,60 33,89 31,24 54,19 90,34 -2,28 -60,97 134,110l8 71c-36,17 -49,41 -71,70 -16,22 -3,15 -13,36 -50,33 -160,38 -231,28 -39,-53 8,-58 -83,-116 -43,-28 -124,-12 -130,48 -12,104 112,178 204,200 32,7 94,5 130,7 55,5 78,-3 128,-10 6,13 5,24 12,38 9,18 14,17 21,37 -59,20 -102,35 -170,41 -20,2 -83,7 -96,-1 -13,-8 -4,-3 -11,-15 -6,-8 -6,-7 -12,-15 -11,-14 -8,-18 -25,-32 -89,-78 -209,-11 -190,61 12,47 56,99 101,117 98,39 138,20 223,41 17,5 85,3 103,-2 28,-8 18,-2 48,-3l138 -36c18,-5 32,-4 55,-14 15,-6 24,-16 37,-21 55,52 68,32 132,30 35,45 12,56 73,100 53,38 94,3 144,3 17,26 30,57 53,79 12,12 16,9 26,18l33 55c6,19 14,59 7,78 -19,-4 -48,-33 -73,-38 -17,-4 -69,15 -81,22 -12,-16 -19,-31 -44,-39 -30,-9 -34,-17 -68,-13 -104,11 -95,58 -114,58l-41 -31c7,-24 43,-55 59,-88 40,-88 -46,-152 -132,-88 -51,38 -38,56 -67,83 -32,-15 -36,-31 -95,-55l-53 -21c-19,-6 -32,-18 -54,-25 -77,-26 -113,-23 -182,-47 -49,-17 -151,-8 -202,0 -25,4 -87,33 -110,44 -34,16 -68,36 -97,57 -25,18 -59,55 -74,81 -16,29 -51,66 -52,97 0,17 1,0 -5,21 -8,24 -13,81 -8,105 7,31 2,30 21,54 8,10 10,13 16,24 7,13 6,14 18,23 15,11 22,7 27,21 21,56 155,87 211,101 26,7 47,4 71,10 87,22 193,-4 287,3 -1,12 -92,152 22,199 95,39 80,11 118,-69 8,-16 14,-23 21,-40 8,-18 9,-36 19,-50l4 11c4,15 1,33 10,48 20,34 31,-15 68,81 27,70 49,7 0,125 -56,130 -14,240 1,369 2,18 -7,24 -2,46 6,25 12,11 22,31 18,31 11,36 48,57 23,13 59,20 91,21 16,-9 24,-15 28,-36 3,-13 11,-41 9,-52 -2,-14 -32,-79 -39,-87 -18,-21 -44,-24 -29,-91 4,-18 9,-35 15,-52 6,-15 12,-36 25,-41 20,58 28,91 92,115 -1,69 -18,131 -5,204 16,97 7,44 32,79 11,16 5,27 11,42 4,11 5,5 11,15 19,33 -26,18 61,72 85,52 93,-33 80,-97 -7,-31 -31,-44 -57,-55 -3,-29 24,-116 40,-137 67,-2 33,6 115,-5 23,31 -6,30 60,69 136,78 151,6 183,4 9,-1 29,10 53,10 26,-1 35,-7 57,-11 6,7 62,137 103,188 16,20 26,32 42,55 84,118 -10,79 53,172 8,11 13,16 21,28 16,26 25,42 50,52 24,9 62,2 89,-1 29,-3 34,-24 45,-52 16,-43 -33,-118 -57,-135 -21,-14 -44,-21 -65,-32 -46,-25 -55,-196 -51,-245 60,8 100,0 124,-43 20,22 23,65 32,95l39 93c9,28 9,48 16,72 12,37 -1,29 22,62 29,40 51,69 103,74 27,2 54,-7 67,-20 54,-53 5,-140 -34,-186 -10,-11 -39,-23 -54,-33 -39,-25 -31,-81 -34,-140 -2,-41 6,-84 -7,-125 -6,-19 -8,-12 -22,-21 0,-52 3,-77 -36,-110 -16,-12 -18,-9 -30,-17 1,-25 1,-39 1,-63 0,-14 4,-14 7,-25 5,-16 1,-22 6,-35 3,-10 56,-54 15,-107 -15,-19 -23,-21 -16,-48 13,-58 5,-91 -45,-124 -10,-7 -17,-8 -27,-14 2,-60 -4,-95 -42,-125 -51,-41 -39,-50 -117,-42 -4,-25 -27,-56 -39,-71 -22,-29 -46,-21 -74,-35 7,-42 42,-65 44,-173 0,-28 -7,-48 -6,-71 28,-4 51,-12 69,-28 10,-9 16,-17 23,-26 2,-4 8,-11 13,-14 20,-14 19,10 21,24 2,27 -1,4 7,23 9,22 6,56 14,79 6,16 5,6 10,20 6,16 8,38 16,51 4,8 6,5 13,18 11,21 12,50 23,69 16,26 35,53 50,78 30,48 -2,15 51,73 59,63 116,141 208,172 -11,25 -50,33 -65,55 -17,25 2,72 -2,108 -39,17 -49,20 -65,67 -17,51 -22,50 2,102 30,63 8,31 -8,88 -26,97 30,116 35,159 9,64 -36,87 45,150 12,9 29,15 41,24 14,11 34,11 44,23 15,18 20,40 41,60 11,10 6,7 15,19 47,2 54,32 92,51 45,21 87,-8 115,-23 20,4 53,27 72,35 30,11 52,17 65,45 24,51 18,126 -5,179 -54,7 -32,14 -23,52 8,31 0,85 72,131l55 34c31,25 105,-21 79,-88 -25,-64 -80,-69 -65,-112 12,-37 43,-49 30,-144 -4,-30 0,-58 -5,-88 -4,-29 -17,-50 -18,-75 8,-5 14,-9 22,-14 21,14 25,30 47,38 23,7 43,10 63,20 33,17 53,76 57,111 6,50 9,99 -21,137 -8,10 -13,11 -20,21 -6,8 -3,5 -7,14 -20,37 -12,40 13,71 39,46 100,158 196,117 44,-20 38,-76 13,-115 -11,-17 -19,-35 -33,-51 0,0 -20,-20 -22,-21 -36,-29 -47,6 3,-96 13,-27 20,-57 24,-90 7,-58 -8,-98 -26,-147 -8,-22 -15,-20 -22,-34 16,-28 16,-12 25,-54 45,0 82,-2 111,-35 5,-6 15,-19 20,-28 21,-39 29,-90 53,-128 4,-6 3,-5 7,-9 36,10 83,21 119,2l20 -15c41,-26 64,-73 62,-137 34,10 56,58 72,91 33,71 15,57 18,133 -19,-5 -4,-11 -22,-8 -29,7 15,50 19,54 62,49 87,107 148,97l18 2c7,1 18,1 26,0 71,-16 32,-96 12,-131 -44,-77 -91,-27 -92,-108 0,-59 -28,-158 -28,-166 133,34 59,145 170,224 82,57 143,-19 136,-61 -6,-40 -68,-113 -98,-141 -14,-12 -13,-6 -16,-24 -4,-19 2,-15 -9,-30 -5,-7 -12,-13 -19,-21 -22,-29 -74,-77 -105,-93 -18,-10 -44,-10 -65,-19 2,-37 11,-45 -3,-85 -12,-34 -28,-42 -35,-65 20,-26 49,-34 57,-86 8,-49 -12,-72 -43,-104l33 -22c13,-11 19,-14 38,-9 38,11 43,22 69,43 17,14 43,34 64,47 37,23 47,26 91,22 -4,33 -14,45 -4,84 8,31 23,37 42,51 18,33 -54,83 41,216 21,29 35,16 65,26 11,5 29,77 77,122 17,15 22,15 47,21 16,126 -69,168 -110,221 -22,28 -32,32 -67,47 -3,63 20,116 49,164 14,23 17,20 51,25 63,8 66,5 90,-47 33,-72 -3,-52 4,-115 41,-10 50,-24 78,-45 10,-8 19,-12 27,-18 33,-26 44,-88 63,-107 11,9 26,21 37,28 24,14 26,3 51,0 7,5 24,20 31,27 3,9 -25,222 -7,290l15 60c14,87 -9,70 54,180 13,24 35,43 51,64l46 68c13,17 27,25 40,40 29,31 101,71 139,91 57,29 67,15 126,19 40,3 88,-9 121,-32 15,-11 24,-28 40,-40 47,-36 33,-30 68,-87 54,-87 29,-112 42,-187 4,-22 -1,-48 -1,-73 1,-72 0,-75 -17,-138 -12,-43 -18,-85 -29,-127 -6,-25 -17,-22 -30,-44l-33 -51c55,3 61,-18 89,-52 7,-8 13,-19 16,-32 15,-75 -83,-132 -144,-138 -28,-3 -46,17 -72,24 -11,3 -26,5 -39,9 -23,7 -21,15 -69,28 -30,9 -5,15 -29,16 3,-18 16,-19 20,-52 49,4 78,-24 102,-52 42,-52 3,-78 0,-124 24,-21 56,-42 68,-77 14,-40 -23,-82 -34,-112 14,-31 35,-36 32,-84 -4,-46 -27,-50 -42,-77 51,5 76,-22 112,-7 20,9 30,74 37,96 9,27 29,70 42,91 14,22 40,57 47,87 -35,44 -24,21 -50,79 -10,22 -13,23 -7,46 16,56 34,95 105,95 47,0 80,-58 91,-71 6,-7 11,-9 16,-19 23,-47 28,-119 2,-161 -31,-48 -56,-140 -50,-210 18,2 32,44 42,63 53,100 49,104 126,204 -16,38 -42,18 -47,88 -8,106 130,195 191,72 27,-56 22,-84 31,-141 8,-53 0,-72 -27,-103 -12,-14 -17,-26 -27,-40 -26,-32 -27,-9 -49,-57 -11,-22 -30,-45 -36,-71 87,-1 90,-1 124,-79 55,-2 61,15 120,-13 33,-17 59,-36 70,-76 16,6 113,72 139,87 25,14 45,25 74,36 26,10 60,18 83,32 -9,39 -23,82 -18,128 17,148 134,124 158,105 19,-14 55,-66 63,-87 16,-40 -27,-196 -52,-231 -14,-20 -44,-15 -93,-52 -24,-19 -59,-49 -80,-70 12,-11 83,-20 98,-18 18,47 22,69 54,104 78,87 160,33 181,-53 13,-54 0,-47 -21,-85 -78,-137 -173,-91 -255,-96 -83,-5 -190,-38 -238,-81 4,-14 7,-13 18,-23 22,-20 37,-46 45,-79 15,-54 -23,-82 -53,-103 0,-18 9,-32 -8,-46 -20,-16 -28,-1 -30,-35 55,1 91,19 128,-21 43,-48 -11,-81 -1,-120 8,-28 20,-25 11,-67 -18,-82 -113,-89 -143,-101 -5,-40 -12,-52 -45,-66 -23,-10 -64,-30 -93,-20 -20,8 -48,44 -54,63l-22 93 -39 -2c-15,-41 -22,-79 -67,-101 -78,-38 -105,15 -133,11 -27,-15 -29,-31 -59,-45l-84 -19c5,-18 -1,-10 18,-16 12,-4 14,-3 26,-9 16,-8 27,-16 41,-24 71,-41 91,-63 133,-133 42,-69 25,-85 34,-101 12,-15 33,-22 49,-12 18,11 18,18 45,31 67,33 68,10 128,13 24,33 27,40 77,51 20,4 35,8 46,20 6,6 8,12 13,18 32,37 117,66 169,51 25,-7 26,-17 44,-23 22,5 38,21 61,33 35,18 44,-4 67,-9 14,12 22,17 18,43 0,8 -9,41 -12,51 -8,27 -23,66 -34,89 -20,38 -69,75 -70,117 -1,21 -1,45 5,62l33 60c29,34 45,64 99,49 78,-23 68,-130 41,-176 12,-33 36,-49 54,-100 7,-18 16,-38 21,-57 5,-20 7,-53 17,-63 23,32 -9,131 -18,170 -8,32 -14,23 -23,46 5,18 5,7 9,27 7,32 11,55 29,83 90,141 255,114 176,-35 -56,-106 -71,-13 -6,-200 28,-79 4,-180 -19,-254 29,16 29,23 49,45 29,34 128,115 168,128 32,11 37,4 73,24 39,20 123,27 163,14 40,-12 42,-15 84,-8 44,-43 1,-11 64,-51 45,-28 75,-83 104,-125 14,-21 32,-50 36,-80 15,-133 -6,-163 -46,-283 -13,-42 -5,-43 -29,-86 -12,-21 -40,-46 -48,-67 -15,-40 -13,-34 -46,-68 -23,-25 -95,-88 -126,-104 -50,-26 -95,-60 -150,-79 -21,-8 -76,-14 -90,-25l-25 -32c-12,-14 -23,-18 -30,-36 69,-24 106,5 172,-44 58,-43 57,-88 30,-150 -25,-60 -73,-84 -136,-44 -76,48 -51,56 -89,132 -18,1 -40,-15 -65,-18 -43,-7 -50,1 -81,8 -25,6 -41,-13 -76,-6 -27,6 -40,23 -63,30 -14,-12 -2,-15 -46,-49 -7,-83 -43,-84 -116,-101 -24,-65 -29,-88 -111,-88 -58,0 -67,-57 -137,-63 -31,-3 -69,11 -87,1 -26,-16 -30,-30 -76,-24 -30,3 -55,17 -78,-3 -26,-23 -33,-24 -76,-27l14 -18c19,-16 142,-108 153,-109 16,-1 55,45 137,1 20,-11 18,-17 34,-26 -1,-10 0,-19 -1,-27 -2,-30 -13,-17 -8,-45 13,-89 -12,-99 -10,-136 2,-27 10,-16 4,-50 -7,-39 -6,-138 -8,-179 -1,-37 21,-70 4,-104 -14,-28 -8,-75 -4,-105 6,-52 -11,-70 -9,-114 1,-36 6,-85 5,-119l8 -238c1,-83 -10,-151 -10,-234 0,-40 0,-80 0,-120 -1,-23 -4,-36 -6,-57 -2,-21 3,-41 2,-62 -4,-55 -22,-112 -8,-165 3,-8 7,-12 3,-22l-15 -17c64,-39 113,-96 112,-180 -3,-141 -118,-214 -237,-184 -41,10 -72,32 -98,53 -65,52 -85,108 -67,220 -35,-4 -79,-24 -112,-39 -58,-27 -129,-40 -184,-72 27,-32 69,-15 67,-67l-90 -29c-10,-4 -5,-2 -13,-4l-19 -6c8,-23 39,-51 50,-75 12,-27 -10,-68 -32,-82 -33,-20 -103,32 -143,29l-52 -6c-29,-10 -1,-54 -1,-78 0,0 -2,-17 -2,-17l-2 -8c-5,-27 -34,13 -125,5 -18,-2 -44,-9 -54,-18 -9,-8 -20,-33 -19,-50 31,-21 63,-20 99,-31 39,-13 61,-39 19,-67 -27,-18 -53,-39 -101,-29 -11,2 -110,21 -122,9 0,-1 -2,-3 -1,-4l22 -57c12,-34 19,-34 33,-55 -7,-21 -12,-24 -39,-23 -37,2 -77,-1 -112,13 -15,5 -26,15 -42,18 1,-9 4,-19 7,-27 9,-30 41,-43 39,-77 -44,-12 -57,4 -85,18 -18,9 -8,-1 -26,14 -67,56 -67,-15 -111,-5 -14,8 -7,20 -17,27 -1,0 -2,1 -3,1 -25,14 -56,18 -80,35 -13,9 -42,18 -58,21 -32,6 -37,-13 -53,-27 -14,-12 -35,-20 -48,-31 -15,-11 -56,-113 -83,-42 -11,27 -10,42 -44,42 -5,-17 -9,-66 -12,-73 -13,-13 -29,-16 -47,-1 -12,11 -25,49 -66,84 -15,13 -20,29 -33,43 -6,-6 0,4 -9,-11l-16 -37c-4,-10 -22,-38 -29,-46 -81,-103 -238,-67 -288,34 -60,121 29,223 83,247 25,11 30,8 34,41 4,39 -28,89 -53,97 -23,-22 -5,-25 -18,-48 -34,-17 -43,6 -52,32 -6,17 -22,43 -30,62 -18,46 -12,125 -28,156 -17,-4 -41,-27 -49,-42 -6,-10 -7,-15 -12,-23 -18,-1 -31,3 -42,8 -2,29 8,24 4,56 -7,77 -5,52 19,81 9,10 7,12 18,23 14,15 24,33 24,63 -28,-3 -20,-8 -37,-23 -30,-3 -60,13 -50,40 18,19 32,-4 48,54 7,24 16,65 6,92l-19 -30c-19,-2 -34,8 -46,17 0,30 7,19 13,45 -49,26 -205,126 -243,167 -7,7 -11,13 -19,21 -48,48 -51,66 -120,92 -185,69 -183,71 -344,154 -48,25 -73,63 -112,44 -27,-14 -99,-35 -130,-34 -99,2 -105,36 -165,82 -36,28 -23,45 -45,78 -20,30 -62,31 -86,43 -39,19 -40,8 -60,19 -125,66 -90,19 -209,127 -28,26 -23,4 -37,46 -10,30 -16,27 -19,64 -2,37 3,52 3,80l-112 86c-15,10 -7,8 -21,19 -27,20 -77,40 -110,53 -28,10 -103,61 -164,83 -42,16 -74,30 -112,48 -41,19 -77,28 -120,42 -59,19 -119,46 -172,72 -19,9 -28,27 -58,25 -22,-26 9,-20 -49,-39 -30,-9 -36,-23 -70,-19 -41,5 -44,-7 -75,-5 -37,2 -37,16 -80,1 -62,-22 -62,-5 -104,11 -24,9 -12,-2 -31,14 -15,13 -30,23 -46,41 -14,16 -22,37 -40,48 -67,-16 -130,-39 -181,14 -36,37 -38,44 -63,87 -6,10 -8,10 -12,18 -7,14 -10,36 -13,49 -20,-2 -140,-61 -176,67 -46,3 -78,31 -96,59 -20,32 -2,73 3,135 -26,22 -19,16 -36,49 -13,0 -109,-42 -126,-51 -26,-14 -14,-7 -48,-13 -184,-31 -226,81 -178,142 40,51 144,39 201,42 19,1 36,2 57,1 6,0 20,-1 28,-2 11,-2 10,-4 20,-6 2,15 0,29 5,43 7,20 12,11 16,34 -18,9 -31,8 -47,20 -53,38 -12,38 -78,55 -17,4 -32,12 -48,18 -46,18 -92,37 -129,69 -32,29 -44,28 -68,69 -17,27 -40,50 -53,79 -19,39 -38,119 -38,162 0,68 40,146 79,191l70 63c60,33 145,45 214,54 111,13 130,-11 215,-49 29,-13 53,-36 74,-58 12,-12 21,-23 31,-35 12,-18 13,-34 34,-40zm1236 1326c10,-44 9,-66 7,-113 11,3 52,16 60,22 34,26 79,164 31,171l-42 3c-16,2 -31,6 -46,10 -8,-10 -18,-29 -18,-43 1,-11 6,-39 8,-50zm3547 -639c23,-56 13,-67 3,-104 120,0 91,-151 98,-167 9,-21 140,-61 185,-93 18,-13 37,-23 57,-36 31,-21 23,-20 71,-18 -5,39 14,27 3,61 -32,101 -24,67 -56,108 -34,42 -27,49 -79,84 -23,16 -22,25 -38,46l-24 29c-23,32 -20,38 -35,75 -73,0 -84,2 -103,61 -22,-8 -8,-9 -40,-26l-42 -20zm-1022 847c-17,-5 -31,-27 -47,-39 -17,-12 -40,-21 -56,-31 18,-22 54,-40 78,-62 47,-41 93,-106 115,-167 26,-74 11,-171 -24,-233 -19,-33 -80,-94 -103,-109 -20,-13 -27,-9 -51,-21 -24,-12 -14,-15 -52,-16 -29,-1 -42,-1 -70,-7 21,-21 38,-29 56,-44l557 -467c26,-22 48,-42 75,-67l252 -207c36,-26 9,11 56,-50 5,-7 30,-26 39,-32 21,-17 19,-5 46,3 35,9 78,-9 104,-29 30,-23 39,-50 63,-76 0,53 -8,45 21,84 25,34 23,35 68,47 -4,91 -23,85 50,140 14,10 31,17 41,28 -25,51 -290,96 -274,281 0,8 1,27 3,36 3,18 8,14 13,33 -31,-5 -43,-21 -86,-11 -97,23 -117,100 -166,147 -5,-2 -58,-33 -60,-37 -18,-27 13,-25 -35,-68 -45,-39 -113,-8 -137,31 -1,-1 -4,-2 -4,-2l-6 -4c-1,-1 -2,-2 -3,-2 -47,-35 -61,-21 -95,21 -14,18 -7,16 -35,52 -20,24 -13,39 -16,73 -24,-2 -18,-30 -60,-51 -34,-18 -38,-29 -83,-36 -41,-7 -48,-20 -85,13 -133,121 -29,194 53,177 88,-18 96,-52 155,-4 31,25 8,22 -4,63 -18,63 -27,99 -17,166 -49,24 -12,-4 -73,39 -12,8 -13,7 -23,17 -30,32 -27,73 -23,126 -26,19 -51,24 -74,51 -34,42 -10,53 -14,103 -33,20 -33,-5 -67,45 -22,33 -11,62 -2,96z"/>
   <g>
    <path class="fil2" d="M819 4240c-21,-14 -28,-18 -28,-53l13 -6c48,-21 11,-33 8,-51l37 -5c1,-13 3,-20 3,-30 -1,-14 -5,-7 -3,-29 44,-39 73,-27 112,5 -2,31 -15,13 -9,44 12,6 12,10 30,8 24,-3 5,-4 27,-13 25,4 50,21 53,39 3,20 -6,17 -15,27 -8,9 -7,-2 -8,34 62,16 50,-17 88,5 41,23 10,43 -16,56l0 26c27,17 63,18 65,53 -15,17 -46,28 -74,27 -15,-1 -29,-8 -41,4 -15,14 -5,18 -4,35 -15,-5 -5,-2 -15,-11 -7,-6 -7,-6 -15,-11 -71,-44 -97,-24 -110,-35 -23,-20 11,-63 -104,-96l6 -23z"/>
    <path class="fil2" d="M887 4000c-7,-21 -45,-91 3,-122 30,-18 38,-1 70,-4 30,-30 6,-59 39,-86 23,-19 73,-5 92,12l-1 86c8,61 69,122 132,145l-23 279 -30 -26c4,-31 24,-47 2,-82 -15,-24 -46,-21 -70,-37 -6,-13 -2,-20 -11,-37 -29,-51 -59,-47 -84,-58 -12,-6 -12,-15 -40,-34 -35,-24 -30,-26 -79,-36z"/>
    <path class="fil2" d="M1376 6332c-9,-18 -12,-9 -11,-36l35 -13c2,-13 0,-36 -4,-46l-9 -17c-3,-9 -2,-10 -2,-19 55,-36 30,-13 68,-20 4,-22 1,-32 12,-45 10,-11 56,-26 83,3 3,3 8,10 12,13 37,34 13,-23 83,-3 33,10 35,25 33,61 -19,17 -36,18 -37,53l27 13c9,5 18,6 25,10 10,31 -7,63 -27,71 -28,11 -37,-25 -72,11 -1,34 21,55 -14,76 -38,22 -49,3 -66,-23 -40,-4 -25,2 -48,13 -18,-5 -49,-31 -47,-51 0,-9 10,-29 0,-43 -7,-9 -25,-5 -41,-8z"/>
    <path class="fil2" d="M1512 3702c-10,-12 -8,-16 -18,-27 -15,-17 -50,-50 -73,-60 10,-75 73,-74 84,-80 12,-7 9,-14 25,-24 34,-23 61,14 67,17 35,15 41,-16 87,-13 10,9 21,23 39,20 12,-2 15,-16 37,-19 29,-5 74,15 86,31 -16,22 -230,103 -296,135 -15,7 -22,17 -38,20z"/>
    <path class="fil2" d="M2720 5472c-3,-27 -31,-1 -43,-26 -15,-30 26,-76 38,-91 21,-25 0,-21 1,-55l26 -15c16,-6 16,-5 33,-3 14,33 1,17 25,45 13,17 27,23 48,11 11,-36 -9,-20 -7,-55 32,-4 29,-4 43,13 11,13 20,19 36,13 20,-13 1,-36 53,-37 22,-1 57,7 73,16 46,26 -3,75 -4,87 -1,12 0,3 0,10l2 29c19,0 30,-11 44,-18 25,7 46,22 43,54 -11,32 -108,42 -110,66 7,21 24,21 20,53 -7,51 -69,23 -92,16 -33,-11 -17,-13 -33,-33 -32,2 -37,29 -58,43 -31,7 -35,-9 -53,-20 -15,7 -30,24 -48,24 -31,-1 -68,-33 -58,-83 4,-16 24,-24 21,-44z"/>
   </g>
   <path class="fil3" d="M668 4365c8,59 0,74 41,105 37,27 60,25 116,24 4,46 -10,95 68,123 78,28 134,-21 157,-25 -1,55 -31,156 -46,203 -20,59 -60,113 -108,141 -40,24 -21,24 -76,47 -39,17 -54,20 -103,21 -65,1 -155,-15 -202,-45 -3,-34 30,-69 45,-95 15,-25 33,-63 60,-80 32,21 35,27 89,24 60,-3 102,-49 137,-87 17,-19 38,-63 -18,-56 -13,26 -10,33 -32,55 -8,8 -40,33 -50,38 -93,48 -146,-67 -144,-103 1,-26 9,-52 20,-69 20,-30 45,-46 64,-69 15,-17 10,-37 -14,-27l-77 78c-82,121 16,149 -16,199 -13,20 -65,78 -77,101 -11,20 -17,38 -32,56 -30,-13 -48,-51 -58,-65 -60,-86 -57,-201 -15,-282 37,-73 113,-156 185,-182 21,-8 69,-30 86,-30z"/>
   <path class="fil3" d="M687 4154c-32,4 -146,-3 -172,-12 -62,-21 -54,-74 -2,-98 74,-36 224,32 263,68 -6,41 -24,34 -89,42z"/>
   <path class="fil3" d="M1373 6374c-6,18 -17,19 -44,45l-38 41c-17,15 -113,10 -154,12 -121,7 -178,-7 -285,-34 -21,-5 -96,-49 -106,-58 -29,-29 -69,-40 -87,-77 -11,-25 -25,-125 -1,-140 33,-19 102,2 137,9 8,55 39,84 87,98 64,19 119,55 125,6 -34,-27 -193,-24 -170,-131 26,-116 156,-55 212,-56 8,-13 11,-16 12,-38 -29,-4 -56,-16 -79,-19 -13,-1 -80,-3 -89,0 -62,20 -83,65 -101,88 -31,3 -73,-10 -112,-9l58 -93c19,-21 62,-46 93,-62 79,-42 181,-67 281,-48l93 21c21,4 43,5 64,11l108 47c27,17 124,36 142,85 -9,13 -29,19 -43,30 -22,18 -29,11 -47,24 -19,14 -14,21 -39,32l-41 25c2,94 18,55 -11,90 -16,19 -3,11 -16,16 -8,-18 -2,-34 -14,-56 -11,-18 -27,-27 -33,-37 4,-12 34,-22 48,-47 7,-13 21,-58 22,-73 2,-21 -17,-99 -71,-119 -23,-8 -57,-10 -81,-1 -51,19 -46,58 -84,102 -16,19 -33,40 -5,63 -17,46 17,37 41,71 -15,14 -34,23 -48,40 -44,55 -19,59 -20,88 -1,25 -5,20 6,37 47,75 133,85 175,57 25,-16 53,-69 62,-106 22,16 6,45 53,66z"/>
   <path class="fil3" d="M823 4452c-42,6 -54,7 -85,-16 -30,-24 -25,-44 -17,-77 11,5 42,34 54,44 18,16 42,25 48,49z"/>
   <path class="fil3" d="M863 4423c-25,-9 -45,-33 -62,-50l-47 -62c16,-10 40,-12 60,-7 7,1 42,23 44,25 30,28 35,67 5,94z"/>
   <path class="fil3" d="M999 4567c-19,20 -78,16 -104,3 -47,-21 -29,-45 -33,-93 25,7 92,56 109,66 18,10 18,8 28,24z"/>
   <path class="fil3" d="M1038 4521c-39,4 -59,-17 -81,-30 -28,-18 -45,-24 -63,-48 32,-74 156,-28 144,78z"/>
   <path class="fil3" d="M1594 5762c-67,41 -249,76 -338,69 -32,-2 -145,-21 -173,-31 -45,-18 -71,-14 -90,-43 -55,-82 1,-107 46,-95 47,12 56,41 57,76 44,22 30,22 94,21 68,-2 128,-6 190,-31 48,-19 36,-27 66,-42 39,28 75,33 139,32l9 44z"/>
   <path class="fil3" d="M1392 5550c-87,30 -259,11 -325,-30 -30,-19 -99,-62 -82,-102 11,-26 44,-25 70,-14 15,6 25,39 35,59 -8,14 -7,6 -12,22 12,17 38,31 62,28 16,-2 15,-6 41,-4 14,0 29,0 43,1 112,8 114,-21 154,-24 9,22 17,40 14,64z"/>
   <path class="fil3" d="M1078 4514c2,-40 -11,-46 -10,-71 10,-5 12,-7 20,-12 14,19 16,60 30,84 14,24 32,49 43,72 35,69 37,24 36,81 -1,38 -3,77 -3,115 -1,27 9,117 -1,135 -29,53 -15,23 -38,86 -9,24 -9,95 -30,156 -22,61 -28,58 -63,58 -37,0 -66,-30 -67,-55 -1,-36 16,-61 43,-73 58,-26 16,-26 21,-183 4,-99 -5,-60 -14,-99 -4,-18 19,-66 23,-90l34 -194 -24 -10z"/>
   <path class="fil3" d="M1135 6348c-9,-8 -8,-5 -11,-16 -15,-52 17,-105 47,-107l-17 134 -19 -11z"/>
   <path class="fil3" d="M1221 5997c-4,28 -20,63 -27,93 -4,18 3,91 -44,49 -28,-25 -26,-129 71,-142z"/>
   <path class="fil4" d="M1198 4562c-31,-26 -65,-99 -67,-156 37,-3 25,-9 46,-16 7,-2 13,-2 20,-3 0,31 -1,61 -2,92 0,27 7,52 3,83z"/>
   <path class="fil3" d="M1220 6218c46,4 57,42 49,91 -6,30 -9,31 -27,44 -17,12 -20,21 -43,23 -2,-21 17,-131 21,-158z"/>
   <path class="fil3" d="M1229 6161c2,-52 16,-125 40,-156 54,29 37,155 -40,156z"/>
   <path class="fil3" d="M1271 6667c-17,-12 -20,-34 -15,-60 4,-23 38,-87 48,-102 25,-2 40,5 54,-13 21,-29 2,-31 -3,-43 14,-11 14,-20 34,-25 54,37 13,63 8,103 -2,15 -5,22 -9,36 -9,29 -46,95 -61,123 -14,-1 -47,-13 -56,-19z"/>
   <path class="fil5" d="M1322 5107c-20,0 -47,-7 -63,-13 -45,-19 -20,-89 -17,-118l-3 -211c-2,-43 1,-101 3,-145 5,-120 -8,-361 1,-441l9 -137 107 2c-3,40 -11,74 -11,121 -2,138 7,255 6,380 0,82 -3,171 3,252l10 243c-44,21 -34,47 -45,67z"/>
   <path class="fil5" d="M1132 3860c-6,-28 5,-20 12,-74 3,-29 27,-74 41,-98 17,-28 36,-57 67,-65 57,-13 107,-2 151,24 69,39 93,88 66,162 -14,37 -6,24 -32,81 -22,49 -30,81 -82,100 -52,19 -105,10 -151,-20 -48,-31 -62,-60 -72,-110z"/>
   <path class="fil5" d="M1391 4708c-1,-34 4,-13 0,-84 -2,-29 3,-55 3,-84 0,-56 -5,-215 -12,-276 -3,-28 4,-25 7,-29 11,12 11,23 24,34l97 70c25,16 46,27 74,41 93,48 46,24 118,50 16,5 26,14 41,16 38,7 52,12 89,22 32,8 53,18 84,26 30,8 54,21 84,26 40,8 55,12 85,31 33,22 7,27 64,45 145,46 115,60 226,110 97,44 58,30 159,61 30,9 55,17 85,25 115,33 240,35 345,102 101,66 200,167 253,193 30,14 52,19 80,34 62,33 154,71 226,105l164 62c32,10 49,17 83,27 13,4 30,11 43,15 55,21 41,-47 43,155 0,46 11,103 12,150 1,57 -26,439 -17,465 8,27 17,39 -8,57 -70,51 -161,-69 -305,-70 -10,-16 -10,-33 -20,-47l-22 -40c-15,-29 -89,-120 -116,-140 -12,-9 -32,-17 -39,-24 -25,-25 8,-23 4,-46 -4,-19 -15,-1 -29,-38 -5,-12 -14,-30 -23,-39 -20,-20 -12,-7 -24,-38l-67 -123c-7,-16 -16,-19 -27,-35l-25 -36c7,-12 21,-24 20,-43 -2,-25 -17,-29 -14,-48 78,-9 216,53 251,-36 38,-97 -80,-139 -169,-137 -22,0 -67,13 -85,20 -37,16 -31,33 -56,48 -6,-3 -41,-43 -83,-57 -18,-6 -83,-7 -106,24 -35,-3 -58,-13 -103,-10 -40,-50 -3,-10 -45,-47 -23,-19 2,-16 -29,-62 -107,-10 -95,-52 -173,-20 -33,-32 -32,-65 -100,-79 -21,-5 -58,-3 -79,2 -25,7 -46,24 -64,26 -27,-56 -3,-71 -111,-101 -127,-36 -152,19 -167,27 -7,-3 -31,-28 -70,-51 -32,-19 -48,-24 -93,-22 -125,6 -39,97 -150,84 -17,-41 3,-24 -43,-66 1,-43 -4,-62 -36,-80 -56,-32 -52,-20 -85,-17 -27,2 -65,-21 -94,-17 -36,6 -42,42 -64,48l-11 -159z"/>
   <path class="fil1" d="M1406 5026l2 -17c13,4 12,2 14,16l-16 1z"/>
   <path class="fil6" d="M1454 4884c11,-17 24,-21 42,-13 9,11 -15,24 38,54 39,-17 28,-18 53,-43 33,5 10,5 45,0l16 29c-9,24 -20,12 -21,44 24,19 50,6 53,49 -21,8 -37,14 -59,25 -5,21 -2,30 -11,51 -9,20 -9,21 -12,46 -51,12 -51,3 -89,34 -26,21 -24,48 -61,63 -33,13 -83,-8 -94,-26 -17,-30 29,-49 49,-64 -8,-30 -23,-22 -29,-45 10,-11 9,-5 24,-13 13,-7 5,-6 22,-9 21,-4 34,-7 57,-7 49,-1 61,-38 15,-57 -57,-25 -73,-64 -38,-118z"/>
   <path class="fil2" d="M1657 6815c-22,-55 38,-77 13,-107 -30,-17 -36,2 -65,0 -19,-1 -42,-19 -49,-31 -17,-29 11,-39 -1,-65 -16,-35 -30,-11 -53,-9 -10,-12 -11,-7 -19,-25 -14,-29 8,-74 25,-96 40,7 56,14 95,-6 31,-16 30,-29 40,-56 7,-19 53,-12 86,-74 30,-57 -1,-70 -21,-106 7,-16 12,-19 14,-36 2,-17 0,-23 9,-36 10,-11 13,-10 27,-17 42,-18 53,-31 106,-20 42,9 29,19 34,56 63,36 51,-32 121,-25 18,1 46,17 54,30 21,37 -19,30 0,61 35,20 42,-20 83,-21 20,-1 36,-1 48,9 55,48 12,27 24,79 52,24 56,-40 122,-21 14,4 12,8 22,17 37,36 13,33 17,76 46,8 40,-15 72,-26 9,5 13,13 23,14 16,2 9,-4 20,-8 12,-5 36,3 48,11 46,30 7,75 14,91 6,9 21,19 32,19 32,-1 18,-57 97,-1 73,52 23,122 26,132 6,12 17,21 27,29 37,0 70,6 68,43 -4,64 -28,64 -23,92 24,10 40,5 42,36 1,21 -14,35 -31,43l2 36c-40,-17 -7,-42 -113,-38 0,-29 -5,-34 -27,-48 -78,-53 -178,-1 -152,27l22 5c35,-1 93,-33 123,9 -7,22 -12,2 -19,45l10 5c14,7 15,14 31,8 39,-14 47,-29 84,1 18,13 18,10 15,34l20 9c-1,13 0,35 -7,45 -12,19 -22,1 -19,34 5,13 6,6 19,13 1,0 2,1 3,1 33,14 79,-11 66,78 -12,84 -90,71 -103,75 -54,13 20,80 -108,73 -27,-2 -50,-9 -68,-22 -28,-21 -10,-43 -22,-57 -10,-13 -16,-7 -30,-14l-10 -8c-21,-15 -21,1 -42,7 -58,-37 -16,-51 -15,-88 -39,-19 -56,5 -87,-40 -27,-40 23,-55 20,-86 -20,-3 -31,5 -42,15 -2,1 -15,15 -16,16 -9,14 -3,2 -4,17 0,1 0,2 0,3 0,1 0,2 0,3l-2 14c-1,40 32,58 60,78 21,16 7,46 49,87 16,16 5,-3 12,19 -33,16 -80,38 -116,32 4,-17 16,-19 0,-30 -6,-4 -31,-8 -36,-8 -24,2 -31,27 -39,48 -186,14 -128,-107 -162,-126 -37,-5 -54,-3 -76,16 -31,25 -120,13 -130,-32 -7,-35 16,-46 -17,-76 -32,-2 -46,13 -77,-1l-21 -15c-36,-22 -51,-42 -50,-89 1,-45 20,-36 15,-70 -28,-12 -16,-10 -35,-30 -14,0 -26,4 -39,8l-14 -35z"/>
   <path class="fil2" d="M1457 5522c-12,-4 -47,-6 -43,-54 5,-51 -5,-55 44,-94 4,-4 54,-29 68,-22 10,5 15,18 29,4 7,-7 11,-7 4,-22 -11,-23 -54,-20 -68,-21 -5,-55 7,-93 38,-124 49,-49 76,8 119,-27 2,-34 -18,-22 -1,-76 8,-25 21,-41 47,-46 51,-11 40,9 74,17 33,8 41,-7 44,-40 2,-21 23,-54 33,-60 22,-12 56,-11 76,-4 98,38 76,75 82,102l39 2c21,-32 24,-97 141,-71 111,25 93,61 94,114 39,17 37,3 66,-16 70,-46 178,-21 182,64 12,4 18,11 29,11 28,-2 9,-40 84,-19 90,25 78,24 76,76 17,13 25,10 42,18l-20 9c-9,2 -16,3 -23,4 -49,12 -25,75 -49,123 -73,-5 -30,-28 -154,-20 -79,5 -160,134 -98,211 28,34 63,53 129,43 7,-4 62,-97 82,-112 23,-17 22,-12 42,-2 0,26 0,38 2,62 4,54 7,32 13,54 8,28 -12,87 -14,114 -5,75 -21,164 -17,246l-46 41c-17,23 -12,28 -44,39 -64,22 -77,-20 -84,-26 -8,-7 -20,-10 -31,-10 -10,3 -24,51 -111,49 -54,-2 -48,-61 -51,-87 -2,-13 -24,-27 -44,-12 -9,6 -23,58 -126,47 -37,-3 -53,-21 -70,-45 -40,-60 -23,-57 -28,-88 -40,-23 -43,3 -66,16 -123,68 -153,-122 -153,-122 -52,-32 -67,63 -135,-2 -16,-16 -35,-31 -23,-59 11,-25 7,-51 -26,-48 -41,3 -20,24 -77,20 -50,-4 -96,-47 -90,-89 6,-44 27,-19 13,-68z"/>
   <path class="fil3" d="M1656 7294c-15,0 -26,-1 -39,-7 -6,-3 -10,-6 -16,-10 -3,-2 -4,-2 -8,-5 -18,-13 -16,-16 -24,-33 -41,-87 2,-70 -3,-111l-23 -72c-30,-134 -7,-201 42,-310 35,4 28,-1 26,37 -1,31 7,61 22,86 15,25 6,14 28,25 3,29 -7,49 -18,69 -28,52 -55,145 -61,206 18,10 52,21 64,41 16,26 19,49 10,84z"/>
   <path class="fil3" d="M1662 6059c-30,36 -37,41 -93,40 -1,-13 2,-24 3,-32 1,-15 -3,-5 3,-25 6,-20 12,-28 25,-45 74,-97 143,-30 62,62z"/>
   <path class="fil3" d="M1848 7379c-39,-26 -40,-168 -37,-207 1,-12 1,-50 9,-56 14,-9 29,8 34,19 17,34 27,45 50,68 -2,27 -43,148 -56,176z"/>
   <path class="fil3" d="M1923 7472c-17,2 -19,1 -32,-8 -25,-20 -34,-40 -35,-76 24,5 10,10 29,16 10,3 21,0 36,4 10,25 16,36 2,64z"/>
   <path class="fil3" d="M2136 6196c1,-140 -10,-93 -15,-158l89 -11c37,48 13,142 9,175 -17,-1 -20,-5 -40,-5 -16,0 -28,1 -43,-1z"/>
   <path class="fil3" d="M2415 6308c-8,-15 -8,-14 -3,-32 33,-117 -47,-183 -50,-197 20,-2 44,0 60,-7 16,-7 16,-18 42,-15 10,18 1,14 19,33 53,56 18,133 -12,187 -24,45 1,48 -36,61l-20 -30z"/>
   <path class="fil3" d="M2633 7566c-22,-4 -19,-13 -30,-33 -41,-70 -140,-175 -150,-264 25,-12 34,-34 57,-34 18,7 29,40 61,57 41,23 41,15 40,74 -3,105 43,154 22,200z"/>
   <path class="fil3" d="M2520 5569c-132,-4 -100,-197 29,-189 76,5 90,39 90,39l-3 26c-12,8 -23,14 -36,24l-57 67c-11,22 -8,16 -23,33z"/>
   <path class="fil3" d="M2765 7745c-14,1 -48,-1 -62,-7 -24,-10 -87,-67 -57,-133 16,5 11,11 27,12 20,2 13,-6 34,-2 15,2 113,45 58,130z"/>
   <path class="fil3" d="M3326 5866c17,18 24,36 40,52 81,87 57,42 119,155 19,35 49,76 58,127 14,91 47,183 -21,294 -46,74 -140,134 -227,139 -95,5 -210,-20 -284,-81 -49,-41 -96,-89 -138,-136 -15,-18 -25,-34 -38,-55 -68,-102 -56,-112 -89,-185 -26,-59 -46,-154 -52,-222 -6,-63 2,-277 36,-322 20,0 28,5 52,1 97,-14 24,30 121,-24 25,12 96,33 127,21 46,-17 49,-55 48,-111l45 -20c28,27 58,94 78,130 11,21 21,15 26,43 -91,-14 -92,-33 -184,60 -10,9 -9,10 -23,15 -16,-29 -49,-36 -91,-41 -39,-6 -78,13 -105,27 -34,20 -46,33 -62,71 -16,42 -33,126 2,160 39,38 67,66 134,65 107,-3 114,-44 168,-98 35,14 44,30 89,30 35,1 71,-17 101,-18 32,35 51,81 43,146 -2,16 -15,61 -21,77 -43,131 -230,49 -240,-97l-33 -4c-14,24 -5,47 7,70 31,57 77,121 148,139 79,20 86,-42 135,50 23,43 41,100 39,150 -70,49 -187,19 -206,27l-1 23c14,7 13,5 31,9 32,7 14,19 98,12 136,-12 251,-140 228,-219 -49,-6 -26,29 -48,55 -21,26 -28,47 -48,59 -16,-8 -20,-27 -27,-49 -12,-36 -23,-69 -45,-101 -55,-80 -22,-20 11,-110 29,-78 17,-159 -15,-230 -8,-17 -14,-18 -22,-32 10,-19 19,-45 36,-52z"/>
   <path class="fil7" d="M3854 5294c-89,7 -182,-51 -264,-81 -105,-39 -78,-51 -149,-86 -55,-26 -90,-61 -144,-90 -15,-8 -22,-12 -35,-22 -10,-7 -22,-21 -32,-25 -35,-15 -46,-20 -77,-43 -25,-18 -54,-26 -73,-41 -43,-38 -82,-36 -115,-62 -11,-9 -24,-11 -37,-20 -27,-18 -13,-5 -44,-17 -13,-5 -28,-12 -41,-17 -19,-8 -145,-30 -191,-44 -58,-18 -106,-45 -157,-76 -22,-13 -56,-25 -82,-38 -11,-5 -29,-15 -39,-23 -12,-10 -11,-16 -31,-26 -7,-4 -14,-6 -21,-9 -5,-2 -5,-2 -9,-4 -43,-23 -91,-39 -138,-52 -33,-10 -50,-21 -83,-32 -109,-40 -261,-63 -358,-110 -16,-8 -27,-14 -43,-19 -45,-12 -186,-88 -229,-120 -17,-13 -12,-17 -26,-31 -13,-12 -19,-13 -33,-29 -14,-15 -20,-14 -23,-34 -4,-27 2,-81 3,-110 17,-16 27,-17 43,-34 10,-10 26,-22 35,-35 68,-95 36,-139 95,-188 27,-23 47,-42 78,-63 28,-20 60,-34 93,-52l96 -46c32,-16 4,-14 51,-19 34,-4 71,-27 103,-39 80,-30 40,-9 127,-54l71 -35c47,-20 102,-40 148,-64 49,-25 101,-42 154,-62 49,-19 89,-50 137,-75 51,-26 77,-60 113,-98 7,-7 30,-33 34,-36 15,17 29,27 47,40 54,41 109,66 179,82 168,40 125,-5 193,72 17,18 29,21 47,37 55,49 181,80 251,98 49,12 96,24 149,28 50,11 254,74 312,101 47,22 108,28 156,49l104 32c32,11 75,15 104,27l97 41c30,11 64,28 93,44 59,31 119,61 177,92 31,16 60,29 92,45 31,17 68,22 98,39 11,6 13,9 22,13 38,14 74,40 108,60 21,12 30,7 51,15l99 38c23,7 19,13 44,22 42,14 65,49 95,77 6,6 9,6 16,15 10,13 3,10 15,21 6,6 11,8 16,14 6,7 21,37 24,48 -23,9 -45,28 -66,43 -53,34 -118,61 -165,104 -66,60 -143,113 -199,181 -18,23 -35,34 -52,54l-101 116c-20,23 -31,41 -49,60 -17,20 -30,36 -49,58 -20,24 -15,0 -39,18l-29 24c-23,14 -51,21 -72,34 -12,7 -2,5 -19,12l-124 62c7,-21 38,-40 57,-59 55,-53 73,-56 139,-81 32,-12 67,0 64,-47 -25,-10 -26,-15 -54,-1 -63,31 -134,46 -184,94 -103,98 -140,174 -223,259 -29,29 -77,81 -110,98 -15,7 -34,18 -45,17 -3,-39 -1,-86 1,-126 41,-8 63,-27 79,-60 20,-41 26,-44 33,-99 6,-40 12,-88 -11,-117 -20,-24 -37,-58 -59,-73 -52,-36 -159,-63 -211,-21 -14,11 -27,15 -40,26 -29,24 -37,47 -54,79 -26,49 -14,145 14,188 8,13 11,22 17,32 38,57 64,6 55,136z"/>
   <path class="fil3" d="M3015 5794c-1,1 -3,1 -4,2l-63 18c-93,27 -89,39 -160,91 -1,-1 -1,-2 -2,-3 0,-1 -1,-2 -1,-3 -4,-9 -8,-20 0,-50 22,-89 36,-66 58,-83 28,-22 11,-16 55,-17l9 -15c51,4 92,21 108,60z"/>
   <path class="fil3" d="M3012 7621c-43,6 -75,-14 -93,-50 -13,-27 -22,-80 -30,-116 -12,-44 -25,-63 -42,-104 -26,-61 -16,-73 -19,-90 -4,-17 -10,-12 -14,-24 34,-10 47,-21 64,-46 5,-6 3,-4 7,-7 27,40 -2,247 17,266 9,9 169,62 110,171z"/>
   <path class="fil3" d="M3029 5829c8,9 2,0 4,13 8,49 26,26 -5,64 -10,13 -10,20 -23,35 -37,39 -49,53 -112,47 -62,-5 -39,-11 -80,-29 7,-39 55,-72 94,-85 49,-17 91,-56 122,-45z"/>
   <path class="fil2" d="M3125 7347c-28,-27 -43,20 -85,-12 -98,-76 -3,-118 -27,-158 -7,-11 -44,-22 -52,-63 -16,-81 31,-79 41,-103 17,-40 -18,-44 -28,-52 -20,-19 -23,-61 -11,-88 21,-47 43,-26 80,-27 37,-57 10,-35 -6,-84 -17,-52 -9,-62 24,-88 38,-29 31,-35 87,-15 32,12 67,16 104,20 69,7 147,-17 202,-49 37,-21 106,-97 120,-126l19 15c-4,-78 5,-47 14,-89 8,-34 7,-55 7,-93 22,5 24,20 52,7 41,-20 -8,-46 39,-94 12,-12 20,-27 37,-29 4,4 27,44 64,37 13,-2 50,-51 136,-67 37,-7 55,4 89,9 4,47 -28,20 -38,96 -3,21 3,41 13,57 15,24 14,17 40,26 3,32 -35,178 143,157 18,56 63,83 116,67 56,-18 69,-20 104,-73 0,-1 2,-2 1,-3 0,0 2,-1 2,-2 49,48 23,102 -23,131 -17,11 -52,33 -29,58 22,25 34,-18 67,26 52,67 -16,183 -86,195 -38,6 -52,0 -79,22 -9,17 31,75 -2,149 -19,43 -64,59 -121,54 -10,-8 -15,-23 -32,-25 -13,-1 -30,7 -37,14 -9,38 -7,47 -22,84 -15,35 -41,111 -95,114 -49,3 -24,-27 -79,-5 0,39 4,22 -10,52 -8,17 -8,24 -19,38 -44,52 -112,58 -166,20 -45,-31 -27,-77 -76,-55 -33,14 -20,27 -29,51 -9,21 -16,17 -29,29 -15,13 -30,57 -112,23 -53,-22 -29,-29 -36,-75 -35,-23 -50,-5 -84,17 -2,41 -5,52 -49,52 -23,-1 -50,-17 -63,-36 -10,-15 -5,-20 -25,-22 -20,-2 -14,7 -28,-13 -29,-37 -12,-57 -23,-74z"/>
   <path class="fil3" d="M3268 5742c4,2 21,1 22,30 -9,3 -44,-1 -61,-1 -64,2 -157,35 -167,35 -12,-16 -14,-22 -7,-36 13,-25 58,-66 92,-75 27,-7 77,6 92,19 9,9 5,9 13,18 15,18 -2,2 16,10z"/>
   <path class="fil3" d="M3359 5354c-47,34 -128,-5 -179,-2 -45,2 -39,25 -77,13 -2,-25 24,-53 36,-68 56,-69 196,-43 224,-12 23,25 27,47 -4,69z"/>
   <path class="fil3" d="M3299 5821c-3,20 2,2 -10,19 -36,52 -45,99 -152,81 -5,0 -57,-19 -62,-21l3 -50c55,-20 169,-55 221,-29z"/>
   <path class="fil3" d="M3628 7943c-26,8 -38,7 -57,-9l-23 -17c-24,-13 -43,-36 -48,-67 -8,-43 7,-44 13,-59 6,-17 -2,-13 10,-29 9,-12 10,-3 16,-26 13,-49 4,-90 -7,-138 -5,-21 -16,-36 -21,-55l13 -5c26,-10 24,-12 60,-15 10,39 23,128 12,170 -18,72 -50,72 -63,82 -12,9 -12,15 -11,33 34,28 52,30 68,54 29,41 47,33 38,81z"/>
   <path class="fil1" d="M3571 6144c38,1 45,8 76,18 8,3 50,24 56,30l-63 61 -45 -17 -24 -92z"/>
   <path class="fil8" d="M3849 2671c-36,93 -12,149 -92,132 -37,-8 -56,-15 -56,-55 0,-25 33,-131 47,-148 17,-23 33,-20 67,-30 29,-8 46,5 66,19l-32 82z"/>
   <path class="fil3" d="M3817 7790c8,24 16,27 46,33 66,13 152,180 14,128 -33,-13 -90,-92 -103,-126 8,-13 14,-11 23,-27 42,-67 42,-126 23,-203 -17,-71 -21,-48 -27,-74 23,-11 25,-2 46,-21 13,-12 17,-24 35,-26 38,33 37,129 26,179 -7,31 -21,51 -34,77 -27,53 -40,28 -49,60z"/>
   <path class="fil5" d="M3905 6129c0,-41 -5,-75 -5,-119 1,-22 7,-34 5,-50 -5,-61 0,-113 1,-175l2 -114c0,-44 2,-80 1,-124 -2,-66 -7,-77 -8,-110 -2,-38 5,-70 -1,-111 -5,-35 -13,-72 -9,-110 19,1 34,6 53,4 23,-2 23,-11 38,-11 13,61 2,72 0,109l-4 111c-3,33 -9,88 -8,118 5,78 -10,64 -5,99 9,78 -3,334 8,456 1,16 6,5 -3,18 -12,10 -46,11 -65,9z"/>
   <path class="fil8" d="M4039 2612c0,25 -44,76 -56,144 -3,17 -7,22 -12,40 -9,31 -50,37 -62,32 -5,-2 -26,-18 -28,-21 -23,-30 11,-208 77,-216 18,-2 68,14 81,21z"/>
   <path class="fil5" d="M3802 5030c-9,-55 5,-86 29,-122 25,-37 55,-57 100,-56 95,1 173,49 172,143 -2,93 -31,170 -134,184 -99,13 -152,-54 -167,-149z"/>
   <path class="fil9" d="M4041 6161c-1,-17 -6,-31 -5,-39 2,-48 2,-19 -7,-40 -4,-10 -14,-78 -14,-93 -3,-61 -10,-141 -3,-202 10,-99 -1,-275 17,-399 13,-3 16,-3 25,-10l23 -16c11,-6 36,-22 46,-29 96,-64 141,-162 195,-180 53,-18 6,0 53,-27 29,-17 87,-61 117,-67l86 -35c18,-8 23,-19 45,-29 15,-8 36,-18 48,-28 52,-38 105,-108 145,-159 12,-15 23,-27 34,-41 11,-13 24,-30 36,-44 107,-128 194,-190 316,-293 56,-47 118,-79 185,-121 14,9 31,37 41,50 14,21 17,39 28,59l56 121c33,81 39,144 63,202 6,13 26,53 27,64 -17,13 -35,13 -51,27l-42 37c-25,21 -42,47 -84,76 -18,12 -31,19 -48,31 -36,27 -200,149 -225,176 -15,15 -30,24 -42,38 -16,17 -22,27 -41,43 -74,64 -196,160 -258,223l-265 221c-53,42 -49,26 -70,49 -13,14 -4,8 -24,16 -28,13 -22,19 -45,34l-57 41 -58 87c-21,28 -24,24 -32,47 -9,24 -13,36 -29,55l-5 -9c-8,-23 4,-34 -36,-91 -23,-32 -73,-30 -96,-2l-15 26c-41,83 12,117 31,178 -13,12 -17,15 -32,24 -27,15 -12,15 -33,29z"/>
   <path class="fil2" d="M4087 6464c-14,-19 -17,-59 -2,-79 12,-15 18,-7 24,-23 3,-7 3,-13 2,-19 -7,-43 -49,-5 -61,-2 -16,-14 -26,-22 -22,-51 8,-69 59,-43 60,-85 1,-35 -17,6 9,-55l31 0c2,-3 11,-43 72,-41 46,2 16,30 71,38 50,-38 36,-5 78,16 21,10 28,9 55,9 -1,16 -9,33 -10,47 0,17 6,22 10,39 -60,65 63,15 85,113 23,104 -99,84 -122,94 -8,27 14,45 -9,70 -9,11 -44,22 -61,27 -41,11 -38,-2 -59,-20 -30,-26 -8,-42 -23,-60 -23,-22 -36,15 -67,15 -26,-1 -52,-19 -61,-33z"/>
   <path class="fil8" d="M4024 2827c-8,-68 17,-124 46,-166 19,-28 22,-41 64,-41 36,0 59,6 76,26 -5,22 -32,40 -44,54 -40,51 -43,79 -82,112 -29,25 -20,36 -60,15z"/>
   <path class="fil3" d="M4134 6085c-10,-16 -29,-63 -35,-87 -19,-76 77,-112 81,13 2,58 -6,63 -46,74z"/>
   <path class="fil3" d="M4388 5938c-31,21 -25,14 -42,24 -16,10 -19,19 -26,36 -42,92 -18,49 -28,94 -20,2 -26,0 -38,-7 -2,-22 49,-129 64,-147 8,-9 21,-17 51,-54 55,-68 72,-62 119,-90 54,-32 184,-36 258,5 -5,20 -17,31 -25,48 -11,25 -15,23 -30,39 -25,-9 -23,-22 -54,-17 -41,6 -33,-2 -64,15 -22,12 -26,19 -47,33 -32,24 -18,23 -5,49 57,0 20,-43 87,-55 27,-5 41,-5 57,10 22,22 79,25 -1,125 -16,19 -36,22 -15,58 9,16 -2,11 19,14 19,-17 -4,-11 32,-49 14,-15 18,-25 28,-47 30,-67 10,-82 -12,-113 8,-16 21,-27 32,-40 38,-47 63,-29 83,32 13,39 4,126 -11,164 -8,19 -54,103 -71,119 -15,15 -32,36 -47,50 -53,51 -60,70 -117,73 8,-21 14,-20 23,-30 35,-41 37,-130 -30,-184 -30,-24 -38,-22 -85,-22 3,-44 4,-78 -18,-110 -14,-19 -62,-40 -87,-23z"/>
   <path class="fil10" d="M4301 2531c-15,-3 -45,-28 -59,-37l-107 -78c-33,-23 -50,-29 -57,-35 2,-24 101,-98 124,-117 31,-27 67,-62 104,-82 24,-13 22,-17 34,-19 9,19 9,77 9,99 0,16 -19,62 -25,80 -32,100 -16,127 -23,189z"/>
   <path class="fil3" d="M4421 6121c-11,-6 -13,-10 -28,-16 -10,-4 -29,-7 -35,-10 -18,-8 -27,-54 -9,-64 16,-10 7,-2 14,1 17,6 28,15 41,27 12,12 31,33 35,49l-18 13z"/>
   <path class="fil8" d="M4353 2383c8,-67 66,-175 121,-210l38 69c18,28 46,44 72,65 14,11 3,2 12,14 24,29 81,20 121,43 -13,34 -35,64 -9,97 9,11 18,24 32,34 14,8 25,8 39,12l25 34c12,37 18,48 51,72 74,55 167,16 194,41 35,31 59,50 109,54 38,3 40,5 67,-16 3,-29 3,-28 -14,-43 -31,8 -38,51 -118,-12 1,-20 6,-7 3,-31 -46,-29 -83,20 -181,-13 -18,-6 -49,-31 -57,-47 -17,-35 -2,-56 -33,-79 -24,-18 -63,-5 -76,-29 -15,-26 6,-67 26,-73 62,-19 42,15 155,-62 46,-32 77,-65 98,-118 17,-43 20,-30 20,-86 1,-113 -77,-220 -187,-246 -70,-17 0,-11 -98,-15 8,-14 17,-17 15,-39 -2,-23 -6,-23 -3,-49 35,3 180,55 210,71 21,11 78,39 91,50 21,18 19,16 42,29 44,27 42,52 84,-27 22,-40 52,-62 70,-106 9,-20 10,-14 19,-25 8,-10 8,-24 12,-36 -47,-29 -101,-63 -150,-88 -47,-23 -131,-38 -191,-47 -3,-17 10,-38 20,-54 22,3 60,31 92,16 20,-9 41,-51 62,-62 5,4 2,1 6,8 15,27 11,32 56,36 43,4 66,18 83,-17 13,15 42,104 44,125 2,26 -10,18 -8,47 20,12 29,19 46,-7 11,-18 18,-38 39,-45 37,-11 113,-1 143,15 0,34 -58,45 -61,87 69,34 27,-48 118,27 48,39 77,31 142,30l-16 66c70,15 60,-16 97,-40l86 121c16,37 -3,23 -4,55 5,5 1,3 8,8 30,17 39,-21 55,-39 5,3 3,1 7,7l38 82c8,58 -41,43 -57,79 21,43 59,-6 97,18 -4,15 2,5 -11,16 -18,14 -44,20 -60,33l-29 28c-13,9 -25,2 -45,16 -3,30 15,43 43,48 14,3 65,16 75,22 -4,20 -43,33 -63,24 -19,-8 -31,-44 -61,-28 -7,16 -7,39 -18,61 -13,26 -34,45 -47,73 -22,46 -46,32 -43,77 14,8 19,13 29,15 27,5 24,-21 58,-25 -9,34 -7,50 -11,80 -5,36 -27,28 -23,62 12,14 34,28 57,12 37,-27 5,-23 63,-26 19,-24 34,-78 83,-67 13,39 2,77 -31,98 -34,22 -70,15 -91,46 -12,31 46,105 -7,134 -20,9 -56,-3 -72,-24 3,-18 7,-12 10,-30 -16,-17 -25,-26 -53,-13 -19,9 -22,27 -35,45l-69 89c-27,34 -33,53 -74,81 -43,29 -76,37 -85,61 -10,27 7,-8 -3,10 -20,-9 -31,-24 -57,-32l-33 21c-26,12 -86,38 -105,55 -31,27 -24,23 -76,16 -79,-10 -149,-19 -223,-46 -16,-5 -32,-5 -48,-11 -25,-10 -50,-18 -77,-28 -28,-10 -41,-24 -76,-34 -44,-13 -105,-46 -144,-67 -20,-11 -50,-24 -69,-38 -17,-13 -49,-28 -67,-44 -62,-55 -103,-47 -165,-157 -19,-35 -27,-37 -24,-85 -13,-21 -13,0 -20,-34 -3,-16 -5,-34 -5,-53 16,6 9,4 20,11 41,28 60,56 116,73 178,56 157,32 304,130 35,24 59,47 89,74 106,93 153,158 297,194 74,18 107,15 183,-1 22,-5 57,-23 72,-39 11,-12 30,-63 28,-81 -12,-12 -18,-15 -34,-9 -12,9 -12,141 -232,90 -48,-11 -48,-10 -88,-31 -20,-10 -61,-28 -75,-39l-93 -84c-7,-6 -9,-6 -15,-12l-79 -71c-26,-18 -44,-32 -65,-49 -25,-21 -49,-25 -74,-42 -49,-32 -116,-39 -174,-60 -69,-24 -199,-95 -138,-183 17,-24 52,-38 47,-69 -21,0 -51,29 -66,45 -10,11 -11,15 -23,21z"/>
   <path class="fil1" d="M4388 2207l-9 -55c17,-15 16,-3 29,-27 23,-42 1,-105 5,-148l37 -7c17,-117 -79,-116 -61,-199 32,10 85,82 96,10 2,-10 3,-17 5,-28 10,-54 6,-133 41,-173 29,11 13,32 62,32 20,-22 20,-50 42,-72 27,-25 32,-40 30,-88 25,2 50,5 71,-1 27,-7 28,5 60,3 5,-8 10,-13 14,-18 -2,-33 -5,-50 -14,-79 -4,-15 -28,-54 -13,-59l3 25c44,4 73,21 96,-17 14,-25 1,-34 45,-88 12,-15 22,-40 37,-50 20,28 8,69 49,72 28,1 59,-34 75,-46 30,12 67,44 90,68 12,13 13,20 24,31 40,-3 47,-22 79,-35 13,-5 16,-3 29,-10 27,-15 53,-16 81,-29 22,-11 8,-8 23,-17 26,4 59,19 88,14 39,-6 35,-35 60,-43 -8,20 -9,28 -16,51 -7,25 -22,34 -14,55 38,13 54,-13 86,-28 32,-15 54,-23 96,-12 1,22 -15,50 -24,67 -6,12 -8,19 -17,27 -15,14 -11,5 -22,28 32,47 81,14 130,11 43,-2 80,-13 117,14 13,9 4,-2 9,11 -10,13 -70,26 -94,32 -40,9 -49,46 -29,78 43,66 99,60 190,72 0,34 5,60 19,87 31,13 76,7 105,-5 18,-8 48,-9 75,-18 38,-14 42,19 33,52 -8,28 -68,76 -80,108 25,40 71,-6 112,22 -18,40 -97,26 -96,88 1,63 77,51 124,67 -10,47 -69,41 -44,122 6,19 31,33 48,42l38 23c14,9 6,-1 16,11 -14,14 -4,3 -22,9 -15,6 -6,2 -18,12 0,32 24,82 32,110 8,30 16,105 5,127 -34,-7 -9,-37 -50,-60 -31,-18 -58,12 -57,40 1,37 12,56 1,99 -3,14 -8,27 -14,40 -7,14 -8,24 -26,24 6,-21 17,-13 -3,-32 -10,-11 -16,-19 -35,-20 -31,39 -32,106 -50,129 -1,-30 17,-78 13,-111 -5,-34 -48,-61 -83,-42 -27,15 -64,59 -81,46 -40,-29 33,-59 18,-94 -20,-49 -123,46 -50,-61 12,-17 16,-39 27,-57 44,22 36,30 95,7 14,-5 49,-24 57,-41 22,-46 -50,-29 -103,-58 10,-22 38,-45 58,-56 24,-13 58,-31 75,-46 -3,-46 -48,-36 -78,-53 24,-65 -7,-104 -32,-157 -4,-9 -7,-26 -11,-32 -13,-20 -38,-13 -52,6 -11,-10 -15,-20 -22,-34 -10,-17 -17,-20 -28,-34 -33,-45 -18,-41 -22,-93 -37,-25 -41,-3 -62,29 -9,13 -11,17 -27,21 2,-24 2,-28 11,-46 8,-14 15,-21 8,-39 -26,-20 -38,3 -50,19 -30,42 -108,4 -135,-20l-53 -40c24,-26 55,-15 34,-64 -19,-4 -26,-1 -55,-7 -63,-13 -58,-16 -125,-15 -47,0 -28,3 -57,17 -9,-16 -28,-71 -31,-90 -7,-48 9,-84 -37,-84 -20,29 -24,73 -77,58 -64,-18 -1,-75 -73,-75 -15,25 -28,39 -49,60 -88,89 -66,-45 -115,-35 -35,7 -15,47 -31,78 -55,108 -130,-6 -192,139 -5,12 -8,28 -14,40 -7,16 -30,36 -7,48 19,11 25,0 21,32 -39,-6 -32,-53 -65,-35 -23,11 -22,57 -31,80 -15,41 -73,79 -107,114 -39,40 -58,95 -72,149 -12,50 1,45 -36,74 -25,21 -35,26 -53,53z"/>
   <path class="fil3" d="M4443 7199c-5,-12 -2,-23 -19,-65 -10,-24 -17,-37 -28,-56 -10,-19 -20,-37 -34,-50 -35,-35 -30,-15 -55,-28 1,-27 11,-16 38,-24 15,-4 34,-17 43,-19 30,-9 58,30 65,50 8,26 15,78 19,106 7,55 12,68 -16,81l-13 5z"/>
   <path class="fil3" d="M4456 6076c-19,-11 -11,-39 -70,-87 11,-9 25,-12 39,-10 41,8 38,64 31,97z"/>
   <path class="fil3" d="M4591 7360c-27,5 -45,11 -74,2 -23,-7 -28,-20 -41,-37 -30,-40 -60,-29 -37,-104 19,5 25,16 53,20 65,11 108,63 99,119z"/>
   <path class="fil3" d="M4514 6281c-29,-2 -66,-13 -61,-48 5,-42 -13,-64 8,-86 19,8 25,37 36,57 13,20 16,51 17,77z"/>
   <path class="fil3" d="M4613 7004c6,14 0,8 16,17 53,30 66,51 102,106 26,40 19,73 -10,78 -31,5 -66,-21 -80,-37 -32,-41 -7,-70 -17,-94 -1,-3 -44,-57 -49,-64 -12,-15 -17,-17 -33,-29 -20,-16 -20,-10 -40,-19 -64,-31 -37,0 -60,-27 -6,-7 -8,-9 -13,-15 5,-15 14,-30 23,-44 63,2 73,1 109,36 28,27 50,42 72,74 -9,15 2,-1 -9,9l-11 9z"/>
   <path class="fil1" d="M4509 6324c11,0 23,1 34,-2 23,-6 -2,-6 25,-11 -6,20 -31,33 -51,35l-8 -22z"/>
   <path class="fil3" d="M4554 6272c-15,-25 6,-43 -39,-116 -7,-12 -13,-20 -14,-34 77,-19 118,78 91,117 -12,17 -22,27 -38,33z"/>
   <path class="fil8" d="M4928 2249c-8,24 -100,68 -132,71 -56,6 -134,-6 -173,-31 -38,-24 -82,-59 -102,-100 -19,-38 -14,-46 -8,-86 2,-14 2,-33 6,-47l17 -33c23,35 76,101 107,128 66,57 131,74 220,89 37,6 31,-9 65,9z"/>
   <path class="fil3" d="M4738 6526c-62,9 -80,-33 -96,-42l-70 -46c-7,-6 -15,-14 -24,-20 -21,-14 -21,-4 -24,-19 209,-86 268,54 214,127z"/>
   <path class="fil8" d="M4565 1980c-4,-20 7,-16 39,-52 45,-50 29,-24 59,-28 65,-9 50,-31 163,-15 71,10 132,64 164,126 20,37 13,121 -4,159 -16,37 -20,36 -66,33 -24,-2 -67,-7 -86,-14 -76,-31 -114,-2 -236,-148 -30,-36 -27,-34 -33,-61z"/>
   <path class="fil5" d="M4764 1408c-45,5 -57,-4 -96,-6 -90,-5 -148,-90 -133,-166 5,-28 21,-50 35,-70 16,-22 43,-21 80,-23 59,-2 123,17 121,86 -1,0 -2,1 -3,1l-11 3c-36,11 -28,52 -20,82 5,19 10,31 16,45 6,14 11,33 11,48z"/>
   <path class="fil1" d="M4750 1839c-43,3 -71,3 -42,-40 8,4 16,9 24,15 12,10 15,14 18,25z"/>
   <path class="fil2" d="M4897 6309c40,-58 -3,-35 -11,-88 -4,-28 -6,-39 10,-58 55,-66 39,-15 103,-25 38,-53 -18,-25 -13,-106 1,-19 -1,-15 7,-28 36,-61 37,-24 70,-30l-21 -16c35,-19 31,38 39,69 7,31 5,15 3,46 -4,52 23,27 -19,153 -20,62 -39,135 -18,205 16,52 6,36 38,81 18,25 90,105 118,121 34,19 77,44 114,58 15,6 33,8 48,14 69,26 125,17 199,2 76,-15 90,-18 166,-72 24,-16 35,-43 82,-20 28,13 45,35 44,77 -12,8 -18,18 -31,25 -19,12 -27,6 -31,31 13,18 27,15 42,33 37,42 19,77 -14,106 -28,25 -36,10 -54,24 -22,43 83,82 -9,146 -57,39 -37,2 -117,-63 -3,-46 -9,-58 -33,-83 -23,-22 -49,-31 -89,-20 -27,-28 -15,-13 -87,-29 -21,-5 -6,-1 -17,2 -12,4 -25,7 -36,13 -69,43 -53,78 -89,106 -25,-12 -5,-37 -86,-101 -41,-33 -83,-47 -132,-7 -21,17 -13,36 -3,63 9,26 19,46 37,60 35,29 94,27 133,56 10,101 13,63 39,100l-15 51c-37,-3 -28,-21 -45,-46 -35,-55 -47,45 -105,-49 -21,-35 -6,-37 -15,-74 -42,-22 -26,-3 -57,5 -36,10 -47,5 -63,-16 -12,-16 -25,-32 -32,-53 -10,-29 -2,-50 -13,-74 -35,-10 -56,14 -80,-5 -11,-8 -29,-45 -34,-63 -29,-107 44,-68 34,-141 -21,-7 -93,-14 -73,-98 4,-13 23,-47 31,-57 24,-33 29,-19 68,-25 10,-12 20,-23 16,-46 -18,-12 -52,-31 -66,-62 -17,-40 -8,-70 9,-99 30,0 22,10 58,7z"/>
   <path class="fil3" d="M5077 5637c-80,-20 -73,-2 -148,12 -62,12 -93,-39 -56,-83 37,-44 66,-42 125,-14 24,12 35,21 54,35 38,28 31,23 25,50z"/>
   <path class="fil1" d="M5262 1725c-2,41 -58,100 -80,119 -29,26 -25,32 -62,6 -77,-55 -247,-120 -343,-142 7,-53 36,-88 84,-101 22,-5 52,-9 78,-3l74 13c67,16 140,33 196,73 16,11 35,25 53,35z"/>
   <path class="fil3" d="M4993 7459c-1,23 -17,58 -55,48 -23,-6 -31,-37 -40,-61 -14,-39 0,-47 18,-75l72 -87c42,-51 63,-130 55,-197 19,5 20,15 27,32 26,59 42,56 86,81 -2,26 -10,45 -23,66 -13,23 -24,27 -46,51 -51,52 -106,14 -126,62 4,34 34,36 32,80z"/>
   <path class="fil3" d="M5101 5903c-11,-24 6,-104 18,-122 62,19 39,4 77,32 -10,7 -21,9 -31,14 -12,6 -18,13 -28,21 -41,33 -16,37 -36,55z"/>
   <path class="fil3" d="M5260 7013c-28,-6 -92,-26 -117,-38 -81,-36 -65,-171 57,-52 22,21 57,51 60,90z"/>
   <path class="fil3" d="M5351 6027c11,5 6,3 13,12 6,9 -2,4 11,16 69,66 188,58 241,-37 29,-53 37,-112 2,-163 -32,-47 -63,-73 -138,-68 21,-50 38,6 85,-45 9,-10 10,-18 21,-22 34,11 50,87 63,127 7,25 20,50 24,73 13,82 36,78 67,122l40 58c8,15 29,48 34,63 8,21 36,138 32,155 -5,19 -5,-4 -9,41 -1,11 -5,27 -8,39 -17,66 -26,88 -57,139 -15,25 -45,57 -69,72 -51,33 -110,65 -179,65 -17,-48 -43,-104 -48,-151 -6,-57 -37,-112 -26,-177 52,-27 63,-11 85,-78 7,-24 18,-38 19,-63 5,-73 8,-101 -41,-74 -11,47 16,66 -15,131 -31,63 -52,38 -67,37 -14,0 -3,-1 -12,3l-14 10c-56,-18 -98,-63 -116,-115 -8,-22 -4,-46 -12,-67 -31,-1 -26,24 -21,75 3,30 6,51 26,71 74,75 112,75 118,80 5,6 21,144 28,170l33 113c4,18 9,25 12,44 -41,-8 -70,-6 -110,-21 -15,-6 -28,-9 -45,-16 -28,-12 -59,-26 -82,-46 -29,-25 -60,-39 -99,-96 -6,-8 -5,-9 -12,-19 -68,-92 -29,-194 -2,-280 13,-45 15,-64 13,-113 54,14 70,34 136,14 28,-8 29,-14 49,-30 28,-22 16,-17 30,-49z"/>
   <path class="fil3" d="M5318 5922c-6,3 -83,26 -96,29 -72,15 -59,30 -81,38 -9,-65 21,-135 88,-119 1,-1 1,-3 2,-3l4 -6c6,-7 -2,0 7,-5 31,9 68,20 76,66z"/>
   <path class="fil2" d="M5158 5674c-6,-4 -11,-8 -19,-10 0,0 -53,-1 -20,-46 12,-17 17,-12 29,-24 32,-30 -35,-26 0,-71 12,-15 22,-7 34,-19 17,-17 -4,-24 12,-41 22,-24 47,22 66,31 23,-15 36,-46 66,-58 37,-13 70,9 68,49 -1,1 -4,2 -3,2 13,6 -22,-7 -24,37 42,23 40,-7 77,11 22,11 45,28 45,56 -13,15 -23,13 -30,31 6,22 37,30 56,40 18,10 43,38 18,63 -27,22 -67,-36 -87,31 -20,65 -75,24 -105,-4 -43,-40 -41,66 -99,43 -21,-9 -15,-19 -22,-41 -46,-20 -54,24 -79,-5 -29,-34 14,-50 17,-75z"/>
   <path class="fil3" d="M5323 5960c8,90 -114,133 -156,73 19,-28 57,-33 59,-34 21,-9 6,-5 14,-13 8,-10 79,-26 83,-26z"/>
   <path class="fil2" d="M5291 7105c-14,-25 -15,-65 9,-87 19,-18 70,-10 67,-49 -2,-25 -22,-17 -4,-42 28,-41 83,-42 129,-32 0,1 -1,3 0,3 6,3 -16,21 -19,24 -15,12 -17,9 -12,30 34,9 21,-30 86,-27 33,2 60,26 57,61 -18,13 -28,9 -41,27 9,57 50,13 79,33 16,12 43,47 35,79 -10,5 -26,6 -41,9 -32,59 64,38 33,98 -12,22 -21,30 -42,42 -18,10 -47,19 -65,6 -1,-1 -31,-35 -56,-3 -15,21 -9,39 -36,47 -30,9 -48,-6 -61,-19 -27,-29 -1,-45 -23,-61 -18,-18 -24,8 -49,-8 -19,-13 -18,-26 -12,-42 -21,-18 -6,1 -18,-4 7,-37 20,-33 29,-57 13,-35 -23,-27 -45,-28z"/>
   <path class="fil3" d="M5352 5884c-9,-10 -15,-20 -24,-30 -10,-12 -17,-13 -27,-24 7,-10 13,-15 25,-27 18,1 57,15 72,21 -2,21 -40,57 -46,60z"/>
   <path class="fil3" d="M5453 7367c-23,29 -9,18 -3,43 -2,25 -126,99 -13,190 49,39 112,17 158,-22 22,-18 14,-9 26,-31 1,-1 3,-5 3,-6 4,-5 3,-4 7,-8 16,10 73,92 161,73 16,-3 25,-10 36,-21 27,-29 40,-33 50,-73 17,-77 12,-17 -7,-96 -4,-16 -8,-30 -17,-44 -43,-70 -136,-65 -185,-16 -33,34 -22,11 -41,52 -21,-8 -14,-23 -41,-47 -21,-18 -44,-7 -64,-26 16,-28 69,-1 113,-20 43,-18 48,-42 74,-73l112 39c63,22 63,3 96,58 42,70 77,125 84,226 6,91 16,195 -6,281 -17,65 -20,59 -51,104 -17,26 -54,66 -85,70 -18,-15 -101,-156 -102,-195 6,-20 17,10 40,-84 9,-41 15,-69 -2,-107 -13,-3 -23,-2 -32,2 -6,30 19,45 -1,105 -38,111 -134,48 -148,30 -8,-10 -21,-26 -27,-35 -17,-26 0,-31 -15,-52 -26,-15 -47,14 -35,44 7,18 26,52 37,65 30,34 77,60 141,63 13,26 31,64 48,92 13,19 52,74 54,87 -34,8 -105,0 -136,-9 -17,-5 -29,-20 -47,-28 -29,-13 -24,-5 -49,-26 -32,-26 -59,-40 -82,-69 -107,-141 -81,-148 -140,-315 -22,-63 -32,-204 -3,-267 29,11 17,42 92,46z"/>
   <path class="fil8" d="M5312 3229c1,-92 173,-173 182,-172 8,3 29,21 35,26 40,37 -35,79 -71,101 -89,53 -63,112 -146,45z"/>
   <path class="fil3" d="M5393 5904c35,-108 185,-111 209,8 -48,-13 -52,-10 -104,-10 -38,-1 -71,2 -105,2z"/>
   <path class="fil8" d="M5392 3304c29,-13 19,2 28,-25 5,-16 11,-22 23,-35l36 -31c3,-2 6,-6 6,-6l22 -14c19,-15 2,2 21,-9 15,-9 12,-17 35,-24 30,-9 57,22 56,56 -1,37 -69,56 -114,108 -31,37 -56,70 -99,24 -11,-12 -15,-23 -14,-44z"/>
   <path class="fil3" d="M5588 7507c-4,39 -22,42 -44,65l-6 7c-2,3 -4,7 -7,10 -46,-1 -24,2 -58,-16 -17,-10 -37,-23 -32,-52 18,-5 20,5 72,-3 28,-4 49,-13 75,-11z"/>
   <path class="fil3" d="M5444 7477c6,-24 21,-38 36,-50 39,-30 50,-62 92,-15 10,11 23,24 21,45 -37,2 -43,4 -73,11 -24,5 -49,9 -76,9z"/>
   <path class="fil3" d="M5382 5953c65,-8 152,-18 207,10 1,28 -34,93 -105,96 -70,3 -106,-36 -102,-106z"/>
   <path class="fil3" d="M5533 5578c-12,-25 -2,-45 19,-70 15,-19 31,-46 48,-62 81,-80 207,-12 181,63 -19,54 -101,30 -124,30 -41,-1 -109,39 -124,39z"/>
   <path class="fil8" d="M5489 3419l23 -35c23,-42 167,-168 210,-118 55,65 -43,82 -106,178 -7,10 -2,9 -12,19 -21,19 -91,2 -115,-44z"/>
   <path class="fil10" d="M5807 3007c35,5 28,43 68,30 26,-14 7,-42 17,-81l20 -72c0,-1 1,-3 1,-4 0,-1 1,-2 1,-3 1,-1 2,-3 2,-3 6,-15 42,15 67,-56 18,-52 -6,-63 2,-101 5,-4 72,-38 83,-42 14,5 25,11 44,11 17,-22 25,-39 38,-73l27 22c54,-16 74,-102 76,-157 0,-26 -12,-48 0,-70 7,4 1,-2 9,8 26,29 31,74 53,89 27,-10 37,-46 44,-80 31,0 40,-2 63,12 100,59 120,145 173,202 17,18 18,26 42,34 21,7 44,9 47,29 -50,6 -57,-16 -105,-14 -26,2 -24,12 -40,24 -21,16 -116,59 -188,120 -28,24 -67,65 -88,93 -9,13 -19,22 -28,35 -34,48 -71,95 -99,148l-67 113c-12,19 -11,24 -20,42 -18,33 -51,35 -37,75 30,82 -13,67 -23,49 -13,-25 -26,-75 -40,-84 -13,-8 -30,-9 -46,-16 -28,-13 -50,-3 -107,-15 -60,-14 -4,-48 -123,-63 -12,-42 -14,-58 -52,-72 -17,-7 -31,-8 -36,-25 -12,-37 6,-8 -21,-46 11,-22 45,-40 71,-46 28,18 58,51 94,58 53,11 57,-44 78,-71z"/>
   <path class="fil2" d="M5912 5652c33,-53 2,-96 94,-87 31,41 26,18 48,15 4,5 11,22 14,28l44 3c5,-14 13,-92 101,-77 15,2 47,27 52,36 13,24 -6,49 50,43 12,-18 17,-31 37,-42 21,-11 49,-9 69,2 63,36 45,99 48,120 46,11 17,7 52,-6 19,-7 46,3 59,14 13,11 19,35 21,54 2,12 2,27 -1,38 -6,19 -10,2 -10,26 40,24 44,-2 66,-5 22,-4 56,12 69,19 2,13 0,25 0,28 2,14 4,2 9,18 5,23 -12,31 -20,43 5,9 8,12 19,19l30 14c-30,7 -24,27 -25,28l-2 7c-4,15 -6,5 -5,24 26,9 34,2 56,-9 49,25 54,61 19,104 -12,14 -25,34 -49,33 -24,-1 -49,-6 -43,31 3,17 73,60 13,109 -12,10 -36,29 -51,33 -32,7 -37,4 -44,40 5,11 13,17 21,28 6,11 12,28 13,43 3,58 -68,96 -122,89 -47,-6 -7,-40 -74,-14 0,14 21,79 -40,90 -67,11 -47,-27 -68,-35 -9,-4 -16,0 -30,-5l-3 -37c-46,1 -37,43 -125,49 -62,4 -76,-37 -100,-72l-32 1c-12,24 -9,23 -37,33 -19,7 -44,9 -67,8 7,-16 9,-9 9,-26 -68,-54 -47,65 -148,20 1,-12 27,-57 41,-104 27,-93 10,-163 -16,-252 -5,-17 -11,-35 -20,-55 -12,-23 -20,-27 -30,-45 -17,-30 -1,-18 -28,-43 -19,-17 -16,-27 -29,-45 -29,-39 -30,-48 -48,-103 -14,-41 -31,-71 -45,-104 -8,-18 -15,-34 -26,-50 -22,-36 -14,-17 -43,-31 -6,-51 -37,-42 -47,-74 54,-44 28,-17 65,-31 12,-4 11,-7 25,-10 33,-6 83,14 124,4 15,-3 33,-47 88,5 38,36 8,79 72,63z"/>
   <path class="fil1" d="M5662 3014c5,-38 23,-13 77,-88 18,-25 53,-78 73,-92l66 37c0,2 -28,99 -31,106 -22,2 -33,-18 -59,-10 -20,7 -23,24 -32,47 -19,50 -60,19 -94,0z"/>
   <path class="fil3" d="M5668 7497c26,1 101,1 125,-5 10,-2 40,-18 47,4 3,9 -31,96 -107,74 -33,-10 -64,-40 -65,-73z"/>
   <path class="fil3" d="M5844 7443l-173 1c9,-47 36,-87 88,-85 53,2 77,37 85,84z"/>
   <path class="fil3" d="M6069 5066c38,44 18,18 50,44 -10,37 -159,88 -192,98 -42,11 -90,5 -71,65 18,53 12,71 -17,110 -57,-10 -64,-43 -51,-98 11,-42 41,-78 66,-102 33,-33 58,-28 103,-60 47,-34 59,-51 112,-57z"/>
   <path class="fil11" d="M5934 3396c-20,-4 -43,-29 -68,-40 -20,-9 -64,-26 -80,-36 39,-14 109,7 119,14 2,2 12,15 14,18l15 44z"/>
   <path class="fil3" d="M5709 7194c4,-3 3,-3 9,-6 2,0 9,-3 10,-3l56 -27c23,-14 54,-17 83,-28 103,-39 210,80 105,127 -29,13 -75,0 -97,-7 -14,-4 -30,-4 -45,-8 -21,-4 -22,-11 -40,-17 -33,-11 -65,3 -81,-31z"/>
   <path class="fil2" d="M5857 4633c8,-5 29,-14 38,-18 20,-8 27,-1 48,-9 28,-11 57,-25 82,-33 22,-7 30,-2 43,-14 15,-13 11,-16 31,-27 31,-16 39,-45 40,-79 57,-27 72,-33 88,-71 8,-19 21,-35 26,-54 5,-24 8,-44 7,-70l12 -8c8,-6 2,-1 9,-8 9,-9 7,-13 18,-22 18,-14 4,3 42,-33 40,-37 82,-73 130,-100 14,-8 35,-25 47,-31 18,-9 46,-7 65,0 29,11 23,20 37,42 26,1 55,-16 92,-17 65,-1 31,28 75,41 5,0 63,-44 133,3 24,15 17,36 44,40 27,4 59,-9 85,3 41,18 25,68 47,81 21,11 64,-5 95,33 20,27 3,44 10,70 18,11 23,2 38,16l-17 8c-40,16 -28,16 -38,38 -25,5 -31,-11 -41,17 -10,25 -8,24 -6,54 -47,29 -41,47 -44,75 -62,18 -109,27 -156,73 -20,20 -56,35 -26,97 24,51 73,65 121,51 23,-7 42,-19 57,-35 51,-56 18,-21 42,-57 25,9 16,16 43,34 25,16 27,16 63,16 13,33 26,128 34,161 5,18 9,32 14,52 26,85 14,65 53,145l39 90c6,17 18,26 24,42 8,19 -2,30 -17,41 -30,21 -44,-13 -69,29 -11,19 -44,45 -53,48 -39,12 -62,-45 -69,-60 -38,-3 -36,-2 -52,22 -15,22 -19,24 -42,38 -23,15 -24,19 -53,3 -36,-20 -16,-22 -35,-44 -17,-4 -35,0 -44,10 -11,12 -6,21 -25,34 -31,7 -69,1 -93,-10 -35,-17 -38,-26 -55,-60 -15,-31 -37,-9 -78,-24 -25,-9 -39,-41 -52,-62 -49,-4 -60,36 -117,10 -58,-26 -39,-39 -69,-75 -53,-2 -49,55 -126,33 -53,-16 -66,-87 -86,-94 -34,-1 -53,26 -103,13 -103,-26 -17,-101 -113,-98 -36,1 -21,22 -65,-11 -14,-10 -20,-16 -25,-37 -18,-67 23,-67 20,-94 -6,-46 -61,-5 -92,-24 -25,-17 -42,-32 -40,-78 1,-24 3,-31 8,-53 0,-1 2,-11 2,-11 1,-1 1,-2 1,-3 0,-1 0,-3 0,-4 0,-12 -4,-14 -2,-35z"/>
   <path class="fil12" d="M6075 3293c5,-19 13,-31 23,-47 29,-44 5,-17 37,-61 25,-36 33,-72 93,-144 25,-30 40,-63 55,-82 22,-30 42,-46 64,-69 34,-37 207,-155 247,-160 -4,28 -3,-2 -24,44 -38,84 -171,310 -231,373l-114 89c-39,22 -130,48 -150,57z"/>
   <path class="fil3" d="M6136 6591c5,32 -1,61 8,98 4,16 8,26 11,42 12,71 27,73 41,127 5,19 -6,124 -58,155 -57,33 -97,-40 -50,-112 17,-27 36,-32 37,-74 -8,-11 -11,-11 -22,-22 -20,-21 -79,-136 -83,-151 -6,-26 3,-11 -10,-34 -9,-18 -7,-23 -6,-46 27,1 57,-9 73,-9 7,1 52,21 59,26z"/>
   <path class="fil3" d="M6054 5534c2,-59 7,-51 48,-98 11,-12 61,-55 75,-76 43,-63 86,-104 88,-208 28,10 10,20 54,42 34,17 51,6 77,15 8,25 -21,64 -37,90 -20,32 -32,56 -60,73 -28,17 -53,34 -82,51 -17,9 -30,16 -48,17 -92,5 -38,18 -36,80 -23,9 -21,13 -36,22 -21,13 -20,0 -43,-8z"/>
   <path class="fil11" d="M6147 3647c-13,-7 -2,0 -11,-10 0,-1 -1,-2 -1,-2 -46,-54 -15,-44 -56,-95 -15,-19 -64,-48 -86,-91 39,-2 68,2 74,-66 20,-12 96,-39 123,-50l154 -102c45,-32 119,-131 134,-132 15,5 42,21 52,30 16,13 25,27 40,39 8,7 14,9 22,17 20,22 -3,7 39,41 7,6 3,3 10,7l15 9c-1,1 -4,2 -3,2 13,5 -10,-5 -31,18 -19,19 -73,59 -97,76l-193 151c-40,38 -154,146 -185,158z"/>
   <path class="fil5" d="M6704 2116l4 150c0,38 -6,59 -5,102 1,31 6,73 4,101 -2,34 -4,67 -6,102 0,20 -4,28 -6,45 -2,18 2,33 0,52l-89 -66c-14,-20 -50,-79 -65,-94 -8,-8 -11,-11 -16,-19 -25,-41 -22,-18 -39,-41 -24,-31 -18,-20 -70,-49 -15,-8 -43,-15 -56,-22 -9,-115 -29,-97 -37,-157 28,2 75,26 76,-11 1,-18 -2,-12 -13,-23 -13,-12 -17,-26 -34,-36 -12,-7 -126,-41 -89,-112 15,-29 69,-27 59,-79 -23,-11 -71,-13 -100,-19 -58,-12 -51,-53 -21,-46 9,1 33,12 42,16 44,18 84,31 132,54 37,17 174,64 207,89 16,12 -5,4 31,30 29,21 46,32 91,33z"/>
   <path class="fil9" d="M6260 4185c-1,-50 -5,-26 -16,-55 -6,-15 -7,-44 -13,-63l-15 -59c-43,-88 -15,-177 -35,-252 -23,-84 -6,-70 55,-121 9,-8 19,-17 30,-27 11,-9 19,-11 31,-26 13,-16 4,-16 25,-32 19,-14 45,-42 94,-78 24,-18 45,-35 65,-51l163 -123c14,-10 18,-19 39,-21 -1,30 -4,55 -2,85 2,27 6,55 6,83 0,55 13,102 16,159 2,54 4,111 9,164 6,80 10,58 -17,84 -51,51 -23,21 -84,66 -24,17 -17,0 -59,30 -29,20 -61,65 -94,82 -25,13 -107,86 -146,115l-36 30c-11,11 -11,6 -16,10z"/>
   <path class="fil3" d="M6419 6876c-26,-34 -28,-5 -108,-120 -18,-26 -69,-127 -71,-163 14,-7 63,-26 76,-27 7,13 20,29 24,37 6,12 9,37 14,52 9,24 32,57 47,82 14,26 33,55 46,82 22,45 44,14 33,95 -5,40 -7,70 -28,99 -13,17 -55,56 -86,28 -4,-3 -34,-53 -8,-95 40,-62 54,-25 61,-70z"/>
   <path class="fil5" d="M6693 2743c2,155 4,312 -8,463 -22,-5 -35,-31 -48,-47l-97 -98c-7,-7 -16,-18 -24,-25 -12,-12 -18,-10 -30,-23 3,-13 9,-16 17,-33 22,-44 32,-52 50,-101 7,-20 21,-46 30,-67 10,-24 15,-55 23,-77 19,0 24,4 41,7 20,4 28,-1 46,1z"/>
   <path class="fil3" d="M6713 5622c27,14 21,18 46,3 48,-28 81,13 97,30 21,21 15,28 17,60l-35 44c34,40 28,44 43,60 0,0 1,1 2,2 -32,20 -3,42 -109,38 -18,-26 -12,-49 -47,-62 -27,-11 -65,-10 -87,-25 -11,-25 0,-44 -13,-73 -14,-29 -24,-22 -47,-42 2,-39 15,-115 58,-127 24,-6 56,8 71,20 29,25 3,42 4,72z"/>
   <path class="fil3" d="M7142 6629c17,43 20,64 10,115 -7,37 -59,58 -81,55 -79,-12 -27,-187 -26,-214 -1,-1 -4,-2 -3,-2l-106 -37c-52,-23 -145,-75 -184,-107 -29,-24 -62,-33 -60,-83 9,-6 20,-14 29,-19 68,30 94,41 172,53 28,4 18,1 30,19 7,10 37,31 51,42l107 78c28,21 56,37 68,69 14,40 1,11 -7,31z"/>
   <path class="fil5" d="M6734 2071c-78,15 -134,-49 -146,-117 -4,-22 -11,-23 -9,-59 2,-46 30,-89 55,-109 16,-13 98,-44 123,-44l67 11c6,2 47,31 50,34l30 54c38,115 -80,213 -170,230z"/>
   <path class="fil3" d="M6762 6306c5,-18 15,-15 21,-29 7,-16 3,-38 3,-55 18,4 42,20 67,28 36,12 114,32 152,36 16,2 31,0 47,2 23,1 25,8 39,8 27,0 19,-12 81,5 27,7 46,20 59,38 31,44 61,73 13,129 -43,50 -89,-3 -102,-48 -7,-26 -6,-13 -17,-28 -14,-20 0,-13 -3,-36 -4,-30 -36,-29 -57,-15 -66,42 -169,21 -240,-2 -37,-12 -35,-13 -63,-33z"/>
   <path class="fil9" d="M6822 2496c0,62 6,358 -2,422l-3 210c2,30 5,3 5,66l11 263c3,23 -3,36 -2,63l5 137c-4,94 6,127 4,199 -37,19 -24,13 -89,9 8,-37 3,-14 -1,-49l-28 -397c-12,-85 19,-370 19,-481 -1,-55 -4,-315 1,-359 6,-41 10,-112 7,-153 -7,-98 -23,-215 -18,-305 14,-10 32,-10 49,-17 15,-6 29,-18 49,-22 -1,25 -7,28 -12,47 -6,19 -5,145 -3,164 8,61 8,139 8,203z"/>
   <path class="fil3" d="M7126 4624l-1 27c-19,9 -29,20 -43,34 -19,20 -11,32 -32,47 -43,32 -91,19 -108,-24 -27,-69 123,-121 160,-103 3,2 20,15 24,19z"/>
   <path class="fil3" d="M7149 5809c-44,-2 -110,-72 -66,-147 46,-78 93,-130 86,-239 -2,-31 -17,-38 -26,-61l14 -11c6,-3 12,-5 19,-8 16,10 23,17 37,29 19,16 25,12 46,20 0,49 -42,179 -71,220 -37,55 -63,44 -32,91 10,14 16,42 17,57 2,19 -13,37 -24,49z"/>
   <path class="fil2" d="M7138 4570c-14,-60 22,-43 37,-44 10,-31 5,-10 7,-41l28 -11c-1,-27 -12,-34 14,-50 26,-5 32,50 72,-6 11,-16 21,-15 38,-24 67,-37 45,42 88,13 13,-8 16,-47 90,-31 40,8 65,28 55,72 -21,13 -34,11 -28,43 18,13 36,12 54,24l-21 3c41,18 46,41 46,77 -40,33 -12,22 -67,20 -6,5 -23,24 -25,29 -9,28 9,17 10,42 -20,11 -16,10 -30,21 -14,10 -24,14 -44,14 -7,-14 -3,-36 -27,-38 -30,-3 -65,100 -138,52 -1,-25 24,-36 12,-55 -21,-27 -29,0 -47,9 -18,10 -49,16 -65,2 -62,-51 54,-93 -36,-89l11 -34 -34 2z"/>
   <path class="fil3" d="M7572 4668c57,-20 69,-48 89,-91 13,0 75,20 92,26 43,15 24,20 54,34 125,59 93,85 133,111 18,12 0,4 19,2l-11 16c36,19 39,22 65,54 19,23 32,47 47,77 13,28 23,59 36,86 13,27 25,60 32,92 15,80 8,141 -12,216 -12,46 -94,126 -116,125l-12 -126c-8,-36 -26,-70 -39,-101 10,-20 19,-18 23,-50 10,-70 8,-57 -4,-93 -4,-11 -5,-22 -7,-33 -9,-37 -97,-119 -126,-100 -45,31 104,47 99,193 -1,33 -8,26 -28,46 -21,21 -18,20 -54,26 -47,7 -86,-14 -106,-42 -14,-19 -23,-24 -34,-42 -10,-18 -15,-37 -26,-53 -16,-1 -19,3 -29,8 -3,33 86,158 115,166 119,33 106,4 145,2 18,25 26,63 34,98 4,17 2,117 -3,130 -8,13 -53,15 -67,16 -72,9 -139,1 -201,-38 -36,-23 -71,-43 -101,-68 -16,-14 -43,-53 -58,-70 -17,-21 -39,-47 -53,-75 -20,-38 -24,-23 -63,-105 -9,-20 -19,-27 -31,-57 -25,-65 -79,-183 -83,-255 30,3 25,16 85,-8 28,-12 16,-10 33,-25 34,-30 1,13 84,1 25,-4 23,-7 33,-16 0,-1 1,-2 2,-2 0,-1 1,-2 2,-2 14,-11 -15,10 8,-5l8 -6c21,-19 24,-37 26,-62z"/>
   <path class="fil3" d="M7429 5450c0,53 -36,173 -48,187 -15,17 -23,-1 -27,21 -1,6 9,28 13,33 14,20 12,-2 63,79 12,19 28,69 -7,70 -35,2 -91,-59 -104,-88 -37,-87 38,-210 13,-331 -4,-22 -20,-56 -15,-75 10,-32 37,-27 66,-34 27,-6 32,25 36,49 4,26 10,61 10,89z"/>
   <path class="fil1" d="M1651 1529c3,211 21,415 33,623 6,106 5,210 12,316 5,79 -16,245 1,306l62 -5 299 -164c55,-32 107,-56 172,-94 196,-107 101,-64 116,-377l-10 -274c-2,-28 -9,-37 -8,-66 0,-24 -1,-47 -1,-71 -1,-21 -7,-37 -10,-59 -2,-26 1,-47 1,-73 0,-44 -9,-85 -10,-133 -3,-159 8,-153 -102,-131 -80,17 -195,52 -277,72l-272 76c-15,6 -28,12 -29,28 -2,24 17,23 23,26z"/>
   <path class="fil5" d="M1734 2728c-2,-12 -5,-394 -4,-400l432 -188c27,-13 41,-19 72,-30 24,-9 50,-28 72,-29 2,27 -1,59 0,88l2 127c3,37 9,88 3,125 -38,17 -69,45 -146,79l-217 114c-43,24 -177,109 -214,114z"/>
   <path class="fil13" d="M1715 2090c-1,-33 0,-65 -2,-98l-16 -269c-1,-31 -3,-62 -3,-92 -1,-134 -27,-115 44,-136 90,-27 486,-151 522,-145 10,111 9,235 24,344l20 350c-118,37 -122,45 -216,87 -25,11 -49,19 -73,29 -46,19 -91,42 -140,64 -36,16 -116,52 -150,51l-10 -185z"/>
   <path class="fil1" d="M2442 2338c28,12 15,1 41,19 12,2 89,-38 105,-57 17,-21 85,-59 112,-72l59 -26c22,-11 47,-27 69,-37 49,-21 144,-64 193,-76 23,-5 34,-8 40,-18 7,-14 -16,-354 -16,-410 -1,-109 -1,-225 -14,-331 -2,-17 -6,-35 -6,-53 -1,-30 25,-89 -73,-69 -62,12 -103,1 -173,21 -58,16 -43,-6 -163,30 -27,8 -50,9 -78,20 -26,10 -48,16 -74,24 -26,7 -55,9 -79,17 0,24 8,25 6,59 -2,58 13,105 16,181 10,191 34,307 29,503 -2,66 3,141 -1,199 -2,42 -32,61 7,76z"/>
   <path class="fil14" d="M2473 1964c-5,-52 -2,-96 -9,-151 -3,-26 2,-51 -3,-76 -5,-26 -5,-46 -8,-73l-22 -298c45,-24 239,-86 293,-86 7,92 9,139 25,235 4,24 9,33 11,54l19 181c4,107 20,71 -69,116 -23,12 -210,97 -237,98z"/>
   <path class="fil9" d="M3024 1995c-16,3 -57,-36 -70,-49 -35,-38 -127,-102 -131,-117 -3,-13 -1,-46 -2,-61 -1,-19 -5,-33 -8,-53 -5,-37 -7,-77 -10,-114 -3,-35 -12,-70 -18,-105l-23 -222c40,-17 191,-33 219,-31 7,18 23,151 23,176 1,33 -1,66 2,99 3,33 8,61 6,95 -3,93 18,331 12,382z"/>
   <path class="fil1" d="M2986 1128c-1,-23 -4,-13 -11,-34 -23,-77 -33,-798 -33,-798 -22,-8 -31,6 -61,9 -46,4 -120,5 -158,12 -72,12 -149,20 -222,25 -55,4 -110,-6 -167,1 -41,83 -24,5 -20,175 1,36 5,59 3,97 -1,24 0,76 1,99l5 210c9,64 -2,70 5,93 6,24 1,67 4,98 8,73 -26,100 59,102 22,1 243,-55 322,-53l67 -5c22,-6 6,-6 21,-7 43,-4 153,11 185,-24z"/>
   <path class="fil15" d="M2356 434c-8,-84 22,-38 189,-51 26,-3 85,-18 108,-13 5,48 4,86 4,135 0,66 21,126 21,194l9 123c4,53 2,163 -5,217 -4,33 6,64 -3,91l-210 37c-117,17 -96,43 -96,-133 -8,-200 -18,-400 -17,-600z"/>
   <path class="fil9" d="M2729 1130c11,-106 -2,-461 -25,-573 -13,-64 -14,-126 -12,-197 38,-9 181,-27 219,-24 -7,182 1,399 12,579 1,18 6,24 4,42 -3,32 2,100 1,147 -29,21 -54,14 -96,15 -36,1 -67,11 -103,11z"/>
   <path class="fil1" d="M2245 351c-24,-7 -183,18 -233,23l-432 18c-14,29 3,112 2,152 0,28 0,61 1,89 0,31 7,51 7,79 0,58 3,117 3,177 0,54 3,128 -2,180 -6,67 4,228 -4,253 -7,26 -6,55 22,60l212 -53c22,-6 50,-13 71,-20 26,-9 47,-8 73,-16 57,-16 144,-24 221,-44 10,-3 25,-7 35,-9 16,-3 27,1 40,-3 39,-10 8,-76 7,-101 0,-40 1,-80 -7,-122 -5,-28 0,-57 -3,-85 -5,-42 -15,-227 -12,-256 4,-35 -6,-43 -4,-76l1 -172c-1,-34 17,-45 2,-74z"/>
   <path class="fil16" d="M1616 496c-5,-91 -11,-55 69,-70 67,-13 100,11 204,0 22,-3 46,-1 69,-3 76,-4 178,-42 246,-36 6,33 -4,222 0,254 7,69 8,175 13,253 1,18 -2,35 -1,52 2,39 27,211 2,243 -26,28 -243,49 -297,68 -221,78 -174,40 -212,45 -27,4 -46,21 -64,23 -9,-13 -11,-176 -12,-198 -4,-48 -10,-50 -2,-103 2,-13 -4,-76 -4,-100l-11 -428z"/>
   <path class="fil5" d="M2480 2306c-1,-24 -4,-48 -5,-71 -1,-23 3,-54 1,-73 -3,-29 -6,-123 -2,-152 20,-8 44,-11 75,-27 69,-35 144,-70 216,-97 81,-31 67,24 129,62 18,10 42,34 55,47 16,16 46,34 51,56 -125,54 -208,94 -330,155 -24,12 -41,17 -65,32 -21,14 -98,66 -125,68z"/>
   <path class="fil1" d="M5676 2567c4,-38 -16,-15 4,-57 9,-20 11,-34 17,-54 12,-43 4,-81 -8,-125 -23,-82 -58,-121 -124,-158 -73,-40 -128,-61 -231,-35 -70,17 -128,61 -157,125 -16,33 -33,62 -36,105 -3,44 -5,87 3,128 10,55 21,53 34,73 8,11 5,12 13,22 45,53 115,89 187,97 30,4 104,5 128,-8 43,-23 94,-51 122,-89 5,-6 13,-16 18,-18 14,-6 5,1 26,-5 1,0 3,-1 4,-1z"/>
   <path class="fil8" d="M5592 2566c-6,17 -11,15 -25,26 -11,8 -16,18 -28,25 -15,8 -57,19 -76,25 -93,31 -146,-19 -189,-45 -28,-17 -8,-3 -25,-28 -51,-74 -62,-68 -55,-197l4 -36c2,-7 2,-6 4,-9 53,79 39,93 152,163 37,23 66,32 105,50 44,19 79,24 133,26z"/>
   <path class="fil8" d="M5626 2521c-82,13 -121,-5 -198,-38 -19,-8 -6,-8 -24,-16 -16,-7 -16,-4 -31,-13 -23,-14 -26,-24 -48,-37 -34,-19 -58,-54 -77,-90 -9,-19 -2,-15 -6,-34 -2,-17 -10,-15 -22,-22 6,-34 33,-34 46,-51 22,-28 36,-38 84,-49 134,-32 298,66 297,157 0,34 30,119 -21,193z"/>
   <path class="fil1" d="M7661 4888c51,6 45,18 95,4 43,-11 56,-18 83,-41 62,-52 22,-205 -76,-227 -71,-16 -132,7 -167,68 -34,58 -18,25 -16,89 -28,3 -72,-11 -98,4l-71 44c-20,19 -81,176 69,215 70,18 119,-14 155,-66 24,-35 26,-41 26,-90z"/>
   <path class="fil3" d="M7424 4936c-38,-92 116,-166 168,-91 -9,12 -8,8 -21,16 -27,15 -122,73 -147,75z"/>
   <path class="fil3" d="M7621 4889c20,39 -29,101 -50,108 -48,17 -96,11 -126,-20 0,0 2,-1 2,-2l131 -63c28,-13 23,-20 43,-23z"/>
   <path class="fil3" d="M7639 4810c-33,-32 -35,-104 17,-138 15,-10 12,-4 28,-3 21,1 50,-10 77,-3 -1,19 -77,109 -99,131 -15,14 -8,7 -23,13z"/>
   <path class="fil3" d="M7671 4836l92 -105c10,-13 19,-29 31,-38 24,7 35,35 40,59 4,16 3,24 0,40 -2,12 0,7 -5,18 -11,22 1,0 -45,29 -33,21 -88,21 -113,-3z"/>
   <path class="fil1" d="M3475 7326c48,-6 46,20 99,-3 28,-13 44,-36 58,-66 15,-31 38,-113 30,-151 -1,-6 -4,-18 -9,-22 -9,-6 2,-2 -6,-1l-7 3c-1,0 -2,1 -3,1 -10,-12 -34,-41 -59,-30 4,32 47,14 48,62 2,62 -3,47 -18,95 -8,26 -21,66 -39,77 -44,25 -68,-30 -71,-34 -51,-2 -43,19 -49,56 -10,18 -92,79 -146,19 -18,-19 -7,-34 -17,-58 -58,-19 -37,51 -115,26 -1,0 -8,-3 -9,-3 -20,-10 -47,-39 -54,-53 -15,-34 17,-30 13,-72 -14,-16 -15,-11 -32,-18 2,-139 111,-73 140,-76 32,-55 -19,-56 -22,-60 -10,-32 9,-53 33,-65 33,-17 63,-7 85,-21 6,-34 1,-46 -36,-40 -21,3 -47,9 -65,19 -17,9 -33,19 -44,39 -19,34 -9,30 -18,67 -53,18 -46,-6 -85,38 -16,18 -34,59 -33,95 2,33 14,19 18,44 4,21 -5,35 5,56 7,13 45,59 59,69 80,53 99,-14 141,27 14,14 19,20 36,30 62,37 108,6 155,-33 9,-7 10,-10 17,-17z"/>
   <path class="fil1" d="M5908 2146c-58,-53 -48,-60 -85,-103 -32,-35 -139,-128 -177,-146 -17,-8 -23,-12 -40,-22 -35,-21 -63,-41 -108,-50 -1,0 -2,0 -4,-1 -20,-5 -29,-32 -54,14l-82 112c-33,36 -17,50 22,68 60,28 63,20 131,59 77,44 126,64 193,130 16,16 41,57 68,60 19,1 63,-41 73,-55 35,-45 58,-19 63,-66z"/>
   <path class="fil1" d="M5781 2217c-24,-8 -114,-96 -182,-135l-104 -56c-34,-14 -77,-28 -97,-60 4,-15 59,-96 74,-109 17,2 54,19 68,28 44,29 40,13 126,76 56,40 115,86 151,149 26,46 40,44 22,64 -7,8 -42,36 -58,43z"/>
   <path class="fil1" d="M4231 3295c-28,-14 -7,7 -62,-13 -52,-19 -116,-55 -159,-79 -18,-10 -35,-19 -52,-28l-96 -63c-51,-24 -22,-18 -45,-33 -13,-9 -39,-20 -53,-28 -22,-12 -20,-19 -46,-32 -10,-5 -19,-8 -27,-13 -12,-8 -8,-9 -21,-19 -19,-13 -33,-12 -50,-30 -14,-14 -93,-51 -105,-53 -65,-13 -33,-16 -61,-19 -21,-2 -59,-7 -75,4 6,20 31,23 52,32 78,30 101,35 175,81 21,13 24,22 50,34 51,23 23,26 52,37 78,31 46,28 78,49l78 51c10,9 8,11 24,19l141 76c31,18 83,44 117,54 24,7 38,24 63,22 19,-2 41,-28 22,-49z"/>
   <path class="fil1" d="M2307 4075c7,-10 0,-15 9,-33l56 -81c73,-90 93,-133 183,-188 12,-7 14,-10 26,-19 10,-8 17,-10 30,-18 61,-38 114,-53 154,-75 56,-31 154,-55 205,-73 14,-5 17,-10 30,-19 11,-6 16,-8 28,-16l31 -18c5,-3 121,-93 56,-94 -17,0 -24,16 -51,37 -84,64 -68,37 -123,64 -44,21 -83,34 -131,54 -29,13 -69,23 -97,40 -48,28 -50,25 -94,47 -43,21 -126,83 -160,118l-122 156c-14,18 -81,95 -30,118z"/>
   <path class="fil1" d="M5450 939c9,9 -2,27 40,37 37,8 45,-6 73,-2 10,31 6,41 23,52 12,7 46,19 58,20 40,3 99,-14 141,-11l-5 56c61,37 50,-7 114,19 34,14 49,56 50,102 28,7 13,11 53,12 44,1 68,3 80,52 8,32 -6,33 2,56l15 7c13,-13 21,-31 17,-51 -20,-107 -81,-71 -126,-91 -47,-21 -4,-42 -52,-90 -29,-29 -62,-27 -111,-34 -5,-38 29,-42 -6,-74 -58,10 -50,19 -146,18 -104,-1 -42,-64 -80,-84 -26,-11 -40,23 -85,11 0,-24 25,-11 12,-46l-7 -4c-36,-8 -225,93 -255,71 -17,-13 2,-51 -32,-43 -19,78 16,94 90,68 47,-16 92,-32 137,-51z"/>
   <path class="fil1" d="M1734 3894c14,2 28,-2 39,-7 28,-13 10,-8 9,-30 110,-68 61,-41 181,-98 80,-38 188,-81 256,-123l120 -70c23,-14 33,-22 55,-37 47,-31 77,-46 119,-71l110 -81c62,-48 43,-37 76,-65 28,-22 21,-3 23,-26 -17,-8 -50,15 -64,25l-114 84c-10,7 -21,13 -30,20 -45,35 -50,31 -92,58 -24,16 -40,27 -60,40 -175,122 -346,178 -525,270 -21,11 -42,25 -61,37l-57 45 15 29z"/>
   <path class="fil1" d="M7586 6125c-47,2 -20,42 -15,80 15,108 31,221 -11,318 -36,83 -34,78 -81,158 -14,24 -53,87 -79,96 -59,21 -36,36 -4,69 16,18 16,33 16,61 0,30 -19,48 -36,64 -39,38 -30,39 -76,74 -33,25 3,54 30,30 11,-10 16,-15 28,-25 19,-16 34,-36 49,-53 40,-43 62,-90 37,-151 -18,-41 -6,-50 13,-77 50,-67 119,-186 142,-269 27,-98 10,-274 -13,-375z"/>
   <path class="fil1" d="M3613 3862c0,-20 -5,-26 -18,-36 -31,4 -147,124 -165,142l-71 84c-19,31 -40,66 -57,102 -50,108 -63,171 -141,247 -23,22 -110,105 -110,124 35,4 44,-17 66,-40 7,-7 11,-13 18,-21 40,-44 80,-62 113,-118l122 -226c7,-12 6,-14 13,-27 24,-48 108,-129 144,-164l64 -51c17,-9 10,-5 22,-16z"/>
   <path class="fil1" d="M2828 2322c24,-43 -26,-12 88,-74l42 -23c8,-5 6,-3 12,-6 56,-27 38,-9 103,-30 16,-5 32,-11 48,-18 29,-12 37,-3 60,-11 16,-27 3,-25 -1,-57l-3 -286c-1,-30 -5,-57 -5,-89 0,-34 15,-74 -29,-52 -11,44 -1,201 0,255 0,65 15,86 7,164 -2,23 -5,24 -24,33 -105,49 -139,36 -282,120 -25,14 -69,10 -49,51 9,17 10,23 33,23z"/>
   <path class="fil1" d="M7064 3211c13,-17 -3,-83 -6,-114 -7,-110 -22,-539 -16,-625l-6 -186c-7,-46 -16,-36 -28,-36 12,43 4,196 1,251 -5,79 -3,177 5,255 6,74 6,176 5,252 0,46 2,147 9,190 4,22 21,30 36,13z"/>
   <path class="fil1" d="M8186 4700c-10,45 14,11 44,84 6,14 2,7 10,21l21 68c7,28 39,223 37,249 -2,21 -3,41 -1,62 2,23 -11,148 -24,175 -9,19 -26,90 -46,123 -5,8 -9,11 -14,21 -8,17 0,42 15,46 28,7 43,-52 53,-79 13,-37 21,-68 27,-110 13,-85 16,-166 18,-255 3,-107 -32,-289 -93,-381 -15,-22 -14,-28 -47,-24z"/>
   <path class="fil1" d="M3454 4920c-37,0 -27,32 -65,26 -28,-5 -201,-134 -298,-179 -47,-22 -98,-30 -131,-63 -3,-32 19,-33 -13,-56 -25,8 -53,49 -33,80 14,23 42,37 75,48 136,45 183,79 285,152 13,9 27,14 39,23 18,13 35,38 84,41 47,2 61,-28 57,-72z"/>
   <path class="fil1" d="M4164 1877c4,-45 -25,-81 7,-134 33,0 40,29 69,2 33,-43 -19,-106 -12,-153 33,-8 56,14 91,6 29,-28 -2,-75 2,-116 25,7 21,25 47,27 56,4 49,-94 22,-94 -17,1 -10,34 -17,56 -33,-1 -37,-29 -53,-42 -58,-5 -28,92 -29,133 -16,-1 -99,-24 -103,34 -2,23 23,82 23,124 -24,-5 -41,-31 -65,-7 -25,24 -54,191 18,164z"/>
   <path class="fil1" d="M2193 4456c7,-12 6,-21 21,-26 16,-5 29,0 43,-9 -6,-20 -44,-31 -66,-23 -28,8 -8,16 -69,-9 -90,-37 -144,-47 -224,-72 -29,-10 -116,-43 -136,-57 -30,-22 -40,-14 -40,-64 -15,-9 -5,3 -19,-12 -20,62 -7,99 53,126 126,57 177,58 293,96 102,33 62,58 144,50z"/>
   <path class="fil1" d="M6306 5856c47,23 125,-26 157,33 16,29 -4,22 -2,51 28,30 109,-5 116,66 -9,20 -19,16 -28,36 11,19 31,16 40,29 8,12 14,46 11,62 -9,9 -8,6 -17,13 -16,13 -10,5 -14,19 46,3 66,-2 66,-53 0,-52 -28,-74 -27,-87 1,-16 24,-40 -23,-77 -48,-38 -65,-22 -77,-39 -5,-7 -3,-44 -48,-75 -40,-29 -69,-3 -110,-15 -18,-42 -38,-82 -99,-53 9,14 5,8 22,18 6,3 16,8 22,13 24,19 5,27 11,59z"/>
   <path class="fil1" d="M1468 888c40,0 30,-34 29,-65 -5,-132 -6,-175 -18,-314 -26,-294 164,-189 186,-234 -16,-10 -43,-10 -58,-2 -15,8 -41,13 -57,9 -9,-3 -27,-17 -59,3 -23,16 -29,47 -41,73 -33,69 6,228 10,314 2,35 3,75 3,111 0,35 -9,81 5,105z"/>
   <path class="fil1" d="M2009 6525c53,23 53,-28 97,-5 54,29 19,57 18,88 58,20 80,-20 125,25 12,12 31,30 39,41 15,21 11,48 36,48 16,-36 -17,-80 -39,-103 -38,-38 -42,-45 -106,-48 -10,-54 -45,-93 -105,-94 -5,-29 1,-70 -65,-89 -43,-13 -85,25 -76,72 31,5 24,-6 39,-24 13,-15 32,-16 48,-1 10,10 18,32 8,48 -10,16 -23,8 -19,42z"/>
   <path class="fil1" d="M6491 4297c14,-22 35,-57 67,-57 50,-2 10,57 70,56 22,-17 27,-53 82,-40 43,11 17,69 46,80 25,10 91,-66 158,3 5,6 10,14 13,21 10,22 -4,12 15,23l3 -7c5,-22 -1,17 2,-8 3,-27 -25,-74 -46,-87 -36,-21 -64,7 -122,7 -21,-118 -103,-71 -151,-54 -1,-1 -64,-71 -109,-15 -38,47 -56,48 -53,64 2,14 10,13 25,14z"/>
   <path class="fil1" d="M4455 3540c13,24 132,78 163,88 123,38 208,46 300,137l113 108c3,3 13,15 15,16 16,13 34,0 25,-20l-128 -124c-48,-38 -83,-76 -153,-100 -168,-57 -102,-13 -272,-102 -41,-21 -21,-14 -38,-25 -22,-15 -38,-1 -25,22z"/>
   <path class="fil1" d="M1844 5602c3,41 32,66 62,81 63,33 74,-7 106,-13 19,37 28,85 109,93 65,6 78,-16 113,-42 16,-12 19,-9 9,-30 -39,0 -52,69 -128,40 -65,-25 -59,-74 -91,-100 -55,9 -55,54 -107,23 -72,-42 -33,-67 -34,-99 -30,-16 -20,-3 -38,6 -43,21 -95,-24 -95,-85 0,-16 6,-29 -9,-33 -38,-8 -41,154 103,159z"/>
   <path class="fil1" d="M3952 7011c81,-17 115,-57 113,-135 36,-19 74,-38 88,-78 17,-48 -14,-105 -63,-82 5,27 22,14 30,42 7,26 -1,46 -15,58 -55,46 -97,8 -103,34 2,27 7,26 26,34 5,46 -7,60 -37,78 -43,25 -75,-7 -89,20 -3,27 8,28 6,57 -4,54 -80,43 -92,44 -47,2 -12,8 -49,-13 7,31 14,33 43,42 89,24 123,-23 142,-101z"/>
   <path class="fil1" d="M1933 3342c17,2 55,-27 72,-39l223 -122c56,-33 84,-38 149,-80 17,-11 132,-83 135,-95 2,-9 -7,-34 -49,0l-87 58c-64,41 -217,114 -299,160l-114 58c-15,8 -30,9 -43,15 -2,17 6,32 13,45z"/>
   <path class="fil1" d="M1583 2553c19,-47 15,-268 10,-331 -6,-93 -3,-168 -6,-256 -2,-33 -8,-47 -9,-80l-32 3c-9,191 29,366 10,557 -1,12 -1,26 -3,37 -3,15 -9,19 -8,30 0,2 9,42 38,40z"/>
   <path class="fil1" d="M6773 4965c-53,-2 -39,42 -91,16 -62,-30 -37,-59 -55,-68 -41,-3 -14,39 -87,2 -11,-6 -34,-14 -40,-22 -16,-23 16,-28 -22,-31 -8,7 -24,27 -18,40 7,18 88,61 133,67 31,4 40,35 82,50 26,10 43,-1 63,3 12,2 28,20 42,29 29,20 62,35 102,17 16,-8 82,-48 40,-62 -30,-10 -32,47 -92,30 -63,-19 -46,-46 -57,-71z"/>
   <path class="fil1" d="M6028 3109c17,1 28,2 36,-12 35,-63 45,-70 82,-121 25,-37 90,-108 122,-139l127 -129c13,-21 6,-57 -33,-10l-130 125c-40,46 -57,57 -99,110l-89 113c-20,27 -37,30 -16,63z"/>
   <path class="fil1" d="M3683 4359c-40,57 -87,96 -143,139 -21,16 -39,21 -40,50 40,6 43,-31 97,-58 0,0 2,-1 2,-1l8 -4c22,-13 21,-8 35,-22 101,-93 86,-117 134,-192 11,-16 12,-14 19,-31 21,-52 51,-67 37,-86 -31,-45 -72,64 -82,87 -10,22 -22,38 -32,59 -10,21 -20,39 -35,59z"/>
   <path class="fil1" d="M5682 4322c0,-6 -4,-67 -6,-75 -8,-40 -76,-121 -102,-158l-91 -81c-33,-20 -84,-65 -114,-43 -32,25 27,22 83,74 31,28 41,21 91,81 81,96 77,118 120,181 7,11 9,18 19,21z"/>
   <path class="fil1" d="M687 5803c-32,-19 -33,8 -55,29 -11,10 -18,14 -27,22 -9,8 -18,17 -28,25 -90,80 -177,191 -202,314 -3,15 -8,30 -5,46 0,0 25,63 49,38 29,-31 -31,-23 0,-119 21,-64 70,-147 112,-197 29,-35 148,-125 156,-158z"/>
   <path class="fil1" d="M395 5247c11,-13 15,-28 5,-45 -17,-18 -11,8 -39,-9l-8 -6c-58,-35 -117,-108 -151,-166 -112,-188 -28,-275 -41,-307 -39,5 -47,127 -42,164 13,101 82,211 150,278 20,20 91,95 126,91z"/>
   <path class="fil1" d="M7569 6831c12,-44 32,-60 56,-93 41,-54 78,-139 100,-205 27,-84 52,-149 -15,-121 -3,25 -1,37 -6,61l-12 59c-16,66 -78,170 -128,225 -17,18 -25,19 -39,31 -1,26 14,44 44,43z"/>
   <path class="fil1" d="M7002 1891c60,-8 77,-140 -4,-242 -17,-22 -75,-66 -97,-75 -34,-13 -112,-26 -130,12 18,35 65,-1 113,22 67,33 40,26 65,46 34,28 58,51 68,119 9,69 -30,87 -15,118z"/>
   <path class="fil1" d="M2578 7886c-8,-10 -43,-28 -54,-35 -13,-9 -38,-31 -48,-40 -31,-28 -61,-62 -85,-96 -91,-129 -76,-221 -113,-198 -16,10 -6,27 0,37 13,22 16,40 25,63 8,22 18,39 29,59 20,36 49,78 74,108 83,99 65,62 137,132 27,27 42,-3 35,-30z"/>
   <path class="fil1" d="M6603 3719c-3,50 -37,76 28,64 9,-43 15,-343 3,-378 -56,-25 -24,120 -32,198 -4,35 4,77 1,116z"/>
   <path class="fil1" d="M3070 889c-1,-29 -4,-54 -2,-87 6,-97 15,-152 -5,-259 -12,-5 -18,-2 -27,2 -9,22 -5,79 -1,106 5,35 3,76 3,114 -1,26 -4,81 -8,105 -3,17 -15,40 6,45 12,3 21,-10 34,-26z"/>
   <path class="fil1" d="M4117 4479c-45,57 -43,50 -97,93 -8,6 -9,7 -18,13 -14,10 -11,-1 -12,16 55,27 128,-59 149,-91 18,-26 34,-47 50,-73 21,-33 44,-59 43,-83 -22,-8 -29,-12 -42,8 -32,43 -63,104 -73,117z"/>
   <path class="fil1" d="M1328 3881c12,10 69,-35 57,-124 -7,-57 -41,-95 -103,-97 -31,-2 -61,25 -35,45 17,13 50,-4 80,22 18,15 28,49 16,78 -8,17 -40,50 -15,76z"/>
   <path class="fil1" d="M4116 5454c-35,-2 -27,37 -30,71l-7 194c-1,31 -15,75 -9,91 61,18 40,-46 44,-157 1,-32 11,-181 2,-199z"/>
   <path class="fil1" d="M3743 2221c-22,-4 -33,1 -46,14 -16,16 -18,16 -38,29 -25,16 -58,39 -79,57 -32,28 -81,59 -119,80 -17,10 -35,14 -49,22 0,15 12,42 35,31 4,-2 13,-13 18,-17l71 -45c18,-12 28,-21 46,-34l86 -64c30,-21 37,-22 66,-49 11,-10 11,-5 9,-24z"/>
   <path class="fil1" d="M3459 4575c-28,-33 -99,-74 -140,-84 -43,-10 -65,-3 -88,15l2 26c39,-7 42,-5 82,2 106,20 125,107 144,119 26,-14 19,-55 0,-78z"/>
   <path class="fil1" d="M6805 1988c17,-1 44,-30 53,-39 16,-16 27,-38 24,-64 -7,-56 -26,-107 -95,-92 -10,2 -13,0 -16,11 -3,11 -3,11 31,32 19,11 37,26 35,60 -1,24 -25,37 -45,49 -35,22 -8,46 13,43z"/>
   <path class="fil1" d="M4211 7801c39,-2 74,-70 89,-102 9,-21 42,-131 32,-147 -8,-7 -2,-8 -19,-4 -1,0 -16,7 -19,8 -12,81 -13,135 -70,191 -24,24 -30,18 -13,54z"/>
   <path class="fil1" d="M1279 3481c3,-11 9,-16 6,-29 -41,-8 -134,10 -174,43 -24,20 -34,30 -52,58 -15,21 -40,48 -41,73 46,26 33,2 80,-65 28,-40 25,-50 95,-73 67,-22 63,-9 86,-7z"/>
   <path class="fil1" d="M3926 4916c21,14 10,-2 31,9 101,54 28,110 49,133 30,33 97,-74 27,-143 -15,-14 -30,-23 -54,-24 -13,-1 -23,0 -33,4 -16,6 -17,6 -20,21z"/>
   <path class="fil1" d="M6306 6269c-22,5 -17,28 -29,48l-29 4c-8,-23 8,-28 -26,-41 -18,1 -40,85 -106,49 -22,-12 -24,-10 -53,-10 3,19 7,22 23,30 12,7 26,15 39,16 33,4 65,-22 87,-18 18,3 14,13 45,9 61,-6 77,-65 49,-87z"/>
   <path class="fil1" d="M1451 4704c-13,-171 19,-177 12,-327l-31 4c-2,30 5,53 1,89 -11,75 -18,85 -13,172 1,32 -5,61 31,62z"/>
   <path class="fil1" d="M4193 5633c4,-25 -7,-106 -1,-174 3,-25 15,-29 9,-46 -1,-1 -56,-38 -48,31l-1 178c0,27 25,19 41,11z"/>
   <path class="fil1" d="M4967 6660c-10,21 -29,28 -5,59 9,12 32,33 55,34 4,-43 -16,-29 -20,-62 12,-31 26,-18 38,-40 -4,-38 -31,-15 -53,-26 -18,-18 41,-46 9,-83l-42 59c-25,29 0,39 18,59z"/>
   <path class="fil1" d="M1950 4001c55,9 64,-13 116,20 54,34 38,68 77,56 29,-70 -154,-162 -202,-93l9 17z"/>
   <path class="fil1" d="M7126 2489l-29 6c-5,26 5,35 5,63l0 133c0,20 0,38 24,30 27,-10 8,-41 9,-115 1,-39 15,-86 -9,-117z"/>
   <path class="fil1" d="M1532 4649c-3,-37 -12,-83 -12,-118 1,-34 14,-88 3,-121 -43,-3 -33,-12 -37,117 -1,40 2,112 46,122z"/>
   <path class="fil1" d="M8458 4913c-79,-51 -37,53 -36,56 3,39 9,93 11,128 0,11 -7,18 6,21 45,11 21,-124 20,-145 -2,-22 0,-41 -1,-60z"/>
   <path class="fil1" d="M264 5999c4,13 2,20 14,24 27,9 12,-14 41,-62 9,-14 17,-30 26,-45 11,-19 28,-28 25,-51 -3,-27 -30,-17 -41,-5l-51 91c-11,20 -21,24 -14,48z"/>
   <path class="fil1" d="M5924 3669c1,-24 -19,-40 -32,-62 -31,-57 -149,-157 -156,-82 10,6 99,28 145,107 13,23 13,44 43,37z"/>
   <path class="fil1" d="M2005 3089c19,6 17,-9 39,-21 14,-9 27,-15 43,-24 16,-8 29,-15 42,-23 17,-12 29,-14 31,-39 -34,-30 -52,12 -91,27 -29,12 -84,38 -64,80z"/>
   <path class="fil1" d="M4223 5516l29 4c12,-27 10,-45 8,-79 -2,-34 5,-56 4,-82 -12,-14 -23,-18 -45,-10 -9,21 1,49 3,75 2,28 -2,69 1,92z"/>
   <path class="fil1" d="M4854 3578c-9,-19 -5,-5 -46,-34 -29,-22 -125,-82 -164,-66l-1 28c36,13 8,-9 109,36 33,16 61,42 84,41 19,0 8,2 18,-5z"/>
   <path class="fil1" d="M1595 4649c0,-34 -12,-9 2,-117 4,-36 28,-107 -34,-65 -4,49 -22,181 32,182z"/>
   <path class="fil1" d="M4446 7655c-14,-15 -36,-5 -42,12 -22,67 -71,115 -52,136 27,31 59,-71 83,-105 9,-13 23,-26 11,-43z"/>
   <path class="fil1" d="M2345 7874c-4,-17 -39,-39 -51,-49 -15,-14 -30,-38 -37,-64l-25 -5c-33,36 -11,55 40,99 8,7 10,11 18,18 18,15 37,17 55,1z"/>
   <path class="fil1" d="M4296 5451c22,2 27,5 30,-18 2,-10 -1,-124 -7,-138 -60,-23 -36,41 -35,53 3,34 0,78 12,103z"/>
   <path class="fil1" d="M83 5097c-8,-31 -43,-20 -47,-76 -2,-26 4,-41 3,-57 -2,-24 -24,-28 -33,-14 -11,14 -4,94 4,113 7,15 38,64 73,34z"/>
   <path class="fil1" d="M1958 3930c26,6 7,4 48,-22l90 -55c16,-10 38,-15 38,-37 -22,-18 -32,1 -50,12 -15,9 -35,19 -51,28 -44,24 -90,43 -75,74z"/>
   <path class="fil1" d="M7253 4103c-20,-76 -136,-137 -150,-99 -12,35 47,6 111,88 11,14 18,25 39,11z"/>
   <path class="fil1" d="M2549 236c15,0 127,-4 140,-7 26,-5 46,-7 43,-36 -13,-2 -63,17 -89,21l-107 11c-40,0 -63,-6 -92,10 0,43 82,2 105,1z"/>
   <path class="fil1" d="M5745 2340c-26,32 28,-10 -14,106 -19,53 -54,97 -22,97 33,0 39,-61 47,-94 7,-27 21,-101 -11,-109z"/>
   <path class="fil1" d="M3662 6671c36,-6 -1,-44 47,-79 15,-10 37,-15 45,-22 12,-11 15,-37 -10,-32 -23,5 -23,20 -34,27 -19,13 8,-6 -18,6 -12,5 -44,29 -45,54 0,14 6,37 15,46z"/>
   <path class="fil1" d="M1821 4702c27,-32 29,-160 -42,-133 -1,24 23,27 22,73 -1,31 -17,60 20,60z"/>
   <path class="fil1" d="M1693 4654c29,12 27,3 29,-21 2,-20 9,-32 10,-53 3,-38 -10,-74 -47,-61 -2,24 4,7 9,34 8,44 -13,73 -1,101z"/>
   <path class="fil1" d="M1917 4745c30,9 30,-21 37,-49 8,-33 4,-51 -8,-76 -71,-9 -33,24 -30,37 9,29 -12,58 1,88z"/>
   <path class="fil1" d="M2074 4815c2,-53 -8,-142 -65,-126 -2,15 20,49 25,71 9,41 -7,66 40,55z"/>
   <path class="fil1" d="M6538 3629c8,-16 16,-106 14,-130 -17,-3 -27,1 -39,7 -4,56 -19,128 25,123z"/>
   <path class="fil1" d="M1667 3954c-31,-19 -40,0 -54,20 -9,14 -30,30 -41,41 -1,21 0,32 24,30 20,-1 18,-12 29,-27 29,-37 51,-42 42,-64z"/>
   <path class="fil1" d="M4456 5299c5,-16 4,-67 2,-89 -3,-43 3,-57 -40,-38 0,20 7,16 6,75 0,29 -3,58 32,52z"/>
   <path class="fil1" d="M3492 2260c27,8 43,-14 64,-25 13,-6 63,-22 35,-48 -18,-16 -52,12 -64,19 -24,16 -39,17 -35,54z"/>
   <path class="fil1" d="M4381 5360c14,-24 9,-108 -1,-124 -46,-9 -32,24 -28,53 5,35 -12,75 29,71z"/>
   <path class="fil1" d="M1547 2747c34,5 29,-5 32,-34 2,-26 15,-35 7,-61 -11,-5 -37,-12 -45,5 -5,19 -2,77 6,90z"/>
   <path class="fil1" d="M1486 1114c40,-3 24,-30 23,-62 -1,-50 18,-56 -35,-47 -3,36 -9,88 12,109z"/>
   <path class="fil1" d="M4508 5235l27 4c11,-22 11,-94 -4,-116 -43,-6 -36,10 -26,40 11,32 -3,47 3,72z"/>
   <path class="fil1" d="M7215 2329c-34,-5 -37,4 -27,34 14,39 -7,36 -3,62 48,21 47,-64 30,-96z"/>
   <path class="fil1" d="M5757 3647c-2,-25 -20,-49 -38,-65 -21,-19 -47,-42 -56,0 20,14 27,10 47,31 22,21 12,36 47,34z"/>
   <path class="fil1" d="M2729 2398c3,-20 10,-38 -15,-38 -53,1 -91,53 -41,54 18,0 38,-12 56,-16z"/>
   <path class="fil1" d="M3053 1049c33,-10 33,-59 29,-88l-36 -1c-5,31 -11,69 7,89z"/>
   <path class="fil1" d="M2195 4817c3,-19 3,-45 -11,-61 -14,-15 -37,-17 -57,-7 3,24 21,23 31,37 13,20 5,36 37,31z"/>
   <path class="fil1" d="M7304 3971c-1,-45 -53,-67 -75,-58l-6 22c15,10 29,10 43,21 11,9 16,23 38,15z"/>
   <path class="fil1" d="M4599 5171c16,7 19,4 35,-7 3,-38 -4,-72 -48,-61 -4,23 1,12 8,28 9,19 0,18 5,40z"/>
   <path class="fil1" d="M6455 3583c-27,-4 -34,-7 -40,16 -5,23 -10,40 4,47 30,16 43,-33 36,-63z"/>
   <path class="fil1" d="M2308 4779c-18,-27 -43,-29 -73,-15 6,17 7,13 20,23 13,10 10,15 16,23 24,-2 32,-8 37,-31z"/>
   <path class="fil1" d="M2372 196l-7 -18c-22,-3 -22,-2 -42,3 -20,5 -22,1 -29,19 22,24 61,19 78,-4z"/>
   <path class="fil1" d="M6030 3226c8,-23 3,-28 -8,-43 -25,-3 -24,1 -39,9 -2,33 17,42 47,34z"/>
   <path class="fil1" d="M4815 4919c19,2 93,-7 65,-34 -11,-12 -31,-1 -40,3 -17,9 -26,9 -25,31z"/>
   <path class="fil1" d="M3963 5108l21 1c11,-11 16,-14 17,-34 -19,-18 -25,-19 -51,0 0,19 5,23 13,33z"/>
   <path class="fil1" d="M1293 3960l19 0c9,-10 19,-20 12,-40 -29,-11 -33,1 -45,15 4,14 6,17 14,25z"/>
   <path class="fil1" d="M4813 4947c-15,-8 -21,-6 -35,-1 -17,5 -18,4 -21,22 25,11 73,15 56,-21z"/>
   <path class="fil1" d="M6705 2013c45,8 58,-68 -9,-32 2,11 4,24 9,32z"/>
   <path class="fil1" d="M4707 5079l-7 -22c-76,-9 -32,73 7,22z"/>
   <path class="fil1" d="M4765 3405c6,-17 -2,-23 -13,-30l-15 2c-18,28 2,43 28,28z"/>
   <path class="fil17" d="M4367 2807l-201 -54 -63 101c-11,18 -8,23 -33,28 -60,11 -74,-22 -90,-26 -17,-3 -44,38 -119,-3 -12,-7 -12,-14 -27,-22 -42,25 -47,17 -102,5 -16,-3 -9,-1 -23,-8 -9,-5 -10,-5 -21,-10 -76,-31 -16,-76 -21,-137 -22,-11 -41,-9 -67,-11 -19,-1 -36,-10 -57,-11 -21,-2 -15,3 -31,-4l-75 -31c-35,-10 -88,-17 -123,-8 -38,10 -56,36 -82,59 -21,18 -5,24 -20,51 -10,16 -24,24 -34,37 -29,36 14,13 -88,54 -35,14 -75,16 -109,32l-91 48c77,4 146,7 219,19l147 33 172 67c65,31 50,39 70,50l86 46c1,1 2,1 4,1 15,7 17,3 20,17 -24,-6 -67,-29 -93,-42 -30,-15 -60,-28 -91,-40 -33,-14 -59,-30 -97,-40 -58,-16 -102,-32 -160,-43 -17,-4 -34,-10 -54,-14 -67,-12 -179,-23 -244,-12 -39,6 -31,20 -55,33l-9 4c-3,3 -10,14 -12,18 28,7 169,-17 293,12 74,18 110,40 171,72 16,9 43,9 40,33 -50,9 -86,-17 -123,-30 -126,-41 -141,-36 -267,-45 -26,-2 -126,-6 -136,16 -1,23 21,55 33,68 15,15 42,29 60,42 57,39 161,66 229,75 32,4 60,4 90,12 54,13 123,13 178,24 27,6 51,14 83,20 147,29 59,14 156,47 121,41 207,131 329,178 76,29 147,63 228,76 70,12 175,41 240,66 29,10 54,11 81,19 54,16 99,33 149,55 57,25 115,58 159,97l82 68c50,44 122,96 189,116 45,13 103,32 144,59 69,45 105,82 159,145 24,28 70,79 89,114 24,46 40,95 65,138 22,38 86,237 100,259 5,9 3,2 10,16l31 44c8,7 19,17 29,19 52,7 108,-91 123,-132 13,-34 22,-90 23,-128 0,-61 0,-120 -21,-174 -27,-69 -51,-154 -93,-212 -11,-16 -7,-20 -17,-35 -8,-13 -13,-19 -19,-30 -24,-40 -61,-76 -91,-112 -23,-30 -76,-72 -108,-95 -57,-42 -117,-93 -181,-124 -16,-8 -52,-24 -57,-39 37,-4 43,13 74,22 54,17 171,111 231,144 23,13 10,4 26,23 22,28 47,37 67,70 14,23 30,28 44,49 16,22 28,35 41,56 7,13 7,18 17,31 7,9 12,12 18,26 7,14 4,25 10,39 12,27 5,-10 44,93 15,42 47,93 51,140 5,61 4,114 1,175 43,-14 47,-26 81,-43 26,-13 53,-20 81,-34 34,-16 47,-12 58,-57 7,-29 -1,-71 -10,-99 -24,-73 -66,-175 -119,-225 -13,-12 -59,-44 -35,-69 6,-5 -9,-6 11,-3 15,2 53,45 64,58 57,62 31,44 57,84l26 45c21,34 39,133 57,150 47,-13 69,-63 76,-123 11,-88 -20,-171 -39,-253l-33 -167c-5,-31 -5,-55 -8,-88 -1,-13 -1,-36 -3,-49 -4,-24 -37,-77 -51,-96 -18,-23 -29,-34 -47,-54 -48,-51 -97,-101 -154,-142 -19,-14 -37,-28 -61,-41 -23,-12 -39,-28 -59,-38l-83 77c-19,22 -30,66 -61,76 -32,10 -124,-20 -141,-40 -15,-16 -31,-49 -39,-58 -28,-29 -94,-19 -91,-103 -29,-21 -67,-44 -85,-71 -3,-40 24,-60 31,-84 -30,-2 -54,0 -84,-3 -77,-10 -84,11 -140,20 -74,10 -155,1 -228,-18 -45,-12 -96,-16 -137,-36 -36,-18 -30,-12 -64,-24 -51,-18 -111,-67 -153,-103 -33,-29 -48,-60 -77,-95 -17,-19 -35,-49 -40,-83z"/>
   <path class="fil11" d="M4183 2725l184 49c1,-5 2,-10 3,-16 10,-31 1,-28 -17,-57 -52,-79 -2,-92 -101,-155l-209 -136c-37,-15 -81,46 -116,51 -79,12 -176,56 -245,99 -22,13 -91,46 -105,64 1,1 3,1 3,1 1,1 3,1 4,2l7 1c77,14 87,25 99,-3 16,-37 22,-74 70,-85 73,-16 81,-8 140,19 40,-22 44,-22 90,-3 30,12 54,31 90,24 65,-13 173,16 144,85 -5,12 -18,24 -26,36l-15 24z"/>
   <path class="fil3" d="M7588 4414c5,-18 12,-27 16,-42 10,-41 17,-81 62,-109 71,-44 111,13 110,89 -70,61 -60,71 -188,62z"/>
  </g>
 </g>
</svg>
