<?xml version="1.0" encoding="UTF-8"?>
<!DOCTYPE svg PUBLIC "-//W3C//DTD SVG 1.1//EN" "http://www.w3.org/Graphics/SVG/1.1/DTD/svg11.dtd">
<!-- Creator: CorelDRAW X7 -->
<svg xmlns="http://www.w3.org/2000/svg" xml:space="preserve" width="84.6666mm" height="73.9138mm" version="1.1" style="shape-rendering:geometricPrecision; text-rendering:geometricPrecision; image-rendering:optimizeQuality; fill-rule:evenodd; clip-rule:evenodd"
viewBox="0 0 8467 7391"
 xmlns:xlink="http://www.w3.org/1999/xlink">
 <defs>
  <style type="text/css">
   <![CDATA[
    .fil6 {fill:#1E92CC}
    .fil12 {fill:#2B2A29}
    .fil9 {fill:#92EBD9}
    .fil4 {fill:#9D9E9E}
    .fil8 {fill:#9F4676}
    .fil11 {fill:#ADDDFF}
    .fil13 {fill:#C5C6C6}
    .fil14 {fill:#D8D3F0}
    .fil5 {fill:#D9DADA}
    .fil3 {fill:#F7CD86}
    .fil10 {fill:#F80C3A}
    .fil2 {fill:#FEFEFE}
    .fil7 {fill:#FFDA1E}
    .fil1 {fill:black}
    .fil0 {fill:url(#id0)}
   ]]>
  </style>
  <linearGradient id="id0" gradientUnits="userSpaceOnUse" x1="3505.2" y1="5846.01" x2="5665.28" y2="606.89">
   <stop offset="0" style="stop-opacity:1; stop-color:#D21CFF"/>
   <stop offset="1" style="stop-opacity:1; stop-color:#59FF00"/>
  </linearGradient>
 </defs>
 <g id="Layer_x0020_1">
  <metadata id="CorelCorpID_0Corel-Layer"/>
  <g id="_2218396842816">
   <path class="fil0" d="M5959 549c1378,593 1492,1787 1567,3231 74,1444 -2473,2709 -3851,2117 -1378,-593 -3122,-4018 -1139,-4264 1984,-245 2045,-1676 3423,-1084z"/>
   <path class="fil1" d="M5835 1520c7,-40 69,-162 89,-205l34 -82c7,-16 8,-29 15,-43 23,-54 42,-114 69,-166 24,-47 51,-117 64,-171 15,-59 66,-134 78,-191 2,-6 2,-17 4,-24 5,-20 9,-15 13,-44 4,-26 17,-64 23,-94 18,-99 17,-218 -10,-307 -9,-32 -31,-56 -41,-74 -15,-29 -2,-14 -26,-36 -16,-15 -6,-14 -30,-27l-80 -36c-28,-12 -60,2 -100,-12 -47,-16 -117,-5 -167,2 -101,12 -202,65 -266,143 -7,8 -7,11 -13,19 -40,59 -44,63 -72,130 -34,81 -83,162 -106,249 -12,46 -32,90 -41,136l-30 143c-17,63 -21,134 -37,198 -8,35 -7,73 -16,104 -28,103 -50,384 -78,508l-50 247c-3,22 -9,19 -13,42 -3,22 -6,31 -11,48 -2,9 -2,16 -4,25 -3,13 -3,6 -7,22 -6,22 -13,27 -15,46 -3,26 1,27 -8,50 -17,40 -22,98 -39,139 -7,18 -8,22 -14,43 -4,17 -4,33 -9,49 -6,20 -8,25 -12,46 -10,45 -29,92 -37,141 -8,48 -33,86 -38,137 -3,24 -27,119 -37,141l-33 83c-25,62 -20,114 -59,116 -35,2 -79,0 -115,0 -78,0 -158,3 -235,3 -78,0 -155,-8 -230,-2 -49,3 -134,-1 -166,1 -18,1 -28,7 -49,9 -73,6 -145,10 -216,18 -13,-38 -45,-56 -71,-87 -12,-15 -24,-27 -41,-36 -39,-20 -75,-24 -111,4 -24,18 -17,22 -27,47 -10,24 -12,38 -5,66 5,21 16,42 19,59 -83,-3 -78,6 -121,7l-350 29 -320 64c-35,10 -58,19 -91,33 -37,16 -59,5 -97,-10l-100 -29c-72,-17 -146,-27 -223,-14 -55,10 -40,20 -107,5 -114,-25 -250,7 -364,-10 -8,-15 -13,-30 -15,-47 50,-6 132,-14 172,-30 50,-20 41,2 112,-38 26,-15 62,-22 81,-47 27,-36 30,-5 51,-72 8,-24 21,-28 24,-49 4,-30 14,-34 21,-55 6,-19 -4,-21 -3,-45 19,-7 26,-6 41,-24 8,-9 9,-9 17,-16 5,-6 9,-15 12,-21 10,-14 20,-11 29,-37 11,-31 16,-38 20,-74 3,-19 4,-14 7,-26 16,-58 -12,-121 -10,-179 15,7 10,22 32,20 19,-2 19,-14 21,-32 27,-2 24,0 31,-24 38,-132 -44,-83 -5,-153 9,-17 32,-95 32,-109 -25,-21 -61,-18 -86,-40 -17,-29 30,-70 31,-83 3,-36 -45,-28 -68,-42 -14,-9 -33,-21 -38,-36 38,1 30,9 61,-9 6,-55 -75,-77 -81,-102 28,0 47,12 72,2 1,-1 2,-1 3,-2 20,-8 29,-26 37,-49 25,-64 -49,-59 -86,-73 2,-20 2,-20 14,-28 22,-16 4,2 16,-21 10,-18 20,-28 23,-52 -8,-15 -18,-26 -39,-28 -43,-4 -48,49 -47,-59 0,-32 19,-31 7,-54 -28,-12 -60,28 -83,16 -5,-11 10,-64 10,-90 0,-33 9,-73 8,-88l-20 -4 -10 20c-27,3 -108,17 -108,-22 0,-24 1,-8 10,-24 13,-23 22,-53 12,-80 -20,-2 -61,12 -94,8 -25,-4 -75,-4 -91,-13 1,-15 7,-16 20,-19 55,-11 67,14 86,-21 -25,-53 -99,-81 -156,-82 -81,-2 -167,42 -205,32 1,-24 -4,-37 6,-53 1,-1 2,-2 2,-2l12 -18c7,-18 -6,-40 -35,-14 -12,10 -15,8 -26,20 -18,19 -26,29 -64,26 -25,-33 -2,-71 -48,-52 -5,21 5,18 0,41 -5,28 -24,85 -43,98 -22,14 -55,7 -70,-7 -21,-21 -16,-48 -24,-72 -13,-4 -13,-6 -27,-1 -11,25 3,73 -22,101l-6 7c-11,7 -27,7 -40,7 -71,0 -48,-57 -31,-75 12,-13 33,-9 28,-40 -29,-9 -76,26 -104,39l-120 86c-17,13 -36,34 -64,23 -36,-14 -40,-59 -80,-67 -9,8 -11,9 -20,16 -8,173 -25,123 -59,119 -20,-3 -26,6 -37,12 0,22 4,11 4,29 -8,9 -22,27 -28,33 -8,7 -9,3 -19,15 -18,21 -42,81 -72,80 -34,0 -28,-58 -62,-58l-10 3c0,-1 -2,0 -3,1 -17,7 -7,2 -14,19 -11,26 -24,45 -43,64l-49 46c-39,1 -93,-57 -127,-9 -2,13 -4,57 -3,63 8,33 -6,60 6,89 11,27 32,32 35,68 -48,-5 -142,-61 -111,17 6,16 4,24 8,38 5,19 8,7 11,33 2,14 2,27 5,41 4,26 11,50 19,71 14,36 15,32 18,77 -34,-7 -28,-37 -66,-14 -6,44 36,102 60,135 8,11 21,29 17,40 -14,-23 -22,-20 -51,-12 -2,28 -5,56 10,80 10,15 20,32 32,49 45,63 82,-2 120,21 22,25 -47,51 -54,66 -16,35 101,54 100,98 0,21 -35,18 -29,87 26,12 115,14 121,37 -2,22 2,6 -9,18 -6,7 -6,4 -11,9 -10,8 -15,18 -19,28 35,22 44,-5 67,15 14,12 7,13 12,33 15,64 7,47 -22,98 -7,12 -27,50 -17,64 12,15 35,12 55,11 10,-10 17,-22 29,-33 10,-10 14,-23 31,-23 -2,30 -14,5 -12,44 34,28 53,14 66,-21l25 -37c1,-1 2,-1 3,-2l17 -20c10,-11 42,-23 52,-8l10 20c3,10 4,16 7,25 6,19 14,27 23,43 18,33 48,63 72,93l48 51c20,17 45,37 75,53 55,29 123,61 188,70 35,5 77,13 113,20 36,6 87,0 115,14 -13,102 -30,69 -133,119 -24,11 -47,18 -68,31l-88 64c-19,15 -50,50 -72,55 -18,5 -35,5 -53,11 -28,9 -75,39 -98,57 -4,4 -11,8 -17,13 -12,9 -20,18 -34,28 -52,40 -52,51 -90,99 -20,26 -38,43 -56,67 -9,12 -20,26 -30,36 -42,38 -111,78 -64,152 11,18 50,48 69,55 20,7 57,31 81,43 17,8 24,12 40,21 32,19 66,20 87,35 -4,10 -17,14 -26,34 -9,20 -5,29 -9,49 -21,88 46,158 71,266 2,8 3,22 5,29l87 230c6,15 8,29 14,43 18,41 30,92 44,133 9,27 24,54 34,81 66,167 113,246 193,390l43 72c9,16 13,24 23,38 15,23 8,39 38,78 8,11 16,20 25,33 5,8 5,10 9,19 4,6 6,9 11,18 8,11 15,19 26,32l94 141c3,6 7,10 12,17l36 51c29,46 73,93 97,133 13,20 31,56 46,74 19,22 31,48 48,67 9,11 17,19 27,31 10,11 13,23 24,34 16,18 36,40 54,61 4,4 5,5 8,9l19 21c54,63 92,87 149,140l22 23c4,3 4,2 8,5 24,18 42,39 64,56 12,9 22,15 33,24 23,18 40,32 65,51 19,14 48,30 66,49 12,12 19,17 32,26 42,31 65,35 76,43 12,9 17,15 32,26 26,16 45,32 65,50 29,24 73,47 105,69 14,9 22,13 36,21 52,29 122,84 141,94l72 43c89,77 70,36 141,90 16,13 18,11 37,21 16,8 22,13 37,22 66,36 137,54 204,87 25,13 15,8 44,15 13,3 29,11 42,16l131 41c26,9 64,15 93,23 95,27 188,48 285,64 38,6 61,16 93,23 135,28 268,50 421,46 88,-2 233,18 265,16 19,-1 37,0 57,0 20,1 36,-2 55,-3 4,-1 83,6 109,3 47,-5 97,-24 145,-26 19,0 39,2 58,0 17,-1 33,-5 50,-7 34,-3 154,-32 191,-44 61,-18 124,-30 186,-45 120,-31 232,-83 354,-112 58,-14 121,-41 175,-59 25,-8 61,-20 86,-30l120 -53c28,-12 54,-20 81,-38l239 -136c75,-43 104,-79 167,-127 7,-5 12,-7 17,-11 12,-10 22,-19 32,-27l52 -34c32,-18 56,-41 83,-65l255 -265c3,-4 10,-12 13,-15l64 -81c13,-17 14,-14 24,-33 6,-13 14,-25 23,-35 51,-59 48,-71 74,-103 10,-13 17,-23 24,-34l118 -174c2,-2 9,-7 9,-7l14 -28c14,-25 34,-44 48,-67 12,-20 27,-54 43,-73l161 -247c9,-23 50,-93 62,-111l40 -76c6,-13 13,-24 20,-37 7,-14 12,-25 20,-38l62 -111c8,-16 14,-19 22,-36 5,-12 10,-31 18,-44 5,-10 15,-24 20,-37 26,-67 61,-141 80,-209l58 -148c5,-10 1,5 4,-13 12,-68 34,-105 41,-144l20 -90c4,-19 10,-18 14,-46l17 -69c5,-17 8,4 3,-19 -4,-15 -7,3 -2,-21 1,-5 5,-19 6,-23 10,-35 -7,-13 -3,-44 0,-2 5,-22 5,-25 3,-27 3,-4 -4,-20 -18,-38 0,-69 -7,-101 -9,-41 -16,-33 -23,-94 -3,-30 -25,-59 -36,-78 -70,-136 -61,-77 -107,-125 1,-17 7,-13 13,-70 8,-67 15,-65 14,-148 0,-73 14,-136 5,-221 -5,-46 4,-105 4,-154 0,-52 2,-66 -5,-112l-6 -194c0,-24 -6,-49 -9,-73 -10,-108 -17,-240 -53,-346l-44 -116c-20,-46 -92,-190 -100,-221 -7,-23 -14,-38 -31,-53 -14,-13 -21,-30 -34,-44l-88 -114c-10,-19 -2,-9 -18,-23 -52,-47 -52,-88 -200,-195 -110,-78 -187,-120 -311,-172 -38,-16 -77,-29 -117,-44 -146,-55 -299,-87 -458,-101 -25,-3 -53,-2 -77,-4 -64,-7 -82,-7 -146,1 -185,22 -216,33 -388,95 -51,18 -88,44 -132,69l-77 43c-11,10 -80,59 -94,61z"/>
   <path class="fil2" d="M3421 3453c-5,-1 -10,-2 -14,-3 -22,-14 -57,-35 -95,-79 -19,-21 -48,-43 -37,-75 15,-41 47,-29 74,-12 51,31 73,78 127,104 85,44 180,9 147,-27 -21,-21 -33,42 -147,-14 -9,-5 -13,-9 -21,-16 -8,-6 -31,-27 -36,-38 26,-19 113,-14 138,-23 6,44 -30,50 -44,86 24,-4 47,-26 55,-45 9,-23 32,-38 25,-68 -18,-67 -26,-63 -48,-102 -9,-17 4,-20 11,-33 -9,-8 -26,-12 -34,-22 -48,-60 -14,-174 64,-133 34,18 55,45 77,75l21 29c26,36 103,147 126,170 29,30 30,24 61,42 18,11 36,26 74,16 26,-7 43,-30 32,-64 -6,-17 -38,-44 -40,-60 -2,-21 13,-27 29,-16 7,4 19,22 22,28 19,35 55,77 82,116 45,68 68,42 41,9 -20,-25 -34,-60 -55,-86 -10,-12 -13,-10 -22,-28 -4,-8 -12,-23 -15,-30 -4,-11 -4,-28 -5,-41 -1,-19 3,-18 11,-28 43,-5 59,36 80,62 20,26 39,56 61,79l46 47c-25,14 -38,20 -50,42 -8,15 -13,63 -9,81 6,23 19,39 37,54 31,25 20,18 64,26 14,3 19,8 35,9 29,3 100,-2 124,-8 26,-7 53,-10 76,-16 30,-7 51,-6 79,-12l10 -27c3,-11 5,-16 2,-29 -4,-28 -84,-89 -108,-102 -51,-27 -109,-43 -170,-37 -102,10 -45,18 -123,-62 -8,-9 -10,-13 -17,-21 100,-23 247,-14 349,-15l252 5c-3,36 -30,73 -41,117 -6,26 -14,34 -25,53 -10,17 -11,35 -22,53 5,18 12,11 8,22l-3 6c0,-1 -2,2 -2,3 24,1 24,16 75,44 46,25 96,25 146,23 -6,16 -13,19 -23,31 -10,13 -11,20 -21,30 -20,21 -55,19 -59,39 30,30 80,-24 95,-40 31,-33 37,-58 77,-76 6,-41 24,-50 45,-83l56 -70c12,5 9,10 15,17 16,-8 10,-10 25,-18 15,13 0,9 13,22 6,7 8,2 18,10 10,52 -19,99 -46,133 -14,18 -22,33 -33,57 -11,24 -32,46 -32,61 41,28 60,-43 72,-70 14,-32 44,-62 59,-97 24,-53 35,-67 2,-114 -22,-32 16,-75 20,-120 28,-3 56,-16 88,-19 38,-3 175,-22 200,-4 20,13 28,30 56,47l32 21c55,34 97,77 149,116 20,15 53,23 66,39 -69,-1 -75,-15 -147,0 -49,11 -88,22 -117,48 -46,42 -63,119 -26,174 46,70 188,62 262,46 25,-5 48,-6 72,-12 56,-13 125,-42 147,-99 15,-37 5,-37 -1,-67 9,6 14,17 21,27 33,46 62,96 99,140 8,9 5,5 12,12l89 77c42,32 77,48 125,63 37,12 30,21 55,43 -8,49 -64,151 -95,191 -16,20 -32,33 -24,60 13,41 19,30 47,50 26,19 29,19 60,30 39,15 76,40 136,49 16,3 30,1 44,5l114 26c67,15 94,6 151,12 71,8 263,-13 323,14 5,26 0,94 2,128 2,42 2,77 -1,119 -99,7 -177,38 -269,49 -20,3 -48,9 -70,13l-215 22c8,-18 17,-17 25,-36 18,-40 33,-73 47,-118 11,-37 19,-94 -18,-123 -40,-32 -72,-34 -122,-8 -35,19 -27,9 -40,42l-24 59c-3,9 -11,27 -16,38 -7,15 -29,61 -40,66 -43,22 -47,-25 -48,-53 -2,-54 -3,-98 -55,-117 -73,-26 -57,-22 -97,32l-40 72c-111,228 -220,189 -441,188 -12,-19 -22,-47 -31,-62l-121 -151c-72,-75 -175,-143 -268,-194 -17,-9 -45,-19 -61,-29 -12,-8 -13,-14 -27,-19 -115,-50 -215,1 -345,24 -27,5 -42,18 -69,20 39,-220 -127,-182 -262,-123 -50,22 -52,57 -86,75 -44,-27 -55,-38 -115,-40 -31,-1 -45,2 -71,9 -29,8 -28,8 -48,27 -17,15 -25,22 -27,52 -3,42 3,95 26,129 23,34 13,5 21,52 23,10 12,11 45,10 75,0 154,-11 223,-37 13,-5 11,-6 22,-9 24,-7 26,-11 48,-24 2,-20 0,-37 -5,-52l79 2c-17,16 -22,17 -36,38 -25,37 -63,71 -95,119l-112 173c-31,24 -350,15 -400,15 -24,0 -50,2 -66,-11 -11,-9 -11,-4 -27,-7 -35,-6 -128,-112 -138,-138 -11,-27 -29,-50 -45,-74 -25,-38 -49,-85 -92,-106 -41,-20 -91,-11 -109,32 -42,98 42,99 26,179 -17,1 -44,-11 -56,-19 -15,-9 -26,-20 -34,-40 -32,-73 -56,-81 -87,-140 -25,-47 -47,-118 -121,-90 -46,17 -50,50 -42,109 4,36 21,47 36,76l37 78c11,17 20,31 2,50 -17,15 -39,1 -62,4 -19,3 -29,21 -42,32 1,14 7,24 13,35l-74 -9c1,-43 4,-99 -22,-133 -11,-14 -44,-25 -66,-33 -50,-20 -121,-24 -180,-15 -86,13 -149,35 -213,83 -20,15 -37,24 -33,58 -51,3 -526,-46 -542,-56 10,-9 98,-26 119,-33 31,-9 95,-20 93,-52 -25,-2 -85,22 -113,28 -37,7 -78,16 -116,24 -22,5 -40,9 -66,8 -31,-1 -30,8 -64,2 -63,-13 -67,-10 -121,-19 4,-34 6,-118 -13,-140 -26,-30 -98,-12 -140,-13 -14,-20 -14,-38 -28,-53l-65 -96c-12,-29 -95,-107 -130,-151 -6,-8 -13,-12 -22,-19 -61,-54 -34,-17 -46,-66 -3,-15 -4,-4 -8,-19l-1 -98c-2,-31 -23,-52 -30,-83 -9,-38 -34,-35 -38,-127 -3,-89 15,-67 13,-99 -37,1 -17,1 -31,23 -6,9 -19,13 -33,20 -3,39 -8,27 -29,49 -23,24 -17,18 -47,32 -23,11 -26,16 -57,21 -19,4 -35,14 -51,23 -23,12 -32,11 -57,22 -55,22 -70,6 -89,30 -6,7 -11,14 -16,21 -15,20 -13,31 6,48 14,5 49,-33 138,-11 122,32 216,117 306,194 14,12 30,29 43,43 53,58 112,111 156,179 21,34 40,71 64,100 35,41 27,47 31,51 25,22 69,-8 109,3 35,10 30,68 29,107 -62,-5 -151,-22 -209,-43 -1,0 -7,-3 -8,-3 -8,-5 -3,-2 -7,-7 -4,-4 -8,-14 -9,-16 -10,-27 23,-46 4,-78 -2,-4 -19,-20 -24,-25l-187 -160c-30,-21 -96,-50 -130,-67l-16 -9c-28,-15 -58,-23 -87,-35 -76,-32 -113,-38 -184,-64 -20,-7 -36,-11 -52,-23 -20,-15 -29,-10 -47,-27 -13,-13 -30,-14 -44,-26 -8,-6 -6,-5 -15,-10 -32,-21 -74,-35 -52,-83 12,-27 18,-22 33,-41l33 -41c15,-21 27,-39 47,-53 21,-15 29,-37 41,-58l20 -28c13,-19 18,-17 33,-30 41,-36 82,-67 131,-92 33,-17 37,-25 81,-24 20,0 45,-24 59,-37 9,-9 22,-15 30,-20 11,-8 17,-15 27,-22 13,-8 21,-14 32,-18 17,-8 17,-8 31,-18 32,-21 69,-29 101,-48 9,-5 9,-4 17,-8 15,-6 4,-1 15,-9 27,-20 38,-17 66,-29 1,-24 -10,-9 -3,-38 4,-14 9,-18 17,-28l-9 -20 177 -4c8,25 12,40 26,60 7,9 10,14 23,17 52,13 200,-8 268,-5l148 19c18,4 46,14 66,16 3,-7 4,-8 7,-14 0,-1 2,-5 3,-6l3 -7c120,-24 343,37 438,108 10,8 18,16 26,23 9,8 16,14 24,22l37 53c25,41 79,86 107,129 37,57 28,29 65,71 27,31 55,78 90,96 44,23 97,-19 148,-21 73,133 50,138 0,180 -64,54 -156,-27 -183,-38 -97,-40 -75,-44 -85,-93 -4,-19 -70,-79 -86,-95 -12,-11 -116,-132 -121,-147 -14,-37 26,-40 -48,-40 -92,1 -181,17 -272,6 -94,-11 -55,3 -90,-47 -18,-25 -57,-117 -82,-52 29,31 40,48 65,94 42,79 59,173 57,264 0,41 -11,26 9,63 32,60 24,39 67,92 52,63 51,78 83,120 8,11 9,10 16,21 22,38 38,229 34,279 -8,5 -28,11 -39,15 -100,41 -102,30 -194,53 -251,62 -414,27 -458,33l6 26c37,5 61,12 102,11 112,-2 247,-8 350,-33 90,-21 108,-14 192,-55 47,-22 28,-13 59,-5 1,-1 2,-3 2,-3l8 -22c24,-6 38,-3 40,-32l-39 7c0,-36 9,-53 9,-83 0,-27 -9,-50 -9,-79l25 -13c28,-8 69,-4 96,1 44,8 74,36 99,21 -2,-21 3,-6 -9,-16 -14,-11 -33,-17 -51,-23 -33,-12 -41,-15 -80,-15l-88 1c-15,-13 13,-44 -41,-115 -14,-19 -30,-37 -40,-60 -6,-14 -13,-18 -22,-31 -22,-33 -57,-62 -72,-84 -24,-37 -13,-87 -18,-136 12,-15 31,-35 58,-36 66,-1 54,35 55,78 1,13 7,17 10,33 4,18 13,55 19,73 17,47 29,87 60,125 32,42 54,95 86,92 2,-33 -57,-97 -75,-132 -8,-17 -17,-24 -20,-47 1,-4 49,-86 128,-7 26,27 42,58 64,88 22,30 39,19 17,-25 -18,-37 -42,-75 -69,-104 -75,-80 -137,-3 -159,4 -7,-10 -22,-70 -24,-81 -10,-58 9,-119 -71,-131 -54,-8 -49,8 -82,19l-18 -63c-4,-20 -15,-41 -16,-59 46,1 94,6 145,7 53,1 98,-3 148,-4 24,10 0,7 23,20 32,18 32,26 57,59l51 63c17,24 40,37 58,58 39,44 53,44 56,98 3,50 74,62 111,82 10,5 17,7 25,12 24,14 19,16 53,25 20,6 36,11 54,20 18,9 38,22 56,5 4,-5 10,-16 16,-22 8,-10 9,-10 18,-18 17,-14 67,-57 76,-75 -6,-21 -2,-9 -11,-20l-47 -106c-6,-16 -3,-32 -10,-48 -24,-27 -92,50 -151,24 -16,-6 -21,-19 -55,-40l-73 -71c-7,-8 -14,-13 -23,-23 -9,-10 -10,-16 -22,-27 -22,-22 -100,-107 -99,-132 32,-3 25,-6 47,-16 19,-8 21,-13 41,-17 33,-6 69,-11 104,-14 10,10 14,18 22,31 13,22 51,70 76,71 3,-37 -18,-34 -51,-84 -23,-35 27,-67 57,-61 21,4 66,41 81,55 19,18 45,63 71,61 28,-35 -32,-52 -39,-79 25,-9 54,-11 85,-11 8,22 17,37 34,56l43 47c8,8 17,17 28,25 -26,-1 -51,4 -79,15 -8,4 -11,3 -23,19 -12,16 -20,35 -33,53 -27,39 -2,91 22,107 28,19 104,43 140,48 11,1 51,2 65,1 28,-2 36,-6 58,-9 44,-6 77,-20 90,-67 11,-37 -16,-80 -43,-104 -35,-31 -68,-42 -119,-52z"/>
   <path class="fil3" d="M1013 1622c17,-29 31,-56 34,-89 2,-14 3,-24 5,-38 61,2 106,59 149,59 17,-56 6,-74 8,-131 22,-3 21,8 40,20 18,12 21,17 33,29 31,32 95,35 134,48 74,24 41,-37 52,-106 38,3 117,96 152,65 7,-6 6,-25 9,-35 3,-9 0,-4 4,-9 15,25 12,39 38,53 92,50 176,-16 221,-7l-5 28c24,23 52,17 72,29 -11,21 -31,17 -54,13 -47,-7 -148,-9 -172,33 -14,25 -8,32 -6,61 7,77 -11,172 42,171 7,-7 11,-14 14,-20 49,0 178,-1 219,11 22,7 79,12 92,20 17,11 10,22 14,44 3,18 10,21 13,44 -47,-10 -51,-28 -113,-30 -63,-3 -110,17 -158,47 -100,62 -49,69 -71,123 -14,34 -16,87 -9,129 4,21 30,78 40,96 17,29 39,54 63,72 16,13 23,18 43,28 15,8 31,10 45,19 -11,10 -11,10 -17,23 -16,-3 -59,-14 -70,-11 0,23 19,20 38,34 2,49 -6,72 -49,93 -33,16 -74,2 -109,-12 -43,-18 -27,-53 -94,-34 -46,13 -79,21 -109,-11 -2,-17 3,-43 -4,-56 -11,5 -9,7 -13,18 -3,10 -7,18 -10,25 -14,38 20,67 55,71 29,3 25,7 59,7 2,37 19,37 43,20 26,-19 37,-10 60,2 34,16 109,26 144,13 20,-7 32,-27 46,-37 14,-11 38,1 60,-22 10,-9 24,-36 24,-57 1,-55 -10,-34 -22,-64 48,6 77,22 128,-4 26,-14 51,-22 71,-41 13,-13 2,-11 18,-14 16,24 30,177 27,216l-13 80c-2,18 -20,55 -28,65 -68,83 -113,80 -229,63 -32,-4 -64,-19 -103,-21 -57,-2 -165,15 -225,24 -108,16 -227,43 -338,20 -35,-7 -66,-8 -100,-24l-89 -35c-18,-8 -25,-13 -38,-23 -48,-39 -5,-3 -46,-49 -10,-11 -5,-5 -11,-18 -10,-20 -10,-23 -37,-25 5,31 14,40 29,66 6,11 12,18 19,27 30,40 58,51 105,67 14,5 18,10 27,15 56,32 233,41 298,44 1,2 8,16 25,24 12,6 23,11 35,15 69,27 316,45 396,25 15,-4 7,-3 17,-7 22,-8 70,-21 86,-30 18,-10 40,-31 61,-33 17,24 9,19 2,47 -6,27 6,28 -9,53 -47,80 -135,117 -227,136 -138,30 -285,47 -437,31 -87,-9 -81,-9 -159,-26 -55,-12 -66,-4 -141,-41l-79 -40c-9,-6 -11,-8 -19,-15 -34,-28 -72,-50 -93,-88 -12,-21 -29,-27 -42,-48l-68 -101c-16,-23 1,-36 2,-62l-45 -19c22,-17 48,20 60,-29 -16,-25 -33,-22 -50,-44 -8,-11 -26,-25 -29,-41 -10,-38 51,-17 73,-21 10,-3 6,7 12,-11 8,-24 -9,-27 -23,-29 -94,-18 -76,-90 -104,-123 -14,-17 -36,-17 -52,-2 -17,17 -11,26 -45,30 -22,3 -40,-8 -52,-19 -6,-38 1,-42 11,-71 15,-40 13,-17 11,-69 -12,-9 -15,-13 -33,-23 -10,-6 -26,-13 -34,-19 -22,-17 -23,-59 -10,-83 28,-52 114,-27 156,3 -8,17 -12,-15 -12,23 0,11 5,16 4,28 -3,28 -20,16 2,46 18,3 29,2 37,-12 8,-16 -3,-14 1,-36l6 -42c1,-13 2,-27 4,-43 34,2 35,21 59,19 10,-1 37,-17 53,-22l4 -32c-44,-22 -81,-52 -79,-105 21,0 33,-7 46,-15 17,-11 18,-15 12,-36 -8,-21 -3,-25 -17,-41 -10,-10 -15,-16 -12,-34 8,-37 63,12 93,5 14,-36 -1,-90 28,-133 0,-1 2,-4 3,-5l3 -5c19,-38 27,-26 30,-70 42,-8 46,35 94,28z"/>
   <path class="fil4" d="M5564 1820c-17,20 -13,34 -40,42 11,-52 28,-48 46,-111l70 -160 237 -444c11,-19 9,-33 17,-56l34 -83c3,-9 7,-14 11,-26l33 -81c5,-11 6,-16 10,-28 6,-18 15,-36 21,-53 13,-37 22,-78 35,-118 38,-124 21,-198 35,-264 10,-48 8,-88 11,-138 3,-45 -10,-89 -15,-135 -4,-35 -49,-64 -52,-102 23,2 21,0 33,14 32,37 104,82 123,166 10,43 6,30 2,70 -4,49 5,98 -9,155 -6,22 -12,42 -15,64 -9,57 -53,195 -73,251l-88 238c-17,49 -45,99 -63,143 -5,11 -9,18 -13,29 -5,15 -7,18 -12,29 -4,12 -4,16 -10,27 -18,38 -31,83 -47,118 -14,29 -66,89 -74,126 -6,27 -4,12 -13,31 -22,48 -12,91 -42,121 -35,35 -89,89 -115,129 -13,20 -24,30 -37,46z"/>
   <path class="fil5" d="M4704 3401c12,-31 32,-45 45,-84l26 -69c12,-36 33,-77 40,-113 4,-26 18,-72 26,-96 11,-35 18,-64 29,-96 11,-32 16,-67 25,-99 8,-31 19,-65 26,-97 7,-28 15,-70 26,-97 19,-47 75,-331 94,-401 9,-32 14,-68 22,-101 7,-31 20,-66 24,-99l52 -320c19,-87 46,-284 55,-378 3,-33 22,-108 26,-160 5,-88 28,-179 41,-267l35 -151c5,-19 3,-24 11,-50 6,-16 6,-34 11,-52 19,-59 39,-129 62,-185 45,-110 62,-172 136,-268 36,-45 77,-94 127,-125 47,-29 92,-58 151,-62 28,-2 99,-7 120,1 17,7 1,3 23,8 28,6 35,23 50,43 23,33 36,41 43,81 5,30 16,38 22,101 9,82 -11,156 -12,234 -1,24 -7,87 -12,111l-24 99c-19,86 -123,360 -167,452l-22 40c-33,66 -88,178 -129,242l-66 119c-39,68 -75,141 -90,219 -3,13 -9,37 -13,49 -3,10 -12,33 -17,46 -6,18 -4,33 -15,46l-59 65c-35,41 -79,96 -134,112 -10,3 -77,-15 -99,9 -18,21 -13,76 5,99 26,34 54,34 73,52 -1,14 -8,23 -15,36 -28,47 5,68 53,85 44,16 49,3 80,-14l-1 28c-41,-1 -113,-2 -140,20 -14,11 -33,22 -38,40 -12,42 13,59 41,75 23,14 44,70 63,93 10,12 6,11 13,24 46,86 27,28 -10,113 -11,25 -23,51 -33,71 -66,129 -99,275 -150,410 -7,17 -3,26 -17,32 -6,-10 0,-29 3,-41l40 -121c9,-25 16,-54 24,-83 28,-102 66,-180 86,-288 3,-16 2,-34 6,-50 5,-28 23,-58 24,-84 -22,-3 -24,-5 -33,18l-34 131c-8,57 -33,123 -51,172l-77 257c-2,16 -13,81 -22,89 -24,23 -21,-13 -78,66 -11,16 -19,26 -30,44 -11,18 -18,28 -30,39 0,-16 26,-58 34,-80 12,-34 18,-53 26,-84 16,-59 43,-111 59,-169 23,-89 62,-166 93,-248 10,-26 37,-55 9,-77 -28,3 -33,49 -44,74 -34,75 -60,138 -83,215 -18,58 -39,122 -62,176 -9,20 -5,28 -10,47 -17,60 -45,96 -60,163l-2 10c-35,11 -100,0 -129,-11 -2,-26 44,-108 57,-139 27,-64 45,-127 67,-193 5,-15 12,-30 16,-44l31 -103c9,-31 16,-66 27,-100 12,-39 22,-63 33,-99 6,-19 29,-83 25,-98 -46,-5 -45,44 -57,79 -23,65 -29,94 -46,160l-49 157c-8,32 -28,71 -37,103 -18,65 -53,137 -79,197 -14,35 -17,76 -60,44z"/>
   <path class="fil1" d="M654 1379c18,-27 51,-48 72,-84 35,0 69,46 78,-1 12,-64 23,-63 19,-125 69,11 46,98 156,-1 10,-9 22,-18 35,-27 11,-7 25,-13 37,-20 15,-10 48,-43 71,-44 -1,41 -43,88 45,98 116,14 74,-29 107,-57 17,6 21,21 48,30 23,8 50,7 67,-7 17,-13 26,-27 33,-45 15,-33 -13,-25 17,-49 23,6 24,17 62,11 22,-4 27,-16 51,-22l0 52c13,39 95,1 122,-8 14,-5 29,-8 42,-12 43,-15 137,-6 168,33 -16,10 -141,37 -84,89 24,22 151,-5 191,3 5,31 -28,63 -46,76 0,79 100,48 150,53 -1,28 3,59 -3,85 -9,34 -14,35 -10,78 13,6 24,17 40,9 16,-7 16,-17 39,-18 5,39 -8,78 -3,111 36,28 35,5 78,3 -1,11 -5,25 -15,29 -17,7 -15,-4 -29,-9 -15,-4 -16,1 -34,-8 -15,-7 -11,-6 -29,-12 -43,-13 -86,-22 -134,-27 11,-24 17,-15 36,-30 5,-40 -9,-39 -26,-61 6,-18 8,-1 6,-24 -31,-18 -21,-2 -48,0 -14,1 -44,-7 -62,-7 -69,-1 -151,71 -206,15 -45,-45 -32,-75 -37,-83 -20,-17 -48,-13 -56,6 -6,15 -3,42 -11,62 -17,-1 -91,-48 -108,-63 -14,-14 -17,-12 -38,-1l-5 62c-4,22 2,33 -13,50 -16,-4 -40,-13 -55,-15 -28,-4 -31,1 -52,-15 -17,-12 -54,-47 -64,-68 -44,-2 -15,2 -36,-14 -16,-12 -23,-1 -36,4 1,20 4,10 3,31 -3,32 1,75 -9,104 -23,-2 -44,-21 -66,-31 -8,-3 -13,-4 -21,-8 -27,-11 -40,-51 -76,-22 -4,7 20,84 -21,132 -47,-7 -33,-19 -37,-53 -30,-12 -50,-13 -52,28 -1,24 -3,20 -12,40l-43 76c-13,33 -22,53 -24,90 -40,-4 -59,-40 -99,5 -5,25 1,49 7,70 7,22 23,26 21,53 -30,1 -42,-16 -63,-5 -24,16 -7,28 0,44 7,17 4,28 13,48 12,25 54,50 58,69 -76,9 -34,-100 -106,-49 -3,27 10,53 3,78 -1,1 -2,4 -2,3 0,0 -1,3 -2,4 -9,-5 -10,-11 -16,-19 -23,-34 -111,-41 -154,-5 -29,25 -29,51 -29,92 0,79 68,57 78,101 4,18 -7,20 -14,39 -9,27 -20,77 3,99 16,15 54,34 87,32 37,-2 27,-48 70,-44 12,28 14,38 29,61 8,14 33,31 35,48 -96,7 -18,61 8,121 -11,6 -23,6 -33,15 -42,42 36,59 47,64 -7,4 -22,8 -26,10 -20,14 -24,43 -52,57 -12,-8 -18,-17 -36,-14 -38,7 -51,55 -86,60 3,-18 4,-16 13,-28 26,-32 36,-71 19,-114 -1,-1 -1,-2 -2,-3 -9,-26 -16,-43 -42,-52 6,-33 20,-58 -24,-75 -30,-12 -67,-12 -90,-23 0,-22 14,-30 25,-45 8,-11 1,4 9,-12 8,-36 -45,-61 -69,-76 -52,-31 15,-47 17,-85 3,-30 -13,-52 -43,-52 -32,1 -43,26 -72,17 -18,-5 -34,-33 -36,-52 19,-12 24,-9 32,-31 0,-1 0,-2 1,-3l3 -9c5,-16 5,-16 0,-29 -3,-10 -6,-17 -12,-26 -14,-22 -53,-68 -56,-96 35,1 33,27 76,28 1,-21 7,-22 -4,-42 -37,-75 -61,-145 -64,-233 -1,-23 -6,-19 -7,-43 39,1 81,23 108,1 -7,-66 -45,-77 -45,-160 0,-22 -1,-44 0,-67 24,2 43,6 63,15 23,10 52,59 65,10 5,-22 -5,-2 11,-22 19,-24 41,-42 60,-68 7,-9 10,-18 28,-13 26,7 25,57 60,39 3,-2 4,-4 7,-6 47,-31 18,-14 42,-48 6,-8 8,-13 14,-23z"/>
   <path class="fil1" d="M1948 1496c1,-15 36,-20 43,5l-43 -5z"/>
   <path class="fil1" d="M1816 1583c69,-9 245,6 310,35 49,21 40,45 24,85 -11,24 7,22 -40,88 -26,2 -175,-27 -254,-27 -22,0 -72,10 -80,3 -11,-10 1,11 -3,-14 -2,-12 -2,-6 -4,-18l-6 -85c-2,-14 -6,-18 -8,-34l11 -4c22,-9 11,-4 19,-13 11,-14 9,-12 31,-16z"/>
   <path class="fil1" d="M2176 1773c2,-12 2,-11 3,-20l4 -16c6,-21 4,-19 19,-30 32,11 42,8 71,24 1,53 -51,43 -97,42z"/>
   <path class="fil1" d="M2161 1911c-14,-18 -9,-20 -13,-39 -3,-13 -10,-22 -14,-38l19 -8c14,-1 74,37 83,62 -20,11 -13,-6 -75,23z"/>
   <path class="fil1" d="M2325 2357c-28,-1 -26,-33 -53,-21 -9,16 5,46 11,61 -35,-1 -23,-19 -31,-48 -7,-26 -29,-29 -12,-59 31,-53 30,-112 23,-171 -3,-29 2,-10 -11,-29 -10,-15 -3,-22 -23,-60 -46,-91 -65,-48 -61,-101 27,1 32,23 51,36 21,15 37,16 56,26 1,35 -46,47 -15,90 26,37 45,29 75,50 -3,51 -10,51 -21,71 -7,13 -7,22 -11,34 -5,13 -11,14 -11,31 20,40 52,5 33,90z"/>
   <path class="fil3" d="M1878 1958c10,-16 22,-15 40,-24 11,-5 37,-9 51,-11 115,-18 219,74 232,128 -18,-5 -24,-14 -37,-22 -11,-6 -23,-10 -34,-16 -53,-28 -102,-38 -159,-46 -41,-6 -41,-2 -70,-4l-23 -5z"/>
   <path class="fil6" d="M5367 2088c16,-12 16,-9 29,-24l106 -109c19,-28 33,-34 50,-57 36,-50 101,-137 143,-182l107 -112c35,-34 78,-66 119,-95 21,-16 50,-22 69,-38 22,-19 39,-28 64,-44 19,-12 41,-27 67,-39 103,-48 223,-80 335,-98 61,-9 128,-22 195,-19 93,5 296,26 379,52 73,23 250,77 320,113 26,13 50,21 73,34l214 136c36,24 72,57 101,89l38 45c41,43 76,84 110,133 21,31 49,60 72,89 20,25 18,49 32,75l36 75c6,13 11,25 17,36l34 74c31,68 50,127 69,199 4,18 1,31 5,49 6,28 12,61 15,91 2,32 9,63 8,98 -1,28 -10,14 -3,41 4,18 3,30 3,49 2,74 11,139 11,211 1,72 -1,141 -3,210 -6,173 7,341 -37,505 -6,19 -8,17 -11,42 -2,16 -6,29 -10,45 -16,75 -78,172 -92,229 -10,42 -4,49 -28,78 -21,25 -90,89 -118,100 6,-23 40,-61 68,-183 13,-58 9,-58 30,-134 7,-25 11,-125 2,-146 -8,-19 -3,-55 -16,-63 -6,9 -4,1 -6,17l-1 54c-3,27 1,53 1,75 0,37 -27,84 -33,122l-13 65c-14,62 -31,115 -60,170 -8,16 -21,35 -31,47l-16 18c-57,76 -150,112 -221,174 -33,30 -61,4 -82,5 -6,23 4,30 14,52 7,14 17,33 25,49 20,43 47,117 57,162l16 53c7,25 5,43 8,66 8,62 9,67 3,133 -2,20 0,39 -7,58 -24,73 -47,98 -115,36l-76 -68c-15,-12 -25,-20 -29,-41 -24,-3 -10,4 -22,-7 -14,-13 -26,-35 -38,-49 -10,-12 -15,-18 -26,-32 -34,-45 -77,-77 -105,-126 -4,-6 -6,-12 -11,-18 -4,-5 -5,-5 -11,-13 -9,-15 -17,-74 -19,-97 -7,-82 -12,-255 -1,-326 15,-105 155,-344 224,-431 12,-15 4,-4 14,-12l12 -16c15,-32 39,-54 63,-82 13,-15 -2,-2 18,-10 38,-17 -12,-32 59,-81l-5 -10c-1,0 -1,-2 -1,-2 -5,-13 1,3 -2,-7 -26,7 -1,4 -20,20 -5,-8 -3,-20 -2,-30l28 -144c1,-23 1,-39 4,-61 6,-57 18,-195 5,-250 -4,-18 -9,-42 -13,-57 -6,-21 -12,-27 -19,-47l-29 -74c-4,-13 -3,-12 -10,-23 -7,-10 -10,-13 -15,-23 -11,-25 -23,-37 -37,-61 -20,-32 -36,-48 -61,-72 -54,-51 -97,-73 -159,-113l-129 -73c-6,-3 -14,-8 -22,-11l-73 -30c-39,-18 -133,-15 -181,-20 -33,-3 -102,-2 -134,4 -42,6 -78,2 -122,2 -85,-1 -314,-7 -403,-25 -58,-12 -125,-14 -188,-23l-297 -76c-20,-5 -23,-9 -39,-14l-267 -104c-33,-18 -72,-31 -103,-54 -27,-20 -38,-23 -35,-69 39,-20 52,-2 84,7 35,11 47,20 74,29 29,9 47,22 74,33 29,12 46,18 74,30 30,13 48,15 82,25 56,17 99,36 164,43 13,2 78,25 78,-2 0,-15 -51,-24 -63,-26 -92,-18 -125,-26 -214,-58 -48,-16 -83,-38 -130,-52 -19,-6 -114,-46 -121,-57l33 -27z"/>
   <path class="fil2" d="M1831 2000c30,-2 40,-10 66,-9 23,0 41,5 66,8 67,6 165,42 219,73 41,23 48,37 48,96 0,59 1,64 -23,108 -26,45 -19,40 -61,68 -30,20 -53,35 -101,33 -24,-2 -89,-16 -106,-24 -37,-19 -52,-30 -74,-58 -37,-45 -23,-39 -36,-63 -38,-72 -37,-169 2,-232z"/>
   <path class="fil2" d="M5835 2662c19,10 36,31 60,21 -1,-17 -11,-16 -26,-26 -13,-10 -20,-15 -31,-22l-64 -44c-60,-33 -169,-72 -241,-79 -19,-2 -31,-2 -51,-5 -49,-7 -129,9 -197,-8 -25,-7 -16,-11 -33,-21 7,-26 1,-33 27,-41 62,-19 213,0 285,14 36,7 67,15 101,23 92,23 104,32 188,63 90,33 275,117 373,126l173 13 114 -10c22,-6 22,-9 51,-11 41,-3 59,-21 97,-27 55,-10 154,-65 244,-71 17,-1 38,3 54,2 52,-4 50,6 94,23 24,9 23,4 45,17 14,8 24,15 38,23l41 21c25,15 51,39 77,51 26,12 19,7 39,23 32,27 76,51 101,84 5,6 9,12 15,19 37,47 94,148 109,205 8,31 21,73 19,103 -7,80 1,111 -15,200 -4,20 -1,39 -3,60l-18 104c-7,21 -7,31 -10,53 -8,45 -16,58 -28,94 0,1 0,2 0,3l-1 5c0,1 0,2 0,3 0,1 0,2 0,3 0,1 0,2 0,3 0,1 0,2 0,3 -4,12 -36,44 -45,50 -20,-230 30,-214 51,-360 4,-26 14,-73 9,-95 -4,-19 -2,-28 -8,-45 -18,-45 -14,-77 -38,-119 -22,-37 -44,-97 -69,-141l-111 -153c-7,-9 -14,-17 -23,-27 -15,-17 -36,-35 -54,-52l-113 -94c-19,-16 -37,-33 -70,-37 13,32 52,69 80,85 43,26 78,65 115,100l4 4c1,0 2,1 2,2l19 18c17,19 31,39 49,58 39,41 122,175 142,228 5,13 3,9 9,21 4,8 4,7 8,17 5,12 8,27 11,43 3,18 8,27 11,42 13,81 4,30 1,89 -1,30 -5,64 -14,90l-26 81c-12,31 -25,156 -24,192 1,56 10,70 11,96 -38,27 -58,91 -91,119 -14,-17 -13,-43 -16,-64 -4,-24 -9,-42 -9,-69 -3,-160 -24,-79 0,-288 4,-39 25,-79 26,-94 2,-12 0,-26 0,-38 18,-9 47,-3 44,-24 -3,-19 -37,-11 -53,-14 -4,-19 -4,-41 -8,-62 -11,-53 -40,-118 -50,-152 -11,-37 -42,-106 -62,-140 -39,-66 -38,-61 -86,-115 -13,-14 -16,-26 -26,-40 -8,-12 -19,-24 -30,-36 -29,-30 -82,-102 -120,-117 -24,-9 -46,4 -9,31 33,24 80,74 108,107l57 74c70,85 51,68 103,162l57 139c6,21 8,32 16,51 17,46 11,68 12,111 -39,11 -76,51 -125,43 -18,-29 -33,-79 -47,-113 -7,-14 -4,-13 -8,-26 -2,-10 -13,-29 -18,-43 -11,-32 -20,-64 -32,-96l-41 -86c-15,-39 -79,-182 -105,-217 -10,-13 -20,-23 -28,-34 -5,-9 -6,-14 -12,-21 -20,-29 -18,-27 -31,-63 -28,1 -37,7 -27,33 10,25 22,42 38,62l42 57c19,27 32,58 45,87 8,16 15,31 21,45 32,78 71,146 97,229 16,52 59,140 68,193 -6,4 0,1 -10,5 -22,8 -124,11 -135,3 -8,-11 -48,-147 -52,-167 -7,-31 -64,-203 -85,-241 -15,-26 -23,-40 -34,-73 -13,-37 -44,-127 -60,-153l-29 1 -11 15c19,25 28,35 43,66 13,28 18,49 29,79 7,21 24,58 34,77 33,61 71,173 87,239 6,27 -3,22 1,44 2,7 11,29 14,39 11,37 29,61 31,79l-88 7c-18,-41 -21,-91 -38,-136l-50 -123c-25,-51 -55,-98 -84,-146 -15,-26 -25,-47 -41,-75 -15,-29 -30,-66 -50,-93 -6,-8 -7,-11 -11,-18 -4,-6 -8,-12 -16,-15 -9,-2 -5,-1 -11,0 -37,4 11,43 21,61l82 153c23,44 65,95 83,141 12,29 16,58 26,84 20,51 29,73 40,130 5,25 15,24 6,39l-42 1c-14,-37 -22,-75 -37,-107l-51 -90c-5,-10 -6,-17 -12,-25 -21,-31 -119,-136 -150,-167l-68 -72c-22,-24 -44,-50 -62,-79 -11,-17 -16,-21 -30,-40 -5,-8 -48,-99 -64,-33 9,14 20,20 31,34 10,13 16,25 27,38 20,26 34,47 55,73 56,71 127,135 187,204 53,61 22,24 52,77 7,14 19,27 26,39 26,42 44,97 50,146l-34 -1c-21,-84 -190,-264 -259,-326l-255 -203c-6,-6 -17,-11 -25,-17 -13,-9 -11,-11 -20,-20l-67 -57c-20,-14 -21,-30 -52,-31l-10 27 50 33c88,72 174,146 268,210 12,8 11,11 21,20 11,10 10,7 23,14 30,19 57,53 84,77l76 81c31,39 125,149 124,191l-48 0c-15,-24 -27,-38 -42,-60 -60,-95 -278,-275 -379,-318l-67 -36c-22,-15 -38,-26 -58,-41l-61 -38c-18,-12 -45,-26 -62,-37 -43,-27 -76,-55 -116,-82 -18,-12 -41,-28 -54,-45 -10,-12 -14,-37 -30,-45 -15,-7 -11,-4 -19,2 -12,19 -3,22 8,34 11,13 11,19 20,30 13,17 87,66 111,83l174 114c45,27 65,51 115,75 23,11 44,19 66,33 21,14 38,22 58,37 36,27 205,163 229,203 13,21 31,36 41,54 9,14 1,2 11,15 3,4 5,5 8,11 -16,-6 -23,-13 -36,-21 -4,-3 -7,-3 -10,-6 -5,-6 -2,-2 -5,-8 -10,-16 5,-3 -13,-16l-136 -91c-12,-8 -25,-13 -37,-20 -11,-6 -22,-16 -32,-22 -22,-15 -45,-26 -72,-43 -66,-43 -139,-94 -213,-124 -27,-11 -56,-30 -75,-41 -12,-7 -27,-13 -38,-20 -56,-37 -109,-79 -166,-115 -34,-21 -98,-74 -127,-100 -24,-21 -34,-32 -53,-57 -21,-27 -28,-56 -57,-53 1,35 60,108 88,132l249 188c99,76 225,108 325,183l196 121c32,18 79,42 100,65 14,15 48,35 58,48 -10,5 -76,-14 -94,-20 -62,-19 -129,-28 -187,-61 -22,-13 -58,-25 -86,-38 -30,-13 -51,-27 -81,-42l-120 -65c-18,-9 -25,-15 -39,-23l-112 -74c-65,-46 -187,-148 -235,-198l-73 -84c-7,-9 -5,-6 -13,-15l-52 -72c-7,-9 -6,-10 -12,-20 -14,-27 -48,-68 -52,-95 16,0 26,5 44,4l87 -6c15,0 24,4 41,4 38,1 51,2 86,9 61,14 120,30 177,55 30,12 59,35 88,52z"/>
   <path class="fil3" d="M1948 2442c26,0 45,-7 35,35 -5,23 -18,32 -39,39 0,-26 4,-55 4,-74z"/>
   <g>
    <path class="fil2" d="M5352 2349c-77,9 -68,-40 -63,-71 31,0 20,7 44,16 18,7 27,9 40,18 -6,15 -14,26 -21,37z"/>
    <path class="fil2" d="M5474 2350c33,12 27,4 35,20 -12,25 -68,14 -81,-8l2 -26c22,3 27,8 44,14z"/>
    <path class="fil2" d="M5899 2486c-21,13 -65,-3 -72,-20 26,-2 24,2 41,7 15,5 24,0 31,13z"/>
    <path class="fil2" d="M6060 2503c-2,30 -17,50 -49,48 -13,0 -26,-8 -34,-14 -18,-13 -13,-16 -13,-40l96 6z"/>
    <path class="fil2" d="M6108 2567c0,-20 9,-39 19,-55l69 9c3,12 -2,87 -88,46z"/>
    <path class="fil2" d="M6732 2532c0,18 0,20 -15,28 -36,18 -71,56 -67,-20l82 -8z"/>
    <path class="fil2" d="M6254 2609c-18,-37 -39,-24 -11,-82l72 5c1,26 0,38 -10,57 -11,22 -22,20 -51,20z"/>
    <path class="fil2" d="M6444 2608c-61,13 -98,-11 -70,-72 17,-4 54,0 74,0 5,9 1,8 6,22 4,15 6,29 -10,50z"/>
    <path class="fil2" d="M6515 2539l78 0 0 45c-20,14 -52,7 -80,0l2 -45z"/>
   </g>
   <path class="fil3" d="M1806 4402l-26 0c-2,-25 -6,-48 -15,-58 -26,-30 -98,-12 -140,-13 -14,-20 -14,-38 -28,-53l-65 -96c-12,-29 -95,-107 -130,-151 -6,-8 -13,-12 -22,-19 -61,-54 -34,-17 -46,-66 -3,-15 -4,-4 -8,-19l-1 -98c-2,-31 -23,-52 -30,-83 -9,-38 -34,-35 -38,-127 -3,-89 15,-67 13,-99 -37,1 -17,1 -31,23 -6,9 -19,13 -33,20 -3,39 -8,27 -29,49 -23,24 -17,18 -47,32 -23,11 -26,16 -57,21 -19,4 -35,14 -51,23 -23,12 -32,11 -57,22 -55,22 -70,6 -89,30 -6,7 -11,14 -16,21 -15,20 -13,31 6,48 14,5 49,-33 138,-11 122,32 216,117 306,194 14,12 30,29 43,43 53,58 112,111 156,179 21,34 40,71 64,100 35,41 27,47 31,51 25,22 69,-8 109,3 35,10 30,68 29,107 -62,-5 -151,-22 -209,-43 -1,0 -7,-3 -8,-3 -8,-5 -3,-2 -7,-7 -4,-4 -8,-14 -9,-16 -10,-27 23,-46 4,-78 -2,-4 -19,-20 -24,-25l-187 -160c-30,-21 -96,-50 -130,-67l-16 -9c-28,-15 -58,-23 -87,-35 -76,-32 -113,-38 -184,-64 -20,-7 -36,-11 -52,-23 -20,-15 -29,-10 -47,-27 -13,-13 -30,-14 -44,-26 -8,-6 -6,-5 -15,-10 -32,-21 -74,-35 -52,-83 12,-27 18,-22 33,-41l33 -41c15,-21 27,-39 47,-53 21,-15 29,-37 41,-58l20 -28c13,-19 18,-17 33,-30 41,-36 82,-67 131,-92 33,-17 37,-25 81,-24 20,0 45,-24 59,-37 9,-9 22,-15 30,-20 11,-8 17,-15 27,-22 13,-8 21,-14 32,-18 17,-8 17,-8 31,-18 32,-21 69,-29 101,-48 9,-5 9,-4 17,-8 15,-6 4,-1 15,-9 27,-20 38,-17 66,-29 1,-24 -10,-9 -3,-38 4,-14 9,-18 17,-28l-9 -20 177 -4c8,25 12,40 26,60 7,9 10,14 23,17 52,13 200,-8 268,-5l148 19c18,4 46,14 66,16 3,-7 4,-8 7,-14 0,-1 2,-5 3,-6l3 -7c120,-24 343,37 438,108 10,8 18,16 26,23 9,8 16,14 24,22l37 53c25,41 79,86 107,129 37,57 28,29 65,71 27,31 55,78 90,96 44,23 97,-19 148,-21 73,133 50,138 0,180 -64,54 -156,-27 -183,-38 -97,-40 -75,-44 -85,-93 -4,-19 -70,-79 -86,-95 -12,-11 -116,-132 -121,-147 -14,-37 26,-40 -48,-40 -92,1 -181,17 -272,6 -94,-11 -55,3 -90,-47 -18,-25 -57,-117 -82,-52 29,31 40,48 65,94 42,79 59,173 57,264 0,41 -11,26 9,63 32,60 24,39 67,92 52,63 51,78 83,120 8,11 9,10 16,21 22,38 38,229 34,279 -8,5 -28,11 -39,15 -100,41 -102,30 -194,53 -251,62 -414,27 -458,33z"/>
   <path class="fil2" d="M1698 2841c-1,-1 -1,-3 -1,-3 0,-1 -1,-3 -1,-4 0,-1 -1,-2 -1,-3 -8,-40 1,-34 8,-36l93 -7c3,17 1,48 -5,61 -20,12 -79,11 -93,-8z"/>
   <path class="fil2" d="M1834 2861c-4,-27 1,-55 5,-79 24,-3 67,3 86,9 6,43 -8,29 -23,53 -10,17 2,10 -9,17 -16,5 -43,4 -59,0z"/>
   <path class="fil6" d="M5913 3405c-19,-6 -29,-2 -51,-11 -16,-7 -25,-13 -42,-21 -16,-7 -25,-10 -42,-19l-76 -48c-65,-56 -136,-102 -211,-164 -46,-39 -25,-21 -75,-49 -76,-43 -20,-27 -63,-60 -3,-32 11,-43 37,-47 55,-7 122,5 180,11 27,2 24,7 43,11 28,7 19,-2 32,-14l40 28c16,11 22,18 37,29l247 153c75,49 183,97 269,131 59,22 108,12 104,53 -1,15 1,10 6,18 25,42 36,105 36,156 1,38 9,72 9,115 0,46 -8,69 -13,113 -15,1 -2,-6 -30,-10 -33,-4 -94,-41 -123,-59 -14,-9 -12,-12 -25,-20 -29,-20 -74,-59 -94,-87 -24,-34 -103,-130 -109,-165 37,-29 69,-9 90,-24 -3,-31 -58,-21 -86,-22 2,-14 4,-34 9,-43 8,-13 17,-9 30,-17 2,-39 -39,-33 -56,-10 -21,28 -5,80 -36,82 -17,2 -27,-8 -37,-10z"/>
   <path class="fil1" d="M3885 3227c19,-10 17,3 54,-8l-4 26c-16,3 -43,-2 -50,-18z"/>
   <path class="fil7" d="M4193 3355c10,-35 21,-37 50,-50 16,7 8,12 27,11 6,-10 2,-7 2,-22 63,-7 117,-6 167,22 32,18 96,56 102,93l-15 11c-39,16 -39,-8 -101,-49 -69,-45 -85,-14 -104,-31 -13,-11 5,-17 -34,-15 -11,26 -16,19 23,74 14,19 37,37 65,47 -9,6 -31,7 -41,7 -62,1 -52,3 -83,-15 -12,-7 -77,-17 -58,-83z"/>
   <path class="fil2" d="M7158 3373c58,-2 56,-22 92,-28 6,22 13,11 -2,67 -7,23 -9,47 -11,71 -16,145 9,231 13,339 1,17 -5,20 -3,36 4,21 23,28 28,54 -7,15 -17,17 -27,37l-45 78c-12,17 -16,25 -29,30l-26 -123c-14,-49 -25,-186 -28,-241 -2,-40 3,-77 1,-119 -2,-38 20,-172 37,-201z"/>
   <path class="fil2" d="M4451 3434c-13,8 -17,3 -17,3 -1,0 -13,-6 -15,-6 -10,-5 -17,-8 -29,-13 -17,-7 -38,-17 -43,-34 26,-6 43,4 61,16 9,6 38,24 43,34z"/>
   <path class="fil2" d="M6382 4147c-101,-40 -81,-55 -90,-96 30,-16 31,-31 47,-63 51,-97 65,-111 83,-238 10,-77 -3,-134 -6,-205 -2,-32 -13,-62 -21,-88 -6,-21 -26,-62 -27,-76 24,-2 38,5 57,10 25,5 34,-1 50,16 66,74 42,371 27,476 -3,19 -36,102 -46,122 -12,24 0,21 -34,66 -13,18 -18,18 -18,47 0,26 -1,41 28,36 8,-13 6,-22 18,-39 7,-11 15,-19 23,-35 5,-10 11,-33 15,-42 6,-17 13,-26 19,-39 10,-20 18,-66 23,-93 3,-16 7,-34 9,-49 3,-17 1,-32 4,-50 10,-76 11,-132 6,-209 -2,-37 -5,-73 -8,-108 -4,-47 -20,-62 -24,-90l68 3c7,9 2,8 11,19 58,75 32,72 41,170 4,38 12,74 12,114 0,87 -2,143 -17,228 -7,35 -35,75 -53,129 -4,11 -11,35 -16,46 -15,28 -35,50 -35,84 -46,-5 -102,-28 -146,-46z"/>
   <path class="fil2" d="M6991 3755c0,-50 32,-278 50,-318 15,-31 32,-50 72,-49 -7,25 -6,47 -11,77 -5,29 -14,36 -14,72 0,67 -3,162 3,226 3,34 -4,47 0,76 14,114 31,158 62,259 8,25 -16,58 -22,92 -3,14 0,19 -5,32 -3,1 -3,1 -9,1 -17,0 -35,-6 -45,-20 -19,-25 -29,-68 -42,-106 -12,-36 -26,-159 -31,-198l-8 -144z"/>
   <path class="fil2" d="M6877 3767c0,-117 14,-140 15,-177 1,-23 2,-36 7,-55 7,-26 5,-31 16,-51 28,-52 17,-62 56,-69 20,-4 29,-12 49,-9 -31,58 -68,329 -61,419 2,37 11,73 11,111 1,73 23,141 37,204 4,17 10,33 16,46 8,15 16,21 20,39 -24,6 -61,10 -87,7l-50 -221c-12,-81 -29,-158 -29,-244z"/>
   <path class="fil2" d="M6683 4219c-39,-1 -83,-8 -118,-23 3,-18 12,-23 24,-36 9,-9 42,-109 49,-129 5,-15 14,-31 18,-43 11,-38 22,-113 23,-150 6,-135 10,-97 -6,-225 -4,-39 1,-79 -4,-117 -9,-66 -24,-57 -29,-89 32,0 89,10 120,17 22,60 7,162 9,207 4,73 7,153 -5,221 -6,35 -6,63 -17,99 -4,16 -10,25 -14,44 -6,31 -21,109 -31,134 -31,79 -9,54 -19,90z"/>
   <path class="fil2" d="M6907 3425l-19 45c-20,46 -24,90 -31,141 -21,155 -21,172 3,325 6,35 2,78 9,108 10,42 42,156 43,191l-193 -10c-1,-46 15,-53 24,-89 16,-59 23,-79 32,-138 3,-22 9,-25 12,-41 3,-16 1,-37 3,-54 2,-17 6,-26 9,-44 9,-53 1,-239 3,-322 1,-37 -3,-74 -2,-111l107 -1z"/>
   <path class="fil8" d="M5677 3420c11,-6 130,2 153,5 1,0 63,19 63,19 19,10 40,92 13,119 -65,63 -245,83 -331,67 -35,-7 -81,-41 -80,-81 1,-38 39,-84 67,-99 79,-44 65,-14 91,-15 15,-1 9,-7 24,-15z"/>
   <path class="fil2" d="M1140 3817c4,-7 1,-3 6,-8 1,-1 6,-6 7,-7 20,-18 61,-60 89,-62 1,2 19,36 20,39 7,14 12,31 16,43 11,43 3,60 9,99 -18,-4 -21,-13 -40,-23 -22,-12 -4,3 -16,-17 -16,-29 -74,-40 -91,-64z"/>
   <path class="fil2" d="M1136 4190c-30,-24 -30,-65 -6,-85l103 46c37,23 60,28 89,55 12,10 29,21 43,31l114 104c-16,41 -6,28 -5,63 -15,3 -22,-2 -33,-7l-202 -95c-46,-28 -54,-55 -63,-65l-17 -16c-13,-16 -2,-14 -23,-31z"/>
   <path class="fil9" d="M4464 4221c12,-22 23,-25 35,-41 28,-33 105,-55 150,-64 50,-9 82,-6 96,44 8,33 0,34 -16,52 -23,26 -9,46 -6,56l-70 13c4,-14 82,-120 -31,-110 -61,6 -72,53 -115,77l-43 -27z"/>
   <path class="fil5" d="M4560 4279c-3,-54 62,-79 82,-71 4,24 -11,34 -25,53 -13,20 -26,20 -57,18z"/>
   <path class="fil6" d="M4237 4396c-19,-53 -25,-25 -29,-61 -12,-96 5,-137 105,-144 47,-3 99,25 128,50 42,36 11,24 37,50 21,22 23,22 26,62 -1,0 -3,1 -4,1l-60 16c-8,-22 -3,-13 -15,-30 -17,-26 -37,-44 -72,-53 -12,-3 -24,-4 -33,-12 -9,-9 -4,-19 -24,-18 -29,0 -8,9 -6,57 13,10 10,3 21,16 9,12 44,55 46,64 -24,15 -94,9 -120,2z"/>
   <g>
    <path class="fil7" d="M7656 4696c-4,-6 -1,0 -4,-10 -2,-7 -1,-5 -2,-12 -5,-32 -6,-19 -14,-45 -5,-15 -11,-45 -17,-65 -8,-24 -15,-42 -22,-65 -8,-26 -21,-36 -29,-56 15,-11 36,-18 55,-25 45,-17 106,-56 134,-92 13,-17 20,-25 41,-37 34,-19 51,-37 89,-64l124 -103 69 -83c28,-42 36,-41 47,-69 9,-22 27,-37 29,-87 1,-30 -11,-36 -20,-54 4,-11 8,-11 15,-30l25 -106c14,1 17,3 37,37l52 89c17,62 25,16 37,172 4,47 3,88 4,135l-122 107c-32,27 -44,46 -74,79 -14,15 -25,20 -40,33 -39,33 -120,113 -161,145 -49,38 -32,31 -79,74 -21,18 -144,130 -174,132z"/>
    <g>
     <path class="fil7" d="M1145 4701c-52,-26 -50,0 -67,-69l-34 -97c-7,-18 -19,-33 -25,-59l-27 -85c-8,-27 -11,-49 -23,-76 -8,-19 -2,-25 -8,-40 -1,-1 -1,-2 -2,-3l-3 -6c-11,-24 -20,-30 -27,-56 -5,-20 -19,-41 -18,-63 1,-22 10,-68 23,-89 26,-39 46,-13 79,-5 22,5 58,19 78,32 -3,10 -4,15 -7,24 -3,13 -4,11 -8,21 -8,19 8,73 19,89 12,16 9,23 18,36l7 9c7,7 13,5 24,17 40,42 50,38 94,71 18,13 48,27 72,39 65,32 175,74 246,88 20,4 28,6 46,12l479 81c15,7 9,17 32,22 26,5 69,-8 104,-1 65,13 249,26 311,26 65,0 142,11 206,16 39,3 73,1 111,2l307 27c78,13 223,11 317,16l324 11c188,9 384,13 571,-10 -6,20 -14,27 -24,45 -38,78 -30,53 -77,121 -25,35 -46,30 -83,49 -22,12 -75,31 -106,27 -26,-4 -86,1 -111,12 -30,13 -68,15 -102,30 -30,14 -96,59 -117,80l-33 29c-12,12 -19,23 -31,35 -13,12 -22,16 -35,31l-57 74c-51,82 -48,137 -133,132 -80,-5 -167,-12 -251,-12 -662,2 -1473,-341 -2059,-633z"/>
     <path class="fil7" d="M4108 3091c53,-23 260,-32 333,-33 57,-2 320,-10 357,-2 0,19 -15,58 -23,73 -71,-14 -242,-9 -322,-4 -54,3 -111,-3 -161,3 -25,3 -136,13 -152,11 -11,-10 -31,-36 -32,-48z"/>
     <path class="fil7" d="M3768 3108c40,-18 128,-12 159,-15 15,-1 34,-5 47,-4l-1 14c-49,-6 -43,2 -76,21 -5,54 14,41 17,70 -55,0 -72,12 -96,-20 -28,-39 -47,-44 -50,-66z"/>
     <path class="fil7" d="M5222 3081c33,-14 63,-14 105,-14 13,3 23,33 59,52l20 14 -205 18 21 -70z"/>
     <path class="fil7" d="M2620 3265c29,-33 382,-86 418,-92 36,-7 77,-8 116,-12l109 -15c35,-5 83,-7 118,-9 41,-3 71,-9 111,-12 15,30 50,85 56,121 -88,-7 -150,28 -186,1 -84,-62 -111,10 -129,37 -95,4 -107,21 -141,-6 -14,-11 -34,-29 -50,-27 -36,2 -62,11 -85,34 -29,29 -35,5 -96,24 -25,8 -38,12 -62,20 -29,11 -31,13 -61,9 -11,13 -2,10 -16,18 -24,-13 -27,-36 -45,-51 -17,-15 -46,-19 -57,-40z"/>
     <path class="fil7" d="M953 3751c11,-13 55,-19 76,-28 19,-8 17,-11 31,-18 18,-9 39,-13 90,-38 37,-19 49,-52 65,-54 5,11 4,24 5,39 3,28 7,12 11,37 -3,13 -57,45 -65,52l-56 56c-41,-6 -77,-33 -115,-39 -15,-2 -31,-1 -42,-7z"/>
     <path class="fil7" d="M7679 4840c14,-10 28,-22 41,-32l139 -112c39,-30 88,-84 129,-119 45,-38 176,-178 210,-223 13,-19 56,-54 80,-59 -1,17 -14,62 -20,77 -22,53 -27,102 -45,154 -9,27 -20,48 -26,72 -13,53 -29,97 -51,147 -5,11 -3,8 -8,17 -2,3 -11,14 -11,14 -10,15 -2,0 -6,18l-274 534c-11,38 -8,29 -28,67 -21,38 -50,86 -74,125l-289 448c-10,13 -13,13 -22,28l-171 220c-31,39 -58,68 -87,108 -25,36 -63,68 -90,107 -31,46 -27,14 -58,40l-50 50c-27,24 -57,43 -81,67 -17,18 -36,27 -57,42 -11,8 -16,15 -27,23l-117 76c-24,13 -42,25 -63,37l-98 50c-10,5 -17,13 -26,19 -32,23 -176,102 -223,123 -10,5 -16,10 -29,17 -23,12 -49,15 -71,27 -23,12 -6,11 -35,16 -17,3 -23,7 -38,11l-104 44c-13,6 -23,6 -37,12l-244 78c-41,12 -90,20 -132,38 -21,8 -54,11 -78,20l-319 72c-70,18 -124,12 -171,24 -30,7 -101,16 -132,16 -129,-1 -300,-3 -422,-24l-86 -11c-122,-15 -285,-49 -401,-87 -50,-17 -110,-25 -157,-40 -50,-16 -101,-28 -153,-42 -50,-13 -102,-35 -146,-51l-181 -67c-16,-5 -22,-6 -36,-13l-459 -226c-27,-17 -208,-129 -236,-155l-59 -40c-4,-4 -24,-23 -26,-24 -12,-7 -16,-5 -32,-17 -84,-64 -142,-116 -219,-177 -19,-15 -32,-29 -53,-45l-22 -16c-20,-19 -39,-44 -59,-60l-124 -111c-10,-9 -16,-17 -25,-25l-274 -311c-17,-31 -42,-54 -65,-84l-47 -73c0,0 -10,-13 -11,-14 -30,-35 -50,-88 -76,-117l-21 -32c0,-1 -2,-4 -3,-5l-15 -27c-7,-12 -12,-16 -19,-25 -29,-40 -49,-83 -74,-125 -6,-9 -12,-20 -19,-31 -8,-11 -9,-16 -18,-30 -16,-25 -21,-45 -35,-65l-4 -4c-29,-35 -1,2 -29,-58 0,-1 -1,-2 -1,-3l-32 -62c-11,-19 -21,-49 -31,-69 -10,-21 -24,-45 -25,-71 25,3 4,0 19,7 56,27 116,42 173,66 54,24 141,51 198,66l162 56c68,29 140,38 209,60l6 2c53,15 110,35 165,43 96,13 185,55 284,65 52,6 90,25 138,36l369 71c58,12 164,20 229,31 28,5 209,25 237,21 29,-4 54,-6 71,8 -31,43 -70,59 -123,63 -47,3 -46,56 0,60 21,2 20,4 35,11 24,12 35,25 62,32 49,14 93,31 146,36l125 8c-8,15 -7,9 -23,16 -22,10 -45,37 -57,54 -9,13 -27,28 -31,44 0,0 -1,62 -1,64 5,56 126,88 157,-40 8,-37 52,-109 94,-129 22,-9 31,-9 45,-29 24,-33 64,-32 104,-45 21,-7 31,-14 52,-21 19,-7 33,-17 51,-26 -3,32 -15,47 -18,75 -1,15 1,30 -1,45 -2,11 -6,24 -8,33 -8,45 1,116 8,163 4,24 17,46 24,67 16,42 27,88 43,129 15,38 43,80 62,117 11,21 20,31 31,55l63 110c42,72 29,120 35,141 7,22 33,35 57,22 26,-14 10,-26 37,-49l96 -81c28,-23 59,-59 86,-87 52,-54 104,-134 133,-217 14,-39 34,-99 37,-142 4,-57 16,-97 16,-157 -1,-73 -51,-261 -52,-303 31,7 59,5 91,1 29,-4 56,-1 83,-4 51,-4 107,-14 161,-16 110,-2 225,-12 333,-23 54,-5 111,-10 166,-12 28,-1 54,-6 80,-8l30 1c88,-8 231,-7 299,-18l263 -14c83,-1 161,-33 241,-39l228 -53c25,-11 52,-10 77,-17 25,-8 49,-17 72,-24 24,-7 50,-8 75,-19l133 -53c25,-16 48,-12 66,-24 41,-26 -11,-110 -42,-114 -20,1 -107,37 -129,46 -58,24 -232,81 -294,97 -15,4 -20,5 -32,10 -67,26 -132,39 -202,57 -50,13 -94,18 -145,30 -24,5 -46,7 -72,13 -123,28 -236,63 -363,64 -53,0 -111,12 -162,14 -20,1 -14,-6 -36,0 -13,3 -20,5 -37,5 -163,8 -327,30 -491,29 -33,0 -48,7 -78,9 -58,4 -112,-5 -165,-2 -50,2 -111,5 -161,-1 -19,-29 -22,-171 -18,-213 11,-126 46,-105 59,-146 3,-9 1,-4 2,-10 0,-2 1,-3 1,-4 4,-19 60,-31 80,-38 37,-14 69,-40 98,-63 8,-6 20,-16 31,-22 43,-26 77,-71 112,-107 83,-85 43,-84 126,-72 73,11 308,2 367,-3 25,-2 62,-10 87,-2 35,12 5,-4 74,-6 19,-1 36,-4 57,-5 159,-7 319,-5 476,-15 183,-11 483,-35 663,-75 34,-7 64,-19 96,-28 17,-5 34,-8 49,-12 16,-4 32,-11 42,-12 2,17 4,50 9,64 35,88 59,107 117,176l33 37c12,19 15,30 30,44 14,13 27,15 32,41 -73,21 -104,43 -150,51 -4,1 -7,1 -10,2 -20,5 -30,32 -12,46 17,13 23,3 25,37 1,17 -5,10 1,23 13,26 45,11 61,2 39,-23 85,-42 127,-59 10,-4 12,-6 20,-12 14,-13 1,-8 16,-14 20,8 80,91 131,95 21,2 49,-3 64,-10 24,-12 29,-51 37,-75 10,-28 25,-133 21,-157z"/>
    </g>
   </g>
   <path class="fil5" d="M4409 4384c-13,-3 -14,-5 -21,-12 -13,-12 -33,-32 -38,-48 28,6 53,33 59,60z"/>
   <path class="fil2" d="M3668 4643c32,-7 96,2 125,-10 -28,-15 -94,-2 -115,0 -26,3 -22,-5 -31,-3l-4 1c-68,23 -221,5 -295,7 -49,1 -111,0 -159,-4 7,-25 22,-30 49,-26 34,4 99,-23 89,-65 -4,-16 -69,-134 -78,-149 -31,-51 -22,-75 -4,-115 41,-2 48,17 77,71 10,18 18,32 28,46 19,29 56,75 65,105 14,51 80,79 123,79 86,0 16,-110 2,-147 -23,-57 31,-141 119,-7l47 68c31,61 26,45 71,98 19,23 45,47 47,66 -27,-2 -53,-4 -80,-5l-74 -7c0,-2 -1,-2 -2,-3z"/>
   <path class="fil2" d="M6082 4649c2,-6 45,-60 60,-87l14 -32c4,-7 4,-11 7,-17l25 -50c7,-15 22,-49 38,-57 30,-15 54,5 62,29 9,27 -7,60 -4,81 7,40 59,80 123,56 28,-11 45,-66 54,-95 4,-12 7,-21 12,-33 14,-37 47,-104 102,-90 57,14 20,97 18,106 -18,81 -72,119 -73,161 -145,14 -291,21 -438,28z"/>
   <path class="fil10" d="M2603 4584c4,-13 32,-33 49,-41 18,-10 35,-24 57,-33 59,-26 81,-25 146,-36 48,-8 204,-2 204,64 0,34 7,51 9,79l-115 -10c-8,-35 2,-52 -29,-65 -38,-16 -116,-17 -150,8 -42,30 -29,24 -48,41l-123 -7z"/>
   <path class="fil6" d="M4435 4653c0,-31 8,-36 22,-57 1,-1 1,-2 2,-3l16 -25c15,-27 31,-57 51,-81 20,-25 35,-53 57,-74l64 -69c26,-26 134,-67 182,-81 33,-10 74,-16 108,-25 140,-33 180,-37 311,33 57,30 112,61 162,102 49,39 99,74 140,123 29,35 45,87 73,126 11,15 20,17 26,36 -1,0 -2,1 -3,1 0,1 -2,1 -3,2 -26,10 21,-6 -6,2 -31,10 -179,2 -221,6 -61,6 -175,6 -236,0 6,-36 63,-98 52,-126 -5,-12 -21,-13 -34,-6 -11,7 -12,18 -15,31 -5,19 -19,40 -27,58 -41,88 -159,198 -240,256 -10,8 -14,12 -25,20l-119 58c-99,45 -85,22 -182,86 -22,14 -55,30 -43,58l7 10c19,31 32,16 53,-5 18,-17 10,-18 21,-33 4,-6 64,-39 69,-40 -3,18 -11,23 -17,46 -12,45 -20,106 -15,156 2,28 3,81 8,107 7,32 16,58 21,94l27 150c2,18 3,36 7,51 31,138 17,268 -30,400 -20,56 -52,101 -85,146 -15,22 -34,42 -53,63 -18,19 -40,42 -57,58 -13,11 -19,18 -30,27l-65 51c-14,11 -18,20 -33,25 -6,-10 -14,-57 -52,-122 -50,-82 -102,-173 -144,-260 -27,-56 -44,-109 -64,-167 -27,-77 -24,-239 5,-304 9,-20 9,-17 16,-41 18,-59 95,-108 127,-163 9,-16 14,-21 24,-33 22,-27 93,-165 89,-190 -26,-1 -36,28 -45,49 -26,66 -102,181 -161,222 -19,13 -33,32 -49,46 -47,45 -116,84 -185,103 -61,17 -178,41 -241,45 -75,4 -273,-26 -314,-68 18,-14 37,-21 58,-33 11,-6 20,-7 29,-16l126 -192c14,-20 24,-36 35,-55 19,-31 56,-75 83,-99 35,-31 55,-60 94,-87l83 -53c13,-7 19,-6 34,-11 62,-20 90,-23 159,-23 45,0 29,6 74,-8 29,-9 33,-22 67,-26 -6,28 -25,49 -26,64 -2,28 21,47 44,39 10,-29 17,-80 35,-110 8,-14 7,-10 13,-24 11,-27 31,-29 52,-51 26,-29 10,-61 37,-107 19,-34 22,-65 57,-82z"/>
   <path class="fil2" d="M2783 4592c15,-18 44,-22 75,-24 59,-5 60,12 63,37 -31,1 -118,0 -138,-13z"/>
   <path class="fil1" d="M3965 3885c-10,13 1,6 -31,18 -25,10 -54,12 -59,32 -7,25 11,10 -1,28 -21,35 -30,38 8,91 36,47 87,68 152,79 87,15 241,-6 316,-40 21,-9 41,-21 54,-37 16,-20 67,-52 8,-120 -5,-7 -17,-17 -24,-21l-30 -19c-13,-8 -24,-4 -39,-7 -15,-4 -16,-8 -35,-10l-84 -13c7,-7 -4,1 10,-8 60,-38 104,-104 69,-172 -14,-28 -51,-52 -79,-61 -63,-21 -179,-3 -246,27 -62,27 -59,55 -69,76 -6,14 -17,29 -22,47 -9,30 0,36 14,54 16,22 5,21 33,37 15,8 36,14 55,19z"/>
   <path class="fil11" d="M4248 3758c-28,77 -103,84 -174,93 -72,9 -193,-13 -170,-80 11,-32 25,-64 54,-78 19,-9 41,-8 52,-14 23,-12 -6,-13 44,-22 60,-11 192,-10 197,57 -37,14 -43,27 -62,27 -17,-36 -40,-59 -91,-56 -62,3 -67,37 -98,50 -5,-3 -29,-36 -48,12 6,11 8,15 19,20 34,14 124,23 161,21 12,-1 25,-5 33,-5 26,-1 3,3 28,5 1,-1 1,-2 2,-3l3 -6c0,0 1,-2 2,-2 10,-15 30,-18 48,-19z"/>
   <path class="fil2" d="M4049 3750c12,-40 109,-32 109,3 -31,2 -82,3 -109,-3z"/>
   <path class="fil8" d="M4101 3903c66,-8 230,1 280,65 20,25 21,32 -5,56 -16,15 -26,29 -50,37 -38,12 -96,32 -141,36 -81,7 -192,15 -260,-49l-19 -18c-16,-19 -28,-45 -12,-67 27,-37 163,-55 207,-60z"/>
   <path class="fil12" d="M7161 1748c11,10 7,6 26,7 -4,49 37,24 70,25 -5,16 6,2 -11,15 -43,32 -57,23 -85,88 -30,72 -40,167 -5,246 25,57 91,122 156,141 14,5 23,12 36,14 55,10 65,16 135,12 58,-2 98,-24 138,-60 24,-22 50,-59 56,-93 3,-20 9,-21 11,-37 7,-33 7,-56 11,-89 4,-37 -10,-55 -7,-94 26,12 16,29 27,39 32,16 45,9 58,-16 -13,-33 -15,-20 -29,-35 -16,-18 4,-12 -16,-25 -9,-5 -25,-11 -35,-18l-35 -18c-26,-18 1,-9 -36,-18 -26,-6 -58,-25 -79,-29 -69,-14 -115,-34 -215,-52 -32,-5 -62,-8 -93,-14 -30,-7 -67,-20 -78,11z"/>
   <path class="fil6" d="M7638 1882c0,30 24,82 12,144 -9,-3 -5,-5 -13,-16 -11,-15 -24,-17 -41,-33l-61 -46c-10,-6 -15,-6 -23,-14 -13,-10 0,-6 -22,-15 -88,-40 -106,-54 -203,-86 69,-42 104,-12 180,2 23,5 64,20 86,29 21,8 66,32 85,35z"/>
   <path class="fil2" d="M7170 2057c-8,-36 0,-146 35,-188 37,-43 46,-32 72,-28 32,4 100,37 132,55 1,0 2,1 3,2 76,41 88,39 158,97 35,29 50,37 68,72 10,21 7,6 9,20 0,0 -8,34 -9,47 -3,22 -29,63 -39,71 -76,62 -175,67 -274,34 -17,-5 -17,-11 -35,-18 -41,-17 -96,-76 -108,-118 -4,-13 -10,-35 -12,-46z"/>
   <path class="fil1" d="M1474 5171c-2,-5 -4,-8 -7,-14l-7 -12c-9,3 -13,7 -17,16l34 56c19,30 38,78 65,117 14,20 21,36 30,57 19,45 48,73 71,110 6,10 11,18 17,28 9,13 11,14 21,25 12,15 24,32 37,49 7,10 15,20 19,26 60,95 112,140 176,229l261 275c18,16 32,25 47,39 14,11 34,28 49,42l94 83c14,12 29,31 43,43l102 80c98,76 127,87 209,145 17,12 31,23 56,34 18,8 49,24 63,16 -3,-3 -1,-2 -7,-5l-201 -145c-42,-27 -51,-39 -79,-57l-120 -98c-12,-9 -12,-14 -23,-23l-358 -327c0,0 -1,-1 -2,-2l-238 -289c-3,-3 -3,-4 -6,-7 -4,-5 -4,-6 -9,-12 -10,-12 -11,-11 -19,-25 -23,-40 -15,-14 -37,-50 -1,-1 -2,-4 -3,-5 0,-1 -1,-2 -1,-3l-15 -19c-47,-53 -57,-80 -95,-127 -30,-38 -43,-86 -75,-127 -3,-4 -6,-9 -9,-12l-23 -42c-18,-34 -17,-23 -43,-69z"/>
   <path class="fil1" d="M5739 149c36,19 100,-52 152,78 10,26 17,35 22,62 18,86 -9,201 -26,287 -11,51 -62,186 -79,243l-117 283c-10,20 -20,31 -28,55 -12,37 -27,83 -42,118 -7,19 -16,33 -24,55l-67 176c-9,23 -16,31 -25,54 -36,95 -55,118 -87,192 -19,45 -14,45 -35,89 -9,21 -34,107 -26,124 18,-6 9,-12 31,-49l126 -286c10,-21 16,-38 25,-58l26 -59c16,-34 35,-81 47,-119 14,-42 32,-76 48,-118 16,-39 29,-79 45,-119l73 -178c18,-39 16,-42 23,-59 39,-84 133,-358 139,-442 4,-56 31,-159 0,-221 -5,-11 -10,-18 -13,-27 -32,-89 -72,-100 -153,-91 -20,2 -24,-2 -35,10z"/>
   <path class="fil1" d="M1297 1966c-136,20 -120,26 -176,94 -51,60 -55,122 -49,211 3,57 37,147 91,177 90,49 221,58 316,-2 65,-40 93,-65 121,-145 33,-91 -13,-131 -19,-158 -27,-124 -209,-188 -284,-177z"/>
   <path class="fil3" d="M1113 2156c-1,-45 41,-121 97,-143 66,-26 135,-18 198,9 -8,13 -64,25 -82,29 -69,14 -78,36 -112,49l-68 38c-12,7 -17,15 -33,18z"/>
   <path class="fil2" d="M1449 2062c-1,-15 -4,-15 -1,-22 44,12 64,43 84,73 35,52 55,122 34,183l-19 38c-15,35 -56,71 -90,87 -100,47 -281,54 -329,-78 -6,-18 -9,-16 -13,-28l-12 -68c-2,-35 -1,-36 9,-44 0,-1 1,-1 2,-2l167 -101c12,-6 9,-2 21,-7 20,-8 2,-4 20,-13l69 -23c26,-5 33,3 58,5z"/>
   <path class="fil1" d="M7144 1492l-8 149c61,51 14,-9 185,14 28,4 152,31 177,41l112 49c35,13 73,37 108,57 6,3 10,5 16,8l37 21c12,8 7,4 12,17l45 -6c-4,-63 -87,-94 -126,-132 -28,-27 -56,-32 -100,-65 -30,-22 -73,-45 -106,-58 -19,-7 -26,-13 -43,-23 -23,-15 -56,-22 -96,-36 -53,-18 -155,-55 -213,-36z"/>
   <path class="fil1" d="M7180 1610c-4,-15 -4,-52 0,-66 104,-17 304,65 394,130 -11,8 -57,-14 -90,-21 -29,-6 -62,-17 -93,-22 -76,-14 -135,-18 -211,-21z"/>
   <path class="fil1" d="M5792 6988c-2,4 -2,3 -2,10l4 20c15,66 41,5 42,3 12,-14 196,-87 234,-104 9,-4 15,-6 24,-9 6,-3 4,-2 11,-5 38,-20 12,-14 57,-30l140 -70c0,-1 1,-1 2,-2l146 -72c8,-5 12,-7 22,-12 61,-29 112,-64 166,-102 13,-9 30,-18 42,-28 8,-6 8,-9 18,-15 55,-37 93,-81 109,-93 13,-9 6,-2 18,-14 13,-13 24,-22 34,-32l85 -85c6,-6 10,-8 17,-15 10,-9 20,-25 30,-37 13,-16 57,-50 57,-70 -20,-6 -28,5 -47,14l-161 157c-10,11 -19,19 -31,30l-98 93c-102,78 -241,166 -358,215l-211 102c-31,14 -56,27 -86,42l-86 37c-25,11 -61,25 -90,38 -17,8 -28,11 -44,18 -25,11 -27,-4 -44,16z"/>
   <path class="fil1" d="M1442 1838c6,-19 2,-24 -3,-44l-7 -98c3,-14 3,-9 0,-23 0,-1 -1,-2 -1,-3 -6,-24 -10,-41 -27,-60 -18,-21 -73,4 -89,8 -17,5 -36,4 -52,10l-81 35c-84,32 -42,22 -80,40 -62,28 -29,20 -53,33 -17,11 -32,12 -55,36 -8,8 -22,19 -35,27 -64,41 -41,51 -30,89 3,11 2,11 6,22 6,15 18,67 36,84 29,25 59,-2 79,-22 5,-6 -2,0 6,-6l32 -17c11,-6 27,-13 39,-19 31,-14 17,-13 33,-19l179 -58c21,-5 23,-8 51,-8 28,0 30,4 52,-7z"/>
   <path class="fil1" d="M1392 1807c-41,2 -135,33 -151,36 -34,6 -44,13 -67,26 -12,7 -17,8 -33,13 -16,6 -15,11 -28,17 -15,7 -23,5 -37,14 -41,24 -87,72 -106,3 -18,-69 -5,-82 27,-100 18,-10 21,-15 34,-28l4 -4c11,-10 36,-18 70,-44l99 -43c12,-4 19,-10 31,-13 30,-9 48,-11 80,-16 19,-3 59,-20 80,-4 19,15 -10,37 6,72 17,38 -5,60 -9,71z"/>
   <path class="fil1" d="M5835 4242c2,-104 26,-52 -2,-123 -5,-14 -13,-21 -25,-29 -42,-29 -89,-41 -146,-55 -67,-16 -275,2 -331,58 -6,6 -26,56 -29,70 -10,44 -2,54 19,76 42,46 88,37 156,46 47,7 149,4 194,-4 100,-18 95,-4 164,-39z"/>
   <path class="fil11" d="M5553 4066c72,-13 241,12 233,82 -4,31 26,71 -65,88 -50,8 -94,15 -147,15 -53,1 -247,11 -237,-79 4,-46 35,-68 79,-81 105,-31 63,-11 137,-25z"/>
   <path class="fil1" d="M5385 3931c52,8 102,-12 140,-27 39,-16 80,-33 92,-80 -34,-9 -2,4 -49,-42 -66,-66 -171,-156 -272,-124 -15,5 -46,12 -61,30 -13,15 -6,13 -5,23 5,88 19,91 89,159 71,69 32,3 66,61z"/>
   <path class="fil7" d="M5468 3891c-43,21 -64,8 -86,-10 -41,-34 -177,-144 -90,-177 68,-26 93,5 132,20 23,10 71,51 92,68l52 58c-1,1 -2,2 -3,3l-28 12c-30,-35 -31,-60 -110,-78 -24,-5 -12,4 -26,-11 -17,-19 -12,-26 -50,-25 -3,39 0,25 24,43 16,13 46,52 61,66 16,16 26,17 32,31z"/>
   <path class="fil13" d="M5499 3866c-12,-4 -15,-8 -24,-15 -12,-8 -15,-7 -20,-19 20,3 39,19 44,34z"/>
   <path class="fil1" d="M4597 4051c32,5 16,-2 35,-14 -5,-24 -15,-18 -11,-47 22,-30 47,-22 88,-23 34,-1 72,1 107,1 18,0 36,0 54,0 20,0 25,-5 45,-6 17,-1 36,0 53,-1 36,-3 18,-4 35,-21 26,-1 62,-5 82,3 10,14 7,21 -1,38 -14,9 -189,37 -218,40 -41,3 -81,2 -121,4l-104 9c-10,5 -4,-1 -8,10 31,11 84,16 117,16 67,0 175,-12 241,-27l109 -26 20 -35c34,-54 -34,-69 -81,-69 -59,0 -104,23 -141,22 -37,-2 -83,6 -148,4 -61,-2 -98,-33 -130,-3 -3,2 -23,23 -25,28 -10,20 -8,79 2,97z"/>
   <path class="fil1" d="M7665 1397c-1,10 -1,5 1,11 9,27 21,17 62,42 93,57 83,65 149,122 9,8 9,7 17,17l162 197c19,25 37,54 53,78l135 257c52,116 70,196 105,283 12,29 20,72 29,102l21 177c4,24 1,39 16,49 11,-23 -21,-221 -35,-273 -3,-12 -6,-13 -8,-24l-30 -129c-9,-40 -56,-152 -73,-186 -14,-29 -21,-61 -37,-90l-47 -85c-24,-41 -83,-148 -110,-174 -4,-5 -12,-14 -15,-18l-87 -111c-55,-87 -7,-17 -60,-69l-93 -100c-44,-38 -103,-58 -114,-80 -11,-1 -34,-2 -41,4z"/>
   <path class="fil1" d="M4209 5968c28,2 46,-7 36,-34l-20 -42c-31,-68 -2,-173 38,-192 33,24 48,87 66,137 4,13 13,46 17,54 41,14 81,-19 81,-53 0,-25 2,-113 14,-134 17,3 29,26 34,36 15,28 -3,44 15,59l8 -25c13,-32 24,-3 -6,-67 -15,-32 -31,-73 -65,-54 -13,7 -18,25 -27,39 -22,35 12,154 -29,159 -27,-54 -16,-96 -69,-173 -5,-8 -5,-7 -9,-15 -43,-75 -102,54 -107,67 -8,22 -15,56 -17,82 -4,47 18,130 40,156z"/>
   <path class="fil1" d="M3123 4010c-16,3 -24,-1 -40,4 -12,4 -15,6 -31,9 -29,8 -35,10 -59,24 -14,8 -26,10 -35,47 -7,29 -5,57 8,76 47,70 163,76 261,61 36,-6 100,-19 128,-36 18,-11 30,-26 35,-47 4,-18 2,-56 -9,-71 -13,-19 -75,-52 -105,-60 -34,-9 -118,-13 -153,-7z"/>
   <path class="fil7" d="M3104 4046c62,-20 246,2 248,67 0,14 -4,39 -15,47 -30,23 -161,44 -216,39 -48,-4 -109,-25 -122,-70 -14,-53 24,-59 65,-62 37,-3 12,-12 40,-21z"/>
   <path class="fil1" d="M4944 1595c0,4 -1,15 -1,17 0,3 -1,9 5,16 7,-13 6,-24 8,-38 4,-27 5,-9 13,-31 9,-23 11,-49 17,-73 13,-48 18,-101 32,-150 5,-15 4,-22 9,-36l20 -72c14,-77 14,-127 21,-206 4,-54 13,-105 20,-159 7,-55 55,-250 67,-297 6,-25 18,-40 28,-63 4,-10 31,-62 32,-63 1,-18 -22,-24 -44,14 -10,18 -20,44 -29,62 -22,45 -30,85 -40,141l-61 306c-11,63 -6,185 -25,247 -5,20 -14,54 -18,73 -19,87 -54,222 -54,312z"/>
   <path class="fil1" d="M3638 3733c-66,4 -104,10 -151,46 -7,5 -10,5 -17,24 -7,18 -10,38 -18,60 -16,44 22,87 49,97 32,11 112,14 148,9 11,-1 50,-11 63,-15 26,-9 33,-16 54,-24 41,-18 69,-40 69,-88 1,-39 -36,-73 -68,-89 -43,-21 -78,-23 -129,-20z"/>
   <path class="fil14" d="M3794 3866c-13,33 -170,99 -276,58 -39,-15 -36,-52 -24,-90 10,-28 16,-27 24,-33 23,-15 5,-15 37,-24 53,-16 157,-26 203,9 23,18 52,41 36,80z"/>
   <path class="fil1" d="M5327 1187c8,-7 9,-86 10,-111 5,-92 36,-150 52,-227 12,-56 33,-105 49,-161 15,-55 71,-212 96,-254 9,-15 21,-29 29,-41 19,-25 22,-32 21,-52 -50,-3 -37,11 -73,69 -51,79 -124,323 -153,425l-22 85c-3,11 -7,16 -10,26 -24,92 -27,134 -13,219 3,22 9,20 14,22z"/>
   <path class="fil1" d="M4903 6172c54,-123 117,-265 116,-406 -1,-52 -10,-181 -33,-219 -20,2 -7,-1 -23,8 -3,8 21,166 20,224 -1,78 -44,222 -76,293 -12,27 -22,57 -36,83 -19,37 -73,127 -75,168 16,0 12,-1 21,-12l42 -56c13,-19 35,-61 44,-83z"/>
   <path class="fil1" d="M1802 5499c60,77 140,177 205,241 26,25 51,48 76,71 15,15 22,26 41,32 38,14 31,26 48,18l-122 -124c-1,0 -2,-1 -2,-2 -1,0 -2,-1 -3,-2l-94 -106c-1,-1 -2,-2 -2,-3l-28 -34c-9,-11 -9,-12 -15,-22l-146 -188c-31,-37 -33,-43 -61,-88 -9,-15 -17,-36 -22,-51 -4,-15 -9,-55 -28,-24 -18,28 16,85 30,108 5,9 8,15 14,23 6,7 11,14 16,21l93 130z"/>
   <path class="fil1" d="M5211 4794c-11,-25 -58,-20 -85,18 -35,50 -46,50 -62,73 -6,7 -9,13 -14,20l-13 15c-11,15 -25,31 -27,47 -8,45 8,83 26,109 15,21 48,68 85,35 7,-6 23,-27 27,-39 6,-18 8,-40 11,-59 5,-34 4,-93 6,-129 2,-34 -3,-27 13,-54 7,-14 1,-12 12,-21 9,-9 10,0 21,-15z"/>
   <path class="fil2" d="M5096 5076c-36,-11 -61,-84 -44,-117 4,-9 57,-82 74,-88l-4 108c-2,30 -6,79 -26,97z"/>
   <path class="fil1" d="M8022 3067c33,-9 35,-69 38,-88 5,-36 14,-69 14,-106 1,-39 7,-76 7,-120 -1,-39 2,-84 0,-123 -5,-79 -16,-148 -23,-227 -1,-23 -5,-31 -11,-49l-14 -47c-7,-26 0,-27 -14,-47 -13,-17 -14,-27 -37,-26 -3,23 1,12 6,24 0,1 0,2 1,3l13 39c23,93 24,76 29,173 1,16 1,13 5,25 20,58 15,301 12,363 -2,36 -7,68 -12,103l-14 103z"/>
   <path class="fil1" d="M4668 6372c-9,3 -6,1 -12,5 -11,8 -5,2 -8,9l-4 215c4,40 37,155 118,117 20,-9 24,-10 28,-38 4,-21 3,-37 -5,-55 -11,-26 -21,-40 -39,-59 -6,-6 -9,-7 -15,-14 -76,-89 -40,-116 -43,-138 -2,-16 -4,-5 -12,-17 -1,0 -1,-1 -2,-2 -1,-2 -5,-19 -6,-23z"/>
   <path class="fil2" d="M4688 6557c16,9 3,3 20,30 14,22 68,63 38,101 -23,-1 -39,-33 -47,-50 -5,-12 -10,-25 -13,-37 -3,-13 -4,-32 2,-44z"/>
   <path class="fil1" d="M3439 5243c30,3 61,-78 70,-103 10,-30 43,-84 63,-110 57,-76 44,-62 112,-119 46,-40 73,-66 140,-91 18,-7 33,-4 48,-9 15,-5 27,-27 16,-38 -24,-25 -148,46 -165,57 -67,47 -153,133 -199,205l-57 117c-11,32 -35,52 -28,91z"/>
   <path class="fil1" d="M3965 4419c45,2 88,-78 91,-104 4,-48 -10,-129 -56,-135 -127,-16 -203,6 -303,81 -4,3 -20,16 -22,23 -6,18 6,27 23,24 16,-2 91,-91 198,-97 28,-2 68,-5 91,6 23,11 41,78 22,112 -8,15 -9,19 -20,30 -19,18 -37,24 -24,60z"/>
   <path class="fil1" d="M2363 4250c-54,-14 -15,-86 -59,-115 -14,-9 -75,-25 -67,40 1,15 5,14 4,26 0,8 0,4 -2,9 -12,-10 -12,-11 -18,-28 -5,-12 -7,-22 -15,-31 -65,-3 2,129 55,105 23,-10 22,-34 22,-57 22,23 33,163 114,65 44,-53 16,-97 -6,-158 -8,-20 0,-15 -20,-13 -9,17 2,24 6,35 2,5 8,39 9,44 6,31 -4,58 -23,78z"/>
   <path class="fil1" d="M5974 3989c3,-22 -20,-79 -30,-100 -48,-93 63,-97 99,-54 11,12 9,13 17,28 13,24 26,81 34,103 8,23 48,98 66,113 21,2 31,-6 37,-23 -9,-14 -15,-9 -27,-27 -64,-90 -57,-154 -80,-195 -7,-11 -49,-47 -59,-53 -21,-12 -134,-16 -133,64 0,24 16,64 25,85 7,15 11,21 16,37 7,21 10,27 35,22z"/>
   <path class="fil1" d="M4132 6286c8,-45 -1,-56 -9,-92 -4,-18 0,-31 -17,-35 -39,-10 -27,28 -94,65 -37,20 -75,99 -42,145 57,80 133,24 151,-44 3,-10 3,-11 5,-19 4,-10 4,-8 6,-20z"/>
   <path class="fil2" d="M4090 6218c8,14 15,51 -5,99 -42,102 -117,-6 -64,-51 20,-17 47,-34 69,-48z"/>
   <path class="fil1" d="M4572 6484c12,-8 10,-3 18,-12 37,-37 7,-91 -36,-49 -16,16 -9,18 -18,36 -8,16 -21,15 -54,62 -41,58 -40,105 7,162 41,50 91,-61 95,-101 3,-37 -12,-72 -12,-98z"/>
   <path class="fil2" d="M4531 6514c17,26 17,116 -16,131 -42,-40 -17,-102 16,-131z"/>
   <path class="fil1" d="M1640 835c2,7 -5,44 40,53 53,10 72,-12 126,23 48,30 -1,25 121,21 16,-1 55,13 74,20 26,10 52,13 77,21 22,8 47,21 65,34 8,6 19,16 26,24 9,10 10,19 29,12 -5,-22 -45,-45 -69,-62 -41,-29 -42,-25 -96,-41 -35,-10 -66,-26 -103,-27 -18,-1 -48,0 -65,-3 -26,-5 -22,-16 -38,-31 -14,-2 -27,-1 -40,-3 -51,-10 -3,-6 -80,-11 -57,-4 -12,-36 -10,-49 -22,-17 -61,-9 -88,-4l-84 24c-17,11 -20,53 32,20 21,-13 54,-24 83,-21z"/>
   <path class="fil1" d="M29 2127c1,19 10,18 21,33 18,24 7,39 7,39 -7,18 -27,0 -57,27 9,54 66,72 85,103 -10,18 -19,14 -20,37 -2,24 4,28 18,42 10,10 50,44 59,57 -5,17 -10,6 -9,29 36,14 52,1 51,-37 -8,-24 -81,-59 -86,-91 21,-22 12,-5 32,-16 8,-5 12,-12 15,-34 -28,-10 -34,-17 -57,-30 -16,-9 -37,-30 -40,-49 25,-8 65,-21 47,-69 -5,-12 -18,-25 -26,-35 -15,-21 -19,-22 -40,-6z"/>
   <path class="fil1" d="M5574 3507c-16,-9 -22,-12 -41,-3 -6,17 -8,29 12,37 44,17 79,36 142,27l151 -22c28,-3 26,-19 18,-39 -40,-12 -47,20 -77,7 -2,0 -74,-60 -141,-37l-49 21c-9,5 -3,4 -15,9z"/>
   <path class="fil2" d="M5625 3532c1,-10 5,-16 18,-21 26,-11 81,-1 96,20 -28,4 -90,12 -114,1z"/>
   <path class="fil1" d="M3991 5321c11,62 -76,99 -93,114 -13,11 -16,38 -7,57 23,3 16,-11 33,-27 31,-29 29,-11 76,-61 16,-18 16,-24 26,-44 14,-24 7,-77 -30,-92 -55,-23 -116,51 -176,92 -65,44 -38,72 24,24l58 -45c16,-14 22,-18 43,-27 25,-10 30,-4 46,9z"/>
   <path class="fil1" d="M910 4825c7,-14 -23,-124 -32,-155 -10,-35 -30,-75 -42,-106 -6,-15 -9,-17 -14,-35 -4,-14 -8,-25 -13,-37l-3 -5c0,-1 -1,-2 -1,-3l-12 -25c-82,-167 -38,-202 -48,-239 -48,-7 -36,24 -36,58 0,33 17,100 31,131 5,11 14,24 18,35 26,74 65,146 93,230 12,36 10,45 22,85 9,33 8,69 37,66z"/>
   <path class="fil1" d="M3972 3970c6,25 7,21 32,33 44,20 108,34 158,25 52,-9 121,-33 155,-34 42,-2 43,2 51,-12 -5,-11 -1,-6 -12,-11 -25,-9 -104,10 -121,12 -13,-10 -8,-14 -24,-23 -51,-28 -118,-22 -174,2 -41,17 -22,5 -65,8z"/>
   <path class="fil2" d="M4066 3990c21,-22 97,-16 121,0 -19,16 -98,17 -121,0z"/>
   <path class="fil1" d="M4643 5940c26,49 -16,44 -1,73 16,1 18,-3 25,-12 25,-27 26,-55 7,-89 -5,-11 -4,-16 -16,-21 -77,-28 -88,123 -108,175 -5,15 -18,43 -26,56 -11,19 -10,9 -31,51 -10,19 -16,31 -36,43 -8,6 -19,8 -18,20 1,12 8,12 20,7 48,-22 51,-43 77,-84 21,-33 40,-62 53,-108 6,-21 12,-44 17,-66 4,-22 12,-46 37,-45z"/>
   <path class="fil1" d="M3351 5687c34,-5 49,-7 72,-28l-9 -15c-25,6 -57,11 -82,20 -31,11 -120,10 -111,93l15 85c24,18 36,6 52,-8 20,-16 25,-16 44,-39 8,-9 27,-41 30,-51 14,-40 -6,-48 -11,-57z"/>
   <path class="fil2" d="M3271 5802c-34,-47 2,-100 64,-101 -3,22 -32,96 -64,101z"/>
   <path class="fil1" d="M3802 3437c-39,17 -70,77 -54,103 13,20 60,66 88,82 28,16 40,-2 14,-22 -19,-15 -30,-23 -45,-38 -16,-18 -25,-31 -15,-58 28,-74 98,5 167,25 21,6 44,11 67,17 52,12 32,-33 24,-36 -1,0 -24,0 -33,-1 -112,-19 -82,-35 -144,-62 -17,-8 -51,-18 -69,-10z"/>
   <path class="fil1" d="M2631 4203c4,14 4,6 20,18l25 16c26,12 24,20 24,54 0,49 -44,65 -80,79 -34,14 -73,36 -106,51 -28,13 -104,40 -109,51 55,10 82,-16 155,-42l127 -54c74,-35 86,-124 16,-162 -18,-10 -52,-26 -72,-11z"/>
   <path class="fil1" d="M2227 5724c-2,-30 -92,-127 -107,-156l-32 -55c-13,-23 -20,-36 -34,-56l-30 -56c-42,-81 -26,-113 -57,-116 -13,21 -6,50 2,72 25,74 92,163 126,232 18,36 50,70 78,104 15,18 29,31 54,31z"/>
   <path class="fil1" d="M7666 4262c16,10 23,3 33,-7 8,-9 15,-16 24,-25l49 -50c25,-36 52,-74 73,-121 17,-38 75,-235 62,-282 -4,-15 -8,-21 -24,-23l-6 22c-2,71 -3,56 -20,135l-28 108c-29,76 -70,139 -119,197 -14,17 -37,31 -44,46z"/>
   <path class="fil12" d="M6997 2411c-6,36 13,33 41,42 64,22 113,34 180,75l151 100c18,13 35,29 60,18 0,-16 -19,-26 -41,-41l-75 -52c-9,-7 -15,-11 -24,-17 -8,-6 -14,-11 -24,-17 -63,-41 -132,-74 -202,-94 -16,-5 -49,-25 -66,-14z"/>
   <path class="fil1" d="M5715 4160c12,-55 -34,-21 -58,-20 -21,1 -78,-56 -163,-16 -24,11 -10,22 -34,18 -26,-5 -5,-19 -34,-21 -30,-2 -37,28 8,47 32,13 54,11 91,11 50,1 153,-1 190,-19z"/>
   <path class="fil1" d="M2153 3825c-55,-15 -225,18 -290,45 -75,31 -105,63 -161,98 -17,10 -49,20 -35,41 20,29 37,1 51,-13 17,-15 30,-22 50,-36 54,-38 42,-34 109,-64 20,-9 41,-17 63,-23 25,-6 48,-9 71,-15 26,-8 49,-6 77,-12 28,-6 52,4 65,-21z"/>
   <path class="fil1" d="M4957 5082c-76,62 -96,192 -13,195 19,1 43,-16 50,-29 16,-29 11,-160 -3,-169 -8,-5 -27,-2 -34,3z"/>
   <path class="fil2" d="M4956 5236c-59,-5 -14,-95 8,-102 14,26 7,86 -8,102z"/>
   <path class="fil1" d="M1892 3800l24 -1c1,-56 -6,-50 -14,-82 -12,-51 -30,-101 -56,-146 -22,-41 -40,-155 -91,-139 -7,2 -15,9 -14,18 1,24 3,-14 41,58 17,32 28,55 43,93 17,44 39,104 47,151 4,23 11,31 20,48z"/>
   <path class="fil1" d="M582 3652l26 1c8,-19 -2,-16 14,-43l81 -117c4,-6 3,-6 8,-13l39 -39c10,-7 13,-10 25,-17l71 -47c7,-4 6,-3 14,-8l37 -24c19,-6 20,2 37,-6 23,-19 15,-52 -24,-35 -9,4 -20,14 -27,18 -42,27 -144,89 -170,120l-66 82c-12,14 -31,43 -38,56 -16,27 -33,27 -27,72z"/>
   <path class="fil1" d="M3440 4115c-15,8 -36,17 -37,40 -1,10 7,57 11,66 5,11 28,37 35,43 38,29 144,-29 100,-108 -8,-15 -22,-36 -36,-42 -18,-9 -57,-9 -73,1z"/>
   <path class="fil6" d="M3448 4192c-7,-77 78,-54 82,-8 5,49 -75,80 -82,8z"/>
   <path class="fil1" d="M6121 4184c-37,14 -64,45 -47,94 15,42 37,68 88,56 43,-11 78,-95 7,-135 -25,-14 -35,-20 -48,-15z"/>
   <path class="fil10" d="M6172 4283c-61,49 -62,-19 -54,-43 12,-32 62,-32 54,43z"/>
   <path class="fil1" d="M5816 1696c17,-21 -10,-8 32,-29 13,-7 78,-74 132,-104l70 -45c105,-59 214,-111 332,-137 39,-8 37,-3 43,-21 -26,-12 -152,37 -183,46l-162 76c-15,7 -22,15 -35,23 -22,13 -50,22 -76,40 -55,37 -141,78 -153,151z"/>
   <path class="fil1" d="M3513 3850c79,28 238,2 258,-29 -6,-28 -35,-9 -61,-4 -28,-38 -50,-35 -102,-24 -17,4 -35,10 -47,19 -28,22 -18,-3 -48,10l0 28z"/>
   <path class="fil2" d="M3606 3829c10,-7 22,-10 35,-11 40,-1 31,8 32,11 -16,2 -53,10 -67,0z"/>
   <path class="fil1" d="M5208 1619l24 3c7,-11 9,-30 11,-41 5,-24 4,-21 12,-41l42 -165c7,-23 25,-59 17,-80 -50,-15 -51,67 -61,98 -7,18 -6,29 -10,48 -12,66 -46,142 -35,178z"/>
   <path class="fil1" d="M5203 3494c23,0 6,0 25,-32 11,-18 15,-21 27,-35 57,-63 108,-63 96,36 -3,25 -32,55 -22,71 24,39 68,-87 54,-132 -39,-127 -162,4 -183,52 -4,9 -3,33 3,40z"/>
   <path class="fil1" d="M2340 2916c30,3 48,-30 68,-60 35,-53 60,-131 68,-193 21,-153 -48,-125 -37,-85 8,24 10,20 10,56 0,29 -10,84 -20,111 -20,52 -30,91 -68,131 -10,10 -19,25 -21,40z"/>
   <path class="fil1" d="M5908 3351c-6,-7 -31,-18 -42,-24l-127 -82c-13,-9 -31,-22 -41,-30 -34,-27 -119,-117 -104,-65 4,15 20,26 31,35 13,11 20,24 34,36l121 89c17,13 27,15 45,26 24,15 65,57 83,15z"/>
   <path class="fil1" d="M3899 4439c-19,6 -29,14 -35,29 -12,28 6,2 8,50 1,38 30,62 73,52 51,-12 46,-157 -46,-131z"/>
   <path class="fil10" d="M3916 4536c-8,-21 -5,-47 9,-60 25,2 26,24 25,50 -13,10 -14,15 -34,10z"/>
   <path class="fil1" d="M3129 4083c-71,22 -32,115 77,78 64,-22 43,-61 33,-70 -17,-14 -88,-15 -110,-8z"/>
   <path class="fil2" d="M3140 4130c11,-24 49,-24 64,-8 -4,5 4,1 -9,7 0,0 -16,5 -17,5 -17,4 -25,5 -38,-4z"/>
   <path class="fil1" d="M3762 4351c63,9 26,-34 111,-41 -11,42 -39,27 -37,67 26,18 30,12 62,-31 22,-31 20,-55 -2,-83 -41,-2 -90,25 -120,47 -18,13 -19,18 -14,41z"/>
   <path class="fil1" d="M1946 4319c-33,5 -31,-20 -42,-43 -76,-7 0,120 58,76 50,-38 36,-159 22,-177 -49,19 -3,86 -38,144z"/>
   <path class="fil1" d="M7220 1996c30,35 68,35 104,3 8,-15 -3,-74 -48,-77 -15,-1 -38,11 -46,18 -12,10 -11,34 -10,56z"/>
   <path class="fil1" d="M6006 4414c-61,30 -6,138 29,120 20,-10 40,-46 31,-74 -7,-19 -32,-60 -60,-46z"/>
   <path class="fil1" d="M8436 3086c29,3 29,-5 30,-32 2,-40 -6,-158 -18,-185 -57,-6 -37,-2 -22,84 9,46 -1,83 10,133z"/>
   <path class="fil1" d="M1435 2191c-54,25 -3,134 57,75 13,-12 18,-36 10,-54 -8,-20 -44,-31 -67,-21z"/>
   <path class="fil1" d="M5049 5983c23,5 29,-11 38,-28 22,-45 50,-109 30,-160 -26,-7 -38,-5 -34,22 11,60 -38,116 -34,166z"/>
   <path class="fil1" d="M1744 3334c24,-9 -4,-12 74,-33 17,-4 22,-11 42,-11 23,0 27,9 47,-3 -1,-37 -97,-29 -125,-18 -44,17 -20,4 -55,27 -26,17 -12,40 17,38z"/>
   <path class="fil1" d="M4882 1958c30,3 26,-15 28,-41 7,-100 62,-151 -7,-143 -11,16 -11,15 -11,40 -1,25 -30,102 -10,144z"/>
   <path class="fil1" d="M2095 2189c5,15 30,40 53,38 26,-2 39,-31 37,-55 -5,-62 -107,-37 -90,17z"/>
   <path class="fil1" d="M5746 3819c4,-20 0,-1 -3,-22 74,-6 10,68 78,44 33,-72 -103,-115 -118,-55 -3,12 5,22 11,27 11,11 13,11 32,6z"/>
   <path class="fil1" d="M657 4431c-1,27 30,114 47,137 13,18 11,24 42,19 -1,-28 -7,-9 -17,-35l-29 -79c-6,-18 -1,-33 -7,-49 -17,-8 -22,0 -36,7z"/>
   <path class="fil1" d="M1608 3319c-19,-3 -39,-2 -60,-7 -58,-13 -76,-23 -130,6 -32,17 -9,32 2,34 17,4 16,-1 24,-8 10,-9 0,-10 24,-12 68,-5 135,27 140,-13z"/>
   <path class="fil1" d="M2814 4199c0,0 56,9 46,57 -4,17 -24,32 -34,44 -14,16 -10,-3 -10,20 23,13 62,-16 72,-73 6,-41 -30,-87 -70,-78 -4,8 -5,17 -4,30z"/>
   <path class="fil1" d="M2172 839c0,-16 -26,-23 -42,-33 -11,-7 -11,-11 -23,-18 -35,-21 -113,-60 -152,-54 -15,67 32,-3 157,82l39 24c8,2 2,1 10,1 11,0 7,-1 11,-2z"/>
   <path class="fil1" d="M3457 4969c36,13 24,-20 62,-46 13,-9 74,-30 47,-54 -22,-20 -56,21 -71,31 -22,15 -49,32 -38,69z"/>
   <path class="fil1" d="M1656 4264l25 -4c-12,-56 -51,-89 -61,-105 -28,-45 -66,-11 -39,11 45,37 51,71 75,98z"/>
   <path class="fil1" d="M593 3406c34,13 18,-2 51,-29 49,-40 16,-16 56,-32 10,-4 11,-3 13,-14l-7 -27c-46,1 -21,1 -69,40 -50,42 -50,36 -44,62z"/>
   <path class="fil1" d="M1670 2427c6,-19 1,-33 33,-53 20,-12 37,-16 59,-27 1,-16 6,-18 -4,-24 -19,-12 -96,42 -109,64 -11,21 -10,43 21,40z"/>
   <path class="fil1" d="M2555 2875l17 1c4,-5 12,-28 15,-35 16,-45 50,-91 30,-98 -31,-11 -38,40 -43,53 -10,27 -24,46 -19,79z"/>
   <path class="fil1" d="M2327 6001c-1,-16 -11,-19 -20,-30 -23,-28 -57,-76 -78,-50 -12,13 -3,21 8,29 24,15 67,60 90,51z"/>
   <path class="fil1" d="M6649 1379c6,-26 -34,-23 -61,-26 -19,-2 -69,-15 -79,2 -19,34 44,20 55,19 26,-1 70,10 85,5z"/>
   <path class="fil1" d="M2245 5416c9,43 1,81 30,70 12,-5 9,-8 9,-24 3,-111 -44,-68 -39,-46z"/>
   <path class="fil1" d="M8009 3180c14,11 26,12 45,4 4,-16 5,-16 0,-32 -28,-14 -50,-3 -45,28z"/>
   <path class="fil1" d="M7883 3746c11,-24 0,-23 0,-23 -8,3 -10,-6 -9,11 1,11 8,11 9,12z"/>
   <path class="fil9" d="M3537 3622c-21,28 -190,51 -282,-17 -33,-24 -21,-59 1,-92 16,-25 22,-22 32,-26 26,-8 8,-13 42,-14 55,-1 157,17 193,62 18,23 39,53 14,87z"/>
   <path class="fil1" d="M3270 3533c69,48 230,64 257,39 1,-28 -32,-18 -59,-19 -16,-44 -39,-47 -91,-50 -18,-1 -37,0 -51,6 -33,14 -16,-8 -48,-3l-8 27z"/>
   <path class="fil2" d="M3365 3537c12,-4 24,-4 37,-1 39,9 28,16 28,18 -16,-2 -54,-4 -65,-17z"/>
   <path class="fil1" d="M4562 3510c-64,-13 -103,-17 -157,5 -8,3 -11,3 -22,19 -12,16 -21,34 -34,53 -27,39 -1,90 23,107 28,19 103,42 140,47 11,2 51,2 64,1 28,-1 36,-6 59,-9 44,-5 77,-20 90,-66 10,-37 -16,-80 -43,-104 -36,-31 -69,-43 -120,-53z"/>
   <path class="fil6" d="M4678 3680c-21,28 -189,50 -281,-17 -34,-24 -22,-59 0,-93 17,-24 22,-22 32,-25 26,-9 9,-13 43,-14 55,-2 157,16 193,62 18,23 39,53 13,87z"/>
   <path class="fil1" d="M4411 3591c70,47 230,64 258,39 0,-29 -33,-18 -59,-20 -17,-43 -39,-46 -92,-49 -17,-1 -37,-1 -50,5 -33,15 -16,-7 -49,-2l-8 27z"/>
   <path class="fil2" d="M4506 3595c13,-5 25,-4 37,-1 39,8 29,15 29,18 -16,-3 -55,-4 -66,-17z"/>
   <path class="fil1" d="M4926 3627c-64,18 -100,31 -138,76 -6,6 -9,7 -12,27 -3,19 -3,40 -6,62 -6,47 40,81 69,85 33,4 111,-9 146,-21 11,-4 46,-21 58,-28 24,-14 30,-22 48,-34 37,-26 60,-53 50,-101 -7,-37 -50,-64 -85,-73 -46,-11 -81,-7 -130,7z"/>
   <path class="fil10" d="M5106 3726c-6,34 -146,131 -259,112 -40,-6 -46,-43 -41,-82 3,-30 9,-30 17,-38 19,-19 1,-15 31,-31 49,-27 148,-57 200,-32 27,12 59,29 52,71z"/>
   <path class="fil1" d="M4827 3768c84,10 234,-48 248,-82 -13,-26 -37,-2 -62,9 -34,-31 -55,-24 -104,-3 -16,8 -33,17 -42,28 -23,28 -18,1 -45,20l5 28z"/>
   <path class="fil2" d="M4914 3728c9,-10 20,-15 32,-18 39,-10 33,1 34,3 -15,6 -50,22 -66,15z"/>
   <path class="fil1" d="M4245 4475c-36,14 -64,45 -47,94 15,42 37,68 89,56 43,-11 78,-96 7,-135 -26,-14 -36,-20 -49,-15z"/>
   <path class="fil7" d="M4297 4574c-61,49 -63,-19 -55,-43 12,-32 63,-32 55,43z"/>
   <path class="fil2" d="M3665 5820c-16,-2 -27,-5 -33,-20 -9,-20 2,-48 12,-67 20,-38 51,-50 90,-75 12,-7 19,-12 28,-22 15,-16 10,-11 37,-15 -12,22 -29,23 -44,41 -13,15 -23,35 -32,50 -28,44 -1,24 -58,108z"/>
   <path class="fil1" d="M5812 4387c-61,-17 -97,-24 -149,-7 -8,2 -11,2 -23,16 -13,14 -22,31 -36,48 -28,35 -8,86 14,103 25,20 95,48 129,55 10,2 48,6 61,6 27,1 35,-3 56,-4 43,-3 75,-14 91,-57 12,-34 -10,-77 -33,-102 -32,-32 -63,-45 -110,-58z"/>
   <path class="fil8" d="M5910 4556c-22,25 -184,34 -266,-36 -30,-26 -16,-58 7,-88 17,-23 23,-20 32,-22 25,-7 9,-12 41,-11 53,3 148,28 179,74 15,23 33,53 7,83z"/>
   <path class="fil1" d="M5663 4452c62,50 213,77 241,56 3,-27 -29,-20 -54,-23 -13,-43 -34,-47 -84,-54 -16,-2 -35,-3 -48,2 -32,11 -15,-8 -46,-6l-9 25z"/>
   <path class="fil2" d="M5753 4463c12,-3 23,-2 35,1 36,11 25,17 26,20 -15,-4 -52,-8 -61,-21z"/>
   <g>
    <path class="fil1" d="M2842 3854c-61,-17 -97,-24 -150,-7 -8,3 -10,2 -23,17 -12,14 -22,31 -35,47 -29,35 -8,86 13,103 25,21 95,49 130,56 10,2 48,5 61,6 26,0 34,-3 56,-5 42,-2 74,-13 90,-56 13,-35 -9,-78 -33,-102 -31,-32 -62,-45 -109,-59z"/>
    <path class="fil14" d="M2939 4024c-22,25 -183,34 -266,-37 -29,-25 -16,-58 8,-88 17,-22 22,-19 32,-22 25,-6 9,-12 41,-10 53,3 148,27 179,73 15,23 33,53 6,84z"/>
    <path class="fil1" d="M2692 3920c63,50 214,77 242,56 2,-28 -29,-20 -55,-23 -12,-43 -33,-47 -83,-54 -17,-2 -35,-3 -48,2 -32,11 -15,-9 -46,-7l-10 26z"/>
    <path class="fil2" d="M2782 3930c12,-3 24,-2 36,2 36,11 25,17 25,19 -15,-3 -51,-7 -61,-21z"/>
   </g>
   <path class="fil1" d="M6865 4217c-74,8 -116,16 -167,58 -8,6 -11,7 -18,28 -7,21 -10,44 -18,68 -16,51 29,98 60,107 37,11 126,11 167,4 12,-2 55,-15 69,-21 30,-11 37,-18 60,-29 46,-21 76,-48 74,-102 -1,-43 -44,-81 -81,-97 -49,-21 -88,-23 -146,-16z"/>
   <path class="fil9" d="M7047 4359c-13,38 -187,119 -308,78 -44,-15 -43,-57 -31,-100 10,-32 16,-31 26,-38 25,-18 5,-17 40,-30 59,-20 175,-35 229,2 27,19 60,43 44,88z"/>
   <path class="fil1" d="M6730 4355c91,27 268,-10 289,-46 -9,-31 -40,-8 -69,-1 -33,-41 -58,-37 -115,-22 -20,5 -40,12 -52,23 -31,26 -20,-3 -54,13l1 33z"/>
   <path class="fil2" d="M6833 4326c12,-8 25,-12 40,-13 44,-4 35,7 37,10 -18,3 -60,14 -77,3z"/>
  </g>
 </g>
</svg>
