<?xml version="1.0" encoding="UTF-8"?>
<!DOCTYPE svg PUBLIC "-//W3C//DTD SVG 1.1//EN" "http://www.w3.org/Graphics/SVG/1.1/DTD/svg11.dtd">
<!-- Creator: CorelDRAW X7 -->
<svg xmlns="http://www.w3.org/2000/svg" xml:space="preserve" width="58.9278mm" height="84.6666mm" version="1.1" style="shape-rendering:geometricPrecision; text-rendering:geometricPrecision; image-rendering:optimizeQuality; fill-rule:evenodd; clip-rule:evenodd"
viewBox="0 0 5893 8467"
 xmlns:xlink="http://www.w3.org/1999/xlink">
 <defs>
  <style type="text/css">
   <![CDATA[
    .fil6 {fill:black}
    .fil8 {fill:#1E92CC}
    .fil13 {fill:#2B2A29}
    .fil4 {fill:#35184F}
    .fil5 {fill:#3D0F66}
    .fil10 {fill:#6A96B5}
    .fil11 {fill:#9538FF}
    .fil9 {fill:#ADDDFF}
    .fil12 {fill:#AEC7D9}
    .fil3 {fill:#F7CD86}
    .fil2 {fill:#FEFEFE}
    .fil7 {fill:#FFEE00}
    .fil1 {fill:black}
    .fil0 {fill:url(#id0)}
   ]]>
  </style>
  <linearGradient id="id0" gradientUnits="userSpaceOnUse" x1="3719.06" y1="6896.44" x2="2173.72" y2="1399.46">
   <stop offset="0" style="stop-opacity:1; stop-color:#FFDA1E"/>
   <stop offset="1" style="stop-opacity:1; stop-color:#03D6B3"/>
  </linearGradient>
 </defs>
 <g id="Layer_x0020_1">
  <metadata id="CorelCorpID_0Corel-Layer"/>
  <g id="_2183330626864">
   <path class="fil0" d="M2276 1376c1441,-415 2286,436 3258,1506 973,1069 -196,3662 -1637,4077 -1441,414 -4961,-1130 -3582,-2576 1379,-1447 520,-2593 1961,-3007z"/>
   <path class="fil1" d="M2851 6745l21 0c26,-48 60,-101 80,-150 8,-19 25,-43 40,-55 8,-7 21,-19 24,-21 8,-5 59,-21 72,-23 7,-2 13,-3 19,-7 11,-8 9,-21 18,-33 0,-1 1,-2 1,-2 19,-29 36,-198 44,-253l37 -200c3,-19 6,-20 9,-38 5,-27 25,-188 32,-202 10,-18 13,-2 19,-28 5,-17 3,-21 9,-40 4,-12 8,-24 12,-35 9,-26 16,-46 24,-72 6,-24 17,-42 25,-67 15,-46 30,-93 45,-141 7,-22 22,-44 28,-67 5,-17 23,-60 23,-66 -30,-1 -52,-4 -79,-6 -22,-1 -53,12 -70,-7 -4,-6 -25,-47 -28,-57 -7,-23 -10,-40 -19,-61 -22,-55 -22,-76 -36,-130 -6,-23 -14,-41 -18,-65 -2,-14 -3,-70 -11,-72 -79,-20 -89,16 -205,-43 -19,-9 -5,-5 -18,-15 -14,-12 -11,-2 -24,-9 -11,-5 -17,-32 -20,-41 -22,-78 -15,-117 -28,-167 -19,-76 -30,-250 -17,-326 4,-23 16,-48 28,-63 22,5 10,16 34,5l74 -29c15,-4 24,-13 36,-16l243 -64c27,-6 52,-14 83,-20l128 -27c15,-2 23,-7 37,-10l207 -24 0 -53c-9,-132 -10,-311 -5,-445 3,-83 18,-165 21,-249 3,-95 20,-278 36,-375 8,-47 16,-155 22,-184 6,-29 -2,-34 -12,-51 -24,-39 -51,-95 -57,-149 -6,-58 -7,-128 15,-180 8,-16 22,-30 29,-41 15,-22 18,-18 43,-23 22,-4 31,-11 60,-11 41,0 31,14 50,15 8,-48 6,-78 19,-124 10,-36 14,-80 26,-114l61 -220c-46,-10 -91,-9 -135,-23 -41,-13 -86,-17 -128,-30l-255 -62c-67,-10 -95,-25 -157,-40l-90 -27c-61,-20 -53,-13 -117,-41 -31,-14 -76,-32 -101,-57l-40 -40c-10,-11 -21,-23 -32,-28 -13,-5 -2,4 -12,-6 -22,-20 -12,-108 -11,-142 1,-15 -2,-18 0,-33 9,-81 7,-170 27,-247 3,-11 8,-21 9,-32 3,-20 -3,-23 -3,-31 1,-8 10,-15 14,-24 8,-17 -1,-20 15,-23 30,-6 -11,14 26,10 8,-1 50,-18 96,-23 35,-4 65,-23 96,-23l99 -16c84,-6 64,-11 79,-89 6,-25 13,-51 13,-80 0,-41 1,-45 12,-80 5,-15 4,-25 9,-38 9,-24 4,-14 4,-40 22,-20 53,-32 84,-38 106,-23 221,-29 327,-35 2,-61 24,-109 29,-169 7,-79 19,-56 72,-80 16,-7 109,-19 127,-19 59,-1 124,-10 184,-15 192,-18 127,8 152,-97 6,-27 2,-45 24,-61 14,-9 29,-3 50,-6 29,-3 61,-5 89,-8 46,-4 239,5 278,19 37,14 37,-8 71,25 0,15 -4,46 -6,63 -2,21 -8,43 -9,62 7,3 103,21 118,23 38,4 75,16 111,26 39,11 177,55 203,76 1,41 -4,75 -14,113 -4,13 -1,20 -3,36 -7,43 -17,94 -16,137l3 16c5,7 72,21 84,23 22,6 176,65 203,80l5 2c46,22 17,56 2,142 -2,14 -9,24 -13,38l-31 179 165 71c11,6 12,10 25,16 38,16 30,-1 22,107 -1,13 -5,34 -7,50 -1,7 -3,15 -4,21l-34 202c-8,67 -31,104 -44,165 -5,21 3,30 -8,46 -20,30 -20,36 -52,51 -45,21 -78,24 -106,38 -32,14 -36,13 -73,18 -45,7 -108,22 -151,24 -141,8 -371,4 -505,-21 -57,-11 -99,-46 -144,-52 -1,1 -2,2 -2,2l-18 27c-18,33 -23,51 -31,64l-37 99c-11,40 -26,69 -36,104l-42 141c-13,34 -8,46 -15,76 -4,16 -8,24 -11,36 20,-2 32,-14 54,-19 17,-3 43,-4 61,-5 20,18 18,13 43,27 35,19 17,17 36,35 31,29 31,57 43,95 6,19 10,14 11,24 3,18 -4,76 -9,91 -8,26 -4,28 -17,53 -11,21 -25,46 -41,65 -17,19 -33,33 -57,46 -13,7 -28,20 -43,27 -12,6 -14,3 -24,12 -18,15 3,5 -22,12 -19,5 -52,24 -74,31 -74,25 -57,10 -65,103 -8,80 -33,122 -35,246 0,32 -1,97 -5,126 -13,75 -12,315 -14,391 -2,45 4,91 4,136 0,27 5,42 6,66 1,20 -6,39 -3,61 13,3 79,2 97,2 25,-1 69,4 92,5 32,2 61,1 92,8 86,18 181,9 265,29 61,15 236,44 284,60 29,10 11,-4 77,23 13,5 27,6 38,10 31,11 67,36 81,66 26,60 16,160 14,224l-3 44c0,22 11,14 5,40 -15,8 -26,10 -41,20 -22,16 -9,12 -39,22 -30,11 -58,26 -88,33l-98 24c-19,6 -27,13 -46,17 -14,2 -36,4 -47,12 13,43 4,39 4,81 0,32 4,58 4,88 1,69 -2,66 -11,125 -2,17 -7,15 -10,33 6,14 12,6 17,27 3,13 2,24 -6,32 -15,16 -107,31 -132,36 -25,4 -51,5 -76,9 -1,12 1,20 -1,32 -4,38 -12,29 24,63l67 80c34,34 63,76 88,118 13,24 36,46 51,70 19,29 46,93 43,130 -4,69 -28,241 -46,310l-45 189c-38,180 -46,155 30,273 15,23 35,46 50,67 7,11 36,71 42,75 12,7 71,-3 81,-7 13,-4 20,0 34,-2 25,-3 17,-4 40,1 35,7 27,-12 72,9 22,10 41,9 61,27 60,53 51,28 66,109 20,105 123,173 -117,124 -31,-6 -56,-6 -94,-8 -42,-3 -97,-15 -136,-15 -47,1 -92,11 -139,8 -18,-1 -23,-2 -39,1 -32,6 -46,-11 -66,-39 -18,-26 -9,-21 -16,-56 -33,-161 -11,-439 9,-601 5,-46 6,-98 7,-145 1,-43 8,-89 11,-134 3,-41 5,-104 -7,-139 -6,-15 -53,-69 -66,-81l-152 -139c-11,15 -10,40 -23,49 -18,12 -188,-12 -205,3 -8,7 -1,103 1,114 4,40 17,41 -32,58 -39,13 -26,17 -88,33 -8,2 -16,2 -25,5 -68,21 -161,29 -240,24l-27 -28c-5,-38 14,-30 17,-54 1,-10 -3,-58 -6,-63 -6,-5 2,-2 -7,-2l-5 0c-26,5 -80,18 -104,15 -87,-10 -73,1 -122,0 -25,0 -37,-4 -58,-11 -51,-19 -46,-35 -51,-85 -1,-15 -7,-39 -11,-54 -11,6 -2,-1 -9,8 -13,14 -19,34 -28,49 -45,74 -78,168 -119,245 -69,132 -55,114 -104,256 -7,23 -11,47 -17,69 -7,25 -16,39 -23,70 -5,20 -12,48 -19,69 -5,18 -16,54 -20,72 -5,23 -11,47 -16,71l-18 75c-3,12 -3,25 -7,37 -10,37 10,141 5,231 -2,30 -4,69 -7,100l-11 90c45,0 107,-14 148,7 3,2 8,6 9,8 4,5 3,3 5,10 5,19 3,39 4,59 2,40 8,75 15,114l9 89c5,22 29,4 -18,89 -18,32 -53,100 -63,135 -9,28 -5,14 -18,33 -10,13 -6,20 -14,34 -7,11 -13,19 -19,33l-46 100c-7,14 -7,23 -15,37l-34 64c-15,35 -33,69 -45,103l-31 68c-9,22 -20,43 -29,69 -9,25 -24,43 -33,67 -12,32 -77,162 -100,196 -119,179 -25,35 -145,97 -21,11 -33,13 -56,22 -93,36 -32,28 -111,43l-121 37c-36,14 -74,32 -116,37 -44,5 -83,21 -125,33 -55,15 -37,6 -64,12 -15,4 -14,7 -33,9l-161 30c-47,7 -93,9 -141,14 -21,2 -16,5 -33,7 -12,1 -28,0 -40,1 -19,1 -11,4 -30,4 -15,-1 -20,-1 -34,1l-292 -10c-24,-1 -49,-2 -74,-4 -25,-2 -44,-8 -69,-9 -53,-2 -216,-29 -271,-41 -38,-8 -85,-15 -123,-30 -63,-26 -107,-22 -167,-68 -55,-43 -11,-24 -49,-104 -29,-59 -34,-125 -46,-190 -5,-25 -6,-39 -8,-68 0,-21 -10,-51 -9,-64 7,-72 22,-62 48,-109 16,-27 36,-43 53,-65 6,-8 6,-13 14,-22 11,-14 28,-25 37,-40 9,-15 27,-25 39,-38l73 -82c7,-8 14,-11 21,-19l94 -100c32,-34 67,-64 101,-94l56 -58c13,-9 11,-4 22,-18l136 -135c24,-26 48,-56 75,-80 41,-36 44,-46 76,-77 77,-76 18,-96 26,-217 2,-21 -1,-36 -1,-55 0,-15 4,-30 5,-48l0 -304c0,-18 -5,-32 -1,-49 7,-43 -2,-95 3,-141 -27,-9 -83,-22 -102,-37l-23 -21c-59,-41 -25,-434 -11,-490 6,-24 10,-55 14,-80 12,-79 59,-235 109,-300 12,-15 12,-7 10,-33 -4,-58 7,-127 1,-181 -41,4 -43,58 -113,36 -21,-6 -28,0 -48,-3 -10,-6 -54,-98 -59,-111 -8,-23 -1,-12 -15,-39l-1 -23c8,-20 37,-25 54,-30l73 -35c-23,-21 -5,-23 -37,-42 -18,-10 -33,-21 -49,-32 -16,-11 -33,-18 -50,-31 -36,-26 -67,-26 -94,-49l-38 -20c-39,-15 -25,-11 -55,-26 -18,-9 -40,-14 -57,-24l-79 -41c-1,-1 -2,-1 -3,-1l-52 -25c-14,-8 -19,-5 -30,-11l-32 -19c-1,0 -5,-5 -6,-5 -11,-9 -26,-11 -37,-21 -45,-38 -38,-94 6,-132 11,-10 14,-6 24,-16 15,-14 2,-9 21,-20 60,-36 95,-87 131,-108 25,-15 44,-36 66,-55 12,-9 8,-10 19,-21 8,-8 14,-11 22,-18l34 -29c20,-13 36,-29 50,-49 8,-10 12,-10 20,-20 23,-26 72,-85 103,-96 32,-10 30,-2 45,-36 14,-34 45,-63 71,-89 22,-22 46,-39 69,-53 8,-5 23,-6 31,-9 15,-8 10,-14 26,-13 11,1 15,9 23,15l44 -19c-18,-44 -34,-42 -70,-22 -147,73 -245,85 -416,116 -120,20 -315,-39 -396,-133 -14,-16 -31,-29 -40,-48 -52,-103 -136,-417 -168,-444 -25,4 -50,35 -70,53l-20 -10 16 -95c-20,-4 -33,-7 -53,-6 -13,2 -44,4 -57,-2 -17,-17 27,-52 26,-70 -64,-21 -55,14 -110,-33 -10,-8 -13,-7 -20,-16 -6,-8 -6,-12 -12,-21 -9,-14 -21,-24 -29,-40 3,-9 7,-12 12,-22l28 2c2,17 16,24 33,28 -7,-23 -13,-56 -27,-77 -15,-21 -38,-24 -36,-64 24,-13 13,-15 43,-7 -3,-12 -24,-42 -32,-58 -29,-64 -43,-46 -54,-122 -6,-43 17,-46 17,-69 -45,-7 -34,16 -65,13 -9,-12 -16,-19 -3,-36 9,-12 16,-10 30,-18 19,-10 39,-27 57,-38 -15,-12 -36,-11 -53,-15 -20,-4 -4,1 -13,-5 -6,-43 50,-66 77,-68 18,-1 18,5 35,-5 -8,-27 -87,-59 -50,-113 22,-4 18,-1 37,2l79 1c33,-8 70,-103 71,-130 -42,-23 -73,-27 -70,-72 27,-20 29,-18 48,11 37,2 28,8 47,23 41,-14 15,-50 42,-98 6,-10 9,-16 15,-29 25,-52 50,-50 68,-68 14,-14 7,-11 31,-10 4,12 6,33 17,39 7,-12 6,-38 9,-53 8,-36 27,-86 29,-97 2,-17 1,-29 13,-43 30,-5 35,34 41,61 6,32 16,52 24,78 18,-8 13,-19 19,-39 4,-12 8,-23 13,-38 8,-27 11,-57 21,-85l25 4c8,30 18,63 34,83 13,16 43,56 65,51 25,-55 -30,-97 -31,-105 4,-20 7,-23 24,-28 30,9 14,27 58,39 54,15 111,-11 240,38 12,-53 30,-135 104,-97 3,38 -6,58 -6,84 43,1 172,-54 209,-25l8 7c31,-18 13,-16 59,-28 38,-10 28,-12 70,-11 80,2 82,25 82,89 16,-2 27,-7 42,-8 16,0 26,1 42,0 16,-1 23,5 36,5 10,0 28,-10 37,0 0,1 4,5 5,6 4,7 4,1 6,15 5,32 -50,38 -59,60 14,7 59,3 80,8 57,12 32,5 72,8 20,58 -23,54 -36,94 -8,25 8,33 22,41 84,51 28,-28 70,-58 26,6 18,17 25,44 5,23 6,29 18,48 18,33 25,60 39,97 33,-7 56,-10 52,41 -3,45 -28,42 -27,77 9,9 16,10 25,19 10,9 11,11 21,20 14,12 23,34 43,40 8,-31 17,-33 33,-54 27,4 44,17 59,29 24,19 26,14 43,42 17,28 37,94 30,139 -3,14 -9,16 -11,34 -2,16 4,17 0,32 -3,11 -11,17 -16,29 -15,33 -6,23 -29,56 -14,20 -40,52 -44,76 27,14 53,32 78,50 26,18 42,31 72,53 16,12 22,20 35,31 23,18 51,34 70,55 28,30 77,63 99,92 27,35 193,158 156,215 -24,20 -19,-5 -39,35 -20,41 -37,85 -55,128l-124 195c-32,41 -60,87 -93,127l-61 82c-9,13 -26,31 -31,39 -15,26 -55,57 -61,83 39,60 33,118 57,191 12,38 51,122 69,173 15,41 25,85 39,123 55,162 75,402 73,574 0,69 -4,80 16,144 25,83 32,200 22,285 -27,228 -19,439 21,665 5,25 15,45 7,70 -18,2 -11,-4 -25,1 -5,2 -10,7 -19,10 -19,5 -29,8 -48,15 -26,9 -61,24 -92,29 0,36 15,91 17,131 3,71 11,142 6,212 -2,35 -15,183 -12,205 19,0 25,-6 49,-5 18,2 32,0 53,-1 34,-1 69,7 103,10 49,5 79,-10 158,7 11,3 24,2 32,6l0 0zm-1648 -2389c6,-4 4,-2 9,-6 5,-3 11,-7 15,-10 8,-6 10,-8 17,-12 6,-3 14,-8 16,-10l17 -13c74,-45 74,-51 140,-105 17,-14 8,-18 23,-27 6,11 1,23 0,36 0,16 4,24 5,37 2,21 -11,46 -6,74 5,23 17,42 25,59 10,22 14,36 26,55l56 112c17,42 33,80 35,133 -12,-8 -32,-34 -44,-46 -43,-41 -37,-23 -72,-61l-76 -55c-17,-13 -28,-27 -49,-39 -23,-13 -113,-88 -146,-115l9 -7zm1001 1830c-24,41 -22,146 -9,201 2,7 6,13 9,27 2,12 4,21 7,33 10,45 13,88 22,133 6,31 24,102 24,132 -54,-5 -67,-11 -126,-6 -46,3 -90,3 -136,5l-193 13c-21,4 -28,15 -46,24 5,-50 13,-97 26,-143l36 -173c1,-15 -2,-29 -1,-44 0,-28 3,-47 2,-78 -4,-88 -15,-85 -27,-143 132,-11 169,31 176,-146 3,-68 50,-353 82,-416 2,3 2,2 5,7 25,136 33,336 9,478 -2,17 -7,22 6,36 22,24 59,41 95,47 22,3 32,7 39,13zm-73 -3155c10,22 1,66 32,60 18,-4 43,-69 56,-86 8,-10 60,-54 73,-58 40,53 76,111 115,164 5,7 9,15 14,23l97 143c-17,21 -39,49 -60,66 -19,16 -38,46 -56,66 -16,19 -110,96 -135,111 -36,21 -49,39 -78,64l-8 8c-1,0 -2,2 -2,3 -26,-2 -47,-3 -70,-7 -42,-6 -19,-17 -39,-13 -8,1 0,1 -13,7 -15,-8 -21,-16 -46,-24 -50,-14 -77,-10 -116,-3 -41,7 -20,9 -43,23 -27,2 -19,-1 -44,6 -12,-15 -15,-30 -31,-45l-40 -38c7,-15 19,-22 30,-26 115,-42 228,-94 308,-185 46,-52 36,-245 56,-259z"/>
   <g>
    <path class="fil2" d="M4221 2471c51,5 67,-3 115,-10 11,-2 17,-7 32,-11 -2,58 -15,101 -29,148 -5,17 -1,18 -17,26 -45,20 -30,13 -66,10 -9,-1 -24,-1 -34,-7 0,-27 2,-62 9,-87 18,-62 4,-48 -10,-69z"/>
    <path class="fil2" d="M4023 2583c0,-19 2,-20 1,-40 -1,-18 22,-98 25,-105 21,0 13,6 29,19 13,10 18,5 36,11 74,25 9,10 79,13l-28 132c-18,4 -62,0 -82,-3 -26,-3 -42,-13 -60,-27z"/>
   </g>
   <path class="fil3" d="M1878 2402c-3,10 -5,20 -4,27 24,-12 47,-85 122,-25 -1,40 -33,53 -20,84 16,37 28,42 60,59 29,15 42,45 35,79 -15,71 -47,30 -57,34 -16,6 -9,6 -14,24 -4,14 -9,11 -5,25 11,38 51,37 61,78 15,61 22,120 25,185 2,56 16,64 -8,118 11,26 14,-3 7,66 -3,27 -11,43 -18,63 -6,13 -7,15 -10,28 -6,21 -21,33 -32,51 -8,14 -27,26 -42,34 -8,4 -10,4 -15,7 -6,3 -2,1 -7,4 -1,1 -3,3 -4,4l-162 73 -2 -9c-1,-8 2,0 -2,-9 -18,-2 -38,27 -46,37 -29,36 -9,-4 -37,44 -6,12 -11,13 -18,23 -4,8 0,4 -8,14l-30 28c-68,53 -46,34 -127,75 -55,27 -120,49 -179,63 -24,6 -42,10 -66,15l-143 19c-40,8 -102,-4 -141,-10 -68,-12 -96,-21 -146,-56 -31,-22 -64,-43 -86,-76l-48 -73 -33 -88c-4,-12 -1,-21 -5,-35 -5,-13 -9,-17 -11,-30 -4,-15 -1,-21 -5,-35 -6,-19 -13,-44 -20,-62 -4,-11 -8,-17 -12,-28l-31 -89c-6,-15 -3,-15 -11,-30 -7,-11 -7,-14 -11,-29 -11,-41 -33,-72 -50,-112l-37 -95c-7,-18 -31,-57 -42,-67 -39,23 -14,28 -29,51 -22,-4 -8,-13 -6,-31 2,-11 2,-30 3,-42 16,1 18,10 36,10 6,-9 7,-13 13,-24 4,-7 7,-14 13,-20 9,-11 23,-23 34,-36l27 -27c8,-9 2,-2 7,-8l43 -42c4,-3 6,-6 10,-9 112,-93 275,-76 208,-149 -31,-34 -44,-61 -49,-110 -3,-35 6,-38 -17,-57 -5,0 -49,9 -57,12 -56,19 -97,57 -134,73 -24,10 -23,20 -39,29 -11,-14 -9,-58 -9,-74 25,6 21,24 48,11 43,-22 47,-79 78,-113 29,11 77,55 108,31 24,-19 31,-94 30,-127 20,-1 44,2 58,11 21,13 2,43 32,45 40,3 17,-84 49,-112 12,40 4,94 9,108 78,20 106,-76 114,-84 14,8 21,28 29,41 5,9 6,8 7,15 2,18 -10,19 -15,28 -6,13 3,21 7,32 4,11 5,25 8,35l21 69c14,49 34,7 43,1 22,-13 37,-17 61,-26l63 -26c13,-4 19,-2 33,-4 25,-3 53,-10 77,-5 23,-16 10,-11 44,-12 22,-1 30,1 53,-2 20,-2 43,-4 59,-2 15,2 40,7 52,5 3,-7 8,-65 15,-94 20,4 3,4 23,8 7,2 14,3 21,2 14,-20 11,-35 23,-51 55,36 71,5 120,5 3,27 -4,44 -10,65 -3,9 -2,54 1,67 5,6 22,10 29,14 2,1 5,3 5,2 1,0 2,1 3,2 1,22 -26,67 -40,90 -13,21 -11,23 5,43 17,19 -3,-2 4,4 13,-3 17,-9 26,-17l9 21c5,12 14,30 24,36 23,12 25,-9 27,-26 2,-22 10,-32 17,-39l11 0z"/>
   <path class="fil4" d="M4465 155c-2,-24 4,-57 9,-79 5,-22 26,-34 52,-33 0,18 -8,38 -10,57 -4,25 0,34 -14,55l-37 0z"/>
   <path class="fil1" d="M4853 889c6,-8 25,-16 32,-21l89 -58c17,-11 42,-23 66,-33 42,-17 209,-69 223,-62 15,8 -12,146 -20,162 -31,2 -71,0 -101,-6 -31,-6 -71,-1 -101,3 -35,3 -66,0 -101,5 -18,2 -78,14 -87,10z"/>
   <path class="fil1" d="M4034 777c-5,-36 10,-47 19,-76 7,-20 21,-42 34,-60 45,7 126,74 157,106l82 94c8,10 7,6 12,20l-151 -46c-86,-29 -104,-22 -153,-38z"/>
   <path class="fil5" d="M3887 1094c10,-8 17,-17 32,-22 11,-4 13,-3 25,-5 25,-3 46,-23 117,-14 55,6 114,23 156,57 11,9 23,16 33,23l76 82c21,30 67,118 55,150 -17,-5 -15,-13 -27,-24 -10,-10 -17,-11 -25,-22 -14,-20 -7,-15 -24,-25l-58 -37c-46,-33 -26,-17 -58,-37 -56,-36 -68,-35 -93,-50 -23,-13 -78,-29 -103,-41 -19,-8 -49,-22 -68,-26 -17,-4 -25,0 -38,-9z"/>
   <path class="fil5" d="M4568 1337c1,-17 9,-22 18,-38 23,-45 33,-39 41,-43 12,-6 46,-58 94,-90 11,-7 24,-11 37,-18 14,-8 20,-14 31,-20l47 -16c0,0 1,-1 2,-1l16 -3c10,-1 14,-3 23,-3 77,-8 203,13 244,66 -60,-2 -111,3 -165,14 -66,13 -111,26 -173,54 -13,6 -15,9 -30,14l-97 39c-25,11 -47,37 -88,45z"/>
   <path class="fil5" d="M4066 1760c-11,1 -67,-9 -83,-12 -28,-4 -50,-13 -77,-18l-80 -15c-28,-7 -51,-13 -75,-20l-233 -54c-14,-1 -25,-5 -39,-8 -35,-8 -56,-21 -114,-33 -28,-5 -49,-13 -76,-20 -48,-12 -97,-33 -137,-54 -91,-47 -40,-22 -85,-58 -26,-22 -58,-54 -46,-94 5,-17 13,-13 26,-21 14,-8 14,-13 30,-18 75,-22 244,-46 331,-54 66,-7 232,-4 234,-5 108,-14 79,5 78,53 -1,17 0,30 0,48 0,65 36,160 64,222 5,12 4,6 12,14 2,3 6,10 9,13l29 34c1,1 4,3 6,4l38 31c53,35 125,43 193,46 2,13 2,6 -5,19z"/>
   <path class="fil2" d="M3759 1325c1,-57 28,-125 64,-168l22 -29c50,-5 114,20 155,42 26,13 27,1 94,39l42 23c18,11 27,8 44,23 20,17 47,29 57,37l72 61c5,5 9,9 17,16 36,34 55,44 52,81 -2,16 -8,40 -11,55 -8,40 -31,60 -46,83 -32,50 -106,69 -121,77 -25,14 -16,6 -48,18 -27,11 -22,10 -53,14 -20,2 -34,6 -60,6 -85,1 -199,-64 -228,-149 -14,-39 -24,-29 -39,-107 -8,-38 -13,-80 -13,-118l0 -4z"/>
   <path class="fil2" d="M4540 1465c0,-49 7,-70 45,-90 37,-20 107,-60 139,-70 46,-13 16,-1 47,-19 32,-17 59,-32 95,-41 41,-11 56,-19 108,-28 37,-6 120,-14 152,-9 64,11 47,-2 87,62 17,26 25,36 36,67 8,21 15,38 21,64 15,60 16,80 4,147 -9,57 -27,78 -50,118 -13,23 -24,26 -39,45 -49,66 -154,97 -232,104 -71,6 -184,-7 -246,-49 -34,-23 -56,-32 -73,-52 -11,-14 -29,-31 -37,-47 -13,-25 -42,-93 -49,-120 -7,-28 -8,-51 -8,-82z"/>
   <path class="fil5" d="M5053 1835c2,-1 11,-3 14,-4 49,-10 92,-38 129,-72 65,-60 64,-75 99,-143l17 -64c4,-23 1,-49 5,-72 25,-3 100,33 125,42 27,10 66,24 88,41 4,3 8,5 13,9 24,19 19,8 61,41 36,28 75,50 56,96 -10,25 -14,38 -35,49 -39,28 -76,29 -126,42 -105,29 -355,49 -462,43l16 -8z"/>
   <path class="fil1" d="M1118 2142c-7,0 -4,-1 -7,-2 1,-1 7,-19 13,0 -3,2 2,1 -6,2z"/>
   <path class="fil6" d="M1127 2171c16,-8 48,-11 75,-25 18,-10 45,-11 67,-12 14,0 26,-1 40,-1 15,-1 24,-4 40,-3 28,2 106,-8 162,-8 34,0 54,-2 40,38 -9,24 -14,46 -21,67 -14,2 -18,0 -33,1 -12,1 -13,2 -28,1 -30,-3 -68,6 -86,7 -65,4 -11,-4 -83,12 -17,4 -41,5 -55,6 -21,1 -123,45 -134,53 -9,-12 -34,-87 -36,-98l52 -38z"/>
   <path class="fil3" d="M2306 2939c4,-13 11,-23 24,-25l1 -31c-22,-5 -11,-10 -34,-11 -16,0 -25,3 -38,-2 8,-27 58,-26 47,-64 -9,-33 -56,-20 -86,-29 -17,-5 -15,-20 -27,-31 -41,-39 -45,-2 -53,-114 -4,-65 46,-108 -4,-186 -24,-38 -60,-75 -96,-102 -5,-4 -7,-5 -14,-10 -1,-20 5,-21 19,-31 64,-44 70,-16 101,6 14,10 25,26 38,38 5,6 8,7 13,13 17,20 31,37 49,54 19,18 27,39 45,58 22,23 30,27 40,63 13,47 -54,124 -59,137 -17,40 -25,46 40,90 17,12 15,6 30,21 8,8 19,17 28,24l195 164c12,12 23,29 51,52 18,15 138,137 143,163 4,23 -25,50 -34,68 -11,21 -22,50 -31,72 -15,40 -19,36 -34,68l-106 151c-12,12 -9,17 -19,29 -16,21 -27,38 -42,60l-71 84c-40,45 -73,105 -110,147 -18,20 -35,27 -45,57 -7,18 -19,62 -16,84 3,25 12,54 41,55 3,-29 -22,-48 2,-104 0,0 8,-13 9,-14 8,-9 -3,-3 13,-7 7,40 16,71 26,110 6,27 29,96 13,107 -19,14 -35,-20 -57,-38 -16,-12 -13,-8 -24,-27 -10,-17 -27,-11 -64,-87 -11,-25 -21,-45 -30,-68 -11,-28 -19,-48 -30,-73 -12,-25 -16,-49 -26,-73 -13,-30 -35,-133 -33,-169 21,-4 37,-1 55,3 43,9 15,2 40,16 21,-10 9,-6 25,-21 6,-6 5,-3 11,-10 5,-7 3,-5 10,-13l73 -58c8,-5 7,-4 14,-8l61 -46c38,-37 68,-78 82,-91 14,-12 77,-79 81,-91 1,-23 -2,-50 -11,-66l-92 -129c-13,-20 -45,-72 -61,-90l-73 -75z"/>
   <path class="fil1" d="M2245 2363c5,-18 8,-51 33,-37 54,31 75,93 72,158 -20,-12 -78,-98 -105,-121z"/>
   <path class="fil1" d="M2062 2697c14,-17 14,-15 26,-36 23,-42 14,-64 3,-99 -9,-29 -16,-40 -62,-59 -41,-17 -21,-45 -5,-74 13,-22 8,-22 10,-31 2,-10 -4,-1 4,-10 12,14 25,19 38,34 47,51 53,100 38,166 -7,27 -14,111 -4,135 8,19 23,22 34,38 16,22 -4,13 14,57 8,0 61,-14 87,0 -1,23 -11,11 -23,25 -17,19 7,51 17,59 9,7 20,6 31,12l-79 78c-20,20 -6,20 -23,27 -26,-32 -1,-47 -49,-49 3,-24 -7,-56 -9,-82 -4,-57 -11,-90 -40,-137 -24,-40 -35,-12 -35,-55l27 1z"/>
   <path class="fil1" d="M443 2468l17 3c2,14 -2,17 -16,23l-1 -26z"/>
   <path class="fil6" d="M429 2741c-18,-8 -17,-15 -28,-30 -8,-11 -19,-20 -19,-40 0,-13 30,-58 39,-73 43,-73 42,-64 92,-129 19,-24 30,-35 57,-56 16,-13 40,-22 58,-30 22,-10 53,-29 54,6 2,32 -1,59 31,98 6,7 4,4 7,7 7,9 6,4 9,16 -13,9 -34,18 -47,12 -3,11 8,4 -10,14l-127 83c-13,17 -18,17 -31,31 -24,26 -57,73 -85,91z"/>
   <path class="fil2" d="M1555 3715c7,5 18,18 22,25 28,45 38,41 71,61 41,25 101,14 138,-7 25,-14 21,-16 44,-44 14,-17 22,-36 33,-56 53,-99 -13,-111 65,-111 -4,21 -8,29 -11,48 -3,16 -3,29 -5,46 -5,35 -35,98 -60,128 -21,25 -34,40 -72,56 -4,2 -38,9 -45,10 -23,1 -25,-1 -43,-8 -27,-11 -52,-5 -78,-25 -21,-15 -108,-60 -117,-92 14,-15 36,-25 58,-31z"/>
   <path class="fil3" d="M1629 3614c13,-17 12,-4 33,-29 1,0 1,-1 2,-2l34 -32c11,-10 7,-13 19,-21 16,7 47,45 58,63 31,49 12,66 37,81 27,-15 10,-40 10,-62l25 3c8,29 -15,66 -27,88 -68,131 -206,51 -212,10 14,-6 27,-11 43,-11 22,59 20,57 40,58 16,-22 3,-51 -11,-87 -5,-13 -12,-23 -21,-35 -11,-13 -18,-15 -30,-24z"/>
   <path class="fil7" d="M1478 3762c18,34 30,40 57,63 25,21 43,37 68,50l85 31c68,11 127,-13 173,-60 29,-30 71,-113 77,-155 6,-36 5,-75 10,-110 94,2 70,24 93,39 12,9 11,0 16,17 2,7 3,22 4,29 16,130 35,146 72,248 15,40 38,99 61,133 5,9 5,11 13,20 38,46 33,54 88,103 16,14 52,29 68,27 14,-8 2,-10 25,-17 16,15 29,54 38,79 5,16 5,30 12,47 35,96 36,143 61,232 18,65 23,136 28,207l8 227c-17,17 -36,28 -66,29 -26,1 -55,9 -78,13 -19,3 -66,1 -84,0 -79,-7 -38,-2 -84,7l-79 14c-27,6 -45,15 -70,22 -36,9 -50,21 -69,27 -26,9 -37,20 -60,31 -41,18 -88,41 -124,63 -20,12 -19,2 -38,3 -34,1 -144,6 -171,-9 -41,-23 -12,-96 -24,-165 -5,-28 3,-80 3,-112 1,-126 55,-202 10,-324 -10,-26 -20,-45 -29,-67 -30,-77 -74,-137 -90,-190 -5,-17 -5,-23 2,-38 8,-17 3,-15 -2,-35 -11,-34 19,-167 -60,-314 -6,-11 -29,-53 -28,-63 2,-17 63,-97 84,-102z"/>
   <path class="fil3" d="M1363 4869c1,-1 2,-1 3,-2l43 -27c38,-23 88,-34 98,-48 24,-31 -11,-38 -18,-41l-57 -45c0,-1 -3,-2 -4,-3l-12 -7c-33,-25 -62,-38 -101,-60l-71 -39c-37,-20 -86,-39 -126,-58 -8,-4 -16,-6 -25,-11 -55,-34 -40,-19 -74,-37l-71 -39c-28,-20 -31,-8 -72,-37 -19,-13 -65,-31 -13,-84 6,-6 10,-11 19,-18 12,-10 44,-29 62,-48l59 -50c25,-28 37,-32 57,-50l74 -73c29,-28 54,-38 79,-64 9,-8 9,-11 17,-19 11,-10 9,-9 18,-20 9,-11 12,-8 20,-16 5,-5 9,-14 15,-22 22,-28 1,-6 33,-40 14,-14 3,-14 41,-28 9,18 18,32 26,50 23,54 49,110 58,169 -15,14 -9,4 -17,27 -11,37 -40,53 -58,70 -27,27 -66,51 -99,74l-52 36c-65,32 -35,32 -117,52 -29,7 -39,3 -55,27 2,16 7,22 17,29 12,4 3,-9 44,-9 21,0 29,-8 48,-8 34,-1 52,21 69,36l80 60c8,5 9,5 16,10l122 94c18,18 97,74 115,102 11,19 8,13 30,13 -5,33 -17,81 -18,113 -2,42 -8,80 -8,125 -72,20 -53,51 -131,25 -12,-4 -17,-10 -23,-20 -14,-26 -34,-60 -41,-89z"/>
   <path class="fil5" d="M3003 4777c10,-10 45,-15 64,-22 42,-16 68,-18 83,-24 66,-31 107,-34 176,-54 13,-4 19,-8 30,-14 12,-6 17,-5 32,-9 40,-8 68,-14 102,-26l170 -40c51,-17 130,-25 171,-41 25,-10 11,-2 35,-6l497 -93c108,-9 66,-4 158,2 24,1 51,-4 76,-5 28,-1 55,-2 82,-4 85,-7 96,0 160,1 54,0 211,-10 250,-5 22,3 50,8 74,9 36,3 126,0 150,16 -14,21 -57,35 -69,41 -18,9 -59,22 -83,26 -78,15 -45,13 -88,24 -137,33 -84,-15 -105,-36 -6,-4 -38,-16 -47,-19 -21,-9 -36,-7 -60,-6 -109,4 -114,-10 -254,1 -35,3 -79,-1 -117,0 -39,1 -80,6 -123,6 -76,2 -120,22 -170,24l-145 21c-8,2 -12,4 -24,5 -23,3 -36,7 -56,10 -20,3 -39,3 -60,7 -33,5 -130,34 -162,36 -12,1 -19,2 -28,4 -55,13 -71,9 -134,27 -91,26 -130,24 -235,59 -16,5 -101,23 -131,34 -16,7 -6,5 -20,14 -6,3 -14,6 -19,9 -6,27 -1,45 -4,71 -13,2 -79,-9 -95,-12 -22,-3 -69,-19 -81,-31z"/>
   <path class="fil5" d="M4669 4970c-37,-8 -26,-1 -33,-13 1,-1 2,-1 3,-1 20,-6 135,0 182,2 32,1 60,5 90,5 14,0 51,-16 75,1 -8,15 -19,13 -40,16 -43,7 -93,18 -136,17l-18 -25c-16,-2 -25,5 -41,6 -30,2 -53,-1 -82,-8z"/>
   <path class="fil5" d="M3829 5062c23,-2 39,-6 58,-15l177 -33c39,-9 82,-10 126,-17 16,-2 41,-10 59,-12 29,-4 44,-11 48,17 -28,-3 -40,4 -67,6 -77,6 -152,31 -179,33 -52,3 -31,-3 -61,13l-86 21c-69,9 -23,4 -79,19l4 -32z"/>
   <path class="fil5" d="M4764 5064c-14,-4 -52,-35 -58,-51 17,2 41,-1 55,4l3 47z"/>
   <path class="fil8" d="M2221 6114c-17,-4 -45,-9 -64,-12 -27,-3 -33,-12 -54,-20 3,-36 -1,-67 1,-102 6,-104 3,-168 -8,-275 -9,-95 -1,-70 -26,-169 -4,-14 -1,-33 -6,-45 -5,-10 -3,0 -10,-17 -15,-33 -16,-76 -46,-67 -4,24 7,55 14,81 10,34 5,48 -1,85 -11,60 -29,99 -44,154 -8,27 -8,55 -17,81 -24,69 -28,186 -35,260 -13,0 -18,3 -28,8l-25 9c-21,4 -42,5 -63,6 -47,1 -202,-16 -246,-34 -18,-7 -29,-10 -51,-19 -25,-11 -27,-5 -44,-24 -1,-1 -1,-2 -2,-2 -22,-24 -28,-49 -30,-109 -1,-24 -6,-39 0,-64l13 -189c4,-109 21,-82 38,-102 -13,-39 -29,7 -10,-86 21,-103 23,-82 51,-176 8,-28 22,-55 35,-79 10,0 22,-2 32,0 9,2 9,8 22,9 24,2 28,-1 53,5 1,15 2,43 -3,57 -5,17 -15,17 -12,41 25,4 34,-9 42,-33 9,-24 6,-38 3,-66 43,2 8,2 39,-2 15,-2 32,1 47,0 37,0 52,-1 77,-19l38 -22c1,0 2,0 2,-1l70 -32c8,-2 10,-2 17,-4 21,-8 46,-32 64,-32 27,0 41,15 78,12l81 -15c58,-9 46,-24 70,-18 2,20 -21,104 16,93 22,-7 11,-74 11,-102 5,-4 -1,0 8,-4 1,-1 4,-2 5,-3 3,-1 10,-4 12,-5 16,-10 3,-8 24,-10 27,-1 37,-9 62,-6 27,2 85,-14 116,-18 6,37 19,83 30,117 7,25 2,40 3,63 1,23 6,45 7,68 4,81 -13,184 -19,268 -5,55 -4,233 6,279 6,26 1,43 4,69 3,25 8,39 8,66 0,63 20,79 30,118l-30 12c-36,16 -52,13 -88,24 -57,17 -77,1 -99,9 -51,17 -121,1 -168,-11z"/>
   <path class="fil4" d="M3409 5216c5,-11 21,-16 32,-21 9,-5 11,-3 18,-7 14,-6 4,-4 14,-10 -2,10 -7,14 -11,23 -5,10 -5,17 -10,27l-43 -12z"/>
   <path class="fil5" d="M4069 5595c3,-13 -3,-4 14,-11 26,-11 36,-7 59,-14 14,-5 22,-7 39,-10 21,-4 16,-10 34,-11 22,-2 49,-9 76,-14 15,-2 31,-1 46,-1 24,0 24,-3 32,14 -9,8 -19,8 -31,15 -22,15 -79,24 -108,32 -30,8 -63,0 -82,3 -16,3 -13,6 -42,4 -12,0 -26,-2 -37,-7z"/>
   <path class="fil3" d="M1589 6139l160 27c19,29 32,91 34,133 1,29 -4,53 -4,81 2,92 -20,133 -36,220 -4,25 -12,43 -15,70 -8,73 -26,140 -32,225 -2,29 -4,53 -2,83 0,12 4,28 7,38 16,59 24,35 37,47 2,2 12,27 14,31 11,34 -2,47 -8,73 -3,11 -4,23 -6,35 -2,13 -5,21 -9,35 -4,16 -7,18 -11,33 -5,20 1,22 -12,32 -4,-3 -79,-110 -161,-70 -7,4 -15,11 -23,13 -13,-21 -3,-11 -25,-21 -11,-4 -27,-17 -51,-19 -10,-2 -10,0 -17,4 -10,4 -20,10 -32,15 -1,-12 -3,-24 -9,-35 -7,-13 -14,-14 -21,-27 1,-1 2,-3 3,-2 0,1 2,-2 4,-3 52,-42 54,-32 75,-46 9,-6 19,-13 28,-17l55 -33c19,-13 29,-26 49,-41 18,1 -1,0 9,4 9,5 28,0 29,-1 9,-15 -9,-53 -11,-74 -3,-29 -4,-58 -7,-85l-2 -183c2,-59 7,-115 7,-176 2,-89 -28,-316 -17,-366z"/>
   <path class="fil3" d="M2234 6190c21,-4 70,-3 93,-1 41,3 52,-1 90,-2 37,146 10,113 22,213 4,30 2,84 -1,114 -4,36 -2,78 -7,111l-19 273c-1,22 -5,30 -8,51 -3,25 -19,85 -5,106 7,8 16,-5 37,22 34,43 71,84 104,138l48 73c11,16 22,24 21,42 -16,7 -29,2 -44,1 -29,47 -30,14 -59,3 -23,-9 -35,-18 -76,5 -19,11 -16,14 -27,26 -29,-25 -11,-55 -80,-72 -12,-3 -17,-6 -25,-9 -28,-8 -31,6 -57,6 9,-48 10,-95 21,-142 7,-33 39,-83 48,-116 6,-23 3,-13 11,-29 2,-6 8,-26 8,-32 2,-31 -15,-145 -22,-184l-5 -30c-1,-1 -1,-2 -1,-3l-6 -38c-20,-86 -30,-151 -45,-242 -4,-25 -26,-108 -29,-136 -5,-48 -9,-110 13,-148z"/>
   <path class="fil9" d="M1470 7056c4,-19 13,-17 25,-32l51 -59c3,-2 13,-8 15,-10 11,-11 0,-9 12,-16l3 49c-40,8 -18,7 -50,34l-56 34z"/>
   <path class="fil10" d="M2950 8099l-2 -6c-4,-19 -1,-148 0,-150l28 -22c16,-13 12,-16 24,-30 10,-10 19,-14 16,-36 -3,-26 -15,-19 -30,-25 5,-26 50,-164 64,-194l108 -240c11,-26 19,-37 30,-58 9,-20 19,-34 29,-56 5,-12 9,-21 14,-30l36 -92c11,-27 46,-90 55,-118 14,-44 42,-87 52,-124 6,-24 16,-44 30,-57 8,30 4,62 14,93l19 146c0,15 -56,133 -67,152l-38 71c-17,41 -13,27 -28,53l-41 99c-29,63 -54,124 -86,189l-113 243c-6,9 0,-2 -6,9 -18,40 -13,23 -24,45 -19,36 -54,114 -84,138z"/>
   <path class="fil3" d="M1307 7224c7,-13 23,-35 45,-21 14,8 8,11 11,27 5,29 5,3 12,23 -19,7 -52,-8 -68,-29z"/>
   <path class="fil3" d="M1483 7260c14,23 -1,56 -12,68 -66,1 -86,-71 -32,-80 12,-2 36,6 44,12z"/>
   <path class="fil3" d="M1516 7371c-12,-53 11,-59 21,-77 11,-20 12,-28 36,-28 47,-2 83,24 103,65 50,103 -81,95 -119,83 -20,-7 -36,-21 -41,-43z"/>
   <path class="fil3" d="M2654 7367c37,-27 71,19 35,24 -16,2 -34,-8 -35,-24z"/>
   <path class="fil3" d="M2422 7408c-1,-30 86,-74 91,4 1,26 -23,43 -48,41 -23,-2 -43,-28 -43,-45z"/>
   <path class="fil3" d="M2360 7422c-11,45 -50,70 -88,65 -17,-2 -45,-14 -54,-26 -30,-38 3,-74 8,-88 7,-16 4,-14 15,-25 14,-14 9,-10 30,-12 23,-2 12,-9 29,-9 15,0 37,12 50,30 17,25 18,32 10,65z"/>
   <path class="fil3" d="M2624 7419c-12,24 -82,24 -57,-31 17,-38 71,1 57,31z"/>
   <g>
    <path class="fil11" d="M4536 131c10,-85 1,-94 43,-94 81,0 220,4 295,20 41,9 41,19 26,111 -21,0 -58,-12 -82,-13 -22,0 -29,-2 -48,-4 -33,-4 -217,4 -234,-1l0 -19z"/>
    <path class="fil11" d="M4001 248c24,-18 47,-14 75,-20l239 -25c54,-3 111,-13 165,-14 58,-2 110,-8 169,-4 53,3 127,-3 175,7 27,6 55,0 76,13 23,13 12,4 34,3 34,-1 79,11 112,20 32,8 195,40 204,68 7,20 -2,-19 2,6 3,21 -27,163 -23,182 3,11 1,5 6,10 17,4 16,-19 19,-38l29 -150c10,2 33,19 40,25 3,68 -16,188 -28,251 -21,-1 -24,-4 -43,-10l-120 -24c-24,-5 -13,-7 -39,-10 -16,-2 -23,-6 -40,-9 -29,-5 -55,-8 -83,-13 -28,-4 -54,-15 -80,-20l-252 -36c-24,-3 -64,-6 -90,-11 -20,-4 -55,-3 -80,-6 -65,-8 -215,-6 -285,-1 -26,2 -62,7 -88,6 -63,-1 -117,5 -178,5 -5,-27 9,-91 14,-120 13,-71 16,-83 58,-83 -6,32 -9,70 -13,103 -4,29 -29,71 12,78l4 -9c1,-1 1,-2 1,-3 0,0 2,-10 3,-11 10,-49 40,-141 5,-160z"/>
    <path class="fil11" d="M4152 5458c110,-30 129,-21 206,-39 39,-9 33,-10 32,80 -61,1 -121,1 -177,13 -22,4 -139,36 -153,34 -5,-15 -11,-47 -8,-63l100 -25z"/>
    <path class="fil11" d="M3772 3969l0 25 124 -15c38,1 65,-5 96,-7 93,-7 206,6 303,-3 1,-21 -6,-46 -6,-68l-1 -221c-2,-96 5,-194 7,-290 0,-47 8,-90 8,-139 1,-42 3,-99 7,-139 7,-59 30,-130 34,-187l8 -64c-94,9 -221,8 -308,-18l-93 -38c-20,-13 -28,-26 -49,-37 -31,-16 -45,-61 -62,-62 -4,15 0,26 -1,43 -1,37 -12,77 -15,113 -7,77 -6,78 -18,156 -5,29 -5,53 -6,83 -1,27 -8,44 -9,73 -6,158 -30,320 -26,477 1,60 8,98 7,158l3 124c2,11 8,21 0,34 -1,0 -2,1 -3,2z"/>
    <path class="fil11" d="M3449 837c1,-15 7,-56 12,-72 11,-40 7,-142 44,-209 31,-57 364,-68 432,-68 84,1 229,-13 319,-17 51,-3 111,2 162,5 26,2 56,2 82,5 98,10 202,20 299,37l352 70 266 72 119 46c1,21 -9,46 -11,73 -1,25 -8,44 -11,69 -5,50 -29,119 -21,132 28,0 41,-81 48,-115l25 -143c71,13 28,100 17,154 -7,32 -8,57 -16,91 -11,44 -17,51 -27,79 -42,-6 -109,-38 -152,-53 -48,-17 -105,-28 -157,-45 -18,-5 -32,-11 -52,-17 -14,-5 -41,-11 -51,-18 26,-1 45,-1 71,0l66 9c31,-18 15,-21 20,-59 2,-25 7,-45 9,-70 3,-26 7,-51 14,-71 8,-24 14,-37 -3,-60 -33,-1 -8,7 -66,21l-138 38c-52,16 -78,29 -126,50 -127,56 -76,96 -213,78 -18,-3 -38,-7 -57,-10 -41,-4 -209,-31 -235,-29 -17,1 -46,4 -64,3 -77,-3 -64,-7 -117,-64 -16,-17 -80,-84 -100,-94 -47,-25 -25,-28 -56,-40 -32,-12 -46,-34 -62,-25l-41 74c-3,10 -4,16 -9,26l-35 79c-3,8 -4,24 -4,33 -76,-10 -81,6 -133,6 -49,-1 -96,3 -140,6 -72,5 -206,26 -260,23z"/>
    <path class="fil11" d="M3519 4059c27,-4 42,-10 71,-14 103,-17 291,-34 391,-35 53,0 109,-2 165,-3l243 -2c46,6 124,0 155,7 80,16 154,12 234,20 93,9 322,69 351,71 37,3 66,18 100,27 31,8 20,20 26,101 4,72 -14,132 -11,149 28,7 29,-13 36,-35 7,-20 10,-103 8,-126 -2,-21 -8,-43 -7,-60 9,1 38,23 40,42 3,21 -2,14 6,34 8,23 -4,177 -8,190 -44,6 -211,-34 -315,-24 -58,5 -108,3 -165,0 -51,-2 -111,5 -161,8 -108,7 -304,-10 -405,22 -25,8 -233,41 -288,53 -22,4 -53,5 -75,9l-278 67c-13,4 -25,3 -38,7l-100 25c-52,15 -73,24 -135,36l-203 55c-28,12 -67,18 -96,32 -10,5 -14,9 -28,12 -56,11 -69,18 -78,-8 -16,-44 -14,-52 -20,-87 -2,-10 -6,-22 -9,-32 -16,-69 -35,-244 -28,-311 1,-17 10,-58 18,-67 9,-10 46,-23 60,-13 11,15 0,85 0,110 -1,34 1,75 3,110 3,33 7,72 13,104 11,57 1,67 13,84 16,25 35,-7 36,-12 -2,-14 -7,-35 -10,-51 -2,-15 -3,-33 -7,-48 -7,-29 -7,-72 -10,-102 -5,-67 -1,-119 -4,-162 -1,-18 -5,-33 -7,-47 11,-5 54,-19 65,-20 5,58 -23,98 8,293 2,17 -1,31 6,45 6,13 18,23 34,11 10,-17 -6,-64 -10,-86 -17,-78 -11,-161 -5,-237 2,-25 6,-23 8,-42l411 -100z"/>
    <path class="fil11" d="M3379 4722c22,-13 32,-7 51,-15 43,-19 75,-17 106,-26l104 -24c20,-4 37,-1 57,-6 17,-4 33,-11 51,-14l162 -33c12,-3 18,-2 29,-4l79 -16c14,-3 315,-51 341,-49 37,2 85,-6 121,-8 24,-1 356,-9 369,2 6,6 28,81 31,98 6,43 8,75 7,121 -1,22 -5,37 -6,62 0,25 -2,40 24,40 17,-51 14,-109 15,-168 1,-49 -28,-139 -27,-152 9,0 49,12 55,17 16,12 11,38 10,59l16 6c2,50 -1,114 4,162 3,26 5,40 0,69 -2,12 -9,58 -18,64 -52,22 -227,5 -289,5 -42,1 -115,-2 -155,5 -13,2 -27,0 -40,1 -13,1 -17,4 -29,5 -71,5 -143,19 -213,23 -44,3 -87,16 -131,22 -24,3 -51,5 -75,8 -18,1 -16,6 -30,9 -65,13 -90,12 -157,34 -10,4 -23,5 -33,8l-31 8c-58,12 -57,20 -89,30l-206 64c-10,6 -20,6 -31,11 -24,11 1,7 -52,25 -25,8 -68,79 -106,-20 -4,-11 -6,-21 -9,-30 -4,-9 -9,-16 -13,-24 -9,-17 -46,-154 -51,-180 -6,-30 -16,-110 -12,-139 10,-10 35,-17 55,-19 2,11 5,13 7,23l9 75c6,34 9,63 17,97 12,46 31,147 69,156 17,-25 15,-10 2,-40l-39 -130 -29 -193c11,-4 33,-9 47,-8 -2,32 19,155 29,184l44 118c6,19 2,22 25,24 11,-40 -24,-108 -39,-158 -7,-24 -30,-157 -26,-179z"/>
    <path class="fil11" d="M4322 4980c23,-5 236,-31 246,-28 11,9 5,9 14,17 7,5 11,4 20,9 22,13 10,22 31,32 23,10 18,6 36,22 36,30 63,46 97,86 12,14 16,18 27,32l57 65c27,25 34,42 52,68l49 73c7,11 41,51 50,74 8,20 10,24 19,43 37,76 -16,347 -41,420 -21,61 -29,131 -45,197 -7,28 -19,140 -18,165 2,30 14,26 33,23 8,13 16,21 24,31 25,33 50,59 73,99 23,39 22,42 -5,75 -14,17 -51,43 -28,68 22,10 40,-63 105,-62 62,2 49,8 72,-4 32,-16 139,3 152,10 22,12 32,23 51,37 23,16 20,28 25,58 4,27 9,45 12,76 -27,0 -59,7 -83,2 -87,-15 -89,-2 -160,-15 -79,-15 -122,-2 -168,-3 -69,-1 -45,8 -100,-9 -12,-4 -17,9 -30,-43l-18 -209c-1,-16 1,-21 -1,-39 -7,-81 15,-28 11,-80 -4,-43 3,-171 8,-219 2,-13 6,-25 6,-41 2,-61 5,-116 7,-176 3,-54 13,-110 16,-165 6,-114 -4,-102 -59,-171l-117 -113c-13,-14 -36,-29 -52,-41 -10,-7 -12,-13 -22,-21 -11,-8 -18,-10 -29,-19l-150 -125c-11,-11 -11,-14 -22,-22 -14,-10 -37,-31 -45,-47 -10,-19 -9,-13 -23,-24 -15,-12 -9,-14 -19,-26l-25 -23c-10,-10 -30,-40 -33,-57z"/>
    <path class="fil11" d="M3257 6484c13,48 -2,134 -6,186 -5,61 -12,121 -19,182 -5,44 -11,85 -25,127 -5,16 -9,12 -16,35 -6,19 -20,27 -36,38 -4,2 -13,7 -17,9 -11,5 -69,21 -81,19 -1,-43 82,-135 18,-131 -9,22 -18,43 -27,66 -7,22 -27,28 -31,60 -48,-4 -64,-13 -100,-26l-28 -16c2,-31 77,-107 43,-137 -9,-5 -3,-6 -17,-2 -22,7 -12,27 -20,48 -10,22 -23,34 -32,60 -23,-12 -34,-57 -28,-77 2,-8 4,-5 7,-17 3,-7 3,-12 6,-20 8,-23 16,-25 25,-42 2,-4 2,-5 4,-10 13,-25 9,-9 27,-53 19,-45 63,-110 78,-139 5,-12 10,-24 18,-34 3,-3 9,-10 12,-13 0,-1 1,-2 1,-2l4 -8c21,-35 55,-38 75,-46 40,-16 55,3 85,-25l14 -159c2,-12 -2,10 1,-6 10,-65 17,-161 28,-210 6,-29 12,-60 17,-87 4,-28 14,-59 19,-87 3,-18 17,-123 24,-133 5,-8 11,-4 16,-39 11,-80 68,-246 100,-322 16,-37 13,-69 39,-116l41 -119c5,-12 2,-8 6,-20 5,-16 17,-25 22,-58 54,-9 76,-30 140,-43 16,-3 53,-10 69,-17 9,-4 6,-5 14,-8 6,-2 10,-2 17,-4 16,-5 18,-9 40,-12 -5,35 -41,95 -63,124l-51 74 -149 287c-8,14 -12,29 -19,43l-45 81c-16,29 -74,187 -83,224 -9,35 -21,64 -30,95 -15,50 -71,253 -78,296 -3,24 -7,30 -12,50 -5,17 -5,37 -8,55 -1,8 -2,16 -4,26 -5,32 -37,48 15,53z"/>
    <path class="fil11" d="M3788 5443c12,-25 -21,-133 -27,-163 -15,-64 -16,-52 2,-79 53,-79 -8,-52 118,-83 65,-16 286,-65 338,-62 21,1 19,9 39,-5 4,-3 1,-14 41,-5 30,6 35,28 52,51 7,9 18,14 26,25 50,60 96,96 156,145 11,9 19,10 29,19 21,16 31,29 53,45 -3,16 -6,20 -11,32 -38,1 9,-6 -40,4 -4,0 -7,1 -11,1l-99 2c-30,-1 -43,5 -70,9 -23,3 -47,5 -73,9 -23,3 -48,7 -67,12 -14,3 -25,1 -36,5 -13,3 -15,7 -29,9 -27,3 -42,8 -65,18 -19,8 -41,8 -62,14 -149,35 -136,35 -284,22 -33,-3 -40,-4 -49,-33 -8,-28 -39,-102 -29,-126 6,-14 18,-41 30,-47 11,18 19,78 25,103 6,30 7,82 43,78z"/>
    <path class="fil11" d="M4523 1337l-41 -10 0 0c-24,0 -53,-11 -75,-12 5,55 15,113 0,173 -3,14 -3,25 -6,37 -3,6 -11,28 -14,33 -37,69 -77,101 -150,134 -12,6 -17,7 -32,12 -16,5 -21,12 -31,16 -25,8 -54,14 -77,19 4,63 -1,39 -11,69 -17,59 -48,139 -58,195l-34 131c-2,10 -8,23 -10,30 -3,11 -6,26 -8,37l-14 71c8,7 15,13 23,21 17,15 26,35 41,51l45 46c7,8 2,5 9,13 7,7 8,6 15,11 20,16 3,10 32,14 22,3 17,7 38,6 42,-2 85,-2 127,-9 25,-4 93,-22 108,-32l31 -17c23,-8 10,-9 28,-20 -12,-112 13,-146 41,-240 13,-44 37,-91 41,-102 15,-54 8,-47 35,-108l29 -67c9,-19 28,-48 33,-63l-47 -49c-6,-8 -8,-9 -14,-18 -39,-55 -38,-71 -59,-132 -4,-10 -3,-15 -7,-26 -5,-12 -7,-7 -9,-24 -4,-37 1,-88 4,-125 1,-22 9,-44 17,-65z"/>
    <path class="fil11" d="M4496 1302l38 6c0,-1 1,-3 1,-4 6,-20 36,-57 53,-76 29,-32 52,-53 84,-73l62 -38c17,-11 10,-17 37,-26 40,-13 119,-36 158,-32 22,3 28,7 53,8 32,1 43,7 68,14l9 2c27,12 58,33 81,52 19,15 17,9 36,30 8,9 9,7 18,15 11,10 19,18 28,34l47 81c11,20 14,23 20,47 8,37 22,66 23,105 18,-6 36,2 55,7 7,1 18,5 26,7l75 32c65,29 72,27 136,73 18,13 28,18 41,28 14,11 24,27 42,31 23,-42 48,-175 52,-234 3,-50 43,-180 10,-209 -8,-7 -14,-10 -25,-11 -6,20 -14,114 -17,147l-25 142c-8,26 -15,100 -51,86 -21,-8 6,-59 13,-95 9,-44 17,-101 30,-146l23 -152c-12,-9 -27,-12 -40,-18 -26,-11 -54,-27 -82,-35l-194 -71c-67,-22 -246,-81 -307,-83 -16,-1 -36,-4 -52,-6 -76,-10 -22,-39 -169,-9 -21,4 -48,4 -66,8 -23,6 -32,20 -60,7 -5,-22 1,-22 7,-38 23,-1 29,-2 43,-16l-18 -8c-25,-6 -49,-5 -74,-10 -15,-3 -34,-3 -51,-4 -22,-2 -28,-6 -49,-10 -22,-5 -29,-2 -50,-5 -51,-6 -11,-12 -96,-7 -18,1 -41,-1 -60,-1 1,11 3,20 8,28 8,14 3,6 19,14 27,12 42,14 45,25 8,26 -5,37 -29,29 -13,-5 -14,-13 -45,-26l-97 -37c-33,-11 -78,-19 -111,-30 -47,-15 -55,-23 -104,-17 -16,1 -52,1 -68,-1 -95,-14 -450,28 -563,46 -35,5 -83,9 -118,16 -43,9 -128,23 -168,39 -28,11 -77,14 -104,35 -15,12 -15,25 -20,50 -11,62 -5,70 -8,127 -3,46 -9,85 -9,132 0,21 -3,31 2,52 15,-3 19,-12 34,-17 37,-11 85,-26 121,-32l231 -30c59,-14 84,-4 145,-7 33,-1 139,-5 172,3l16 4c13,0 19,-42 25,-53 17,-31 36,-65 61,-86 45,-39 28,-40 84,-63 101,-43 27,-14 118,-29 19,-3 9,-5 29,-5 11,1 20,-1 31,3 12,4 12,8 26,9 64,6 36,7 88,24 19,6 30,15 44,29 15,14 31,21 46,31 4,3 76,82 84,100 6,15 6,11 13,24 37,67 -8,38 86,61 12,2 24,3 33,7z"/>
   </g>
   <path class="fil1" d="M1861 3116c8,34 21,33 -5,69 -35,48 -88,44 -136,55 -22,4 -19,5 -39,0 -14,-4 -29,-1 -45,-3 -46,-4 -19,1 -85,2l-169 15c-13,3 -27,6 -39,10 -11,2 -37,16 -68,23l-160 68c-6,3 -2,0 -6,4 -12,9 -7,13 -27,21 -23,10 -20,3 -64,27 -42,24 -27,15 -66,29 -45,17 -76,21 -107,-11 -23,-23 -8,-55 -13,-62 -25,15 -25,43 -16,75 4,16 11,14 22,28 11,15 7,17 26,21 53,11 83,-13 101,-19 30,-10 14,-1 54,-19l26 40c10,16 65,41 81,47 56,21 159,-7 218,-23 78,-21 61,-22 94,-34 13,-4 18,-2 29,-5 20,-5 3,-12 64,-31 13,-4 31,-17 38,-24 34,-34 52,-35 68,-60 41,-63 47,-24 50,-79 29,-3 97,-6 121,-19 11,-5 60,-10 78,-57 9,-24 21,-43 16,-74 -9,-10 -22,-19 -41,-14z"/>
   <path class="fil2" d="M1335 3371c-9,-12 -18,-32 -14,-54 3,-13 5,-9 20,-13l141 -21c5,9 15,27 10,38 -18,21 -121,50 -157,50z"/>
   <path class="fil2" d="M1145 3384c136,-75 112,-54 126,-17 13,34 -24,35 -57,49 -56,24 -65,18 -69,-32z"/>
   <path class="fil1" d="M1219 2725c11,45 6,8 19,48l23 42c10,16 20,23 31,39 12,17 18,20 36,30 29,17 48,35 83,48 43,15 110,7 141,-7 8,-3 1,0 7,-4l55 -33c32,-23 41,-40 62,-70 24,-35 34,-39 42,-90 11,-73 -8,-126 -35,-188 -5,-13 -33,-43 -45,-54 -33,-30 -81,-65 -126,-72 -48,-6 -65,-13 -120,-4 -69,11 -148,50 -184,112 -24,42 -1,154 11,203z"/>
   <path class="fil3" d="M1276 2510c12,-25 28,-24 36,-27 12,-5 5,-5 21,-13 18,-8 56,-17 72,-18 11,-1 48,-4 55,-3 7,0 51,5 55,6 25,10 99,48 106,73 -35,-15 -33,-16 -74,-24 -9,-2 -14,-1 -24,-3 -5,-1 -14,-4 -20,-5l-146 -1c-15,1 -24,6 -40,7 -21,3 -25,7 -41,8z"/>
   <path class="fil2" d="M1566 2551c28,5 57,8 83,20 25,11 39,87 38,113 -3,60 -5,43 -23,81 -9,18 -40,63 -54,75 -19,18 -38,23 -47,30 -45,34 -122,45 -165,14 -55,-40 -61,-38 -110,-95 -51,-84 -30,-66 -45,-110 -14,-43 -8,-122 -1,-127 1,-1 75,-13 88,-16 43,-10 149,-2 194,5 21,3 22,7 42,10z"/>
   <path class="fil1" d="M1086 3183c1,-37 -13,-20 -42,-29 -35,-11 -27,-31 -19,-48 29,-63 57,-126 52,-200 -2,-33 -16,-77 -31,-100 -14,-19 -12,-30 -26,-43l-34 -32c-80,-55 -89,-38 -148,-54 -57,-15 -137,20 -188,43 -117,57 -92,216 -60,314 27,80 102,140 186,150 147,16 142,-35 214,-42 7,19 1,13 15,25 28,25 52,26 81,16z"/>
   <path class="fil3" d="M593 2876c-2,-17 0,-21 4,-43 5,-39 54,-58 71,-76 14,-14 19,-8 35,-17 33,-17 83,-30 122,-23 -11,11 -13,9 -25,13 -8,3 -2,0 -8,4l-33 15c-10,5 -17,15 -26,21l-111 84c-24,18 -8,16 -29,22z"/>
   <path class="fil2" d="M1041 2950c-6,29 -9,56 -24,86l-23 31c-10,15 -42,49 -55,56 -38,18 -64,26 -107,23 -24,-2 -81,8 -114,-19 -46,-39 -38,3 -102,-119 -48,-91 26,-119 71,-167l62 -48c34,-28 36,-23 65,-44 16,-12 22,-10 35,-21 18,-14 43,-2 77,15 69,36 73,46 104,116 11,25 17,62 11,91z"/>
   <path class="fil1" d="M3626 3679l22 -1c15,-63 -2,-148 -11,-211 -14,-91 -8,-340 -5,-451 1,-39 21,-198 13,-222 -39,-14 -27,37 -29,90 -4,84 -11,135 -13,228 0,39 -4,79 -5,117 0,138 7,213 22,343 9,78 -10,77 6,107z"/>
   <path class="fil1" d="M1488 1509c8,9 5,-1 16,14 21,26 24,16 66,22 28,5 78,-3 107,-7 -1,20 -6,17 -10,33 33,27 91,-3 166,9 3,24 -9,37 -9,60 40,25 21,1 109,16 95,16 43,42 81,56 5,-7 3,1 5,-13 2,-13 -3,-29 -9,-40 -11,-19 -15,-16 -39,-24 -22,-6 -24,-7 -51,-10 -21,-3 -38,-6 -60,-6 2,-26 12,-27 9,-58 -23,-17 -27,-12 -68,-13 -27,-1 -50,2 -80,3 2,-6 32,-61 -1,-63 -11,0 -12,4 -26,13 -36,21 -131,21 -138,15 -1,-1 -1,-3 -1,-2l-1 -11c0,-14 6,-27 -3,-49l-32 -5c-8,12 -30,49 -31,60z"/>
   <path class="fil1" d="M1089 3087c-27,17 -12,55 0,76 21,39 72,48 113,40 41,-8 122,-26 149,-64 10,-13 7,-31 14,-38 8,-7 26,3 41,1 34,-5 95,-21 103,-55 5,-21 11,-80 -12,-91 -9,4 -4,0 -9,8 -20,34 20,73 -58,96 -17,5 -33,6 -52,3 -2,-31 7,-60 -26,-63 -29,68 -56,223 -210,161 -52,-21 -20,-46 -53,-74z"/>
   <path class="fil1" d="M5815 1377c35,13 38,-79 41,-106l15 -144c0,-14 -12,-48 -19,-59 -16,-28 -87,-63 -118,-76 -52,-21 -15,-42 -6,-81 5,-22 15,-49 12,-69 -37,-25 -31,19 -41,47 -10,28 -18,51 -28,78 -7,20 -16,21 -11,36 11,31 142,26 168,102 9,29 7,61 3,88l-15 145c-5,35 -12,11 -7,30 4,16 0,4 6,9z"/>
   <path class="fil1" d="M4753 5718c-4,40 18,31 26,62 16,58 -26,156 -46,219l-56 262c-4,27 -4,17 -13,35 2,11 10,28 25,27 18,-1 15,-19 19,-37 7,-30 14,-63 19,-92 9,-57 22,-126 38,-177 19,-57 73,-197 47,-258 -20,-47 -32,-51 -59,-41z"/>
   <path class="fil1" d="M2140 5663c16,51 22,121 23,178 0,32 1,61 8,89 8,35 12,53 38,58 9,-22 7,-11 0,-37 -15,-60 -13,-67 -15,-132 -3,-119 -41,-293 -97,-398l-31 -44c-18,-11 -24,15 -24,16 0,12 18,35 26,46 12,19 23,44 31,67 19,53 28,112 41,157z"/>
   <path class="fil1" d="M2949 1641c-33,-23 -7,4 -42,-42 -39,-50 -46,-144 -44,-209 2,-59 11,-102 18,-156 4,-30 30,-124 23,-146 -49,-4 -39,27 -41,54 -7,80 -35,126 -34,267 1,93 14,168 68,233 1,2 11,13 12,14 2,2 2,2 6,5 1,0 9,3 11,4 25,6 25,-4 23,-24z"/>
   <path class="fil1" d="M2746 4944c-18,-2 -5,-4 -25,-6 -16,55 7,107 20,162 25,108 30,245 27,358l-6 137c6,42 55,31 43,6 -8,-17 -13,7 -12,-35 1,-30 1,-64 4,-94 3,-47 2,-138 -3,-187 -5,-62 -12,-115 -20,-174 -9,-58 -28,-101 -28,-167z"/>
   <path class="fil1" d="M3469 6298c6,-38 1,-82 15,-153 16,-79 39,-157 71,-230 22,-50 6,-29 36,-93 11,-26 24,-36 23,-66l-30 0c-8,16 -16,49 -24,68l-36 100c-12,23 -32,80 -38,105 -6,25 -12,47 -19,72 -4,17 -6,19 -9,39 -2,14 -5,26 -7,40 -5,26 -7,56 -10,81 -4,30 -15,67 28,37z"/>
   <path class="fil1" d="M1325 5974l7 -324c1,-37 17,-214 32,-253 6,-16 9,-15 -3,-26 -39,12 -2,33 -36,87 -10,16 3,6 -1,29 -8,37 -10,19 -14,75 -3,33 -7,48 -7,85l-1 264c1,19 0,65 23,63z"/>
   <path class="fil1" d="M4445 3748l22 1c30,-42 14,-54 14,-108 0,-124 -4,-125 7,-258 1,-19 17,-114 4,-122 -25,-15 -32,11 -30,30 1,26 -2,42 -3,66 -6,98 -11,161 -10,261 0,22 3,49 2,69 -1,17 -11,45 -6,61z"/>
   <path class="fil1" d="M1684 5020c10,-6 6,-1 10,-17l15 -69c5,-32 11,-67 14,-99 20,-188 5,-297 -96,-449 -7,-10 -14,-27 -20,-34 -7,-8 -10,-6 -15,-15 -4,-5 -2,-4 -6,-9 -7,-8 1,-3 -9,-7 -11,10 -1,23 5,33 8,13 11,22 19,36l59 106c14,37 34,63 42,123 15,110 4,201 -9,306l-9 95z"/>
   <path class="fil1" d="M1045 3988c16,-6 1,4 11,1l12 -10c9,-10 14,-18 14,-35 -33,-16 -39,12 -39,13 -19,28 -50,40 -71,68 -39,50 -66,44 -119,123 -16,24 -81,87 -30,103 24,7 26,-27 31,-35l42 -62c10,-16 34,-42 52,-54l86 -90c11,-13 3,-9 11,-22z"/>
   <path class="fil1" d="M3201 1464c19,11 27,7 44,24 15,16 18,19 41,29l91 44c37,15 69,17 110,27l78 24c11,5 18,11 22,-2 12,-32 -35,-34 -84,-49 -38,-12 -71,-19 -107,-33 -48,-20 -22,-1 -69,-30 -2,-2 -57,-24 -93,-47 -10,-6 -16,-7 -29,-3l-4 16z"/>
   <path class="fil1" d="M1528 5889c-5,-94 2,-129 8,-217 2,-34 22,-90 -20,-75 -1,3 -2,36 -4,48 -3,18 -7,31 -9,49 -4,34 -8,67 -9,103l0 172c2,13 18,28 33,17 8,-6 5,-8 6,-23 2,-22 1,-7 -3,-18 -5,-15 -1,-39 -2,-56z"/>
   <path class="fil1" d="M4740 1593c29,-63 -105,-113 -117,-25 -2,18 -2,43 6,55 21,30 60,22 89,7 12,-6 11,-14 22,-37z"/>
   <path class="fil1" d="M149 2092c-29,20 -96,-4 -127,26 1,19 18,38 36,40 5,-10 3,-14 2,-27 23,0 112,-5 123,-25 14,-27 -2,-38 -24,-46 -33,-13 -33,-36 -28,-42 14,-9 55,-9 76,-13l3 -31c-23,-9 -6,-11 -56,5 -16,5 -42,10 -49,24 -7,14 -8,48 0,60 8,13 33,13 44,29z"/>
   <g>
    <g>
     <path class="fil1" d="M4172 1777c-34,-7 -35,36 -44,87 -10,56 -20,60 -33,97 -11,33 -16,67 -24,104 -4,18 -29,93 -15,103 34,23 44,-64 46,-83 3,-18 7,-39 10,-56 9,-41 31,-105 43,-148 6,-20 24,-89 17,-104z"/>
     <path class="fil1" d="M4055 2245c11,-9 18,-15 20,-32 -17,-19 -33,-11 -43,7 3,16 9,21 23,25z"/>
    </g>
    <g>
     <path class="fil1" d="M3811 3649c11,2 19,1 27,-2 6,-16 18,-261 20,-297 2,-83 58,-446 37,-479 -29,-1 -16,28 -22,82 -3,26 -5,75 -13,97 -15,44 -19,137 -26,190 -2,18 -2,30 -4,47 -1,18 -4,29 -5,52 -1,34 -6,67 -6,103 -1,57 -19,154 -8,207z"/>
     <path class="fil1" d="M3977 3068c0,-41 13,-120 7,-154 -18,-2 -22,4 -23,21 -1,20 -4,22 -8,39 -4,17 -6,67 -7,87 -1,20 -12,76 12,75 30,0 19,-44 19,-68z"/>
     <path class="fil1" d="M3848 3852c25,-3 17,-25 15,-50 0,-12 -3,-20 -2,-32 3,-18 6,-15 2,-35 -55,-20 -37,41 -30,85 4,20 1,23 15,32z"/>
    </g>
   </g>
   <path class="fil1" d="M3968 1481c-93,-44 -132,21 -109,76 3,9 -3,12 38,17 59,6 88,-38 71,-93z"/>
   <path class="fil1" d="M2023 3004c19,-44 -11,-230 -60,-281 -13,-14 -12,-14 -29,-4 1,25 25,44 32,71 12,51 28,120 26,171 -1,13 -5,32 2,42 6,9 24,13 29,1z"/>
   <path class="fil1" d="M5118 5066c25,-6 31,-12 26,-69 -4,-55 -12,-175 4,-226 7,-22 11,-13 9,-40 -38,-22 -33,13 -40,45 -10,47 -9,156 -4,205 1,19 7,29 0,47 -7,18 -13,21 5,38z"/>
   <path class="fil1" d="M3212 5670c34,2 23,-34 66,-117 8,-14 14,-19 20,-28 4,-7 48,-92 28,-105 -11,-8 -26,1 -31,10 -8,13 -7,25 -11,38 -7,23 -22,44 -31,64 -6,13 -8,24 -13,35 -5,11 -8,22 -13,34 -10,24 -27,44 -15,69z"/>
   <path class="fil1" d="M3193 1264c8,-57 -22,-23 -7,-135 3,-25 4,-47 10,-71 5,-23 2,-47 -26,-38 -5,3 -9,24 -10,30 -9,53 -24,127 -6,177 6,17 15,40 39,37z"/>
   <path class="fil1" d="M1855 6851c11,4 50,-6 67,-8 46,-4 112,-8 158,-4 43,4 26,28 52,23l3 -30c-36,-33 -103,-24 -149,-21 -30,2 -53,3 -82,7 -34,4 -61,-11 -49,33z"/>
   <path class="fil1" d="M3093 996c-16,0 -17,6 -20,24 -4,25 -3,89 -5,122 -2,33 -10,136 16,148 43,21 16,-38 13,-49 -14,-49 13,-222 -4,-245z"/>
   <path class="fil1" d="M3242 1142c0,53 -3,103 42,114 15,-36 -1,-24 -7,-49 -14,-59 16,-162 -8,-195 -34,0 -28,23 -27,49 2,27 0,54 0,81z"/>
   <path class="fil1" d="M3370 1221c14,-42 -28,-1 -15,-127 2,-20 19,-148 -23,-102 -10,10 -12,114 -11,131 1,23 4,112 49,98z"/>
   <path class="fil1" d="M3540 776c21,-20 6,-29 6,-60 1,-73 56,-181 6,-169 -20,5 -14,40 -18,56 -11,36 -43,158 6,173z"/>
   <path class="fil1" d="M4905 1982c12,10 244,24 283,24l96 -4c1,-1 2,-1 3,-2 -27,-17 -28,-8 -84,-14 -53,-5 -229,-11 -260,-19 -9,-2 -9,-4 -18,-6 -2,2 -8,11 -8,12 -10,8 9,-8 -5,2 -6,4 -2,-7 -7,7z"/>
   <path class="fil1" d="M3625 771c21,-46 -20,2 2,-111 15,-76 18,-43 13,-112 -45,2 -30,41 -46,112 -8,36 -16,105 31,111z"/>
   <path class="fil1" d="M2263 3661c1,0 2,-2 2,-2 0,1 1,-2 2,-2l13 -19c2,-3 2,-4 5,-6 38,-50 40,-44 77,-84 11,-12 26,-24 38,-36l74 -69c29,-30 63,-33 75,-71 -47,2 -187,156 -240,208 -13,13 -23,27 -33,39 -13,16 -34,28 -13,42z"/>
   <path class="fil1" d="M516 3504c12,-20 -28,-86 -23,-163 3,-55 -4,-30 -7,-53 -31,3 -30,4 -29,51 0,35 6,39 12,67 5,24 10,114 47,98z"/>
   <path class="fil1" d="M1115 4202c26,-2 12,-5 34,-25l30 -32c28,-31 50,-49 73,-78 28,-35 99,-80 101,-115 -29,3 -161,149 -200,192 -17,18 -35,27 -38,58z"/>
   <path class="fil1" d="M2978 6784c15,4 7,3 24,1 11,-1 20,-2 31,0 37,5 61,16 96,29 38,15 17,5 30,33l27 -2c8,-25 1,-43 -19,-51 -42,-17 -124,-42 -168,-34 -17,3 -20,7 -21,24z"/>
   <path class="fil1" d="M3404 1021c1,62 -10,156 34,183 11,7 7,7 20,2 6,-24 -6,-20 -14,-41 -8,-18 -7,-36 -7,-56 -1,-62 15,-91 -14,-103 -9,4 -11,7 -19,15z"/>
   <path class="fil1" d="M1486 2767c-60,21 -38,109 20,87 22,-9 42,-23 34,-57 -5,-23 -37,-36 -54,-30z"/>
   <path class="fil1" d="M804 3086c12,54 97,34 78,-35 -6,-18 -28,-42 -54,-28 -14,8 -29,42 -24,63z"/>
   <path class="fil1" d="M3799 355l15 1c11,-22 3,-76 11,-111 5,-17 9,-32 14,-49 9,-29 6,-33 -23,-33 -20,35 -29,171 -17,192z"/>
   <path class="fil1" d="M2528 5526c23,-19 -22,-52 -61,-43 0,-29 -2,-19 -22,-28 -13,-6 -13,-15 -24,-26l-20 3c-10,24 -6,34 14,45 27,14 8,19 47,19 4,15 7,23 25,26 17,3 31,10 41,4z"/>
   <path class="fil1" d="M5628 404c-4,45 9,15 -11,88 -3,11 -5,31 -10,38 -8,13 -19,9 -19,32 55,23 53,-82 64,-116 5,-17 11,-28 8,-51 -14,-4 -23,3 -32,9z"/>
   <path class="fil1" d="M4069 261c-17,16 -25,106 -23,125 2,16 28,52 32,-33 1,-23 22,-65 20,-76 -1,-10 -14,-30 -29,-16z"/>
   <path class="fil1" d="M3678 546c-10,21 -6,13 -7,37 -3,41 -22,85 10,93 19,4 16,-7 17,-22 3,-34 17,-77 2,-110l-22 2z"/>
   <path class="fil1" d="M3474 1032c-10,9 -13,160 28,134 8,-6 5,-7 4,-15 -8,-59 -2,-89 -5,-105 -1,-14 -14,-27 -27,-14z"/>
   <path class="fil1" d="M3754 551c0,0 -25,107 7,107 24,1 26,-90 22,-108 -12,-5 -16,-8 -29,1z"/>
   <path class="fil1" d="M4128 360l22 -7c-2,-39 31,-96 -8,-109 -30,34 -6,25 -19,61 -10,28 -14,36 5,55z"/>
   <path class="fil1" d="M4223 345c13,-24 5,-38 13,-63 9,-26 11,-67 -14,-55 -12,5 -47,118 1,118z"/>
   <path class="fil1" d="M2335 5384c9,22 13,49 47,37 4,-23 -9,-26 -14,-48 -6,-29 -2,-24 -20,-42 -19,0 -29,-4 -27,22 1,16 10,19 14,31z"/>
   <path class="fil1" d="M4279 244c-4,20 -6,35 -10,52 -4,19 2,38 20,42 15,-1 30,-77 19,-104 -17,0 -16,2 -29,10z"/>
   <path class="fil1" d="M1914 2533c8,18 27,49 50,44 2,-16 -2,-23 -9,-34 -41,-60 -25,-57 -34,-84 -5,-16 1,-7 -10,-10 -16,13 -5,65 3,84z"/>
   <path class="fil1" d="M1335 6242c19,-9 14,-32 14,-60 0,-24 9,-65 -15,-56 -27,11 -19,68 -14,89 5,19 3,20 15,27z"/>
   <path class="fil1" d="M2303 5199c-10,27 -19,15 -7,51 6,19 -2,57 22,56 22,-2 14,-38 12,-56 -4,-32 3,-39 -27,-51z"/>
   <path class="fil1" d="M3841 642c18,-5 25,-30 27,-51 3,-30 9,-54 -25,-49 -13,20 -24,87 -2,100z"/>
   <path class="fil1" d="M3553 1144c10,-10 3,-11 2,-17 -8,-27 4,-37 -1,-77 -36,-29 -36,8 -33,38 2,16 8,77 32,56z"/>
   <path class="fil1" d="M2066 1824c12,9 17,6 21,22 4,15 0,27 3,42 36,10 41,-88 -4,-92 -17,-2 -19,13 -20,28z"/>
   <path class="fil1" d="M1506 5509c12,1 65,-15 76,-19 -1,-18 5,-34 -13,-37 -15,-3 -17,7 -29,13 -16,10 -54,13 -34,43z"/>
   <path class="fil1" d="M4337 317l18 12 14 -10c1,-16 -2,-9 -1,-20 0,-5 4,-15 6,-22 3,-13 12,-38 -8,-40 -31,-3 -31,56 -29,80z"/>
   <path class="fil1" d="M1636 5354c-15,14 -69,88 -16,75 15,-4 28,-22 35,-39 14,-30 -8,-30 -19,-36z"/>
   <path class="fil1" d="M3906 623c24,-8 20,-22 28,-46 7,-23 11,-46 -23,-40 -14,25 -14,60 -5,86z"/>
   <path class="fil1" d="M1805 5034c31,-1 57,-23 40,-47 -18,10 -3,14 -36,17 -23,2 -33,-2 -32,22l28 8z"/>
   <path class="fil1" d="M5117 5163c11,3 17,6 27,6 20,-20 16,-55 -23,-54 -13,23 -10,23 -4,48z"/>
   <path class="fil1" d="M4427 293c6,-24 5,-44 0,-67 -20,5 -34,9 -30,34 3,18 6,36 30,33z"/>
   <path class="fil1" d="M3140 5829c38,-6 40,-41 4,-51 -20,15 -25,35 -4,51z"/>
   <path class="fil1" d="M2769 5760c25,13 41,-7 41,-29 -24,-14 -58,-19 -41,29z"/>
   <path class="fil1" d="M5819 1520c22,-1 16,1 26,-12 8,-11 11,-11 14,-25 -8,-7 -25,-16 -38,-9 -10,7 -4,36 -2,46z"/>
   <path class="fil1" d="M3020 1751l14 4 24 -21c-6,-18 -11,-30 -34,-23 -18,6 -10,26 -4,40z"/>
   <path class="fil1" d="M3584 1123c12,-6 13,-14 14,-29 2,-16 -3,-21 -10,-32 -39,13 -18,54 -4,61z"/>
   <path class="fil1" d="M2227 6087c16,-23 12,-45 -23,-44 -7,17 -10,18 -5,39 8,3 16,7 28,5z"/>
   <path class="fil1" d="M4690 6440c11,-29 2,-44 -28,-41 -15,25 -5,47 28,41z"/>
   <path class="fil1" d="M5665 624c8,-13 8,-24 1,-33 -13,-7 -23,-6 -39,-1 -5,24 14,38 38,34z"/>
   <path class="fil1" d="M734 4333l0 19c14,7 15,9 33,8 4,-13 7,-23 6,-42 -28,1 -16,-4 -39,15z"/>
   <path class="fil1" d="M5380 2022c2,2 10,6 11,6 8,5 -2,3 13,6 39,-32 -27,-81 -24,-12z"/>
   <path class="fil1" d="M1577 5576c6,-10 7,-24 8,-37l-11 -12c-9,5 -16,9 -23,17 -1,26 -2,35 26,32z"/>
   <path class="fil1" d="M3952 583c22,0 32,-17 23,-41 -34,-10 -38,21 -23,41z"/>
   <path class="fil1" d="M3613 3828c17,4 22,3 34,-4 2,-19 -3,-32 -22,-31 -22,0 -15,19 -12,35z"/>
   <path class="fil1" d="M4480 264c13,19 39,38 37,1l-1 -14 -21 -8 -15 21z"/>
   <path class="fil1" d="M1489 455c-2,-14 3,-9 -9,-9 2,10 -1,6 9,9z"/>
   <path class="fil1" d="M2150 2000c3,5 -1,7 9,4 -3,-8 0,-8 -9,-4z"/>
   <path class="fil12" d="M2868 6765l-10 0 0 -1c-2,0 -6,0 -14,0 -25,2 -51,-3 -74,-6 -40,-5 -222,-7 -263,-1 -30,5 -21,-3 -45,-2 -13,36 -13,151 -20,201 -3,19 -6,45 -7,64 16,7 8,1 17,16 26,45 62,84 91,129 33,49 64,107 98,155 44,-6 93,-4 97,51 6,69 -66,53 -78,52 -24,56 -81,56 -125,32 -13,16 -6,18 -28,27 -27,10 -65,8 -89,-9 -19,-14 -12,-23 -26,-28 -29,44 -11,39 -72,74 -21,13 -35,13 -58,4 -20,-7 -38,-7 -54,-20 -29,-24 -50,-65 -36,-103 7,-21 6,-39 17,-56 8,-13 23,-29 33,-39l-19 -8c0,-23 9,-37 9,-77 -1,-51 18,-111 40,-155 0,-1 0,-2 1,-2l11 -19c2,-2 6,-8 7,-10 10,-20 2,-20 5,-40 3,-15 9,-14 10,-30 5,-34 -9,-206 -26,-220 -25,-9 -104,-9 -129,-4 -24,5 -103,7 -132,7 -24,0 -41,4 -63,6 -16,1 -17,-2 -30,0 -26,3 -67,3 -89,14 -17,9 -37,-4 -40,22 -20,-1 -11,-2 -27,-7 -11,18 -9,48 -12,67 -4,24 -5,41 -6,67 -5,113 -4,51 31,111 45,79 30,98 13,180 -8,37 -10,29 -18,55 -22,74 -7,142 -80,184l-62 15c-12,1 -12,-2 -27,-4 -38,-3 -73,-13 -97,-45 -5,-6 -18,-44 -19,-53 -32,0 -47,-3 -68,-18 -29,-21 -22,-36 -33,-47 -13,-13 -64,-6 -92,-43 -10,12 -9,4 -23,16 -16,13 -89,93 -116,112 -12,9 -37,40 -56,57 -25,20 -50,52 -73,77 -12,13 -9,3 -20,17l-54 61c-23,29 -49,49 -71,82l-32 41c-14,14 -29,24 -38,39 -11,19 -19,25 -32,42 -21,29 -47,52 -45,104 10,11 11,9 22,21 33,39 86,64 131,89l54 30c10,6 49,20 64,24l67 21c10,3 18,9 30,14 23,10 44,13 68,21 25,9 57,12 67,17 36,18 73,15 111,22 58,11 136,15 195,14 13,0 26,3 41,3 28,0 59,-1 88,-2 29,-2 57,-1 83,-4 23,-3 49,-7 75,-9 31,-2 51,0 84,-4 21,-3 18,0 36,-1l121 -11c28,-4 43,-9 71,-14 46,-9 104,-14 151,-24 131,-26 412,-76 499,-111 12,-5 22,-6 32,-11 10,-5 14,-12 25,-19 23,-16 29,-8 55,-34 20,-21 35,1 30,-55 17,-5 16,-7 20,-27 8,-39 21,-69 28,-111 7,-38 42,-104 59,-150 6,-14 19,-32 23,-46l138 -281c15,-26 54,-130 68,-160l83 -196c9,-25 24,-43 24,-71l-90 -2c-3,22 -5,48 -7,69 -5,61 -35,112 -50,171 -14,2 -16,4 -25,11 -22,18 -56,16 -81,26 -18,8 -14,8 -39,7 -13,-1 -83,0 -87,-1l-32 -14c-15,-5 -21,-3 -37,-8 -14,-5 -17,-11 -29,-18 -10,-6 -21,-7 -32,-16 -5,-5 -13,-19 -21,-27l-7 -7c-3,-4 -2,-3 -4,-7l-25 -44c-18,-43 -7,-66 12,-104l59 -105z"/>
   <path class="fil10" d="M712 7940c21,5 8,11 45,38l160 97c10,5 20,6 30,10 11,4 18,8 31,13 77,26 98,39 193,64 22,6 41,13 65,20l106 18 279 16 153 -14c80,-7 60,7 157,-11 24,-4 57,-3 80,-6 28,-3 52,-4 79,-9 20,-4 52,-6 72,-11 52,-13 92,-18 142,-27l358 -73 196 -55c25,-11 24,-25 54,-33 3,33 5,159 -5,184 -60,10 -37,4 -89,24 -19,7 -5,7 -30,16 -47,17 -108,45 -155,57 -24,7 -46,13 -68,23l-219 61c-49,13 -98,22 -149,34 -77,17 -243,41 -322,48l-266 0c-28,-1 -58,-4 -84,-2l-335 -33 -227 -52c-13,-5 -19,-8 -33,-12 -46,-12 -54,-11 -100,-39 -24,-15 -19,4 -38,-56 -11,-33 -33,-50 -51,-133 -6,-27 -9,-53 -14,-78 -6,-29 -16,-45 -15,-79z"/>
   <path class="fil13" d="M979 7936c12,13 85,64 100,69 22,8 48,4 68,16 40,23 151,43 199,54 20,5 50,14 69,17 68,8 160,22 225,20 115,-3 196,2 313,-17 25,-5 45,-10 72,-11l150 -25c23,-6 51,1 76,-8 53,-19 82,-12 107,-17 49,-10 142,-20 178,-35l93 -32c31,-13 33,-11 53,-31 15,-15 17,-7 27,-17l36 -49c13,-16 31,-26 42,-42 12,-17 8,-40 23,-62 17,-25 11,-126 0,-153 -2,-3 -28,-41 -38,-47 -54,-36 -146,-42 -207,-26 -12,4 -15,6 -34,7l-105 23c-46,8 -146,28 -190,41 -26,9 -122,24 -160,32 -14,3 -17,7 -30,9 -24,4 -8,-3 -34,7 -1,0 -2,1 -3,1 -24,8 -72,9 -90,11 -8,1 -8,3 -19,4 -6,1 -64,4 -77,0 -24,-7 -5,-7 -33,-4 -16,2 -22,-1 -37,-2 -20,-1 -23,3 -39,2l-104 -25c-21,-8 -12,-6 -28,-16 -17,-12 -22,-1 -56,-28 -16,-12 -3,3 -38,-24l-136 -95c-15,-8 -17,-3 -32,-13 -32,-24 -10,-5 -44,-18 -14,-6 5,-6 -17,-4 -22,2 -109,28 -129,40 -38,23 -58,31 -99,71 -49,48 -77,99 -82,171 -2,21 6,57 8,78 5,40 20,70 30,98 6,15 1,21 -8,30z"/>
   <path class="fil2" d="M997 7766c-17,-22 -8,-29 -5,-56 7,-57 27,-80 63,-120 5,-6 9,-13 14,-19 13,-15 66,-46 88,-55 14,-6 41,-16 56,-19 18,-3 21,0 57,-6 -9,25 -68,75 -94,99 -13,11 -24,16 -35,26 1,27 -1,25 18,37l76 -70c6,-6 12,-14 18,-19 9,-8 13,-9 22,-15 26,-19 13,-30 23,-52 29,10 11,42 2,62 -3,7 -3,5 -5,10 -4,8 -6,15 -10,23 -29,65 -54,123 -86,182 -14,27 -43,64 -35,95 29,13 51,-22 67,-41 9,-12 2,-6 15,-15 16,-10 18,-16 30,-28l46 -38c11,-10 24,-17 33,-26 8,-6 6,-8 14,-15 7,-6 10,-6 18,-12 12,-10 18,-18 29,-25 7,10 7,18 15,27 38,-10 44,-62 55,-75l30 18c-11,37 -52,20 -43,86l20 5c15,-13 40,-51 46,-75 17,2 24,7 34,17 -5,25 -75,71 -21,99 26,-18 28,-67 51,-88l18 5c5,43 -44,107 -43,174 24,12 19,8 39,-4 8,-65 14,-63 30,-117 4,-16 2,-26 6,-42l40 0c-5,29 -25,72 13,79 23,-24 5,-88 49,-67 6,18 -4,27 0,47 3,17 11,24 28,22 18,-16 11,-42 9,-67l44 0 -8 45c-2,19 3,24 17,30 42,-11 15,-47 26,-74l17 -1c6,43 -10,73 13,100 48,-12 20,-57 26,-102l33 -5c5,32 3,87 0,117 -3,32 -19,73 21,80 22,-27 13,-45 14,-96 1,-33 -2,-73 2,-107l57 -13c3,27 2,55 26,61 41,-29 -13,-68 26,-73 6,17 3,51 14,70 20,1 29,-14 30,-29 1,-33 -13,-37 6,-52 24,10 -1,53 23,77 14,0 17,-5 26,-10 5,-36 -8,-50 -6,-76l22 0c4,19 5,34 6,54 0,22 7,26 22,38 31,-19 10,-68 9,-102 17,-3 15,-8 34,-7 1,29 4,59 4,85 1,40 -13,33 12,65 57,-2 12,-69 18,-157 12,-7 30,-8 46,-9 -1,35 -2,40 11,69 19,-1 27,-11 35,-23 0,-13 -6,-19 -10,-31 -6,-23 -4,-23 6,-28 11,6 7,2 7,18 1,17 -2,55 28,47 29,-7 6,-54 8,-74l17 1c4,33 0,65 28,78 19,-10 20,-18 16,-41 -4,-17 -12,-38 -1,-51l2 5c1,1 1,2 1,3 1,0 3,8 3,8 6,15 3,37 8,51 8,25 24,19 41,7 0,-25 -9,-45 -13,-65 -6,-24 20,-30 24,13 7,89 -10,116 34,133 18,-34 8,-32 3,-74 -5,-35 -1,-64 -5,-96 37,3 63,0 95,10 47,16 72,59 73,108 2,60 -5,56 -18,91 -19,51 -50,64 -83,100 -5,7 -9,13 -17,20 -43,38 -61,33 -87,42 -6,2 0,0 -7,3l-34 11c-65,21 -66,13 -103,25 -36,11 -75,9 -111,17l-90 17c-44,4 -86,8 -127,19 -20,6 -44,3 -65,8 -36,9 -165,26 -196,26 -27,-1 -42,2 -67,5l-146 2c-29,0 -41,-5 -66,-7l-133 -14c-43,-5 -80,-16 -123,-24 -22,-4 -39,-8 -61,-13 -40,-10 -29,-2 -42,-26 -30,-2 -30,0 -58,-13 -18,-8 -40,-5 -61,-16 -30,-17 -60,-53 -69,-86l10 -5c11,-7 17,-24 22,-34 15,4 20,8 27,21 -8,15 -31,26 -20,49 5,11 15,13 25,7 11,-8 50,-76 80,-92l2 -31 -38 1c-8,16 -12,28 -22,40 -15,-2 -26,-8 -30,-22 13,-18 39,-19 39,-55l-24 1c-12,25 -58,75 -82,84 0,-1 -7,-15 -6,-22 3,-19 57,-54 72,-71 6,-8 17,-29 8,-40 -25,-24 -36,5 -46,21 -9,15 -24,24 -39,37z"/>
   <path class="fil13" d="M2307 7864c-25,-3 -30,-26 -39,-42 -29,0 -29,-6 -48,55 -8,24 -19,63 -18,87 7,3 29,23 38,-23 5,-21 5,-47 20,-60 11,5 31,32 40,42 22,-4 31,-22 42,-44 36,15 10,74 61,75 23,-26 10,-31 -1,-50 -4,-7 -2,-5 -7,-12 -18,-27 -7,-14 -19,-36 -9,-17 -12,-36 -36,-36 -22,0 -18,28 -33,44z"/>
   <path class="fil13" d="M2456 7827c-24,14 -50,24 -32,69 38,90 123,37 102,-31 -6,-19 -43,-55 -70,-38z"/>
   <path class="fil13" d="M2485 7893c-23,12 -38,-6 -27,-23 15,-23 32,-8 27,23z"/>
   <path class="fil13" d="M2522 7816l-1 23c33,21 50,-6 77,0 10,58 -9,85 23,85 1,-10 8,-113 7,-114 -7,-16 -34,-8 -50,-4 -19,6 -34,8 -56,10z"/>
   <g>
    <path class="fil1" d="M1893 2002c-12,2 -15,1 -25,5 -21,8 -4,0 -4,67 0,31 0,64 -2,97 -3,31 -8,120 30,136 14,6 31,10 46,7 9,-2 17,-1 26,-6l25 -21c3,-3 5,-6 6,-9 4,-8 3,-13 8,-21 7,-14 10,-37 6,-57 -2,-8 -1,-3 -6,-11l-23 -45c-4,-8 -59,-88 -63,-100 -2,-6 -19,-36 -24,-42z"/>
    <path class="fil2" d="M1887 2038c8,5 13,20 18,29 5,10 24,34 38,58 6,12 13,18 19,31 15,30 30,79 11,108 -8,13 -15,14 -26,23 -14,11 -23,7 -34,2 -13,-6 -14,-10 -19,-28 -18,-60 -6,-66 -9,-114 0,-3 -1,-5 -1,-8l2 -9c1,-10 -2,-10 0,-20 2,-14 -1,-67 1,-72z"/>
   </g>
   <g>
    <path class="fil1" d="M3409 5216c5,-11 21,-16 32,-21 9,-5 11,-3 18,-7 14,-6 4,-4 14,-10 -2,10 -7,14 -11,23 -5,10 -5,17 -10,27l-43 -12z"/>
    <path class="fil1" d="M3430 4715c-24,9 -23,27 -18,52 6,37 13,182 56,186 40,5 6,-39 6,-40 -37,-98 -13,-183 -44,-198z"/>
    <path class="fil1" d="M3811 5189c-41,-8 -32,41 -24,90 4,20 9,72 33,89 20,14 27,-6 18,-23 -25,-45 -14,-121 -27,-156z"/>
    <path class="fil1" d="M3521 4918c21,-44 -2,2 -7,-89 -1,-23 5,-98 -27,-88 -22,6 -9,53 -7,99 1,28 9,71 41,78z"/>
    <path class="fil1" d="M3151 4234c-3,19 -1,74 0,96 1,27 7,63 36,57 10,-17 3,-29 1,-47 -2,-16 0,-37 0,-54 0,-51 8,-80 -37,-52z"/>
    <path class="fil1" d="M3851 5219c-3,18 12,67 17,85 14,45 13,66 39,68 24,-22 -1,-50 -8,-80 -17,-65 6,-64 -21,-89 -3,1 -22,13 -27,16z"/>
    <path class="fil1" d="M3576 4738c-56,-15 -42,117 -13,141 11,10 27,10 28,-6 0,-12 -10,-26 -13,-38 -14,-39 4,-64 -2,-97z"/>
    <path class="fil1" d="M4003 5340c-5,-13 -5,-7 -10,-18 -1,-2 -6,-14 -7,-15 -13,-34 0,-69 -9,-82 -9,-13 -21,-8 -28,1 -12,16 -4,59 2,80 7,23 18,47 42,51l10 -17z"/>
    <path class="fil1" d="M3614 4748c-12,28 -2,143 34,123 13,-8 -4,-45 -5,-68 -1,-31 6,-61 -29,-55z"/>
    <path class="fil1" d="M3258 4336c19,-22 10,-30 13,-62 3,-25 6,-52 -17,-60 -18,10 -17,33 -18,60 -2,32 2,51 22,62z"/>
    <path class="fil1" d="M3669 4759c-2,16 3,42 7,55 6,22 5,29 33,29 1,-23 -2,-47 -5,-69 -4,-30 -10,-33 -35,-15z"/>
    <path class="fil1" d="M3337 4190c-11,16 -26,84 9,86 22,1 16,-24 16,-46 0,-25 0,-39 -25,-40z"/>
    <path class="fil1" d="M4006 5247c3,9 20,42 26,50 17,0 15,-4 26,-13 -4,-34 -26,-85 -52,-37z"/>
    <path class="fil1" d="M3767 4783c11,-28 13,-45 -17,-49 -7,12 -13,16 -10,30 4,15 10,21 27,19z"/>
    <path class="fil1" d="M3425 4176c-3,20 -2,25 13,33 12,-7 27,-17 18,-40 -15,-8 -15,-1 -31,7z"/>
    <path class="fil1" d="M4106 5276c18,-20 15,-17 7,-44l-18 1c-6,12 -10,18 -9,33l20 10z"/>
    <path class="fil1" d="M3810 4690c-2,35 30,28 42,6l-7 -13c-16,-3 -26,-1 -35,7z"/>
    <path class="fil1" d="M3578 4131c-7,0 -9,-2 -15,0 -17,4 -21,29 -10,35 16,9 30,-15 25,-35z"/>
   </g>
  </g>
 </g>
</svg>
