<?xml version="1.0" encoding="UTF-8"?>
<!DOCTYPE svg PUBLIC "-//W3C//DTD SVG 1.1//EN" "http://www.w3.org/Graphics/SVG/1.1/DTD/svg11.dtd">
<!-- Creator: CorelDRAW X7 -->
<svg xmlns="http://www.w3.org/2000/svg" xml:space="preserve" width="84.6666mm" height="102.362mm" version="1.1" style="shape-rendering:geometricPrecision; text-rendering:geometricPrecision; image-rendering:optimizeQuality; fill-rule:evenodd; clip-rule:evenodd"
viewBox="0 0 8467 10236"
 xmlns:xlink="http://www.w3.org/1999/xlink">
 <defs>
  <style type="text/css">
   <![CDATA[
    .str0 {stroke:black;stroke-width:84.66}
    .fil3 {fill:black}
    .fil7 {fill:#0B9294}
    .fil8 {fill:#92EBD9}
    .fil6 {fill:#CA2A5D}
    .fil4 {fill:#F7CD86}
    .fil5 {fill:#FEFEFE}
    .fil1 {fill:#FFEE00}
    .fil2 {fill:black}
    .fil0 {fill:url(#id0)}
   ]]>
  </style>
  <linearGradient id="id0" gradientUnits="userSpaceOnUse" x1="8348.25" y1="6291.45" x2="118.45" y2="4732.97">
   <stop offset="0" style="stop-opacity:1; stop-color:#1F1BFF"/>
   <stop offset="1" style="stop-opacity:1; stop-color:#FF93F1"/>
  </linearGradient>
 </defs>
 <g id="Layer_x0020_1">
  <metadata id="CorelCorpID_0Corel-Layer"/>
  <g id="_2183330611344">
   <path class="fil0" d="M58 4365c428,-2156 2104,-2685 4151,-3233 2046,-548 4639,2716 4211,4872 -429,2156 -4804,5704 -5762,2936 -959,-2769 -3029,-2419 -2600,-4575z"/>
   <g>
    <path class="fil1 str0" d="M3453 6488c1010,-985 2188,-1125 2267,210 80,1335 93,1171 323,2087 231,915 -1697,1345 -2145,376 -449,-969 -1455,-1688 -445,-2673z"/>
    <g>
     <path class="fil2" d="M3684 493c-27,-80 0,-72 -14,-127 -37,4 -29,10 -58,16 -43,8 -70,9 -113,28 -31,14 -69,27 -97,44 -55,33 -79,88 -104,109 -14,-6 -17,-15 -30,-21 -11,-6 -10,-8 -16,-22 -6,-14 1,-1 -4,-9l-26 -22c-18,-15 -35,-23 -49,-40 -4,-5 -2,-3 -6,-7l-24 -24c-17,-17 -24,-5 -41,-16 -6,-4 -6,-7 -18,-14l-47 -32c0,0 -1,-1 -2,-2 -17,-16 -26,-20 -54,-17 -9,16 -11,16 -20,27 6,17 6,8 6,29 0,24 2,7 5,28l-26 221c-22,74 -65,168 -124,206 -38,-13 -18,-38 -59,-15 -40,21 -19,47 -21,84 -45,-30 -96,-73 -108,-129 -2,-13 -1,-7 -3,-13 0,-1 -1,-2 -1,-4 -6,-18 -5,-39 -7,-56 38,-3 23,-6 48,-21 -8,-17 -21,-34 -47,-13 -1,1 -10,14 -11,14 -12,25 7,13 -21,33 -2,1 -16,10 -16,11l-32 64c-4,6 -2,2 -4,8l-8 20c-10,21 -5,25 -12,40l-44 171c-16,75 -25,164 -43,237 -68,0 -116,-80 -135,-86 -21,-1 -27,5 -39,17 -12,12 -15,29 -9,51 9,29 15,79 0,102 -13,-17 -25,-41 -26,-70 -17,0 -16,0 -30,6 -29,13 -30,45 -37,77 -22,114 9,175 9,278 0,23 -7,129 -13,141 -25,2 -14,3 -30,-14 -18,-19 -25,-10 -37,-29 -10,-15 -11,-28 -21,-44 -68,-5 -56,68 -56,114 1,76 2,91 -25,148 -10,19 -15,37 -26,58 -48,88 -36,102 -61,199 -40,3 -36,-7 -57,-26 -40,3 -28,11 -53,26 -22,12 -33,13 -36,44 -8,98 66,252 86,397 -16,9 -29,2 -41,13l-12 15c-12,21 8,33 9,60 0,18 -6,26 -8,44 -7,65 23,205 48,272 9,24 28,52 34,76 3,14 4,34 9,44 11,23 36,45 49,65 0,1 1,2 1,3l18 31c-23,-1 -42,-13 -65,-2 -15,7 -27,27 -26,48l43 33c11,13 34,15 51,22 23,10 47,26 74,29 22,3 19,8 40,12l69 18c12,4 4,1 11,5 -6,38 -20,46 5,77 10,12 18,15 30,22 37,21 59,60 114,46 23,-5 43,-24 66,-26 18,-2 19,3 22,22 1,6 1,20 1,26 2,65 -23,76 -22,107 2,43 53,18 69,-1 7,-9 15,-19 20,-28 9,-14 10,-20 28,-23l8 18c23,66 -36,163 40,134 11,-4 23,-8 29,-15 12,-18 -10,-40 52,-134 6,-9 11,-15 18,-25 9,-13 12,-20 30,-20 20,31 60,177 69,217 7,28 13,30 20,51 16,42 22,92 56,165 23,49 96,190 133,224 37,34 54,61 110,109 198,170 402,236 639,291 17,5 35,12 57,18 38,10 94,1 113,9 9,3 4,0 10,5 -24,19 -54,35 -81,55 -29,22 -46,41 -84,53 -38,11 -67,23 -107,30 -28,5 -71,26 -98,38 -111,49 -344,175 -439,248 -25,20 -52,39 -76,61 -25,22 -47,39 -73,64 -22,22 -42,40 -71,65 -54,48 -79,93 -126,147 -32,38 -91,124 -115,162l-52 86c-17,26 -31,62 -49,87 -160,271 -179,871 -78,1093 5,12 5,10 11,24 16,39 32,79 54,117 8,12 13,33 20,47 9,16 17,27 27,43 4,7 6,12 11,20l37 68c34,69 88,114 122,183l13 26c13,20 23,43 40,66l26 39c6,8 1,0 5,9 15,26 37,53 56,76 19,22 55,66 76,83 24,18 29,33 59,46 19,8 20,10 34,21 -2,24 -16,44 -24,65 -20,57 -26,123 11,175l22 27c30,32 51,34 89,45 43,12 15,18 49,4l43 -19c16,-5 46,-20 60,-33 107,-98 9,-328 -10,-434 -16,-88 -12,-242 25,-321 19,-40 53,-67 104,-77 107,-21 136,148 137,224 1,116 -5,233 -17,345 -5,57 -8,114 -13,170 -6,71 -48,423 -63,476 -18,64 -100,173 -84,236 5,18 0,47 13,64 1,1 2,1 2,2 1,1 4,4 5,5 3,3 8,8 11,11 24,27 53,42 92,45 14,1 31,1 45,0 12,0 30,-1 42,-4 23,-4 16,-5 32,-15 55,-32 62,-39 79,-104 30,-119 -39,-189 -24,-312 8,-61 8,-109 12,-170 4,-49 13,-112 21,-160 4,-29 1,-57 3,-86 11,-117 20,-307 42,-410 27,-128 27,-183 114,-248 79,-58 185,-89 271,-32 62,40 107,113 133,179 14,34 21,70 32,105 12,41 16,189 17,238 1,121 -12,218 -27,333 -20,162 -17,329 -57,486 -12,49 -30,84 -39,140 -5,29 0,142 11,163 20,41 9,20 45,43 24,16 10,30 53,39 27,6 52,6 80,-2 35,-10 35,-15 53,-41 15,-21 22,-31 35,-53 35,-64 6,-174 -6,-238l-11 -99c0,-2 0,-7 0,-8l-7 -54c0,-60 2,-116 5,-176l7 -201c7,-37 5,-87 11,-123 9,-56 6,-114 12,-169 10,-94 36,-190 103,-258 33,-33 77,-53 108,-3 26,40 37,86 51,130 7,25 13,43 18,69 31,143 34,252 -14,395 -41,124 -107,360 95,395 17,3 31,2 50,6 2,16 11,70 17,83 24,51 54,82 106,102 47,18 41,9 90,14 -1,53 -26,116 -7,168 22,63 30,63 52,110 8,16 -1,6 12,15 22,16 15,25 46,45l5 4c44,31 89,34 140,41 38,5 54,-4 84,-14 -4,69 -71,49 -21,202 5,15 3,28 9,44 11,29 87,111 115,127 42,24 58,29 125,29 -4,110 -2,203 118,279 131,54 317,-45 395,-52 5,8 6,15 11,24 15,24 25,58 39,81 1,1 3,4 4,5 10,18 18,45 30,58 10,11 12,7 12,28 -5,6 -1,2 -10,9 -4,3 -8,5 -13,8 -10,6 -15,9 -26,14l-115 45c-20,7 -41,11 -60,18 -18,7 -112,26 -133,27 -330,12 -50,76 1,69 95,-13 184,-42 267,-76 31,-12 100,-52 125,-54 23,37 38,77 59,118l32 57c11,20 27,37 46,49 1,1 2,1 3,2 85,47 279,-88 225,-194l-80 -145c-27,-44 -41,-62 -65,-111 -17,-35 -58,-83 -61,-118 37,-19 84,-30 124,-46 38,-15 73,-44 114,-62 46,-21 74,-27 106,-70 43,-56 29,-152 45,-219l19 -158c10,-110 -46,-277 -52,-344 -1,-11 -1,-10 -3,-19 -7,-26 0,-12 8,-41 10,-31 24,-34 26,-107 3,-78 -5,-250 -20,-319 -3,-13 -7,-24 -9,-36 -11,-45 -18,-95 -35,-137 -5,-13 -5,-20 -9,-35 -6,-20 -19,-42 -25,-62 -8,-27 -12,-45 -21,-68 -9,-21 -15,-39 -24,-64l-98 -255c-28,-78 -71,-169 -102,-246 -17,-42 -27,-84 -47,-129 -20,-43 -32,-81 -47,-128 -23,-69 -54,-125 -67,-194 -5,-28 -14,-42 -16,-71 -12,-161 -112,-193 -92,-339 2,-17 4,-17 7,-32l27 -189c1,-51 3,-107 4,-163 0,-54 -11,-104 -17,-154 -3,-28 -6,-46 -8,-75l-39 -174c-4,-12 -8,-17 -12,-31 -25,-76 -65,-174 -102,-242 -33,-65 -204,-335 -251,-388 -116,-129 -130,-161 -288,-267l-105 -65c9,-6 19,-7 31,-11 65,-24 274,-160 320,-200 126,-111 235,-301 299,-455 11,-29 38,-124 51,-140l49 -2 -6 31c57,12 81,-6 119,-41 31,-28 67,-56 93,-88 22,-27 24,-42 38,-78 40,49 -39,136 58,108 25,-8 26,-7 35,-32 17,-50 24,-108 0,-163l-19 -47c-14,-35 -35,-71 14,-85l58 26c51,30 53,43 87,81l17 27c11,24 132,54 51,-99l-40 -76c-12,-26 -23,-52 -44,-75 -21,-24 -53,-43 -65,-86 16,-23 71,-50 94,-85l30 -62c11,-30 17,-33 16,-78 -3,-74 -35,-153 -55,-218 -9,-29 -17,-36 -28,-65 -19,-52 -32,-65 -4,-146 20,-59 47,-106 67,-162 5,-17 9,-19 15,-34 16,-41 41,-111 30,-153 -10,-35 -26,-16 -26,-68 -15,-12 -13,-10 -20,-32l-6 -25c1,-12 -8,-22 -17,-32 -17,-23 -103,-26 -94,-51 6,-19 14,-12 33,-25 52,-37 120,-18 133,-38 5,-31 -1,-35 -21,-52 -3,-2 -7,-5 -9,-8l-73 -67c-10,-8 -49,-21 -53,-26 5,-3 67,-17 80,-20 20,-5 60,-17 78,-29l0 -31c-13,-6 -52,-14 -72,-20 -16,-6 -59,-20 -68,-28 8,-18 8,-4 18,-25 5,-9 7,-22 13,-35l40 -53c0,0 2,-1 3,-2 -8,-16 -6,-31 -6,-52 -11,-8 -24,-17 -42,-15 -28,4 -5,17 -45,6 -30,-8 -70,-5 -99,-16 13,-41 16,-34 30,-67 28,-66 32,-98 40,-164 1,-4 1,-9 2,-13l11 -28c3,-13 7,-35 7,-47 -36,-27 -85,-12 -127,-5 18,-62 99,-11 140,-9 25,1 68,9 83,-12 14,-19 8,-22 -4,-39 -23,-33 -3,-21 -51,-51 -64,-39 -141,-120 -234,-176l-104 -59c-7,-4 -13,-11 -20,-14 -14,-7 -15,-2 -28,-8 -10,-3 -10,-8 -21,-14l-49 -18c-61,-22 -127,-9 -190,-17 -7,-24 30,-91 18,-150 -102,-9 -81,11 -147,35 -16,6 -30,9 -43,15 -7,-28 -13,-54 -24,-78 -15,-34 -2,-55 -18,-83 -21,-3 -66,7 -79,14 -18,11 -32,28 -54,38 -43,20 -181,62 -203,-20 -20,-74 31,-109 82,-145 63,-47 -62,-53 -105,-62 -116,-24 -193,-56 -306,4 -11,6 -42,22 -52,24 1,-15 3,-17 8,-28 38,-69 -66,-28 -101,4 -25,24 -45,64 -82,73 -35,8 -99,-31 -123,-59 -7,-8 -11,-13 -18,-22 -11,-13 -27,-31 -34,-45 -19,-30 -9,-62 -55,-53 -18,4 -17,5 -24,17 -52,80 -75,99 -151,157 -27,21 -62,49 -104,50l-65 -89c-16,-36 -11,-41 -35,-60l0 -33c-53,4 -59,2 -87,44l-21 36c-24,39 -74,47 -110,20l-20 -12c-19,-12 -22,-20 -42,-28 -6,-2 -2,2 -8,-5 -25,-34 -19,-76 -21,-117 -14,1 -13,-1 -21,1 -73,21 -153,122 -195,183 -11,15 -18,24 -34,31zm1673 7134c93,-3 151,176 84,180 -16,-20 -24,-49 -32,-64l-34 -67c-10,-19 -12,-37 -18,-49zm-403 575c-10,-3 -9,-1 -15,-2 1,-80 14,-166 36,-237 15,-49 68,-154 95,-175l66 143c1,1 1,2 2,3 0,1 1,2 1,3 5,11 0,-2 3,6 11,31 0,32 -13,47l-18 17c-1,1 -2,1 -3,2 -17,12 -113,118 -124,135 -15,22 -31,24 -30,58z"/>
     <path class="fil3" d="M3595 433c1,26 4,47 14,69 12,26 21,88 56,89 18,1 41,-30 49,-45 15,-31 49,-66 73,-95 23,-30 47,-61 75,-86 17,24 18,57 53,79 28,19 20,29 54,46l31 22c11,7 19,9 34,9 46,1 66,-9 102,-29 28,-16 43,-51 94,15 9,11 12,18 22,27 32,29 48,63 99,32l104 -55c35,-23 68,-45 98,-74l5 -4c0,0 1,-1 2,-2 16,-15 24,-35 43,-46l62 71c7,11 25,21 37,17l24 14c32,25 56,30 102,30 37,0 84,-26 105,-55 10,13 2,11 19,20 26,13 82,-16 106,-28 11,-6 12,-5 26,-10 18,-7 28,-18 48,-22 59,-11 214,16 252,33 -9,45 -48,44 -62,126 -8,42 6,62 34,78l13 9c57,52 105,31 174,23 39,-5 71,-12 106,-30 13,-7 14,-11 29,-16 0,1 1,2 2,3 0,0 1,2 1,3 12,25 16,56 20,83 2,20 8,74 14,90 15,3 47,1 58,-3 11,-5 9,-6 19,-13 28,-21 50,-57 91,-60 -14,47 -27,114 9,146 44,40 63,16 169,34 27,4 35,10 59,20 1,0 2,0 3,1 0,0 2,0 2,0l60 17c34,10 29,19 55,33l61 24c40,12 71,43 104,67 20,15 86,59 92,80 -37,-2 -68,1 -96,23 -41,32 -26,20 -58,61 -17,21 -31,22 -31,48 19,14 40,16 71,18 36,2 41,10 76,11 1,10 -4,51 -7,63 -9,37 1,3 3,28 3,24 -1,6 -9,23 -6,16 0,14 -9,31l-27 83c-25,6 -33,18 -47,37l-4 5c0,0 -1,2 -1,2 -3,4 -2,0 -5,7 10,20 22,16 47,17 20,0 37,3 55,8 3,1 90,36 93,31 0,-1 2,1 3,2 1,30 -25,57 -47,73 -27,21 -51,15 -60,54 23,20 41,16 78,20l71 18c-32,16 -81,16 -117,29 -21,7 -5,7 -34,14 -2,38 -5,10 -13,29 11,5 11,5 22,11 24,14 51,7 76,30l85 52 -2 18c-23,11 -50,3 -76,23 -13,9 -20,9 -32,21 -40,41 -2,20 -56,24l-94 13c-35,4 -74,29 -100,43 -28,15 -61,42 -84,62 -44,39 -37,64 -78,71 8,-80 50,-166 63,-245 7,-43 -1,-109 -49,-93 -59,19 -63,33 -107,47 5,-29 16,-59 36,-74 21,-15 33,-46 49,-57 25,-19 7,-1 26,-35 22,-39 46,-144 -24,-152 -108,-13 -154,48 -137,-31 7,-36 -4,-80 -19,-114 -10,-22 -20,-43 -33,-60 -51,-68 -46,-58 -77,-21 -7,9 -19,22 -30,26 -7,-10 -12,-49 -17,-66 -3,-7 -9,-18 -12,-27l-23 -60 -90 -114c-2,-4 -5,-9 -10,-12 -9,-8 -4,-3 -11,-7 -13,-7 -18,-20 -32,-30l-21 -22c-12,-11 -32,-53 -44,-54 -14,0 -16,25 -54,39 2,31 13,32 11,77 -1,-1 -2,-2 -2,-3 -1,0 -2,-2 -3,-3l-4 -4c-1,-1 -2,-2 -3,-2 -9,-5 -8,-3 -18,-3 -1,-30 -25,-33 -21,-67 3,-30 8,-17 -5,-41 -5,-10 -8,-19 -16,-27 -24,-13 -115,28 -147,37 -12,4 -32,13 -41,14 -3,-19 -2,-34 9,-46 12,-15 52,-38 70,-45 17,-6 22,-10 35,-21 1,-16 0,-56 -15,-57l-115 24c-81,15 -298,119 -308,112 -22,-24 1,-68 8,-85 3,-7 7,-17 9,-22l15 -26c5,-8 5,-21 -2,-29 -18,-21 -57,10 -78,20 -13,6 -11,2 -24,7l-116 73c-13,8 -2,1 -9,8 -18,17 -41,31 -56,50l-8 9c-20,24 -64,93 -86,104l-3 -5c-8,-22 4,14 -2,-7l-12 -62c-18,-67 -75,-102 -129,-136 -11,-8 -21,-15 -35,-23l-35 -24c-60,3 -31,49 -37,97 -6,44 -12,74 -14,123 -127,-33 -125,-52 -186,-74 -13,-5 -22,-3 -35,-9 -2,-2 -22,-16 -22,-17l-91 -41c-27,-16 -64,-42 -82,2 -8,21 -8,57 -3,78 -23,2 -33,-3 -49,-13 -41,-26 -19,4 -69,-50 -19,-21 -18,-7 -43,-15 -35,50 -34,68 -37,135l-34 -14c-6,-4 -5,-3 -7,-5 -5,-2 -16,-6 -23,-8 -54,-22 -57,-12 -79,-27l-46 -39c-7,-7 -8,-10 -14,-16 -14,-13 -22,-38 -42,-43 -46,-11 -46,12 -56,36 -13,35 11,66 3,144 -17,-5 -31,-34 -47,-47 -24,10 -28,2 -47,23 -9,10 -64,152 -126,204 -132,113 -65,-15 -139,9 -27,9 -34,32 -43,60 -23,75 -33,88 -61,146l-12 -12c-9,-13 -6,-31 -27,-35 -52,-9 -53,60 -63,90 -18,55 -56,99 -75,154 -16,47 -26,69 -26,124 -26,-3 -47,-11 -66,14 -9,12 -6,16 -12,31l-26 61c-6,14 -5,19 -9,35 -6,21 -9,13 -11,33 -1,13 1,29 2,43 -22,-2 -35,1 -54,5l-3 28 31 29c18,8 -4,-3 8,1 1,100 -36,26 -35,104 -32,-6 -61,-37 -98,-49 -110,-38 -281,18 -327,135 -37,92 5,191 58,266 16,22 43,56 56,80 46,82 -69,225 -50,336 7,41 9,79 26,111 17,32 34,65 58,83 74,58 177,79 271,45 24,-9 19,-18 48,-20 1,41 -7,86 -18,121 -14,45 -33,65 -10,100 38,5 80,11 100,36 -10,14 -33,15 -72,76 -28,44 -8,89 -46,95 -25,-30 -9,-78 -30,-101 -25,-17 -48,9 -56,28 -2,7 -2,7 -5,13 -5,9 1,0 -6,8 -5,-8 -2,-18 -3,-29 0,-5 -2,-25 -3,-32 -17,-106 -93,-5 -132,-16l-28 -13c-94,-44 -50,-62 -39,-72l5 -4c7,-6 -1,3 7,-6 12,-14 6,-26 2,-46 -25,-5 -47,1 -73,-3 -39,-5 -145,-27 -168,-44 5,-14 21,-18 30,-32 10,-18 2,-7 6,-24l7 -19c-11,-23 -96,-105 -130,-173 -5,-10 -8,-14 -14,-25 -33,-57 -64,-206 -62,-279 35,0 40,-6 59,-32 9,-10 -7,10 6,-7l19 -18c38,-28 11,-18 -8,-61 -6,-12 -14,-32 -19,-46 -11,-32 -45,-134 -42,-162 7,-80 -9,-73 -13,-121 -2,-22 -2,-45 -3,-65 64,2 50,55 107,-24 26,-34 7,-23 15,-64 21,-116 72,-158 100,-217 19,-39 30,-69 31,-123 14,-1 31,-4 38,-2 2,0 26,14 28,15l46 -24c4,-65 32,-51 23,-184 -4,-69 -7,-127 -4,-200 37,4 46,48 75,-3 32,-54 17,-25 17,-87 0,-20 1,-39 2,-59 26,0 40,30 96,29 10,0 40,2 49,-2 11,-5 20,-19 32,-26 3,-25 2,-46 3,-70 7,-116 38,-305 89,-400 0,0 4,6 4,7l28 47c9,16 3,14 17,27 29,27 88,77 127,87 9,-13 9,-5 22,-19 38,-39 5,-34 19,-69 16,-6 23,-4 43,-4 24,-1 21,-4 38,-13l18 -8c20,-10 29,-23 45,-38l50 -68c22,-51 52,-128 53,-188 1,-30 4,-49 4,-77 41,2 43,11 65,33 23,24 26,21 54,38 13,8 19,12 27,21 23,28 36,14 66,27 23,10 21,23 49,0l20 -32c2,-4 3,-8 5,-13 7,-24 23,-43 39,-62 57,-64 77,-64 141,-96 18,-9 60,-17 80,-12z"/>
     <path class="fil4" d="M5361 1129c21,62 35,56 71,102 11,14 18,17 23,37 -26,-5 -57,-21 -82,-26 -32,-7 -58,-15 -88,-23 -32,-8 -53,-16 -92,-19 -34,-3 -57,-14 -91,-18 -65,-10 -126,-18 -195,-20 -58,-2 -156,-17 -204,7 -7,24 -22,152 -26,186 -6,58 -22,234 21,284 10,13 18,11 37,14 61,12 79,3 139,1 32,-1 67,-5 105,-6 -8,7 -1,2 -10,7 -2,1 -10,4 -12,5 -32,10 -96,26 -120,40l-83 44c-112,48 -73,77 -124,162 -24,39 -43,63 -72,117 -60,111 -91,216 -107,343 -6,55 4,83 15,131l21 54c6,14 7,13 11,24 43,137 155,288 282,355 15,9 29,21 46,29 239,113 621,35 822,-110l32 -29c12,-14 25,-9 74,-76 28,-38 52,-94 76,-140 63,-118 92,-326 56,-458l-28 -82c-8,-22 -18,-32 -29,-51 -3,-7 -4,-10 -8,-17 -4,-9 -13,-24 -19,-34l-46 -65c-9,-11 -13,-20 -22,-30 -14,-18 -44,-38 -52,-59 12,6 33,6 51,9 23,3 29,-5 42,-17 6,10 -6,8 8,13 60,-154 25,-261 32,-290l26 -25c10,5 7,4 14,11 22,24 43,78 44,110 2,62 -59,129 -9,137 18,3 45,-13 87,-16 31,-2 74,-12 99,11 -2,41 -74,102 -97,134 -30,44 -38,127 -38,192l12 6c7,5 5,2 9,9 19,-7 -1,1 11,-5 6,-3 -1,-2 13,-5 12,10 5,9 15,11 7,-45 14,-51 45,-70l20 -11c9,-4 13,-21 26,-9 16,16 -34,166 -42,204 -24,117 -43,91 -56,134 -5,17 0,38 6,53 22,7 26,5 49,4l6 0c18,2 37,-3 46,-21l16 -51c31,-5 0,10 24,2 23,-7 35,-53 52,-70 70,-67 194,-147 297,-98l41 20c63,35 65,29 98,105 37,86 -7,172 -38,251 -51,127 -124,204 -47,340 1,1 8,13 9,14l16 46c4,13 5,21 10,33 23,56 50,148 27,204 -48,123 -177,136 -232,89 -15,-12 1,-7 -18,-26 -25,-25 -61,-71 -97,-70 -17,0 -29,11 -41,19l-15 7c-43,17 -33,75 -42,121 -9,50 -18,93 -25,142 -14,93 -33,192 -56,280 -26,96 -87,285 -133,370l-62 104c-39,63 -95,132 -146,185 -68,71 -140,145 -228,190 -42,22 -116,74 -163,88 -40,12 -28,13 -64,-3 -47,-22 -145,-44 -182,-68 12,-26 32,-40 41,-73 28,-107 44,-199 42,-315 68,-41 111,-165 130,-244 13,-53 20,-104 27,-157 9,-69 -1,-116 -1,-182 13,3 20,7 30,8 101,17 316,-14 395,-76 36,-29 43,-26 81,-65 8,-8 29,-34 33,-42 14,-25 37,-77 44,-105 15,-65 -17,-199 -52,-239 -43,0 -50,49 -34,83 24,49 19,197 -5,241 -29,53 -112,92 -170,108 -86,26 -154,33 -242,20 -21,-4 -43,-4 -62,-9l-332 -81c-34,-10 -69,-13 -80,-17 -120,-46 -441,-35 -581,-6 -55,2 -231,43 -263,43 -25,1 -6,2 -26,6l-49 7c-64,18 -141,21 -203,35l-107 17c-38,5 -82,9 -121,15l-59 12c-35,5 -86,19 -120,18 -38,-2 -32,0 -63,5 -31,5 -106,3 -140,3 -155,-2 -297,-49 -359,-197 -47,-112 23,-196 1,-238 -59,-9 -144,258 31,409 24,20 59,47 90,56 24,7 28,16 55,21 22,4 24,-3 38,3 31,16 103,22 150,18 44,-5 104,-1 150,-2l44 -12c3,25 -1,46 4,72l40 184c21,78 43,164 78,226 18,33 40,63 60,90 26,32 49,32 59,43 27,29 81,57 117,71l88 27c40,14 8,11 56,6 15,-2 18,-6 29,6 5,4 8,8 11,11 9,10 10,11 17,23 28,49 62,134 60,190 -46,4 -96,8 -145,6 -48,-2 -93,-10 -141,-12 -154,-7 -335,-60 -472,-138l-139 -86c-86,-64 -193,-197 -245,-288 -59,-104 -96,-213 -128,-330 -6,-23 -41,-160 -54,-175 -5,-6 -16,-11 -24,-14 -24,-10 -15,3 -25,-22 24,-7 43,-11 73,-6 28,5 43,-6 36,-31l20 -10c2,-27 -13,-28 -32,-40 -39,-27 -83,-42 -126,-67l-18 -14c-1,-1 -2,-2 -3,-3l21 -135c3,-22 6,-46 4,-69 -4,-31 -2,-43 -20,-57 -35,3 -50,40 -48,75 -16,2 -35,9 -54,12 -68,12 -106,18 -166,-24 -91,-63 -131,-175 -86,-289 22,-54 50,-177 31,-233 -12,-35 -30,-58 -52,-84 -37,-44 -87,-112 -86,-190 1,-57 21,-109 80,-125 10,-3 18,-4 28,-8 34,-14 50,-13 88,-13 28,0 36,3 58,13 31,15 90,59 117,87 73,74 148,64 97,-31l-18 -86c21,-22 23,-36 20,-69 45,11 102,11 55,-48 -12,-14 -22,-28 -28,-43 -12,-30 -2,-69 12,-98l9 -16c17,7 25,32 33,47 32,4 49,3 67,-10 1,-18 -4,-29 -5,-44 -1,-17 1,-36 1,-53 1,-65 12,-117 38,-174 12,-24 26,-46 36,-70 19,4 13,10 29,6 1,0 4,-2 5,-2 27,-7 28,7 45,-26l20 -26c9,10 8,25 10,40 2,24 9,107 46,91l29 -18c26,-14 92,-45 120,-24 -4,10 -3,8 -11,14l-35 24c-17,12 -31,16 -48,25l-73 50c-15,16 -33,25 -48,41l-35 31c-28,20 -59,73 -77,99 -14,21 -24,35 -37,54 -18,27 -37,54 -49,84 -6,14 -7,17 -14,30 -53,97 -57,188 -38,296 9,46 19,99 42,139 6,10 2,1 8,15 25,66 81,150 132,197 10,9 1,-1 11,12 136,184 429,187 621,168l74 -14c24,-5 51,-19 73,-19 -18,49 -39,106 -21,166 20,72 38,74 105,93 87,24 127,-3 185,-17 15,-4 24,-3 39,-13 9,-6 -2,1 8,-5l50 -23c0,0 0,-1 0,-1l7 -7c0,-1 2,-2 2,-3 1,0 2,-2 3,-3 26,10 66,42 88,60 39,31 117,27 162,40 18,4 107,3 121,-1l43 -6c15,0 37,1 51,-2l58 -19c1,-1 2,-1 3,-2 17,-7 35,-8 53,-14 14,-5 31,-28 43,-11l31 41c34,31 81,35 124,42 42,6 102,-4 140,-20 29,-12 52,-15 69,-39l19 -39c26,-52 -13,-149 -44,-102 -18,26 -2,57 -6,92 -17,11 -43,16 -64,24 -24,8 -52,12 -81,12 2,-29 18,-60 -2,-86 -18,-23 -44,-20 -69,-33 -1,-18 0,-9 5,-18l3 -5c49,-86 -62,18 -84,29 -12,6 -21,6 -30,10 -12,5 -21,17 -33,24l-49 17c-78,25 -210,44 -289,33 -173,-25 -151,-55 -252,-114 -22,-13 -47,-43 -72,-50 -57,-16 -101,-8 -96,55 -44,12 -32,47 -49,85 -51,0 -116,-9 -135,-50 -27,-61 28,-107 -5,-150 -1,-1 -2,-2 -2,-3 27,-20 55,-29 79,-49 54,-43 96,-65 148,-113 72,-66 48,-26 125,-134 37,-52 73,-106 91,-169l25 -108c14,-71 24,-162 11,-234 -4,-22 -4,-34 -7,-56 -5,-44 -30,-109 -49,-149 -7,-16 -13,-26 -21,-40l-24 -42c-32,-42 -34,-57 -74,-89 0,0 -7,-6 -7,-6l-5 -4c-1,-1 -4,-4 -5,-5 -20,-19 -48,-45 -73,-59 -19,-11 -32,-6 -43,-24 33,-27 143,25 183,12l9 -3c9,-2 14,2 25,-5 1,-1 2,-2 3,-2 9,-7 11,-6 17,-18 20,-44 86,-448 -33,-420 -19,4 -108,-13 -136,-15 -63,-4 -45,-13 -63,-5l-6 4c-20,8 -109,8 -128,15 7,-23 26,-11 43,-30 -1,-26 -28,-51 -24,-88 0,-2 -4,-20 14,-16 10,2 8,11 28,12 15,2 1,-7 19,2 15,7 3,1 12,17 64,-3 75,26 138,2l15 -51 106 43c16,11 48,21 69,27l102 43c7,3 10,3 16,7 22,11 3,-2 14,13 25,35 66,27 82,-15 24,-66 18,-102 22,-177 11,3 50,31 61,40 14,11 34,48 40,65 12,33 15,54 14,93 0,2 -66,147 50,87 6,-32 8,-33 28,-51l28 -30c31,-25 90,-72 114,-98 17,-19 91,-92 115,-98 -1,14 -2,26 -1,41 1,26 1,16 11,32 16,26 5,30 28,58 56,-2 31,-1 72,-23 26,-14 114,-61 136,-66l84 -19c-10,43 -18,29 -17,93 3,106 88,32 134,24 29,-6 64,-14 94,-17z"/>
     <path class="fil2" d="M3339 1244c57,-3 57,-10 79,-51 20,-37 14,-73 11,-118 26,7 19,15 43,31 27,17 66,13 104,36 32,19 34,7 46,5 3,25 9,21 27,28 16,6 34,13 43,26l-29 11c-1,1 -2,1 -3,1l-7 -1c-58,-2 -71,9 -95,11 -10,2 -19,0 -30,2 -15,2 -28,11 -45,14 -78,14 -51,-5 -152,29 -17,5 -36,10 -56,9 5,-21 19,-41 32,-59 11,-17 -5,-5 14,-15 13,14 14,19 18,41z"/>
     <path class="fil2" d="M5555 1302c-1,-1 -8,-6 -8,-6 -8,-6 -2,2 -8,-7 5,-24 16,-16 17,-40 0,-17 -7,-17 -4,-47 6,3 16,10 21,15l23 30c26,36 19,21 37,43 27,35 47,49 49,74 -22,-7 -52,-29 -72,-38l-55 -24z"/>
     <path class="fil2" d="M3365 1318c12,5 137,-11 151,-16 33,-13 -5,-7 29,-8l17 -4c1,-1 6,-1 7,-1 4,0 10,1 15,1 7,0 56,-5 63,-7 39,-11 30,-3 62,-7 52,-8 85,1 98,-8l7 -7c16,17 66,7 68,2 0,-1 1,-1 2,-1 16,10 11,12 37,14 22,1 124,5 133,-3 7,54 -12,271 -29,315 -63,-4 -159,-25 -255,-26 -92,-1 -192,-1 -278,5 -97,6 -166,12 -254,27 -45,7 -140,22 -179,33 -17,4 -31,13 -51,15 -18,-28 -11,-70 -7,-103 14,-130 14,-82 76,-103 34,-11 53,-28 78,-44 68,-45 37,-10 85,-35 20,-10 23,-11 47,-12 26,-1 20,-10 43,-12 28,-2 13,11 35,-15z"/>
     <path class="fil2" d="M5731 1757c-33,-2 -46,-17 -75,-29 -19,-8 -49,-20 -67,-29l-72 -30c-16,-6 -18,-10 -34,-14 -25,-8 -14,-8 -33,-15 -11,-4 -29,-6 -43,-10 -63,-17 -122,-38 -195,-47 -61,-7 -228,-13 -280,-8 -31,3 -157,14 -178,3 -53,-28 -7,-295 -4,-349l271 19c16,2 21,6 40,7 92,4 191,38 283,58l148 46c44,14 62,25 101,45 40,21 58,26 86,60 16,18 26,30 45,52 32,38 7,35 19,60l4 4c0,1 1,2 2,3 18,33 -3,151 -18,174z"/>
     <path class="fil4" d="M3502 1637c41,-6 77,-4 120,0 44,5 118,23 155,45 23,14 31,1 39,31l-72 22c-59,16 -234,65 -285,85 -58,22 -80,26 -140,46 -74,23 -71,27 -130,53l-93 48c-11,5 -19,9 -29,15l-293 170c1,-21 33,-73 46,-95l55 -81c5,-7 8,-12 13,-18l84 -89c6,-4 1,0 8,-5 12,-10 19,-18 34,-28 13,-9 23,-15 35,-25l77 -47c141,-102 245,-110 376,-127z"/>
     <path class="fil4" d="M4824 1780c6,-15 31,-29 51,-34 11,-3 28,-6 36,-9 25,-8 2,-5 23,-10l114 -18c15,-1 21,0 35,-3 52,-13 102,-12 154,0 27,6 61,8 88,19 5,2 10,4 15,6 101,25 60,16 155,56 23,10 39,17 57,28l39 27c4,3 6,4 11,7l95 77c3,4 2,4 5,8l8 10c13,17 50,73 52,86l-21 -7c-15,-9 0,-7 -30,-19l-118 -45c-1,-1 -6,-1 -7,-2 -19,-6 -18,-14 -32,-20l-61 -13c-12,-2 -10,2 -25,-7l-78 -32c-21,-7 -40,-7 -61,-14l-117 -32c-13,-3 -18,-8 -29,-10 -66,-15 -168,-26 -222,-39 -33,-8 -97,-5 -137,-10z"/>
     <path class="fil5" d="M3861 1749c39,-9 27,-2 35,4l21 19c17,21 0,2 22,18 18,13 2,11 28,32 25,21 78,103 84,133 9,44 13,3 19,60 6,55 13,27 16,59 1,24 7,41 10,66 14,111 -18,312 -72,398 -43,68 -83,123 -147,175 -85,69 -190,157 -300,176l-284 33c-25,2 -48,-1 -74,-3 -25,-2 -37,-10 -63,-16 -41,-9 -56,-22 -81,-38 -18,-11 -37,-13 -78,-46 -16,-13 -30,-16 -48,-32 -36,-32 -117,-131 -141,-176 -34,-62 -75,-173 -76,-247 -4,-166 7,-90 35,-126 23,-31 -2,-8 39,-41l16 -14c1,-1 2,-2 3,-2 0,-1 1,-2 2,-3 17,-15 40,-24 72,-46l206 -116c45,-27 90,-41 133,-66l461 -156c7,-2 7,-2 13,-4 43,-18 103,-30 149,-41z"/>
     <path class="fil5" d="M4814 1847l199 25c132,17 77,10 191,38 12,3 22,6 33,9l137 52c17,8 35,15 54,20l196 73c8,3 17,7 25,10l132 62c28,18 6,9 17,9 7,0 -10,-9 13,0 15,6 15,18 19,36 4,21 9,39 10,63 4,103 -9,184 -34,269 -17,55 -68,166 -99,206 -35,45 -109,99 -173,131 -36,17 -176,58 -229,75 -125,42 -332,32 -457,-36 -17,-9 -28,-19 -46,-29 -132,-68 -200,-226 -256,-352 -33,-76 -47,-166 -19,-259 13,-45 8,-58 37,-118 28,-58 37,-96 74,-155 10,-15 21,-30 30,-45 60,-87 43,-89 146,-84z"/>
     <path class="fil2" d="M6398 3645l-31 12c-27,15 -32,58 -39,83 -12,46 -38,79 -69,96 1,-35 3,-78 -4,-108 -28,-15 -38,-13 -53,1l-14 13c-3,3 -4,4 -6,6 -1,1 -2,2 -3,2 -19,19 -9,9 -26,35l54 -250c25,-97 34,-169 51,-260l6 -19c16,2 12,0 25,16 14,17 8,15 11,25 6,21 26,24 45,33 58,28 69,13 132,10 -9,60 69,94 86,138 -5,2 1,2 -9,2 -34,0 -49,-55 -119,11 -15,14 -49,32 -63,74 -7,21 20,60 26,80z"/>
     <path class="fil5" d="M4002 3588l21 -8c7,-2 10,-4 19,-7 21,-6 35,0 68,-11 8,-2 -1,-1 8,-2 12,-3 -1,0 9,-1l89 -15c12,-2 15,-4 20,-6 19,-5 15,2 43,-9l61 -3c12,3 16,178 14,197 -58,29 -170,26 -240,26 -98,1 -115,-45 -112,-161z"/>
     <path class="fil3" d="M3944 3594c1,34 1,57 7,90 3,18 15,68 23,79 5,7 5,6 10,12 10,13 7,23 39,41 55,30 201,7 272,2 119,-9 103,-39 119,-84 22,29 -3,52 47,71 16,5 28,12 41,16l44 12c0,1 2,1 3,2 -19,13 -37,13 -58,25 -32,16 -80,48 -101,70 -15,15 -28,34 -47,43l-39 -33c-24,-20 -104,-72 -138,-79 -94,-19 -116,-27 -213,-1l-115 47c-8,6 -4,4 -10,8 -15,9 -14,0 -45,26 -51,44 -121,107 -157,164l-19 23c-6,-6 -3,-2 -9,-11 -2,-4 -4,-7 -6,-12l-32 -73c-22,-57 -50,-160 -65,-222 -8,-33 -24,-89 -28,-117 -5,-43 11,-11 99,-41 36,-13 138,-19 188,-28 56,-10 39,-13 122,-20 27,-3 37,-8 68,-10z"/>
     <path class="fil6" d="M4381 4015l26 -24c8,-8 19,-17 30,-23 12,-7 19,-12 29,-18 54,-33 127,-63 198,-63 102,-1 263,44 319,92 69,59 60,43 90,99l4 6c25,44 44,110 46,165 3,76 -13,126 -19,185 -7,66 -53,131 -29,159 -18,0 -149,-38 -232,-46 -41,-4 -35,2 -82,-2 -47,-4 -262,-7 -301,2 -37,8 -13,5 -34,15 -50,-7 -37,-2 -71,7 -22,6 -12,9 -32,4 -19,-5 -28,-3 -47,1 -30,6 -54,12 -82,19 -27,8 -54,11 -80,20 -7,-7 -29,-85 -36,-104 -24,-63 -48,-140 -99,-187 -10,-9 -22,-21 -39,-32 -47,-33 -18,-51 -92,-25 -54,19 -26,5 -38,26 -42,-18 -153,-81 -169,-113 -2,-22 72,-91 86,-104 18,-17 29,-33 49,-48 98,-77 222,-137 363,-94 95,30 174,102 218,171 188,295 206,318 71,-5 -19,-38 -30,-53 -47,-83z"/>
     <path class="fil1" d="M3025 7710c-18,-6 -6,-9 -30,-34l-127 -147c-1,-1 -2,-1 -2,-2l-20 -24c-35,-33 -64,-70 -89,-110 -29,-47 -49,-66 -73,-103l-50 -86c-26,-41 -20,-43 -39,-67 -47,-61 -96,-205 -105,-279 -10,-83 -31,-169 -41,-249 -9,-75 -6,-221 1,-300 0,-2 1,-6 1,-8 7,-113 19,-206 52,-314 35,-117 68,-189 130,-289 62,-103 155,-235 237,-318 82,-83 139,-107 191,-153 51,-45 231,-169 292,-197 35,-16 166,-81 195,-84l-120 107c-110,106 -232,238 -318,368l-85 145c-20,37 -48,119 -63,166 -9,28 -15,62 -23,91 -41,146 -28,180 -46,290 -12,77 -7,182 -5,264 1,21 7,23 8,48 7,149 18,151 48,297 11,53 43,171 63,223 16,42 31,58 43,129 11,65 16,146 14,214 -2,37 2,76 -2,112 -8,68 -9,257 -37,310z"/>
     <path class="fil7" d="M5524 8086c-44,-27 -15,-200 -5,-243 26,-103 -38,-338 -175,-285 -98,37 -58,35 -93,48l-144 71c-135,72 -141,75 -207,218 -16,35 -27,66 -38,105 -13,44 -27,212 -18,259 5,30 0,30 12,58 25,63 41,107 2,168 -47,-3 -100,-27 -121,-71 -26,-53 -19,-111 -2,-165 7,-25 21,-41 27,-71 9,-43 20,-47 26,-71 14,-57 19,-116 18,-176 -1,-61 -17,-196 -40,-250 -11,-25 -18,-71 -28,-91 -4,-8 -4,-11 -7,-19l-26 -46c-12,-13 -3,1 -7,-14 -10,-31 -58,-52 -90,-50 -38,3 -108,35 -136,63 -19,20 -33,28 -44,53 -11,28 -21,32 -32,64 -14,38 -17,9 -28,70 -10,56 -18,113 -21,172 -3,59 -16,119 -16,176 0,65 -9,125 -7,190 1,37 -5,54 -7,88 -4,65 14,298 34,353 26,73 33,183 -24,234 -45,40 -102,-6 -112,-49 -18,-79 -8,-174 27,-247 12,-26 14,-49 18,-79 18,-116 39,-227 41,-349l19 -173c26,-143 20,-400 -18,-540 -26,-97 -65,-183 -137,-250 -88,-81 -185,-92 -300,-56 -66,20 -76,30 -125,68 -46,35 -69,58 -86,113 -4,12 -9,16 -13,34l-47 294c-4,31 -2,59 -8,89 -7,38 3,61 2,91 -1,25 -12,46 -12,83 0,60 -9,122 -16,179 -3,28 -4,61 -6,90 -4,48 1,31 -7,89 -4,29 -10,59 -4,89 7,28 21,47 25,72 10,49 -8,50 -2,82 9,43 30,124 -7,163 -57,61 -160,34 -164,-68 -1,-31 13,-52 21,-76 26,-82 81,-112 89,-298 3,-60 17,-113 22,-172 5,-58 13,-116 20,-174 3,-30 2,-63 4,-93l20 -275c5,-104 8,-205 -26,-304 -5,-15 -42,-73 -58,-86 -30,-23 -32,-30 -66,-28 -23,2 -50,15 -74,17 -90,7 -154,77 -174,167 -3,14 -7,22 -11,37 -21,80 -22,236 3,309l44 202c5,50 12,127 -42,150 -34,15 -36,16 -70,-2 -42,-23 -76,-62 -68,-127 4,-33 41,-120 54,-145 46,-84 48,-227 50,-340 2,-121 16,-247 -10,-366 -16,-71 -69,-209 -94,-293 -29,-95 -51,-231 -59,-331 -21,-265 -10,-436 63,-692 36,-129 91,-218 163,-323l62 -83c13,-15 23,-20 34,-37 2,-3 8,-11 12,-15l166 -172c11,-9 16,-14 25,-24l62 -56c33,-20 79,-71 108,-86 78,-37 192,-158 316,-199 23,-8 58,-6 84,-13 39,-11 37,-23 60,-38 34,-20 272,-49 327,-60 71,-13 294,-5 376,-3 64,2 257,50 316,75 15,6 16,7 35,12l104 42c76,36 150,75 215,124l82 64c20,15 37,30 53,44l114 128c7,10 11,20 18,30 28,39 56,74 78,116l115 181c64,86 54,130 89,201 30,60 49,156 67,223 16,56 12,117 25,171 14,61 9,194 1,261 -3,26 -8,57 -13,85 -18,116 -33,150 -50,245 -9,46 -59,143 -73,217 -10,51 -28,98 -37,157 -8,53 -19,116 -20,174 0,72 -25,152 -19,272 6,123 -16,106 5,269 4,27 7,59 12,85 5,23 6,71 13,89 5,13 13,16 17,30 5,17 3,28 9,42l26 74c1,1 1,2 2,3 33,70 33,85 77,156 67,108 47,58 125,214 33,67 40,90 56,160 5,18 3,2 6,20 5,26 -2,25 -6,40 -4,13 -4,28 -6,43 -5,33 -22,80 -40,106 -14,19 -10,50 -53,45 -61,-6 -39,-102 -39,-151 -1,-120 62,-80 -11,-227 -8,-16 -15,-31 -27,-44 -2,-1 -7,-6 -7,-6l-7 -6c-62,-71 -136,-125 -213,-179 -26,-19 -42,-16 -40,-57 2,-79 -11,-166 -84,-207 -52,-30 -105,-6 -147,19 -53,32 -51,109 -72,126z"/>
     <path class="fil4" d="M6140 6691c15,27 54,144 60,173 3,16 11,46 15,63 15,61 57,179 78,239l222 567c4,11 7,16 11,28 26,68 54,134 76,202 8,28 10,64 31,128 7,22 16,32 21,57 13,71 56,186 59,259 0,13 -1,26 1,39 2,16 7,21 9,30 6,23 -3,125 -10,141 -13,-7 -22,-31 -32,-46 -33,-54 -22,-57 -61,-101 -29,-34 -71,-94 -111,-137 -63,-67 -132,-139 -201,-204 -57,-54 -63,-63 -135,-111 -23,-16 -114,-96 -121,-117 -59,-169 -46,-421 -31,-591 11,-113 20,-221 38,-332 9,-55 60,-255 81,-287z"/>
     <path class="fil5" d="M5134 7738c12,-10 118,-66 134,-66 9,13 13,24 20,41 17,44 46,90 54,135 -9,6 -115,70 -131,70 -8,-22 4,-30 -13,-49 -20,-22 -6,5 -29,-36 -9,-17 -35,-77 -35,-95z"/>
     <path class="fil4" d="M5752 8222c-43,23 -136,56 -153,67l-27 12c-1,0 -2,0 -2,0 -1,0 -2,1 -3,1l-22 12c-10,4 -5,0 -16,6l-31 18c-58,30 -15,16 -68,41 -24,11 -62,43 -81,56 -8,5 -8,5 -14,9l-90 68c-18,14 -31,30 -49,43 -23,17 -29,23 -49,39 -21,16 -33,26 -51,42 -31,27 -62,59 -118,8 -32,-28 -71,-55 -67,-114 32,-28 47,-43 52,-92 6,-45 -9,-107 5,-145 39,-105 185,-256 274,-316 30,-20 67,-37 92,-54l97 -53c-8,87 -13,75 -13,176 0,25 16,75 34,94 10,10 22,24 41,27 36,4 70,-28 89,-46 25,-23 31,-51 43,-84 13,-36 46,-56 77,-24 86,85 15,123 50,209z"/>
     <path class="fil4" d="M6114 8060c33,15 252,236 290,273l143 170c43,72 51,73 92,163 21,46 12,-10 35,80 11,40 30,67 35,80 4,13 3,30 5,48 1,20 6,30 9,48 6,34 19,117 19,155 0,93 5,-3 -8,98 -1,11 -1,15 -1,25 0,10 0,21 -7,29 -13,-8 -27,-43 -37,-57 -14,-21 -27,-31 -42,-49 -14,0 -14,1 -29,5 -8,2 -22,2 -30,6 -12,25 -7,32 14,50 17,15 40,48 49,70 8,18 4,22 19,37 17,17 24,6 49,4 1,168 -74,206 -243,268l-97 30c-99,37 -94,25 -164,48 -41,13 -94,29 -133,38 -73,17 -111,34 -205,51 -35,7 -38,6 -79,6 -34,-42 -33,-21 -76,-87 -21,-32 -45,-81 -34,-132 27,-17 40,1 95,-23 90,-39 335,-145 403,-191 5,-4 2,-2 8,-6 0,0 8,-4 8,-4l215 -116c22,-15 48,-38 63,-56 40,-46 53,-95 75,-163 14,-45 -29,-148 -45,-185 -14,-34 -55,-75 -85,-95 -23,-16 -40,-55 -82,-6l9 -97c1,-28 -30,-135 -44,-169 -8,-19 -26,-47 -37,-72 -12,-27 -19,-50 -32,-73 -32,-57 -82,-114 -89,-128 -8,-16 -34,-60 -36,-73z"/>
     <path class="fil4" d="M6047 8715l-225 101c-50,31 -39,21 -71,39 -5,3 -2,2 -8,5l-60 33c-16,8 -19,11 -33,20 -70,43 -102,58 -183,94 -26,11 -50,20 -77,30 -44,16 -112,14 -142,-2 -46,-24 -56,-26 -92,-75 -38,-52 -59,-142 -20,-204 14,-21 14,-14 16,-40 5,-48 15,-44 43,-69 104,-91 245,-207 376,-275l225 -102c27,-9 96,51 136,77 24,16 6,10 26,27 12,10 21,16 31,26 13,13 16,14 29,24 15,11 53,90 58,105 11,34 -8,61 -15,90 -8,30 -11,62 -14,96z"/>
     <path class="fil4" d="M6043 8785c19,31 -2,29 39,68 36,34 83,44 131,19 52,-28 51,-3 79,-63 9,-20 5,-1 14,-20l23 -87c35,9 88,66 103,96 28,56 58,133 30,200 -4,9 -7,22 -13,34 -34,82 -88,98 -162,139l-129 69c-22,15 -37,23 -62,35l-133 65c-14,8 -21,8 -35,14l-106 47c-82,35 -163,56 -256,40 -100,-18 -161,-171 -112,-297 24,-60 -3,-58 65,-85 135,-54 264,-154 381,-213 22,-11 126,-59 143,-61z"/>
     <path class="fil2" d="M3479 7120l6 3c19,10 33,29 46,43 8,7 16,9 27,17 35,24 46,54 99,41 151,-35 191,-219 385,-190 170,49 185,207 303,314 7,7 13,12 21,18 23,17 68,2 86,-17 30,-32 37,-65 93,-66 32,-1 65,21 92,32 53,23 75,86 108,131 14,18 18,34 32,51 9,11 8,14 12,29 7,26 15,34 29,54 136,203 290,-116 499,-173 34,-9 104,-6 134,7 33,16 66,47 79,83 10,26 42,60 59,104 4,12 47,105 53,111 10,10 40,21 58,22 77,2 76,-106 81,-164 8,-97 20,-193 31,-290 14,-116 80,-271 100,-383 9,-49 21,-88 29,-135 4,-20 19,-132 22,-136 14,-23 11,-4 21,-58 5,-24 6,-50 7,-77 6,-151 35,-291 26,-440 -7,-95 -11,-237 -44,-322 -14,-39 -87,-147 -119,-142 -15,2 -14,4 -24,13 -18,16 -17,12 -24,42 -16,76 -22,161 -33,239 -9,58 4,62 -20,116 -45,-18 -20,-126 -21,-176 0,-47 10,-115 12,-193 1,-65 10,-186 -14,-241 -13,-28 -18,-74 -55,-153l-34 -71c-12,-23 -50,-76 -68,-88 -18,-13 -23,-31 -50,-54 -37,-31 -67,-76 -110,-97l-31 -18c-17,-17 -38,-28 -61,-37 -24,-8 -30,-8 -57,-10 -8,-22 -4,-17 -41,-27 -101,-29 -198,-54 -301,-74 -47,-9 -97,-2 -143,-5 -23,-1 -35,-11 -60,-10 -56,3 -164,6 -210,16 -61,13 -124,20 -184,40 -49,17 -118,28 -174,46 -36,12 -66,33 -101,49 -134,64 -332,205 -429,321 -10,12 -23,27 -35,40 -77,82 -139,185 -198,281l-69 121c-9,17 -17,34 -24,51l-23 52c-25,74 -56,144 -77,222 -6,22 -11,37 -16,58 -19,94 -36,152 -44,252 -1,23 -7,45 -7,67 1,137 -2,147 16,282 5,37 25,155 37,188 7,18 11,40 16,59 7,26 17,20 10,57 -29,175 157,124 272,175z"/>
     <path class="fil8" d="M4506 5019c19,0 44,-8 61,-13 5,-28 -1,-64 4,-99 3,-27 7,-57 11,-88l92 -4c-1,43 -8,139 -17,176 -13,52 -16,108 -6,166l54 -13c19,-6 13,-56 15,-78 4,-28 9,-50 13,-81 6,-54 10,-114 14,-169 39,2 68,4 109,4 -9,54 -37,133 -15,182 89,22 52,-21 69,-89 6,-25 14,-57 20,-81 16,1 99,17 107,21 5,6 7,-6 4,19 -8,61 -58,74 -15,156l47 -2c5,-9 23,-106 47,-154l64 20c21,8 49,10 67,22 -13,30 -70,98 -75,125 -1,10 0,13 3,24l10 26c48,3 50,-23 71,-56l48 -82c17,0 47,21 61,30l35 31c10,11 6,6 11,19 -32,12 -58,50 -84,74 -155,139 100,-17 131,-34 9,5 20,12 27,19 4,5 3,5 10,12 16,17 48,54 50,76 -15,-2 -428,166 36,52 13,10 43,81 46,103 -136,68 -167,191 -41,110 17,-11 56,-44 64,-47 14,26 17,109 13,144 -195,125 -141,84 -3,70 7,73 -12,238 -17,321 -4,55 6,94 47,121 46,29 122,-28 139,-75 4,-11 9,-39 13,-45 5,-8 54,-25 70,-24 16,0 4,-3 12,3 7,11 15,127 13,146 -18,0 -113,17 -129,31 -6,5 -2,2 -8,8l37 16c10,5 15,9 30,9 30,0 48,-15 70,-21 8,70 -8,161 -11,234 -22,4 -116,-3 -143,-5 -25,-2 -53,1 -75,2 -20,1 -65,-11 -84,5 -12,10 -15,22 -17,45 13,8 9,9 27,15 9,3 22,5 31,6l248 5 -8 151c-43,12 -133,-13 -183,-10l-16 17c-1,0 -3,0 -4,1 3,20 3,15 12,30 19,33 144,37 176,36 1,24 -12,68 -17,93 -81,-6 -125,-29 -134,-30 -11,0 -16,2 -23,3 -23,2 -5,0 -23,-3 -1,11 -1,20 1,27 6,20 -3,7 14,16l-7 4c-6,7 -1,-3 -4,8 40,29 109,65 157,37l-28 149c-32,0 -71,-19 -92,-30 -43,-22 -49,-19 -102,-16 -5,19 -6,21 6,38 21,31 17,15 49,39 30,22 72,39 110,40 -2,13 -3,20 -5,31l-5 21c0,1 -1,2 -1,3l-3 7c-6,19 -12,38 -15,58 -37,0 -79,-29 -94,-46 -10,2 -14,14 -11,7 -5,-5 -5,-35 -36,-23 -16,6 -9,0 -10,11 -2,10 7,18 9,29 4,20 -6,28 26,51 34,24 43,35 91,41 3,38 -14,100 -19,141 -40,-2 -104,-84 -130,-76 -14,4 -5,6 -28,6 -1,18 2,32 9,45 0,1 1,2 1,2l14 17c20,24 37,43 69,55 2,1 10,3 13,5l23 12c8,2 11,1 18,4 2,28 -14,230 -22,241 -15,-5 -19,-31 -24,-45l-71 -145c-18,-37 -42,-53 -69,-77 -41,-36 -46,-26 -99,-45 -2,-35 56,-121 -1,-129 -66,-9 -66,85 -82,126 -41,5 -67,15 -98,20 2,-36 35,-84 3,-101 -53,-31 -76,56 -82,89 -6,32 2,33 7,51 -29,13 -57,44 -80,50 2,-20 11,-35 2,-52 -17,-35 -63,-4 -73,14 -29,50 5,55 25,71 -17,33 -64,54 -90,81 -12,12 -13,18 -34,22 -35,-16 -69,-109 -91,-147l-47 -73c-6,-10 -14,-28 -22,-38 -10,-11 -26,-20 -37,-26 -23,-13 -22,-31 -70,-48 -92,-32 -113,-63 -224,13 -17,12 -19,21 -34,29 -89,-127 -187,-318 -365,-323 -101,-3 -154,28 -220,68 -31,19 -49,44 -76,64 -20,14 -57,59 -85,55 -7,-39 17,-76 14,-124 -71,-26 -68,12 -87,66 -17,0 -17,-4 -29,-11l-26 -14c-22,-14 -17,-19 -46,-33 3,-25 63,-85 6,-98 -41,-9 -64,50 -84,73 -132,2 -111,-32 -26,-113 26,-26 58,-36 54,-83 -43,-36 -74,5 -117,42 -15,13 -17,27 -36,29 -10,-25 -45,-142 -45,-171 12,-31 178,-84 123,-132 -32,-28 -124,46 -130,54 -23,-26 -19,-151 -17,-178 40,-26 111,-26 155,-64 23,-20 3,-34 -4,-48 -54,0 -99,36 -152,41 -1,-29 1,-186 23,-192 25,-7 60,-5 87,-6 30,-1 68,-2 100,-5 21,-3 77,-5 96,-10 2,-1 35,-13 37,-15 31,-22 9,-71 -52,-53 -26,7 -133,8 -168,9 -34,0 -60,5 -90,6 5,-53 40,-189 59,-231 37,4 59,10 101,10 212,1 -69,-58 -78,-63 1,-24 38,-116 52,-131 44,23 78,61 135,55 -4,-19 -13,-13 -21,-29 -14,-25 0,-13 -24,-33 -56,-48 -78,-56 -24,-121 22,2 33,7 51,19 16,10 38,11 56,16 0,-34 -7,-36 -36,-63 -12,-11 -27,-20 -34,-34 7,-17 34,-55 47,-74l47 26c28,30 58,44 101,42 -3,-21 -25,-32 -37,-48 0,-1 -1,-2 -2,-3l-22 -30c-8,-9 -8,-8 -16,-16 -5,-5 -24,-29 -27,-34l29 -42c21,5 30,21 46,26 29,9 36,32 67,36 45,5 -21,-63 -32,-77l-32 -40c5,-16 34,-47 45,-53 9,8 16,17 24,25 28,26 56,48 101,43 3,-27 -14,-47 -30,-66 -38,-49 -7,-29 -49,-50 11,-12 57,-54 73,-62 43,40 38,70 93,72 17,0 23,7 47,6 1,-25 -1,-9 -8,-20 -22,-38 -15,-19 -31,-40 -13,-19 -33,-42 -35,-71 29,-15 66,-51 93,-58 13,13 15,22 26,36 21,26 37,43 71,44 22,0 28,8 51,-1 -5,-10 -5,-5 -12,-11 -10,-10 0,0 -8,-12 -20,-31 -52,-60 -59,-99 18,-14 54,-35 75,-39 10,34 22,62 41,87 12,16 18,19 32,30 1,0 2,1 2,2 1,0 2,1 3,2l33 6c1,1 2,1 3,1l17 4c2,-16 -5,-33 -10,-46 -17,-37 -44,-66 -53,-118 20,-13 91,-27 122,-30 -1,51 0,98 30,134 11,14 30,20 48,21 23,2 4,2 24,-6 -16,-64 -41,-63 -29,-169 31,-6 100,-22 128,-18 -3,31 -22,129 -20,155 2,22 6,19 18,36z"/>
     <path class="fil2" d="M5850 5861c-4,-30 -2,-275 53,-102 4,13 6,30 10,43 3,12 6,27 6,41l-69 18z"/>
     <path class="fil3" d="M4951 7093c22,-7 27,-153 31,-183 7,-44 24,-74 18,-120 -47,-6 -122,-21 -135,-68 -14,-51 -27,-123 -43,-164 -12,-32 -55,-219 -70,-273 -12,-40 -9,-16 7,-47 19,-34 -7,-139 -96,-135 -26,2 -1,4 -25,8l-102 -99c-17,-17 -23,-14 -39,-32 -29,-31 -23,-29 -53,-48l-173 -140c-22,-21 -45,-50 -70,-67 -47,-32 -121,-110 -151,-126 3,-23 10,-23 6,-50 -16,-121 -21,-70 -106,-110 -17,-7 -23,-12 -39,-19 -24,-9 -53,-17 -79,-31 -21,-12 -46,-40 -74,-15 -41,36 5,84 23,158 9,37 17,47 28,84 8,27 -2,18 34,44 24,18 97,0 122,-4 35,-7 57,5 79,28 31,32 83,74 92,84l381 377c17,13 10,19 40,44 0,1 1,2 2,2 36,31 26,2 42,37 15,35 44,41 59,51 18,12 26,54 31,79 8,32 15,56 25,86 17,58 30,118 45,175 20,77 53,135 5,216 -6,9 -18,25 -20,36 -9,49 82,73 132,138 13,17 43,93 73,84z"/>
     <path class="fil2" d="M6856 7956l38 0c26,-4 -14,-6 34,-7 2,-22 7,-27 -10,-32 0,-12 20,-13 -1,-96 -8,-34 -11,-67 -21,-99 -12,-43 -28,-98 -34,-141 -6,-40 -75,-228 -92,-265l-24 -65c-3,-8 -3,-14 -8,-23l-36 -83c-21,-62 -34,-73 -54,-122 -13,-31 -25,-54 -39,-80 -34,-63 -70,-163 -91,-204 -16,-31 -54,-177 -57,-181 -12,-15 -29,-19 -45,-13 -12,5 -23,21 -25,34 -6,36 27,106 37,140 12,44 27,89 46,130l78 160c3,8 4,14 9,22 3,7 7,13 10,20l73 166c22,52 47,132 64,174l33 86c12,39 16,29 28,92l65 260c9,54 -1,78 22,127z"/>
     <path class="fil2" d="M2141 6055c14,8 14,14 38,11 13,-1 31,-12 37,-19 9,-11 28,-103 40,-127 27,-58 37,-125 82,-200l125 -214c16,-26 29,-43 45,-65l51 -64c16,-19 34,-39 52,-58 23,-23 32,-36 55,-59l119 -107c21,-18 41,-32 65,-49 15,-10 66,-32 53,-54 -4,-8 -29,-17 -36,-17 -22,2 -202,149 -225,172 -79,79 -193,206 -256,304l-41 73c-26,36 -63,107 -80,144 -7,14 -9,24 -16,37l-108 292z"/>
     <path class="fil2" d="M1601 2653c-45,17 -76,-22 -108,24 -18,24 -23,44 -11,67 13,26 7,31 33,54 16,15 14,8 24,28 -9,18 -47,29 -39,69l14 56c12,38 -4,7 30,52 16,20 4,11 28,38 8,9 19,25 32,28 8,2 13,1 19,-2 1,0 2,-1 3,-2l14 -10c-1,-19 -29,-64 -43,-79 -19,-20 -34,-63 -27,-101 42,-26 82,-10 36,-70 -11,-15 -21,-23 -35,-41 -19,-25 -25,-16 -23,-59 70,-1 68,-5 111,-29 36,-20 14,-50 -2,-99 -6,-19 -2,-18 -12,-37 -3,-8 -2,-2 -6,-16 -9,-27 -5,-42 -12,-63 -5,-15 -7,-21 -10,-39 -5,-32 -13,-53 -18,-79l-12 -134c1,-21 6,-25 6,-43 -13,-8 -9,-14 -26,-14 -11,0 -23,8 -29,15 -12,15 -19,41 -19,64 2,117 44,274 78,386 4,12 8,23 4,36z"/>
     <path class="fil2" d="M4481 258c32,31 67,-11 94,-28l70 -44c12,-7 12,-11 24,-15 5,7 15,32 18,39 25,66 52,29 116,18 43,-7 121,1 154,-17 25,-15 6,-10 54,-13l-3 56c25,20 73,9 137,14l168 31c13,2 24,-1 38,3 39,13 -26,2 64,15l51 9c46,5 50,28 61,1 5,6 4,12 18,20 20,11 15,0 44,21 11,8 36,27 51,19 10,-5 0,4 8,-9 1,-1 1,-3 2,-4 0,0 1,-2 1,-3 21,3 22,8 21,-24 -23,-13 -22,-8 -46,-24 -18,-12 -7,-4 -27,-8 -29,-6 2,-3 -26,-13 -48,-17 -83,-19 -126,-25 -74,-10 -6,-7 -91,-20l-89 -17c-12,-2 -11,0 -23,-3 -17,-5 -12,-10 -24,4 -13,-22 -15,-17 -71,-20 -38,-1 -49,7 -76,-10 -2,-28 24,-47 11,-72 -17,-17 -116,23 -159,32 -67,14 -61,-2 -130,15l-33 5c-18,-3 -21,-19 -26,-48 -5,-32 -2,-27 -19,-50 -50,5 -32,13 -64,35 -19,13 -43,26 -61,40 -19,15 -39,28 -62,39 -24,13 -49,21 -49,51z"/>
     <path class="fil2" d="M3801 117c-10,-17 2,-36 -23,-41 -41,-9 -66,64 -118,81 -7,-19 -9,-34 -15,-56 -26,-3 -24,-2 -39,10 -11,9 -21,15 -30,24 -35,36 -73,79 -115,105 -18,12 -57,33 -74,34 -37,-75 18,-74 -18,-112 -30,0 -52,40 -73,76l-39 54c-19,26 -26,37 -14,57 19,31 50,-9 60,-29 18,-33 13,-22 29,-25l4 31c14,4 19,12 39,8 23,-5 53,-22 75,-35 3,-2 4,-3 8,-5l117 -89c15,-16 7,-20 32,-27l7 25c2,6 9,16 12,22 67,-3 64,-38 109,-63l6 11c2,6 3,10 4,18l25 1c1,0 2,0 3,0 0,0 2,1 2,1 13,2 33,-11 41,-21 39,-43 93,-89 114,-115 18,-22 56,-58 -13,-56l-80 86c-16,14 -24,26 -36,30z"/>
     <path class="fil2" d="M6666 3985c-40,-5 -26,-75 -110,-48 -12,3 -43,24 -49,30 -14,14 -23,57 -44,35 -1,-1 -2,-2 -2,-2l-4 -5c-33,-35 -67,6 -86,17l-76 57c-53,45 -25,43 -86,90 -16,12 -26,21 -43,32 -31,21 -59,25 -44,58 9,20 36,30 69,-2 10,-10 8,-7 20,-16 8,-5 10,-8 20,-15l79 -62c33,-30 17,-20 29,-42 8,-14 58,-56 83,-58 16,7 21,18 40,23 14,4 28,-5 44,-13 33,-16 39,-54 66,-68 21,16 26,39 54,46 38,9 111,-5 124,-79 22,-126 -64,-79 -71,-52 -8,32 18,-15 -13,74z"/>
     <path class="fil2" d="M6703 1393c5,4 7,7 12,13 7,6 8,6 13,13 3,4 2,4 5,8l47 46c10,9 20,7 32,18 -1,4 -56,57 1,85 13,7 20,5 25,24 10,-1 14,-3 28,-2 11,26 27,20 5,51 -18,27 -49,42 -27,77 7,11 12,12 23,16l39 20c8,7 4,2 11,11 2,31 -7,66 -14,92l-12 65c3,13 6,8 7,25 14,-4 10,-4 22,3 3,2 0,3 9,5l12 -10c1,-1 2,-2 3,-2 0,-1 2,-1 2,-2 6,-4 2,2 10,-8 12,-14 17,-46 17,-66 1,-31 1,-35 8,-59 12,-47 28,-53 -49,-94 -7,-4 -10,-5 -15,-16 -1,-1 -1,-2 -1,-3 -4,-11 -3,-7 2,-20 13,-30 61,-58 23,-89 -6,-6 -20,-11 -28,-17 -47,-30 -56,-29 -46,-61 9,-29 4,2 25,-30 12,-18 8,-2 11,-21 -20,-23 -56,-23 -78,-24 -18,-24 -35,-39 -52,-62 -11,-14 -15,-23 -37,-20 -20,3 -27,15 -33,34z"/>
     <path class="fil2" d="M5761 4244c12,-14 16,-24 28,-38 9,-10 19,-24 27,-35 43,-55 101,-184 131,-253 13,-28 28,-60 40,-87 15,-34 110,-300 53,-291 -24,3 -35,58 -40,88l-152 355c-19,41 -65,131 -91,164 -69,85 -24,35 -43,80l20 9c16,8 6,7 27,8z"/>
     <path class="fil2" d="M6229 3002c0,-18 -14,-52 -16,-71 -6,-40 13,-212 20,-250 11,-55 25,-89 45,-136 14,-33 56,-102 49,-131 -65,-21 -90,60 -116,121 -75,171 -66,225 -74,411 -1,12 3,44 7,54 19,46 117,28 93,5l-6 -2c0,0 -2,0 -2,-1z"/>
     <path class="fil2" d="M6358 2585c-25,16 -39,40 -47,78 -14,72 -64,130 -8,208 18,24 52,20 70,7 16,-10 39,-52 50,-74 20,-39 56,-163 12,-195l-8 -8c-6,-11 2,-10 -13,-18 -15,-9 -42,-8 -56,2z"/>
     <path class="fil2" d="M4059 2767c-30,8 -38,38 -36,49 3,12 3,5 21,27 21,-6 41,-14 63,-20l139 -22c38,-2 112,-2 148,8 337,99 141,-165 -335,-42z"/>
     <path class="fil2" d="M3565 2379c-44,25 -19,-7 -54,38 -27,35 -23,44 -13,98 4,18 0,32 8,47 3,5 18,25 25,31 43,36 199,-26 169,-137 -15,-55 -90,-102 -135,-77z"/>
     <path class="fil2" d="M2913 4449c1,0 2,1 2,1 111,70 -60,-113 -85,-138 -5,-8 -233,-501 -195,-196 4,35 30,74 45,103 73,143 121,147 233,230z"/>
     <path class="fil2" d="M2514 2474c-59,-3 -56,57 -36,102 48,112 47,241 30,361 -4,22 -15,54 12,58 21,4 44,-11 51,-24 7,-15 13,-211 12,-238 -1,-45 -12,-97 -24,-138 -20,-72 -32,-78 -45,-121z"/>
     <path class="fil2" d="M4977 2455c-14,4 -24,8 -33,16 -18,16 -7,15 -13,36 -4,13 -12,15 -17,31 -5,19 1,24 1,41 1,35 -2,59 24,74 46,28 161,-31 149,-122 -6,-45 -63,-90 -111,-76z"/>
     <path class="fil2" d="M2418 2856c69,-1 83,-49 84,-118 1,-80 -25,-101 -56,-148l-29 12c-17,10 -31,89 -35,108 -12,58 12,114 36,146z"/>
     <path class="fil2" d="M2098 1619c-19,-65 -18,-141 -16,-220 2,-83 32,-136 -7,-134 -66,3 -65,181 -62,235 5,83 -4,134 43,136 31,1 31,-7 42,-17z"/>
     <path class="fil2" d="M2611 7722l18 -20c0,0 1,-2 1,-2 1,-1 2,-2 2,-3l6 -5c8,-9 2,9 7,-7l-6 -6c-23,-23 -25,-39 -53,-70l-34 -59c-23,-41 -36,-65 -35,-112 -32,-25 -73,-12 -74,35 0,53 42,112 48,124 16,38 41,80 70,107 24,24 23,6 50,18z"/>
     <path class="fil2" d="M5707 8784c4,-2 38,-5 53,-11 2,-76 -62,-195 -109,-255 -20,-25 -36,-42 -81,-42 -16,47 1,49 24,77 60,72 78,170 113,231z"/>
     <path class="fil2" d="M6059 9238c8,-36 5,-62 -3,-94 -5,-16 -10,-23 -16,-38 -12,-29 1,-25 -24,-59 -27,-38 -18,-38 -31,-52l-5 -5c-9,-11 -12,-37 -64,-40 -26,33 -3,48 14,72 15,20 32,54 40,80 24,73 8,110 45,131 31,18 14,7 44,5z"/>
     <path class="fil2" d="M5629 8786l10 -17c14,-21 -4,-2 17,-14 -2,-27 -22,-78 -37,-100l-19 -29c-14,-26 -23,-34 -38,-55 -20,-30 -24,-33 -66,-33 -6,15 -15,18 -13,36 2,14 12,21 21,34 45,60 45,46 79,123l17 31c14,25 12,4 29,24z"/>
     <path class="fil2" d="M5932 9215l8 9c6,7 -2,1 4,4 11,-68 -38,-147 -63,-208l-16 -20c-1,-1 -6,-5 -8,-6 -12,-6 -23,-5 -33,4 -29,26 21,108 33,138 10,26 17,47 25,70 9,27 41,39 50,9z"/>
     <path class="fil2" d="M2838 427c-82,11 -35,48 -58,141 -5,22 -21,44 -34,63 -7,10 -43,43 -4,55 37,12 69,-50 85,-76l10 -16c17,-33 17,-89 15,-129 -1,-32 -4,-11 -14,-38z"/>
     <path class="fil2" d="M2219 5456c15,-21 22,-16 36,-48 34,-74 96,-143 100,-159 -38,-63 -89,24 -113,58l-39 66c-8,12 -15,20 -21,32 -22,44 10,45 37,51z"/>
     <path class="fil2" d="M6134 9475c28,110 7,145 62,141 23,-2 17,3 24,-3 20,-18 -16,-150 -23,-170 -2,-6 -4,-13 -5,-17 -16,-38 -82,-44 -68,16 2,9 7,20 10,33z"/>
     <path class="fil2" d="M5403 8256l1 -35c9,4 3,2 8,6 12,10 -7,-1 9,8 0,-23 -3,-17 -11,-32 -33,-62 -68,-164 -160,-158 -1,67 19,42 63,119 12,22 6,9 20,24 10,12 9,18 17,31 8,14 39,31 53,37z"/>
     <path class="fil2" d="M6882 8208c34,2 39,5 72,0l-8 -144c-41,-30 -77,-13 -79,30 -7,123 5,59 15,114z"/>
     <path class="fil2" d="M5852 4555c38,12 51,21 112,-46 16,-17 28,-28 45,-48 28,-32 42,-1 43,-49 -16,-17 -40,-33 -61,-4l-93 92c-25,24 -41,33 -46,55z"/>
     <path class="fil2" d="M5876 2680c14,1 3,3 15,-2 21,-7 34,-63 45,-96 7,-20 47,-112 22,-121 -23,-8 -37,21 -43,35 -15,32 -4,-12 -24,53 -10,32 -32,95 -15,131z"/>
     <path class="fil2" d="M5303 8266c24,-11 -8,-9 19,-16 10,-2 -4,8 11,-1 -27,-56 -29,-47 -59,-81 -24,-27 -39,-55 -90,-51 -19,47 -13,37 37,86 12,11 20,22 36,35 29,24 21,12 46,28z"/>
     <path class="fil2" d="M2163 6407c2,-16 8,-117 7,-123 -10,-7 -36,-27 -56,1 -24,34 -45,163 23,137l26 -15z"/>
     <path class="fil2" d="M2831 2874c7,-11 -9,-3 5,-22 0,0 1,-1 2,-1 -40,-28 -90,-114 -113,-147 -12,13 -32,17 -23,49 6,20 72,116 129,121z"/>
     <path class="fil2" d="M2142 1184c11,12 30,5 42,-1 11,-5 8,-4 18,-8 -9,-20 2,-66 1,-95 -10,-8 -24,-17 -44,-1 -1,0 -21,22 -21,23 -8,16 -7,73 4,82z"/>
     <path class="fil2" d="M6850 2095c13,29 51,22 77,6 1,-43 -57,-42 -77,-6z"/>
     <path class="fil2" d="M2299 910c-8,2 -26,-5 -40,22 -19,36 47,26 61,0 6,-11 7,-24 -9,-26 -16,-2 -12,4 -12,4z"/>
     <path class="fil5" d="M4901 3559l0 -37c-19,-4 -46,-12 -82,-15 -39,-3 -68,1 -108,-5 -55,-9 -159,-12 -215,5 -1,73 -14,137 -11,213 34,27 94,41 149,43 29,1 57,10 87,8 75,-4 123,6 145,-43 21,-45 10,-110 31,-162 2,-3 3,-5 4,-7z"/>
     <path class="fil3" d="M4960 3536l0 7 0 0c0,2 0,4 0,7l-6 24c-4,16 -10,34 -11,54 -5,62 -27,181 -96,205 23,22 60,19 89,34 12,5 16,7 28,12 12,5 17,11 24,15 29,19 39,23 66,49 20,19 60,55 72,82l45 109c51,-35 81,-150 98,-227 15,-71 26,-232 15,-296 -2,0 -17,-6 -23,-7l-32 -7c-1,0 -2,-1 -3,-1l-12 -1c-21,0 -85,-20 -111,-27 -56,-13 -32,-2 -92,-19l-51 -13z"/>
     <path class="fil5" d="M6215 9720c25,-12 88,-30 119,-30 66,83 282,428 174,437 -72,25 -57,74 -129,-65l-40 -77c-3,-9 -7,-22 -9,-32 33,-16 75,-30 77,-48 -3,-23 -22,-41 -48,-33 -28,9 -26,23 -67,26 -13,-22 -15,-3 -24,-36 -15,-54 -52,-99 -53,-142z"/>
    </g>
   </g>
  </g>
 </g>
</svg>
