<?xml version="1.0" encoding="UTF-8"?>
<!DOCTYPE svg PUBLIC "-//W3C//DTD SVG 1.1//EN" "http://www.w3.org/Graphics/SVG/1.1/DTD/svg11.dtd">
<!-- Creator: CorelDRAW X7 -->
<svg xmlns="http://www.w3.org/2000/svg" xml:space="preserve" width="84.6666mm" height="125.053mm" version="1.1" style="shape-rendering:geometricPrecision; text-rendering:geometricPrecision; image-rendering:optimizeQuality; fill-rule:evenodd; clip-rule:evenodd"
viewBox="0 0 8467 12505"
 xmlns:xlink="http://www.w3.org/1999/xlink">
 <defs>
  <style type="text/css">
   <![CDATA[
    .fil10 {fill:#1F1B20}
    .fil8 {fill:#235C75}
    .fil7 {fill:#781A1A}
    .fil4 {fill:#E5097F}
    .fil2 {fill:#E98619}
    .fil3 {fill:#F7CD86}
    .fil9 {fill:#FFE51E}
    .fil6 {fill:white}
    .fil5 {fill:black}
    .fil1 {fill:black}
    .fil0 {fill:url(#id0)}
   ]]>
  </style>
  <linearGradient id="id0" gradientUnits="userSpaceOnUse" x1="6051.32" y1="3662.39" x2="2415.38" y2="10987.6">
   <stop offset="0" style="stop-opacity:1; stop-color:#1DE8FF"/>
   <stop offset="1" style="stop-opacity:1; stop-color:#DD00FF"/>
  </linearGradient>
 </defs>
 <g id="Layer_x0020_1">
  <metadata id="CorelCorpID_0Corel-Layer"/>
  <g id="_2183327930128">
   <path class="fil0" d="M1957 11119c-1946,-1005 -1989,-2755 -1949,-4865 40,-2111 3880,-3691 5825,-2687 1945,1005 4134,6173 1220,6326 -2914,153 -3151,2231 -5096,1226z"/>
   <path class="fil1" d="M1777 1085c1,0 1,0 2,0 -10,-59 -13,-126 -9,-168 3,-35 14,-60 13,-89 -49,-7 -90,-6 -129,-37 -16,-12 -19,-9 -32,-19 -22,-15 -75,-94 -84,-132 -16,-59 -6,-124 -64,-154 -6,-3 -64,-39 -66,-42 -22,-28 -7,-58 22,-69 34,-14 154,-11 196,-11 89,0 184,21 257,69l66 43c58,46 63,56 100,110 25,-5 63,-31 86,-43 18,-10 18,-13 38,-23 56,-25 220,-76 229,-81 5,-65 -5,-84 20,-150 33,-89 27,-58 59,-121 20,-39 20,-98 39,-142 27,-60 68,-4 99,22 33,29 19,1 46,46 13,21 27,25 42,47 17,26 34,59 52,81 26,31 59,108 76,147 25,55 23,88 23,153 44,14 111,140 128,186 32,88 28,115 35,204 2,19 2,16 11,28 5,5 11,13 17,19 48,52 149,84 214,101 51,13 118,-20 107,37 -5,26 -20,23 -47,30 -20,6 -43,8 -60,17 12,6 98,23 118,24 86,6 60,-26 119,-18l-1 41c-29,13 -32,23 -58,39 -24,17 -31,27 -52,42l-69 49c-9,6 -22,8 -31,16 -7,7 -1,-10 -8,13 34,18 89,-7 120,-4 39,47 -35,66 -72,82 -20,9 -42,9 -50,25 40,29 71,-9 69,52 -29,22 -57,19 -86,36 -10,-3 -4,-8 -17,-8 -9,-1 -18,3 -24,5 7,2 9,1 14,3 12,4 4,-1 12,6 -43,0 -123,-18 -152,-12 5,26 27,27 1,61 -44,19 -80,-3 -103,43 7,11 73,52 86,64 52,46 50,56 72,78 64,62 163,37 229,65 35,14 74,21 105,44l77 68c45,53 55,193 -53,222 -16,5 -65,-6 -86,-10 -225,-43 -207,-1 -347,-14 -35,-3 -133,-39 -163,-61 -21,-15 -17,-16 -30,-41 -9,-17 -18,-27 -27,-46 -35,-74 -36,-76 -87,-135 -12,-14 -17,-25 -29,-41 -36,8 -48,27 -87,34 -97,19 -101,67 -316,8 9,53 30,120 30,178 0,123 8,108 72,178l73 70c13,11 21,25 35,38 42,38 74,72 98,119 22,43 33,149 21,191 -26,94 -155,176 -242,107 -19,-16 -43,-28 -57,-46 -23,-27 -26,-30 -51,-52 -19,-16 -28,-33 -45,-53 -11,-12 -18,-14 -27,-25 -13,-16 -6,-14 -22,-29l-55 -44c-13,-9 -23,-7 -34,-17 -45,-35 -39,-73 -49,-100 -16,27 -43,173 -90,263 -45,86 -85,133 -143,207 -52,67 -105,133 -165,186l-93 83c-95,78 -99,106 -129,133 -16,15 -29,17 -49,39l-159 192c-31,38 -59,58 -64,112 -21,217 -55,244 -17,473 33,197 101,340 193,513 67,126 124,205 212,315 27,33 50,62 79,96 27,33 49,73 72,104 12,18 26,30 39,47 64,82 89,131 144,208 48,68 61,102 99,163 27,43 87,203 101,250 28,96 31,152 47,215 4,15 8,23 7,40 -2,20 -9,10 -1,33 37,18 35,-4 72,29 4,34 -5,75 -3,114 4,65 25,130 47,189 11,30 53,76 13,99l-21 11c7,48 88,150 116,200 14,24 19,32 32,50 13,19 18,30 31,47 22,29 35,60 61,94 67,89 129,185 197,273 18,24 45,70 70,87 19,-7 32,-19 44,-30 18,-16 17,-19 26,-46 14,-43 41,-45 67,-78 10,-12 3,-8 20,-17 35,-21 29,-14 64,-44 79,-66 79,-84 124,-129 28,-27 54,-69 77,-104 73,-112 108,-285 192,-385 14,-16 74,-29 101,-43 29,-13 66,-35 94,-51l149 -67c54,-26 42,-92 120,-98 41,-4 98,-8 112,27 -16,17 -12,1 -20,20l9 18c16,-6 6,-2 17,-14 21,-25 64,-36 95,-48 46,-17 71,-37 101,-63l3 -116c-143,-10 -305,-38 -420,-86 -127,-53 -269,-113 -381,-187 -95,-62 -206,-204 -263,-305 -35,-61 -48,-113 -71,-176 -8,-22 -21,-81 -28,-95 -24,4 -25,12 -57,11 -26,-1 -84,-12 -102,-28 -55,-48 8,-56 22,-97l-18 -3c-109,-11 -3,-86 -118,-142 -13,-7 -21,-12 -33,-19l-55 -22c-15,-9 -38,-16 -32,-41 28,-46 64,-3 81,-47 -17,-10 -22,-7 -38,-16 -20,-10 -35,-33 -56,-42 -26,-11 -49,2 -44,-41 7,-78 37,-50 37,-91 -22,-8 -44,-11 -61,-22 -15,-10 -42,-19 -58,-24 1,-36 21,-50 34,-76 7,-16 9,-28 17,-40 9,-13 14,-12 22,-29l-8 -3c-1,0 -2,0 -4,-1l-30 -11c-61,-49 21,-123 57,-177 10,-16 10,-18 24,-33 10,-11 17,-14 23,-28 -19,-18 -31,-17 -51,-37 -16,-16 -30,-34 -18,-62 31,-74 66,7 114,-36 -8,-22 -31,-32 -54,-47 -18,-11 -43,-31 -58,-45 -14,-13 -30,-41 -43,-60 -22,-32 -20,-28 -3,-63 40,0 27,24 87,21 83,-5 147,-66 155,-156 -29,-28 -71,-39 -64,-98 6,-52 21,-74 71,-91 34,-11 30,-3 60,-23l76 -41c29,-16 51,-15 78,-36 -14,-13 -45,-14 -59,-22 -2,-38 116,-154 144,-172 60,-38 134,-44 205,-42 -11,-40 -95,-101 -87,-160 9,-71 95,-70 167,-71 33,63 147,96 211,58 64,-38 65,-78 86,-142l4 -11c5,-13 9,-28 26,-26 33,15 20,38 24,74 7,51 53,93 109,75 24,-7 37,-28 52,-46 35,-42 35,-146 116,-105 35,17 36,70 62,82 40,18 70,-53 87,-78 20,-31 33,-77 46,-114 14,-38 -4,-65 54,-51 10,36 -21,113 -7,165 2,8 2,7 5,12l4 7c27,-4 82,-40 87,-69 6,-36 -4,2 -12,-34 1,-1 3,-2 4,-2 1,-1 3,-1 4,-2l28 -4c7,-24 15,-74 46,-53 17,13 9,17 19,40 18,42 52,44 91,63 27,12 41,24 66,37 14,7 20,12 35,16 42,11 83,34 128,15 46,-21 55,-7 83,-21 20,-11 37,-31 55,-48 15,-15 17,-11 30,-21 20,-16 25,-40 48,-16 42,42 89,37 106,100 16,61 -32,145 0,187 1,1 2,2 3,3 9,11 -6,1 13,10 11,6 40,12 50,14 31,4 26,0 44,-9 23,-10 34,-4 55,-8 13,-4 25,-15 35,-20 64,-34 78,-151 117,-91 15,21 -2,31 30,62 18,-9 27,-24 52,-26 37,-3 97,5 119,36 20,28 50,53 63,87 33,84 31,101 22,194 34,-9 24,-15 51,6 62,48 47,46 89,107 16,22 41,53 48,82 18,70 -18,165 32,215 9,8 31,21 42,26 64,30 136,-139 163,-144 44,4 37,41 44,86 18,117 -100,191 -110,253l23 -1c13,-18 3,-37 29,-45 27,-8 37,6 43,23 18,51 31,188 9,238 -13,32 -44,55 -54,81 8,15 27,41 50,48 18,4 56,-11 79,-11 14,14 43,84 43,107 0,46 -15,84 -27,118 -12,31 -33,74 -49,96 -28,37 -70,144 10,114 80,-28 47,-62 129,-48 2,13 -10,-5 7,14 -5,22 -19,26 -32,55 -9,19 -15,41 -23,60 -16,36 -48,84 -56,110 36,1 35,0 51,28 10,19 19,29 21,57 5,56 -51,113 -96,133 -23,10 -26,15 -45,26 -27,16 -86,19 -92,57 16,11 8,3 25,7l12 4c12,46 -13,46 -40,64 -26,18 -39,36 -58,51 -18,13 -47,27 -70,37 -32,14 -55,14 -95,14 -3,69 86,81 100,133 -21,36 -58,30 -101,15 -66,-23 -114,-59 -178,-89 -32,-15 -48,-52 -75,-60 -17,19 -55,125 -106,177 -27,28 -50,67 -72,93 -20,24 -37,40 -56,58 -50,45 -61,73 -117,110 -28,17 -32,33 -57,51 -77,56 -158,111 -243,154 -115,59 -126,36 -170,52 -38,13 -103,26 -143,28 -32,1 -70,2 -101,7 -7,19 -2,43 -3,64l63 35c56,32 160,77 221,73 14,-27 13,-52 52,-52 18,16 15,27 35,43 30,26 67,28 44,84l0 0 14 6c35,11 65,27 96,44 27,14 66,24 97,38 58,27 96,28 137,64 45,39 26,-2 51,88 12,44 12,112 30,171 19,59 45,147 72,196 65,115 140,215 245,297 15,12 21,22 35,32 20,16 29,3 47,20 41,39 -2,65 -12,82 -5,10 -14,37 -19,48 -17,36 -32,52 -48,87 -8,18 -16,24 -26,42 6,15 -1,0 6,10 22,27 13,37 23,71 16,51 88,166 121,203 90,96 55,73 93,125 44,60 77,36 56,153 -11,8 -15,10 -27,19l-66 62c-38,42 -66,89 -96,126 -30,37 -101,196 -132,256 -12,24 -19,35 -28,58 -8,19 -18,42 -26,62 -9,22 -12,47 -20,68 -28,79 -61,195 -55,288 32,28 140,118 177,130 28,9 43,-14 67,-22 7,-3 9,-5 20,-2 22,4 5,-1 15,9 38,39 80,46 58,85 -12,21 -33,21 -51,52 -21,35 -77,105 -87,140 -20,76 -90,63 -144,25 -13,-9 -16,-10 -30,-17 -140,-73 -128,-191 -184,-221 -1,49 22,121 32,172 21,114 31,225 62,340l57 192c27,71 135,379 129,416 -7,37 -34,26 -62,38 -18,7 -12,10 -32,17 -32,11 -102,7 -137,9 -8,60 29,214 32,293l16 299c0,187 -16,365 -17,552 -1,96 -9,179 -12,273 -1,26 -8,34 -8,62 -2,64 -15,122 -3,188 26,-6 40,-24 60,-36 105,-65 54,-39 133,-24 61,11 76,31 57,84 -7,19 -14,132 -14,151 41,-20 44,-69 158,-2 27,16 36,40 38,77 2,59 -9,51 -22,88 24,26 28,31 7,65 -27,44 18,58 -16,99 -281,-16 -437,-20 -719,-13 -53,1 -108,0 -160,5 -31,-27 -35,-24 -34,-84l9 -108 43 -8c0,-12 -8,-28 -12,-45 -15,-67 20,-167 77,-204 26,-18 36,-26 69,-44 3,-18 26,-100 34,-110 12,-16 27,-15 49,-23 42,-16 21,-6 56,3 -1,-24 -2,-49 -5,-72l-1 -114c16,-140 -16,-233 -17,-337 -1,-129 -34,-250 -46,-372 -3,-30 -13,-55 -20,-88 -12,-55 -36,-100 -59,-148l-94 -215c-23,-48 -38,-102 -59,-149 -66,6 -93,2 -152,-5 -113,-12 -140,-64 -155,-167 -16,-113 -30,-227 -66,-336l-57 -179c-8,-22 -37,-99 -50,-110 -22,27 -53,243 -56,294 -5,113 6,217 6,330 0,32 15,35 7,82 -31,22 -17,7 -43,17 -10,4 -20,17 -32,25 -43,28 -92,28 -140,41 -42,12 -108,12 -155,17 -6,11 -21,58 -25,71 -8,24 -15,43 -24,69 -15,45 -33,103 -43,149 -28,137 -37,264 -39,411 -2,139 15,658 36,709 73,8 135,-15 157,23 11,17 9,61 14,85 10,46 1,35 34,58 30,21 29,16 44,54 18,44 44,97 40,149 -2,25 -15,53 -12,75 57,3 85,20 64,78 -11,31 -10,26 -2,62 6,29 -7,51 -35,50l-302 -17c-57,0 -105,4 -160,0 -43,-2 -107,10 -159,10 -49,0 -300,4 -318,-3 -34,-78 -6,-120 -17,-147 -7,-19 -16,-15 -9,-43 18,-76 28,-116 115,-108 11,-20 6,-34 23,-49 10,-10 23,-13 35,-17l14 -5c-7,-30 -3,-95 7,-125 6,-20 50,-49 71,-62 64,-40 142,13 198,39 -2,-49 -29,-92 -40,-191 -4,-33 -19,-56 -22,-89l-32 -194c-9,-36 -16,-53 -21,-93 -8,-56 -16,-141 -29,-194 -15,-65 -13,-135 -26,-201 -14,-73 -27,-434 -29,-535 0,-35 4,-74 1,-108 -64,-3 -47,-3 -92,-31 -16,-10 -24,-5 -38,-19 -41,-40 -36,-39 -37,-100l-6 -356c0,-181 24,-204 33,-336 9,-128 46,-249 61,-384 2,-22 10,-44 12,-65 3,-32 7,-35 11,-61 7,-50 3,-83 15,-135 8,-32 32,-82 26,-118 -25,-9 -21,6 -38,-7 -13,-9 -22,-15 -29,-29 -8,-15 1,-325 1,-376 0,-206 41,-294 43,-400 -13,9 -37,51 -43,65 -14,32 7,40 -26,71 -38,6 -39,-5 -70,-12 -55,-13 -92,-68 -131,-106 -42,-42 -36,-47 -72,-88 -25,-27 -36,-61 -55,-90 -4,-6 -2,-4 -7,-9 -30,13 -110,94 -143,122 -19,16 -39,62 -60,74 -52,29 -103,-17 -126,-57 -21,-37 -48,-61 -76,-89 -12,-11 -5,-5 -14,-17 -36,-48 -57,-41 -114,-148l-43 -92c-11,-22 -34,-65 -42,-87 -37,-98 -81,-182 -115,-283l-122 -267c-41,68 -103,141 -192,143 -56,0 -50,-3 -89,-17 -25,-9 -51,-29 -71,-44 -115,-82 -83,-242 -87,-297 -3,-51 -4,-110 3,-162 5,-33 15,-57 19,-95 9,-82 -11,-109 9,-202 11,-51 8,-42 31,-84 16,-29 8,-51 50,-64 32,-10 65,10 94,-3 8,-9 -7,-34 -10,-68 -1,-14 -6,-27 -8,-38 -2,-13 0,-25 -2,-39 -3,-19 -16,-45 -22,-68 -16,-66 -47,-123 -79,-184 -19,-36 -49,-85 -67,-108 -13,-16 -27,-35 -39,-48l-121 -143c-51,-69 -103,-119 -161,-184 -46,-49 -182,-241 -224,-303l-95 -162c-26,-54 -62,-127 -79,-185 -13,-45 -25,-87 -38,-136 -14,-52 -16,-91 -22,-147 -25,-208 56,-509 165,-697 13,-21 24,-36 34,-53 10,-18 20,-38 32,-56 42,-72 89,-133 142,-204 57,-76 167,-243 209,-317l123 -223c38,-73 136,-293 154,-368 -17,11 -44,56 -64,76 -56,54 -34,18 -51,84 -16,61 -37,147 -75,194 -40,50 -62,56 -126,53 -42,-1 -44,3 -68,-23 -52,-56 -49,-146 -38,-215 6,-46 -10,-44 22,-72 46,-41 54,-41 83,-92 23,-40 18,-46 18,-97 -34,0 -70,0 -104,2 -18,1 -83,-13 -94,-4 -11,7 -47,99 -60,117 -71,100 -20,62 -112,115 -70,40 -32,13 -101,68 -23,18 -50,28 -55,59 -19,109 -2,80 -58,169 -39,62 -129,130 -207,138 -11,1 -95,-5 -104,-8 -18,-6 -12,-11 -36,-21 -69,-27 -125,-102 -70,-171 130,-164 75,-302 145,-426 10,-18 13,-15 33,-25 63,-31 121,-68 183,-101 37,-19 32,-33 38,-75 20,-130 52,-254 102,-356 42,-86 54,-75 17,-164 -17,-42 -71,-94 -127,-100 -76,-9 -161,14 -227,6 -59,-6 -126,-24 -180,-49 -52,-23 -87,-64 -118,-109l-43 -70c-39,-65 -69,-188 -133,-213 -67,-27 -99,-19 -155,-71 -43,-40 -83,-95 -49,-153 33,-56 71,-68 152,-75 56,-5 43,-6 97,10 2,1 3,1 5,2l37 15c22,5 23,7 36,20 19,22 44,34 62,52 66,67 91,122 127,213 10,23 20,61 31,82 42,80 34,56 67,104 38,57 144,88 205,50 22,-14 61,-15 94,-19 123,-15 186,53 260,75 18,5 21,9 37,20 14,11 21,20 30,26 16,-7 33,-21 46,-27 14,-6 38,-9 53,-14 -5,-29 -15,-16 -35,-33 -14,-12 -14,-29 -6,-44 18,-14 37,-5 65,-8 -5,-10 -42,-39 -54,-46 -26,-14 -40,-26 -12,-54 19,-3 94,23 120,29 20,5 42,7 59,13 23,8 33,18 56,22 -6,-60 -71,-52 -52,-98 27,-61 98,49 126,59 39,16 100,-60 141,-69l0 1c2,-1 4,-1 5,-1zm3332 6687c40,-33 71,-18 90,-22 23,-4 68,-37 95,-34 18,26 40,86 57,118 55,108 90,137 146,215 25,35 -47,142 -66,185l-76 193c-21,54 -70,231 -97,263l-77 -465c-15,-79 -25,-156 -45,-228l-27 -108c-10,-29 -15,-26 -3,-56 16,-38 3,-26 3,-61z"/>
   <path class="fil2" d="M2439 506c9,-17 22,-25 15,-56 -24,-103 2,-133 47,-227 7,-15 18,-30 26,-47 11,-27 21,-85 33,-110 50,-8 102,81 135,128 38,55 146,245 120,297 -10,20 -33,-3 -35,44 21,19 21,9 47,22 36,19 66,67 88,103 34,59 62,130 55,200 -4,34 -17,29 -11,55 4,14 43,62 52,72 17,18 94,68 114,77 40,17 78,26 87,41l-83 -5c-16,15 -19,19 -13,45 72,41 266,50 287,66 -42,44 -106,79 -155,110 -44,28 -64,5 -70,35 -11,49 73,30 126,34 -20,31 -117,30 -124,38 -20,50 46,47 80,67 -28,22 -84,16 -116,3 -34,-13 -31,-4 -63,-7 -18,-1 -16,-6 -32,-7 -22,-1 -15,-1 -23,8 -23,24 4,36 8,59 -19,9 -41,3 -56,21 -12,15 -14,33 -25,48 -23,33 -123,95 -163,126l-145 75c-94,31 -208,52 -303,1l-45 -28c-22,-14 -21,-13 -46,-26 -6,-35 0,-31 -15,-56 -27,0 -30,0 -49,13 -10,8 -25,20 -36,26 -32,20 -71,14 -113,13 7,-36 43,-79 15,-123 -29,-3 -39,11 -74,17 -31,5 -44,8 -80,7 5,-36 24,-23 12,-67 -21,-6 -34,0 -55,1 12,-37 23,-25 1,-61 -24,-5 -42,5 -70,4 -23,-2 -42,-5 -70,-5 10,-19 39,-32 56,-46 20,-15 35,-24 53,-40 21,-17 29,-33 46,-47 25,-20 22,-35 6,-62 -51,-7 -14,24 -132,23 9,-25 35,-28 56,-56 99,-130 65,-88 45,-138 -27,-69 -52,-210 -33,-283 4,-16 5,-33 10,-47 13,-38 39,-92 34,-129 -29,1 -24,10 -36,34 -6,12 -15,40 -21,51 -22,-1 -53,-12 -74,-17 -45,-12 -68,-45 -96,-79 -54,-64 -44,-98 -72,-197 -15,-50 -81,-61 -85,-85 31,-8 64,-4 92,-13 21,-7 -6,-7 30,0 54,9 102,-11 215,38l125 80c73,79 47,56 79,123 28,3 38,-1 55,-13l135 -82c35,-16 71,-24 106,-39 60,-25 71,-8 128,-7z"/>
   <path class="fil2" d="M2136 2409c-11,-23 -7,-41 -16,-62 -14,-30 -26,-7 -12,-56 4,-14 12,-50 14,-64 16,-125 30,-166 28,-289 0,-30 1,-48 -4,-76 -14,-74 -6,-27 -20,-57 93,-31 80,-33 127,7 49,42 16,17 54,117 22,59 16,184 23,236 3,25 15,37 29,51 13,13 32,28 47,42 15,14 22,27 38,44 71,69 201,169 183,284 0,1 -3,17 -4,18l-8 16c-16,-47 -64,-138 -104,-155 -32,-13 -44,5 -41,34 13,10 25,12 38,23 12,10 13,16 24,32 17,25 30,46 41,73 27,70 -21,118 -104,94 -7,-39 -12,-146 -58,-176 -66,26 11,51 12,147 -26,-12 -7,-9 -45,-40l-81 -84c-40,-55 -27,-30 -57,-62 -52,-55 -33,-15 -65,-53 -17,-20 -28,-21 -39,-44z"/>
   <path class="fil2" d="M2862 1750l77 -68c31,-23 71,20 92,38 96,81 61,75 102,109 46,39 53,38 103,40 34,1 32,9 57,13 25,4 40,0 66,6 33,9 120,50 135,77 -42,-1 -45,-23 -97,-20 -38,2 -77,6 -67,49 39,14 42,-12 83,-6 26,4 127,44 135,71 12,37 -11,56 -34,64 -29,-18 -30,-40 -81,-62 -28,-13 -78,-36 -110,-25l-5 32c45,24 96,16 127,54 -17,1 -131,-24 -224,-18 -94,7 -136,7 -218,-22 -76,-27 -73,-19 -122,-124 -41,-89 -44,-61 -75,-111 -12,-21 -15,-17 -25,-33 11,-21 59,-48 81,-64z"/>
   <path class="fil2" d="M1581 2222c18,-4 19,-8 33,-13 16,-4 26,-3 42,-5 16,-2 23,-8 35,-11 17,-5 25,-2 41,-6 29,-7 41,-22 60,-31l59 -29c4,36 -12,70 -23,106 -17,57 -68,107 -106,151 -25,27 -61,19 -75,55 9,30 11,15 30,31 0,33 -30,125 -58,157 -13,14 -15,26 -33,34 7,-38 33,-78 23,-122 -59,-21 -41,15 -46,59 -3,19 -27,65 -33,78 -17,-1 -28,-3 -42,-11 -3,-43 57,-115 43,-163 -53,-16 -43,64 -70,100 -16,-23 -5,-86 2,-115 16,-62 92,-111 108,-150 10,-26 12,-85 10,-115z"/>
   <path class="fil1" d="M4184 2811c30,9 66,4 91,-8 51,-26 34,-59 64,-87 27,4 45,33 63,47 124,94 113,44 243,72 60,12 127,23 179,-10 44,-28 59,-12 87,-72 18,-38 -5,0 0,-32 29,-3 56,21 70,36 22,25 24,47 17,81 -19,96 -35,128 41,175 50,31 87,42 144,17 19,-8 25,-8 40,-17 18,-12 79,-74 91,-74 49,20 -10,70 -4,97 4,16 31,28 49,9 7,-8 3,-13 15,-20 11,-7 10,-1 24,-8 21,-22 18,-152 133,-21 17,20 19,19 16,47 -4,27 3,51 0,71 -3,25 -3,8 -12,25 -7,13 -5,14 -8,29 -12,59 -24,120 11,172l39 0c27,-37 28,-60 70,-75 55,-19 57,30 77,64 19,32 45,52 50,95 9,81 -36,145 -2,182l70 74c22,21 17,8 47,20 49,19 60,5 96,-33 23,-25 35,-63 74,-71 1,44 -4,58 -22,92 -90,175 -153,94 -144,169 110,57 148,29 167,33 1,15 1,30 1,45 0,50 -19,41 -31,97 -6,26 -21,29 -25,63 -3,16 0,22 -6,35 -11,25 -37,31 36,90 65,53 136,-41 128,71 -2,40 -72,199 -92,240 -76,157 30,128 139,117 -5,53 -51,77 -72,121 -6,13 -9,23 -17,39 -38,4 -56,12 -48,54 46,17 83,-32 111,-2 25,26 -8,83 -22,103 -31,44 -127,66 -171,97 -22,16 -25,7 -46,21 -22,14 -15,19 -27,39 -20,0 -29,-4 -45,3 5,39 49,31 67,60 -5,21 -22,24 -41,33 -16,7 -23,15 -48,17 -16,1 -57,3 -72,1 -36,-4 -56,-62 -89,-21 -17,23 -7,26 3,45l22 50c9,14 19,26 24,47 -56,-16 -116,-65 -154,-103 -35,-35 -36,-25 -23,-79 8,-29 10,-77 21,-103 20,1 31,15 67,20 77,10 117,-47 145,-108 44,-93 -64,-195 -20,-262 23,-34 55,-64 63,-106 11,-58 -6,-101 -29,-138 -25,-40 -59,-58 -107,-62 -26,-2 -46,-4 -73,1 -27,6 -30,19 -59,28 7,-33 35,-131 48,-159 23,-50 75,-57 54,-135l-87 -21c5,-17 70,-58 87,-84 43,-65 49,-33 102,-67 2,-36 -9,-55 -42,-56 -40,-2 -53,-16 -82,-13 -53,4 -96,30 -138,-25 7,-45 24,-8 12,-66 -6,-26 13,-40 -19,-58 -40,17 -41,53 -45,74 -27,18 -43,26 -77,12 -21,-9 -47,-17 -71,-27 -7,-38 20,-49 24,-85 3,-22 1,-33 -10,-48 -7,-10 -16,-23 -27,-29 -48,-30 -93,-54 -164,-58l-1 -61c-29,-21 -71,-23 -112,-18 12,-64 50,-91 32,-129 -76,-19 -68,56 -136,48 -21,-42 -11,-72 -1,-112 6,-23 3,-31 14,-54 49,-98 -107,-29 -143,-14 -47,20 -75,50 -118,75 -32,-17 -52,-61 -57,-96 -3,-24 5,-20 -11,-35 -31,-16 -59,39 -72,56 -10,13 -24,27 -32,40 -8,14 -11,34 -24,45 -16,-11 -30,-32 -27,-53 3,-27 27,-29 19,-54 -8,-28 -34,-25 -52,-11 -14,13 -21,30 -27,45 -12,33 -79,177 -125,177 -8,-16 -16,-72 -22,-94 -8,-31 -26,-59 -44,-69 -60,-35 -115,43 -115,93 0,37 12,139 -2,163 -30,49 -154,38 -143,-60 5,-48 -7,-100 -33,-135 -13,-18 -21,-34 -32,-49 -52,2 -58,59 -80,96 -1,1 -1,2 -2,3 -1,1 -2,3 -3,4l-6 6c-8,-40 -11,-45 -3,-90 5,-28 23,-54 4,-74 -32,-4 -56,40 -74,60 -29,32 -36,32 -61,74 -17,30 -31,57 -49,85 -20,29 -23,62 -41,91 -37,-3 -31,-49 -46,-77 -11,-21 -73,-38 -77,-2 -3,28 17,6 19,39 3,47 -18,105 -50,135 -16,16 -134,74 -164,84 -104,34 -55,72 -73,168 -9,5 -21,1 -32,0 7,23 18,23 10,53 -5,22 -12,34 -31,39 -32,-26 1,-51 -55,-52 -34,54 -3,38 -9,139 -62,0 -91,-101 -153,-4 -42,66 82,90 109,109 -15,12 -36,5 -53,1 -21,-6 -28,-6 -45,-16 -33,-20 -60,5 -62,41 4,19 65,63 75,114 -26,-5 -42,-16 -70,-18 -42,-2 -38,8 -61,23 -26,17 -27,13 -44,39 -14,20 -18,33 -18,58 0,93 56,90 68,116 21,47 -50,91 22,181 51,64 82,54 171,49 -4,55 -10,126 -3,180 5,41 30,110 -6,138l-56 -9c-4,-34 57,-125 25,-154 -35,-19 -45,39 -83,41 -16,-34 -5,-73 -40,-109 -23,-23 -77,-25 -97,-51 16,-26 47,-27 67,-51 -1,-22 -10,-50 -29,-54 -30,-6 -16,11 -57,-12 -38,-21 -73,-21 -89,-63 20,-29 38,-61 60,-88 48,-55 -80,-40 -114,-42 4,-22 44,-59 56,-88 9,-24 53,-123 -4,-120 -29,2 -16,19 -49,15 0,-5 25,-62 32,-71 9,-11 14,-11 25,-27 8,-12 11,-19 20,-30 52,-65 111,-42 80,-111 -42,-2 -58,7 -75,-26l21 -10c5,-1 8,-2 14,-5 22,-8 49,-18 50,-42 2,-40 -29,-29 -55,-48 -31,-21 -82,-57 -87,-96 16,-5 32,-4 49,-11 25,-8 29,-22 50,-33 35,-18 25,-20 52,-50l33 -29c14,-11 22,-47 31,-63 18,-30 9,-35 -4,-64 -40,-4 -55,11 -68,-29 -25,-75 55,-73 89,-96 120,-79 269,-56 276,-154 1,-18 -2,-20 -11,-32 -60,-11 -22,42 -110,17 -5,-21 5,-27 21,-42 81,-81 107,-102 229,-108 48,-2 61,20 85,16 7,-1 19,-7 24,-9 0,-32 0,-27 -19,-42 -33,-26 -63,-61 -80,-101 -14,-32 -17,-74 17,-83 39,-11 65,11 93,24 17,8 26,10 43,19 46,24 99,27 149,15 63,-14 38,-9 66,-52l39 -54c8,-13 2,-7 12,-14 18,27 21,79 33,108 11,12 53,24 76,11 1,0 2,-1 3,-2l7 -4c2,-1 20,-10 21,-10 27,-11 7,-3 19,-1 24,4 32,-19 47,-35 55,-57 59,-123 72,-138l53 53c11,28 -6,21 17,41 24,21 47,1 74,-8 40,-14 52,-52 78,-83l25 17z"/>
   <path class="fil3" d="M4415 3349c33,12 73,104 106,49 21,-34 -24,-69 45,-128 12,9 30,51 39,68 17,30 13,49 44,66 12,-4 4,-2 13,-9 27,-23 -17,7 8,-7 33,14 33,1 56,-16 27,-20 23,-18 44,-44 26,-31 60,-64 115,-58 4,82 -81,110 19,209 21,20 37,21 72,14 -3,16 -1,10 -7,24 -23,50 -18,13 -6,50 -42,-1 -73,-12 -113,-14 -38,-3 -79,-4 -119,-4 -76,-1 -146,3 -209,37 -7,56 4,88 0,137 -4,45 -14,89 18,110 35,23 342,-9 515,27 110,23 93,39 144,62 37,16 56,22 77,-20 14,-28 7,-25 30,-25 26,34 -11,54 57,70 68,17 45,22 96,-6l82 51c35,11 56,-11 108,5 -8,21 -79,57 -103,76 -24,18 -29,29 -47,46 -31,29 -23,17 -6,53 76,6 51,-4 106,29 -6,29 -26,42 -38,67 -20,39 -22,21 -16,77 3,39 -4,50 -15,83 -15,42 -46,55 -8,89 20,18 9,24 65,-21 114,-92 240,19 197,120 -21,47 -44,59 -60,88 -3,5 -16,56 -16,61 -2,58 62,106 46,185 -7,31 -37,77 -70,87 -52,17 -76,-44 -117,-31 -47,31 -35,50 -41,110 -10,97 -41,195 -100,272l-98 123c-33,43 -77,79 -110,117 -13,16 -23,22 -36,36 -29,32 -48,41 -77,67 -25,23 -63,43 -87,64 -19,16 -28,15 -48,28 -134,90 -223,105 -384,132 -29,5 -36,11 -71,10l-216 -11c-49,-5 -71,-16 -124,-16 -72,0 -201,-19 -264,-38 -55,-15 -116,-29 -169,-53 -51,-24 -100,-51 -150,-70l-52 -26c-11,-5 -16,-5 -27,-10 -37,-17 -82,-47 -114,-71 -96,-71 -67,-55 -146,-149 -70,-82 -126,-174 -160,-284 -10,-34 -27,-82 -34,-114 -9,-45 -13,-81 -20,-127 -8,-47 -15,-247 -24,-268 -24,-29 -121,39 -174,-64 -10,-18 -10,-28 -3,-49 28,-80 15,-95 -25,-128 -78,-65 -9,-133 27,-139 21,-3 68,22 83,34 43,35 37,63 69,48 6,-41 -7,-34 -13,-64 -6,-30 -2,-30 -16,-61 -17,-36 -45,-55 -58,-94 36,8 105,27 144,7 25,-44 -7,-66 -44,-78 -22,-7 -57,-15 -69,-35 -4,-6 -2,-2 -3,-10 -1,-10 0,-12 7,-14 28,-7 -16,-3 12,-2 15,0 21,9 35,17 15,8 34,19 45,27 20,14 24,31 40,33 51,7 14,-65 16,-92 3,-59 73,-31 83,-128 8,21 31,43 61,32 21,-8 40,-29 67,-37 52,-17 299,-48 370,-43 19,1 28,6 45,5 13,-1 30,-6 48,-5 26,3 15,9 41,11l108 -2c27,-40 5,-161 20,-196 5,-12 20,-16 4,-37 -5,-7 -20,-15 -31,-22 -21,-14 -56,-14 -86,-16 -50,-4 -60,2 -103,5 -28,2 -73,4 -99,8l-179 33c6,-20 21,-35 32,-57 9,-18 9,-46 19,-63 26,24 33,62 78,61 32,-36 42,-101 67,-143 12,-21 25,-43 38,-65 15,-28 17,-48 48,-62 -3,65 1,123 58,158 21,13 28,8 45,-1 3,-33 -14,-124 38,-143 16,8 17,19 25,37 39,91 -39,145 50,202 47,30 96,34 143,-1 67,-49 72,-137 66,-214 -2,-27 6,-54 36,-56 47,16 18,232 105,162 52,-42 98,-71 130,-138z"/>
   <path class="fil4" d="M1996 6036c0,-51 -20,-138 -34,-188 -6,-21 -10,-22 -15,-42l-45 -120c-8,-15 -14,-17 -24,-33 -20,-34 -34,-72 -58,-107l-71 -94c-62,-63 -141,-177 -173,-208l-247 -300c-17,-23 -30,-41 -45,-69 -11,-21 -32,-48 -44,-64l-63 -102c-19,-29 -71,-154 -85,-189 -67,-166 -96,-374 -58,-554 13,-60 25,-123 43,-179 10,-31 20,-48 30,-78l35 -75c1,21 -5,35 -6,53 -15,173 -34,133 -10,346 15,129 50,231 88,340 23,64 29,66 52,113 7,13 9,18 16,35 19,50 85,143 115,210l395 524c8,11 9,21 18,34l47 61c72,103 139,223 185,345 36,94 79,252 78,347 -26,5 -85,-8 -124,-6z"/>
   <path class="fil5" d="M3224 3905c-37,-149 83,-154 205,-190 18,-6 33,-4 49,-8 37,-10 65,-7 102,-16 70,-16 247,-35 310,-9 1,30 2,61 -3,88 -20,108 -13,72 -192,69 -153,-2 -199,17 -330,33 -77,9 -123,36 -141,33z"/>
   <path class="fil5" d="M4574 3787c-11,-31 -16,-135 3,-162 8,-12 47,-25 61,-27 27,-3 57,-2 83,-3 53,-1 123,-2 175,6l150 27c7,16 1,12 12,23 16,-14 14,-24 42,-18 16,3 28,10 49,14 67,11 143,40 124,123 -9,39 -14,66 -30,98 -33,4 -144,-58 -228,-63 -27,-1 -59,-5 -84,-8 -99,-15 -285,12 -357,-10z"/>
   <path class="fil3" d="M4470 6144c30,-7 81,26 108,38 41,19 98,30 109,43 -15,16 -31,23 -50,34 -54,32 -173,63 -239,75 -20,4 -37,2 -57,6 -52,13 -154,19 -207,2 -52,-16 -115,-44 -147,-86l25 -9c75,-19 127,-63 145,-66 3,35 -18,40 9,63 0,0 2,1 3,2 16,13 -6,5 21,11 17,-12 24,-26 25,-53 3,-46 21,-47 25,-213 32,1 37,12 141,14 89,1 53,12 53,85 0,25 -13,132 -13,132 10,23 36,10 44,-6 11,-22 0,-44 5,-72z"/>
   <path class="fil6" d="M3911 6200c24,33 33,79 55,104 107,116 235,109 374,91 53,-7 87,-12 135,-24 65,-17 117,-43 173,-65 23,-9 25,-21 47,-35 18,-12 34,-25 51,-32 47,-19 27,-22 47,-37 29,14 40,37 25,68 -35,72 -111,106 -173,136 -63,30 -131,38 -159,48 -52,20 -131,17 -193,17 -171,-1 -333,-60 -438,-180 -12,-13 -46,-40 -28,-67 12,-18 55,-30 84,-24z"/>
   <path class="fil3" d="M2005 6073c23,-3 49,-2 71,2 51,11 30,1 42,39 39,1 83,-41 79,69 -1,55 18,134 34,185 9,29 25,53 26,85 -31,14 -71,39 -105,54l-77 47c-57,51 -54,17 -79,8 -18,-6 -10,4 -32,-10 -9,-5 -14,-12 -24,-17 -43,-23 -75,-31 -96,-69 -33,-62 -39,-218 -19,-285 7,-21 13,-40 25,-58 22,-32 35,-48 76,-48 45,1 6,15 42,22 27,5 31,-17 37,-24z"/>
   <path class="fil7" d="M1798 6813c42,19 15,66 138,52 59,-6 88,-49 105,-97 49,-135 -21,-123 104,-200 19,-11 47,-33 70,-33 8,27 -19,179 -31,206 -9,18 -14,18 -21,41 -13,48 -35,85 -68,122 -27,30 -32,31 -77,48 -47,19 -61,12 -100,-8 -43,-21 -120,-73 -120,-131z"/>
   <path class="fil7" d="M1946 6802c-29,16 -73,11 -93,-9 -48,-50 -69,-174 -65,-243 1,-16 4,-36 14,-47 12,16 7,25 25,37 12,7 31,11 45,17 16,8 71,34 85,44 -2,31 -7,55 -8,93 -2,36 3,73 -3,108z"/>
   <path class="fil5" d="M1993 6770c-10,-19 -4,-123 2,-146 37,3 34,28 25,61 -6,20 -9,76 -27,85z"/>
   <path class="fil3" d="M2205 6813c9,-31 42,-128 44,-160 2,-24 -3,-46 7,-67 18,4 19,13 35,42l91 146c41,60 82,132 128,192 11,15 21,27 33,45l101 141c14,18 20,30 30,47 13,21 20,31 35,47 19,21 15,29 29,49 55,77 58,14 90,-14 22,-19 124,-107 145,-116 14,12 20,25 31,45 29,54 65,85 97,134 21,32 35,67 54,102 31,57 4,67 -25,107 -49,67 -43,32 -78,77 -14,18 -23,19 -41,36l-145 123c-14,13 -11,7 -27,14 -32,14 -16,22 -33,50 -35,1 -26,-15 -53,-42l-23 -28c-25,-32 -95,-89 -130,-128 -78,-84 -163,-311 -209,-410 -23,-48 -40,-98 -60,-146 -21,-50 -44,-91 -66,-140 -11,-23 -19,-49 -29,-74 -22,-51 1,-46 -31,-72z"/>
   <path class="fil3" d="M5330 7690c206,-87 200,-162 246,-185 20,126 26,97 80,198 19,36 123,166 160,223 12,19 24,45 22,73 -46,22 -4,12 -80,93 -35,37 -82,109 -108,155l-150 294c-21,44 -47,149 -62,201 -10,36 -31,88 -38,138 -2,13 -1,31 -2,42 -2,13 -1,7 -6,16 -1,1 -6,5 -11,15 3,47 83,101 117,126l110 76c16,13 17,22 31,31 33,-1 37,-28 72,-27 -9,54 -78,93 -104,159 -31,75 -74,22 -110,4 -26,-12 -32,-22 -43,-44 -12,-23 -22,-28 -38,-49 -25,-32 -91,-135 -102,-166 -16,-48 -36,-92 -43,-139 -9,-70 45,-228 68,-287 19,-48 26,-82 41,-134 6,-17 18,-40 26,-61l7 -15c24,-55 41,-115 70,-181l60 -122c13,-22 37,-18 36,-53 -1,-35 -27,-27 -45,-44l-77 -103c-30,-43 -130,-195 -127,-234z"/>
   <path class="fil8" d="M4284 10228c-35,-14 -63,-35 -94,-48l-184 -63 -161 -20c-73,-10 -187,-27 -265,0 -29,10 -33,3 -65,7l-83 24c-28,10 -45,34 -74,38 -16,-49 -11,-319 -10,-393 1,-100 16,-179 30,-275 5,-32 5,-62 8,-95l71 -430c7,-30 11,-210 42,-269 18,0 37,5 53,10 65,25 55,10 137,55 24,13 54,26 79,44 28,19 244,90 281,102 22,7 83,17 110,19 40,2 80,3 119,8 59,7 55,-1 104,-7 45,-4 77,2 123,-8 51,-10 53,5 103,10 77,7 157,11 230,-12l150 -40c34,-6 141,-24 168,-21 54,76 98,309 114,413 4,32 13,59 18,89 10,62 16,123 27,184 11,60 26,116 39,172 6,31 18,49 23,82 11,65 54,160 75,246 11,47 46,113 47,161 -59,-6 -64,-25 -215,-35 -149,-10 -272,-22 -418,-5 -24,2 -31,8 -54,13 -20,4 -36,2 -55,7l-145 53c-5,-43 -15,-68 -18,-110 -3,-38 -18,-71 -25,-111 -19,-113 -13,-99 -52,-210 -24,-67 -40,-133 -68,-196l-73 -187c-38,0 -44,33 -33,61 16,39 -40,211 -50,292 -10,77 -10,143 -15,223l6 222z"/>
   <path class="fil3" d="M3810 11795c11,17 16,12 24,31 -13,13 -30,17 -44,28 -16,13 -17,29 -38,41 -21,-28 -10,-80 -23,-103 -18,-29 -26,8 -56,-129 -4,-17 -6,-30 -10,-52 -6,-33 -19,-67 -23,-101 -11,-74 -32,-138 -39,-210 -7,-62 -19,-151 -33,-214 -7,-30 -12,-73 -17,-105 -36,-221 -14,-389 -30,-590 -2,-20 4,-198 10,-218 7,-23 3,-7 8,-15 26,-15 165,-27 207,-25 40,1 181,12 211,22 9,19 -23,161 -29,194 -10,60 -39,121 -54,177 -42,155 -42,116 -66,280 -4,30 -13,75 -15,102 -6,74 -2,153 -5,227l29 610c2,27 -4,28 -7,50z"/>
   <path class="fil3" d="M4888 10224c56,-15 335,-23 374,4 30,34 63,324 65,391 2,34 8,71 11,106 9,95 6,247 1,338 -6,130 -7,457 -21,557 -5,35 -2,77 -8,111 -8,50 -25,159 -23,207 -53,-29 -83,-47 -79,-111 1,-24 -2,-43 -1,-67 13,-182 -15,-312 -25,-491 -4,-69 -54,-398 -83,-455l-81 -187c-46,-112 -141,-254 -130,-403z"/>
   <path class="fil8" d="M3770 12221l-78 -4c0,-36 15,-63 7,-101 -12,-57 -35,-62 -63,-76 -20,-10 -1,-6 -20,-10 -18,-4 -73,13 -85,25 -9,9 -18,29 -22,40 -17,-7 -19,-13 -34,-24 -38,-27 -26,-18 -35,-68 -3,-17 -4,-11 3,-26 7,-16 42,-51 65,-59 46,-17 90,11 123,29 46,24 44,39 78,81 59,-2 33,-37 60,-71l67 -66c19,-11 6,-2 23,-8 20,-6 133,-77 141,42 -26,0 -46,-9 -67,-6 -57,9 -113,24 -143,75 -36,62 -52,156 -20,227z"/>
   <path class="fil3" d="M3922 11995c44,5 3,-8 41,-16 19,-4 37,4 53,11 28,12 51,28 64,55 19,38 34,108 22,148 -2,7 -5,13 -9,21l-11 21c-30,-1 -31,-5 -63,-1 -24,2 -52,1 -73,-4 -20,-5 -40,-10 -61,-10 -28,-1 -47,9 -69,2l-15 -81c1,-44 15,-53 23,-78 12,-42 3,-32 34,-58 20,-16 36,-27 74,-24 3,10 11,-9 -10,14z"/>
   <path class="fil8" d="M5107 11930c59,-4 104,21 151,51 28,19 44,44 50,73 4,20 -4,5 7,19 5,6 23,16 35,19 18,-1 32,-51 70,-68 27,-12 90,-66 115,-6 14,32 5,54 -1,80 -7,26 -1,18 -4,42 -33,-6 -76,-69 -163,-13 -18,11 -34,45 -41,73 -9,42 12,55 17,98l-71 -1c44,-175 3,-206 -92,-275 -19,-14 -71,-26 -106,-28 -3,-28 22,-45 33,-64z"/>
   <path class="fil3" d="M3575 12090c143,-19 56,188 -6,125 -42,-42 -17,-86 6,-125z"/>
   <path class="fil3" d="M3462 12122c18,29 32,60 27,96 -5,35 5,-19 -2,9 -6,22 -60,12 -81,11 -18,-34 -37,-37 -26,-88 9,-48 39,-34 82,-28z"/>
   <path class="fil3" d="M5211 12294c-33,3 -90,-7 -129,-6 -45,1 -84,8 -129,6 -34,-56 -27,-151 27,-194 11,-8 20,-18 28,-23 13,-8 83,-39 122,-21 32,15 73,26 93,68 23,45 12,128 -12,170z"/>
   <path class="fil3" d="M3270 12253c-1,-41 1,-76 43,-64 7,14 4,18 12,29 11,16 12,4 20,27l-75 8z"/>
   <path class="fil3" d="M5515 12309l-114 -6c-10,-34 -30,-37 -22,-87 9,-54 60,-55 86,-44l43 28c5,6 3,3 7,9 17,25 15,62 4,91 -1,1 -1,3 -2,4 0,1 -1,3 -2,5z"/>
   <path class="fil3" d="M5723 12287c-20,39 -27,34 -84,32 -26,-2 -30,-5 -32,-28 -10,-131 159,-86 116,-4z"/>
   <path class="fil8" d="M3313 12288c35,11 66,1 103,0 21,0 41,4 57,4 24,0 24,-7 48,-11 35,-6 76,0 112,-2 33,-2 69,-11 102,-8 71,7 135,3 207,9 74,6 138,8 210,18 3,54 1,61 -29,65 -9,2 -19,2 -28,4l-287 -10c-63,-1 -167,9 -228,14 -50,5 -239,1 -292,-10 -22,-5 -19,-22 -17,-46 14,5 17,10 34,9 15,-25 0,-29 8,-36z"/>
   <path class="fil9" d="M4884 6299l-18 -8c-32,53 -74,109 -134,130 -19,7 -10,9 -35,18l-153 56c-63,18 -110,24 -179,27 -62,4 -146,3 -203,-6 -32,-5 -57,-12 -86,-23l-141 -70c-20,-15 -41,-25 -60,-43 -31,-29 -69,-85 -108,-100 -24,13 -41,25 -68,37 -24,10 -48,19 -69,29 -42,21 -88,51 -131,70 -39,16 -35,8 -65,38 -29,30 -57,81 -76,120 -11,24 -18,45 -27,71 -40,100 -86,182 -143,254 -14,19 -31,39 -45,58 -13,17 -28,37 -44,54l-94 101c3,17 40,75 52,91 15,18 20,22 31,41 10,18 18,25 30,42 61,81 53,98 102,187l89 201c14,31 60,213 66,221 27,-12 41,-91 59,-115 14,-19 11,-1 19,-27 16,-52 37,-430 54,-499 5,-23 13,-51 14,-75l14 -155c0,-70 -1,-91 -19,-151 -6,-20 -36,-112 10,-115 30,-2 7,0 12,5 10,11 6,9 8,29 6,65 39,121 41,191 2,48 -23,178 -33,231 -3,19 -2,41 -5,62 -4,24 -9,27 -10,58 -1,41 -9,81 -11,118l-21 241c-8,42 -10,78 -14,120 -5,43 -13,71 -18,111 -5,44 -5,76 -15,119 -26,105 -18,257 -23,369 -4,118 14,184 13,249 85,-1 48,-3 117,17 56,15 95,35 146,56 21,9 26,15 43,24 27,14 64,23 96,34 85,29 211,85 307,87 39,1 83,7 121,10 83,6 272,-16 350,-42 23,-8 34,-5 58,-11 14,-3 29,-11 45,-14 140,-34 223,-34 365,-33 41,0 78,21 113,4 2,-17 2,-61 2,-82 1,-34 -21,-179 -27,-212 -34,-177 -57,-362 -106,-533 -12,-44 -23,-85 -35,-126 -12,-43 -36,-79 -30,-125 41,-9 28,-10 59,-23 -2,-74 2,-150 0,-224 -4,-108 -49,-581 -18,-627 38,0 25,66 28,93l20 425c11,116 12,238 10,355l50 -8c31,-4 188,-78 220,-96 92,-52 269,-269 265,-363 -12,-7 -22,-14 -34,-23l-82 -78c-163,-176 -242,-321 -290,-568 -31,-160 -1,-114 -218,-208 -50,-22 -92,-49 -141,-71z"/>
   <path class="fil5" d="M4713 5547c27,0 51,3 75,3l184 -24c42,-11 167,-54 195,-77 23,-19 14,-23 31,-42 12,-15 22,-14 37,-31 21,-25 32,-57 42,-96 28,-102 -27,-72 -35,-62 -9,12 -9,39 -12,54 -6,27 -9,29 -21,47 -42,60 -82,98 -156,123 -14,5 -10,6 -25,12 -8,3 -19,5 -28,8 -18,6 -35,8 -53,14l-113 20c-91,6 -157,2 -250,-11 -48,-7 -326,-44 -367,-41 -38,3 -83,10 -125,12 -47,1 -189,25 -237,37 -84,23 -166,17 -253,15 -86,-1 -151,-29 -208,-66 -52,-35 -92,-98 -93,-180 -1,-60 -76,16 16,159 88,140 279,131 414,134 10,12 22,44 33,59 19,28 72,58 104,81 20,14 38,16 59,29 27,17 34,17 67,27l65 20c86,27 282,9 371,-12 17,-4 20,-8 35,-12 96,-27 90,-26 184,-85 28,-17 26,-25 46,-46 21,-22 24,-34 18,-69z"/>
   <path class="fil6" d="M4281 5583c-4,-34 -3,-62 10,-88 27,-2 157,13 177,23 0,15 -10,50 -15,62 -28,61 -154,14 -172,3z"/>
   <path class="fil6" d="M4056 5506c26,-8 102,-17 134,-14 13,27 22,60 10,93 -33,25 -27,-4 -68,9 -27,9 -49,12 -74,4 -7,-23 -3,-63 -2,-92z"/>
   <path class="fil5" d="M3569 3948c-45,9 -49,-5 -93,20 -65,37 -39,9 -117,58 -17,11 -24,15 -37,25 -20,16 -82,11 -130,108 -41,82 -28,228 -22,312 6,82 32,111 65,170 8,14 14,23 23,35 25,37 8,39 49,69 34,24 14,29 63,55 28,15 52,43 114,68 61,24 124,41 198,33 148,-16 228,-40 314,-154 79,-105 111,-213 94,-379l-20 -97c-11,-35 -18,-59 -34,-84 -15,-22 -7,-20 -17,-41 -8,-15 -20,-18 -32,-29 -24,-23 -21,-40 -56,-63 -14,-10 -19,-11 -33,-23l-27 -19c-60,-35 -97,-39 -139,-54 -52,-19 -110,-21 -163,-10z"/>
   <path class="fil3" d="M3232 4182c19,-8 24,-2 38,-23 22,-34 58,-68 97,-87 60,-30 106,-59 170,-73 130,-29 192,3 295,45 24,10 64,29 71,52 -141,3 -236,8 -366,36 -83,18 -207,37 -285,77 -1,0 -2,1 -3,2l-10 6c-8,5 8,1 -13,5 -2,-23 1,-18 6,-40z"/>
   <path class="fil6" d="M3826 4148c25,-5 59,6 86,7 50,1 52,-10 72,27 9,18 29,41 34,64 26,127 49,287 -16,403 -43,76 -116,167 -205,181l-81 18c-26,1 -68,1 -94,0 -47,-2 -112,-23 -149,-42l-115 -81c-31,-26 -126,-180 -134,-247 -24,-196 -26,-171 39,-222 40,-33 163,-54 220,-69 31,-8 50,-9 82,-16 79,-15 84,-17 171,-23 29,-1 64,5 90,0z"/>
   <path class="fil10" d="M4706 3966c-81,0 -188,45 -248,97 -60,51 -51,21 -77,42 -44,36 -74,215 -75,268 -2,69 32,234 65,283 33,51 133,129 188,158 48,24 66,42 125,50 43,6 40,23 161,15 27,-2 148,-42 173,-55 59,-30 148,-110 172,-173 56,-143 52,-341 -21,-473 -24,-43 -73,-89 -112,-120 -108,-86 -151,-72 -247,-99 -23,-6 -67,7 -104,7z"/>
   <path class="fil3" d="M4481 4094c16,-31 145,-73 174,-81 71,-16 163,-9 231,3 92,17 269,165 262,237 -11,-1 -52,-28 -65,-36l-110 -44c-101,-45 -59,-16 -119,-36 -95,-32 -118,-20 -179,-27 -94,-11 -108,-5 -171,-10l-19 -4c0,-2 -3,-1 -4,-2z"/>
   <path class="fil6" d="M4454 4150c81,-21 266,7 345,20 101,17 260,74 336,140 41,35 18,14 34,59 11,32 18,31 16,76 -5,111 -29,196 -104,272 -10,10 -14,13 -23,24 -56,58 -230,93 -329,78 -88,-13 -50,-6 -110,-35 -12,-6 -19,-7 -31,-14l-109 -78c-93,-74 -92,-125 -114,-262 -12,-80 0,-101 7,-176 2,-25 8,-54 20,-71 17,-24 32,-25 62,-33z"/>
   <path class="fil5" d="M2596 1260c19,1 28,4 42,-2 38,-18 29,-73 8,-97 -80,-86 -229,-18 -259,21 -31,40 -56,73 -18,131 49,4 29,-23 57,-34 57,94 22,26 77,82 -12,26 -13,7 -14,46 -2,76 -49,138 -114,171l-79 34c-74,17 -134,-10 -180,-40 -74,-49 -101,-97 -127,-97 -19,96 159,181 210,185 91,8 23,-16 85,38l110 92c15,11 65,22 41,-67 -44,-163 -10,-102 36,-158l36 -56c8,-15 10,-31 18,-43 16,7 22,25 32,37 58,75 113,60 127,72 18,28 24,44 37,78 12,28 6,70 30,79 49,17 93,-160 114,-185 15,-18 9,-18 17,-28 6,-8 84,-60 104,-151 7,-30 32,-142 27,-166 -88,-25 -3,196 -181,301 -50,30 -157,36 -200,3 -61,-47 -75,-73 -86,-156 35,-21 31,-57 50,-90z"/>
   <path class="fil6" d="M2815 1559c-6,21 -24,76 -43,84 -12,-17 -25,-42 -29,-66l72 -18z"/>
   <path class="fil6" d="M2319 1660c17,-12 28,-16 52,-18l15 75c-19,-5 -29,-13 -40,-23 -8,-7 -9,-8 -16,-16 -12,-14 -8,-14 -11,-18z"/>
   <path class="fil5" d="M2079 719c-33,12 -38,3 -97,37 -73,42 -91,63 -123,151 -23,61 -37,163 3,228 14,21 17,20 32,36 65,68 13,17 77,61 17,12 28,14 52,21 70,20 168,11 229,-25 31,-19 53,-37 76,-63 30,-33 74,-144 63,-212 -4,-22 -24,-81 -34,-101 -16,-32 -38,-43 -67,-72 -11,-12 -28,-21 -41,-27 -49,-21 -113,-55 -170,-34z"/>
   <path class="fil5" d="M2024 802c10,-26 -7,-15 16,-29 9,-5 20,-6 32,-8 23,-3 56,-12 73,2 -27,12 -44,7 -76,25l-114 82c-27,20 -23,25 -52,40 3,-56 44,-67 46,-68 18,-13 5,-20 28,-33 11,-6 33,-9 47,-11z"/>
   <path class="fil6" d="M2219 798c19,-11 58,25 68,36 70,73 72,158 40,252 -56,165 -340,174 -432,11 -39,-70 -11,-114 38,-152 69,-55 112,-112 200,-135 73,-19 48,12 86,-12z"/>
   <path class="fil5" d="M2613 617c-34,6 -66,13 -98,28 -18,8 -57,43 -66,58 -22,37 -52,237 27,303 23,18 57,62 110,77 19,5 30,11 47,15 93,18 212,-3 266,-100 50,-88 49,-203 -17,-284 -70,-86 -157,-117 -269,-97z"/>
   <path class="fil5" d="M2484 745c11,-53 16,-22 47,-54 26,-28 28,-21 68,-34 26,-9 63,-9 92,-4 23,3 58,11 72,29 -29,0 -60,-2 -89,0 -25,2 -47,12 -69,16 -59,12 -78,36 -121,47z"/>
   <path class="fil6" d="M2470 901c-1,-2 -4,-42 -5,-46 -4,-72 84,-94 129,-110 64,-23 29,-8 77,-22 28,-7 61,-6 89,0 87,18 93,17 117,73 34,76 15,159 -40,212 -70,66 -201,55 -286,0 -21,-13 -35,-22 -50,-43 -2,-4 -30,-59 -31,-64z"/>
   <path class="fil5" d="M4727 4981c-82,-11 -13,72 -78,94 -31,10 -108,-27 -131,-34 -36,-11 -56,-22 -120,25 -73,55 -141,111 -254,49 -167,-94 -178,-13 -271,-23 -23,-2 -45,-4 -50,-38 -5,-28 2,-61 2,-90 -33,10 -26,18 -33,62 -5,29 -10,63 4,87 20,34 59,30 105,34 40,2 14,3 39,12 72,26 120,-21 157,-7 23,9 32,23 65,31 44,11 126,10 161,-11 17,-10 14,-9 33,-14 74,-19 22,-25 74,-9 33,11 94,-7 120,-19 19,-9 3,-10 34,-7 104,12 90,26 131,-35 9,-14 11,-14 18,-32 13,-33 7,-48 -6,-75z"/>
   <path class="fil5" d="M2230 5806c14,-2 30,-11 33,-22l-33 -148c-38,-173 -59,-185 -120,-312 -37,-76 -113,-188 -165,-264 -16,-25 -32,-44 -53,-71 -93,-121 -199,-183 -246,-249 -17,-25 -34,-45 -50,-74 -13,-23 -22,-65 -47,-75 -36,17 -10,47 4,72 144,249 193,165 387,464 16,26 31,44 48,70 252,380 203,551 242,609z"/>
   <path class="fil5" d="M817 3954c-53,58 -44,269 -37,347 3,28 32,131 43,153 6,13 12,19 17,30l52 103c23,39 49,88 69,127 24,46 49,80 76,124l112 183c14,22 5,72 44,48 25,-15 12,-51 0,-67l-115 -179c-60,-88 -164,-284 -210,-383 -52,-108 -64,-341 -33,-425 9,-25 29,-58 -18,-61z"/>
   <path class="fil5" d="M5127 2568c34,39 31,20 50,7 58,-37 142,-39 207,-36 4,29 -25,71 -18,116 39,20 77,13 124,16 12,1 105,18 110,57 3,26 -13,36 4,61 12,17 39,30 60,43 19,11 40,28 61,41 13,9 21,14 29,23 13,17 8,19 16,37 10,26 29,33 48,54 12,13 16,15 26,26 76,81 66,114 77,181 20,-7 5,1 15,-16 0,0 6,-12 8,-17 11,-18 9,-12 3,-35 -8,-34 -13,-52 -31,-77l-46 -57c-14,-15 -46,-39 -55,-53 -20,-30 1,-37 -36,-67 -24,-19 -37,-29 -62,-47 -26,-19 -41,-23 -64,-39 -34,-24 -7,-46 -14,-84 -24,-24 -64,-43 -95,-55 -95,-35 -166,21 -123,-81 9,-23 22,-32 17,-61 -28,-15 -23,-3 -56,-3 -27,1 -48,-3 -78,-1 -48,3 -95,23 -128,24 1,-19 19,-73 -28,-48 -16,8 -13,21 -13,39 -1,26 -6,30 -8,52z"/>
   <path class="fil5" d="M5047 11356c-7,-88 -28,-182 -47,-263 -20,-83 -73,-197 -121,-265 -14,-20 -54,-61 -66,-89 -7,-15 -11,-41 -20,-55 -54,2 -24,73 -7,103 45,75 102,91 167,307 31,106 57,297 60,413 1,39 -8,118 3,146l40 -2c16,-34 -4,-244 -9,-295z"/>
   <path class="fil5" d="M3242 10590c7,-26 6,-40 3,-69 -2,-30 -5,-24 -27,-39 -23,-16 -48,-56 -62,-72 -58,-65 -64,-95 -66,-208 -1,-68 20,-312 32,-383 2,-15 44,-106 0,-82 -46,24 -44,165 -52,221 -12,83 -18,166 -19,254 -1,106 -24,102 33,173l87 113c8,10 22,30 27,41 10,21 5,33 12,55l32 -4z"/>
   <path class="fil5" d="M5727 7117c17,-16 37,-8 25,-39 -2,-4 -21,-25 -28,-35l-137 -188c-19,-19 -15,-8 -27,-35l-69 -127c-7,-19 -10,-27 -18,-44 -12,-25 -30,-127 -20,-168 19,-75 -49,-42 -45,53 4,113 138,338 214,430 28,35 63,75 76,121 6,20 11,19 29,32z"/>
   <path class="fil5" d="M5544 4608c52,4 66,-71 137,-60 6,79 -18,111 -58,195 -16,32 -26,62 -15,105 17,65 6,75 36,92 89,-30 -57,-63 58,-277 43,-80 34,-217 -78,-150 -19,11 -34,22 -53,34 -21,13 -41,24 -27,61z"/>
   <path class="fil5" d="M2762 2048c-4,26 13,54 28,78 16,26 22,46 36,73 69,127 133,110 202,128 30,7 66,7 100,9 17,1 68,30 68,-22 -1,-39 -41,-16 -89,-16 -70,-1 -166,-18 -212,-76 -21,-25 -36,-64 -53,-91 -10,-17 -18,-32 -26,-46 -9,-15 -22,-37 -34,-44l-20 7z"/>
   <path class="fil5" d="M311 2747c7,-45 -3,-69 51,-108 32,-23 54,-48 73,-87 35,-71 66,-171 59,-268 -45,0 -30,25 -52,131 -10,50 -26,97 -50,136 -21,35 -62,40 -97,88 -5,7 -30,56 -32,63 -5,32 20,51 48,45z"/>
   <path class="fil5" d="M1936 663c13,-2 15,-2 22,-13 19,-29 -1,-60 -18,-83l-79 -80c-42,-30 -195,-78 -255,-55 -16,6 -43,26 -26,41 8,8 49,-3 67,-3 77,0 181,39 229,94 32,36 38,67 60,99z"/>
   <path class="fil5" d="M3131 834c12,16 18,25 43,23 25,-44 -25,-217 -40,-262 -11,-34 -37,-78 -55,-103 -8,-11 -74,-94 -87,-96 -13,-2 -32,6 -20,30 6,12 29,34 39,45 27,27 49,63 66,99 31,67 69,177 54,264z"/>
   <path class="fil5" d="M3220 8788c44,-16 18,-59 16,-128 -2,-54 0,-104 6,-154 7,-48 11,-97 17,-143 5,-43 27,-99 19,-133 -16,0 1,-2 -10,1 -1,0 -3,1 -4,1 -60,21 -58,366 -61,421 -2,32 -16,118 17,135z"/>
   <path class="fil5" d="M715 1536c-33,-14 -22,5 -83,-17 -57,-20 -153,-42 -212,-92 -65,-55 -138,-114 -159,-196 -6,-21 -3,-25 -22,-32 -5,7 -12,4 0,43 48,154 181,242 332,292 66,22 145,80 144,2z"/>
   <path class="fil5" d="M3913 2517c3,-25 8,-48 3,-73 -58,-11 -140,40 -153,79 -37,-4 -21,-15 -46,9 5,21 16,32 40,38 44,-15 47,-80 118,-79 2,49 -32,10 -8,75 58,-1 123,-49 163,-81 17,-14 33,-26 49,-39 17,-15 21,-49 -15,-37 -22,7 -58,82 -151,108z"/>
   <path class="fil5" d="M2751 520c42,-24 28,-59 18,-100 -14,-61 -62,-142 -93,-196 -14,-23 -58,-70 -77,-74 -22,-4 -34,16 -24,34 12,24 72,36 139,224 18,50 -9,91 37,112z"/>
   <path class="fil5" d="M5386 5863c0,23 8,63 37,53 19,-14 2,-2 14,-23 12,-21 35,-28 61,-62 63,-85 46,-59 99,-144 35,-58 51,-107 81,-125 22,-12 17,-1 23,-19 -24,-10 -12,1 -26,2 -30,2 -44,-36 -62,39l-66 115c-5,6 -2,2 -7,9l-37 55c-37,51 -68,72 -117,100z"/>
   <path class="fil5" d="M4620 4265c-72,26 -66,164 59,122 93,-31 23,-153 -59,-122z"/>
   <path class="fil5" d="M5496 4662c-25,18 -42,69 -42,103 0,32 43,80 71,67 25,-13 46,-58 45,-103 -1,-39 -28,-101 -74,-67z"/>
   <path class="fil5" d="M2977 4480c-27,14 -53,54 -44,97 2,13 15,34 22,50 10,21 29,30 51,22 70,-25 40,-205 -29,-169z"/>
   <path class="fil5" d="M4052 4797c-5,24 -1,31 11,48 48,7 125,-58 267,-9 28,9 59,49 62,7 3,-50 -104,-56 -148,-65 -59,-12 -134,9 -192,19z"/>
   <path class="fil5" d="M2267 991c36,-78 -87,-126 -126,-44 -45,96 101,97 126,44z"/>
   <path class="fil5" d="M3735 4358c12,-22 3,-80 -26,-88 -43,-14 -71,11 -83,39 -14,37 1,79 30,87 31,9 73,-27 79,-38z"/>
   <path class="fil5" d="M2694 924c33,-72 -92,-110 -111,-42 -24,88 82,106 111,42z"/>
   <path class="fil5" d="M639 3024c-8,79 112,32 112,32 45,-10 108,-45 122,-71 11,-21 1,-56 -32,-33 -24,16 -27,54 -117,70 -32,6 -60,-3 -85,2z"/>
   <path class="fil5" d="M662 4474c-3,34 62,148 83,182 15,24 30,32 55,11 0,-19 -40,-75 -53,-96 -26,-40 -26,-71 -45,-109 -20,-4 -30,4 -40,12z"/>
   <path class="fil5" d="M5942 2903c3,39 45,39 89,129 11,22 10,43 18,60 12,4 23,6 30,-11 13,-34 -17,-74 -34,-99 -12,-19 -26,-32 -40,-53 -17,-22 -26,-40 -63,-26z"/>
   <path class="fil5" d="M413 1565c12,-31 -4,-35 -69,-68 -45,-23 -54,-34 -71,-81 -60,14 -14,73 18,93 42,26 67,34 89,47 15,9 10,11 33,9z"/>
   <path class="fil5" d="M4871 11213c-2,-36 9,-76 -40,-62 -34,9 -12,45 -8,77 4,29 7,59 22,76l15 -1c21,-25 12,-55 11,-90z"/>
   <path class="fil5" d="M3267 681c53,-8 3,-132 -10,-172 -15,1 -36,7 -41,23 -4,17 12,24 18,45 7,22 18,92 33,104z"/>
   <path class="fil5" d="M3112 2423c15,35 94,36 130,46 17,4 32,3 36,-16 8,-40 -18,-15 -83,-35 -29,-10 -67,-31 -83,5z"/>
   <path class="fil5" d="M5609 6724c15,33 46,108 85,108 5,-21 -2,-32 -11,-48 -44,-75 -16,-104 -67,-107 -12,21 -22,11 -7,47z"/>
   <path class="fil5" d="M351 2411c-26,14 -25,37 -55,54 -16,9 -28,7 -31,21 -6,20 16,26 31,26 28,-1 45,-30 61,-49 5,-6 19,-21 21,-32 3,-14 6,-10 -3,-20 -16,-15 -21,-1 -24,0z"/>
   <path class="fil5" d="M3081 8571c20,-9 21,-39 26,-66 9,-58 3,-62 -16,-76 -32,7 -29,27 -29,65 0,25 -3,66 19,77z"/>
   <path class="fil5" d="M2936 9944c-7,15 -58,110 -12,126 27,10 47,-102 43,-126l-31 0z"/>
   <path class="fil5" d="M2252 5286c4,15 17,27 31,60 5,11 8,24 13,34 10,20 4,18 30,13 13,-49 -25,-116 -55,-127 -15,7 -7,5 -19,20z"/>
   <path class="fil5" d="M5759 5615c-10,7 -3,0 -11,12 -3,5 -3,7 -7,13 -6,12 -11,17 -20,27 -39,45 19,49 71,-17 24,-31 -13,-48 -33,-35z"/>
   <path class="fil2" d="M1785 1118c-3,1 -5,1 -8,1 -6,0 -12,-4 -15,-9 -16,22 -46,36 -65,53 -14,12 -25,23 -39,38 -20,24 -18,21 -54,18 -19,53 -48,19 -58,121 -38,359 122,354 60,431 -39,2 -34,-14 -52,-39 -15,-22 -21,-29 -31,-57 -17,-47 -35,-79 -42,-139 -15,-129 51,-265 48,-304 -25,-13 -79,-33 -107,-34 15,38 35,21 52,49 -9,37 -41,28 -76,28 9,24 28,23 46,39 -8,36 -15,36 -46,44 -7,30 -16,46 -24,75 -22,82 -25,169 6,246 91,231 136,214 148,233 5,28 -5,43 -25,53 -30,-5 -37,-32 -53,-51 -14,-17 -32,-30 -47,-51l-55 -101c-13,-37 -36,-72 -38,-113 -2,-37 -10,-48 -17,-79 -24,-122 -3,-121 -2,-173 -53,42 -46,88 -93,88l-16 -33 44 -55c-26,-48 -153,-103 -206,-116 -136,-32 -189,68 -332,12 -36,-14 -28,4 -52,-25 -30,-39 -40,-35 -70,-89 -48,-85 -56,-152 -92,-224 -11,-21 -21,-34 -31,-51 -44,-78 -137,-162 -235,-164 -25,0 -50,1 -70,9 -67,26 -108,60 -62,130 21,32 57,52 96,63 63,18 55,4 121,40 27,15 83,37 91,66 -17,-5 -15,-10 -35,-16 11,27 25,10 54,19 11,4 27,23 41,36 -6,5 1,0 -7,4l-6 1c14,13 55,47 35,78 -23,-8 -58,-89 -121,-105 8,58 56,119 84,168 9,16 18,37 28,49 48,57 111,91 205,115 159,39 331,-69 428,113 6,12 7,18 11,29l17 24c6,-21 27,-37 55,-28 11,29 -3,18 -38,77 -32,53 -60,103 -84,163l-53 191c-7,34 -12,64 -19,99 -7,41 6,81 -27,96 -53,24 -105,61 -155,88 -32,17 -57,20 -76,48 -30,44 -32,135 -44,197 -29,145 -115,230 -113,254 1,23 34,59 52,66 33,-9 81,-73 94,-101 14,-31 14,-48 16,-84 3,-88 93,-48 15,110 -13,26 -76,93 -77,105 72,14 99,8 131,-45 39,-65 21,-110 35,-157 84,-40 13,134 7,168 28,-13 28,-23 45,-38 42,-39 82,-91 92,-156 4,-29 -9,-49 -1,-73 5,-18 31,-30 43,-39 115,-90 177,-78 260,-235 11,-20 20,-30 27,-56 19,-80 47,-105 42,-201l8 6c56,46 -4,98 8,154 86,7 188,21 270,-2 95,-27 111,-30 206,-84l81 -62c22,-26 21,-89 20,-127 0,-17 -20,-129 15,-110 28,15 13,178 26,222 9,30 -3,20 -14,41 -11,20 -17,71 -26,97 -23,64 -46,122 -66,183 -20,59 -45,119 -69,178 -22,53 -48,120 -75,173 -56,112 -112,218 -178,316 -42,62 -179,253 -199,295 14,-7 239,-226 297,-274 78,-64 216,-221 263,-304 90,-158 109,-245 152,-416 23,-93 53,-277 44,-377 -12,-124 -2,-74 8,-115 -47,-1 -106,9 -141,-4 -10,-41 1,-30 19,-53 12,-15 20,-37 10,-54 -6,-2 -132,27 -177,6 -9,-25 -3,-35 5,-52 -56,-25 -68,8 -80,-63 -35,-6 -159,11 -132,-46 13,-27 155,-86 174,-123 -16,-9 -21,-6 -44,-6 -15,0 -31,0 -46,0 -35,-1 -45,4 -67,-20 -17,-41 89,-70 111,-90 31,-29 76,-74 55,-121 -7,-16 -13,-38 -18,-62z"/>
   <path class="fil8" d="M5693 12442c-68,8 -138,-5 -203,-2 -69,4 -141,-4 -206,-7 -68,-3 -144,13 -205,7 -66,-7 -126,16 -191,-11 -11,-106 3,-64 112,-82 31,-5 85,-2 118,-2 37,0 364,10 394,22 24,8 -10,10 51,1 31,-4 72,8 107,10 26,1 38,-2 35,25 -1,9 -11,38 -12,39z"/>
   <path class="fil7" d="M2100 1806l0 40 0 1c0,13 1,35 5,74 9,100 -21,284 -44,377 -43,171 -62,258 -152,416 -47,83 -185,240 -263,304 -58,48 -283,267 -297,274 20,-42 157,-233 199,-295 66,-98 122,-204 178,-316 27,-53 53,-120 75,-173 24,-59 49,-119 69,-178 20,-61 43,-119 66,-183 9,-26 15,-77 26,-97 11,-21 23,-11 14,-41 -11,-37 -2,-158 -16,-205l0 0 0 -103c23,-3 39,-6 41,-6 10,17 2,39 -10,54 -18,23 -29,12 -19,53 32,12 83,4 128,4z"/>
   <path class="fil7" d="M1992 6036c1,-51 -20,-138 -33,-188 -6,-21 -10,-22 -15,-42l-45 -120c-8,-15 -14,-17 -24,-33 -20,-34 -34,-72 -58,-107l-71 -94c-62,-63 -142,-177 -173,-208l-247 -300c-17,-23 -30,-41 -45,-69 -11,-21 -32,-48 -44,-64l-63 -102c-19,-29 -72,-154 -86,-189 -66,-166 -95,-374 -57,-554 12,-60 24,-123 43,-179 10,-31 20,-48 30,-78l35 -75c1,21 -5,35 -6,53 -16,173 -34,133 -10,346 14,129 50,231 88,340 23,64 29,66 52,113 7,13 9,18 16,35 19,50 85,143 115,210l395 524c8,11 9,21 18,34l47 61c72,103 139,223 185,345 36,94 79,252 78,347 -26,5 -85,-8 -125,-6z"/>
  </g>
 </g>
</svg>
